G04 Layer_Color=13813960*
%FSLAX23Y23*%
%MOIN*%
G70*
G01*
G75*
%ADD28C,0.010*%
%ADD30C,0.008*%
%ADD58C,0.004*%
%ADD59C,0.008*%
%ADD60C,0.005*%
%ADD61C,0.007*%
%ADD101C,0.006*%
%ADD102C,0.006*%
G36*
X12835Y12351D02*
X12836Y12351D01*
X12837Y12351D01*
X12838Y12351D01*
X12839Y12351D01*
X12839Y12351D01*
X12839Y12350D01*
X12840Y12350D01*
X12841Y12350D01*
X12842Y12349D01*
X12843Y12349D01*
X12844Y12348D01*
X12844Y12348D01*
X12845Y12348D01*
X12845Y12347D01*
X12845Y12347D01*
X12846Y12346D01*
X12847Y12345D01*
X12847Y12345D01*
X12848Y12344D01*
X12848Y12344D01*
X12848Y12343D01*
X12848Y12343D01*
X12849Y12342D01*
X12849Y12341D01*
X12849Y12340D01*
X12849Y12340D01*
X12849Y12339D01*
X12849Y12338D01*
Y12338D01*
Y12338D01*
X12849Y12337D01*
X12849Y12336D01*
X12849Y12335D01*
X12849Y12334D01*
X12849Y12334D01*
X12848Y12333D01*
X12848Y12333D01*
X12848Y12333D01*
X12847Y12331D01*
X12847Y12331D01*
X12846Y12330D01*
X12846Y12330D01*
X12845Y12329D01*
X12845Y12329D01*
X12845Y12329D01*
X12843Y12328D01*
X12842Y12327D01*
X12842Y12327D01*
X12841Y12327D01*
X12840Y12327D01*
X12840Y12326D01*
X12840Y12326D01*
X12838Y12326D01*
X12837Y12325D01*
X12836Y12325D01*
X12835Y12325D01*
X12834Y12325D01*
X12834Y12325D01*
X12834D01*
X12833Y12324D01*
X12832Y12324D01*
X12831Y12324D01*
X12830Y12324D01*
X12830Y12324D01*
X12829Y12323D01*
X12829Y12323D01*
X12829D01*
X12828Y12323D01*
X12827Y12322D01*
X12827Y12322D01*
X12826Y12322D01*
X12826Y12322D01*
X12825Y12321D01*
X12825Y12321D01*
X12825Y12321D01*
X12825Y12320D01*
X12825Y12319D01*
Y12319D01*
Y12319D01*
X12825Y12318D01*
X12825Y12318D01*
X12825Y12317D01*
X12825Y12316D01*
X12826Y12316D01*
X12826Y12316D01*
X12826Y12316D01*
X12826Y12316D01*
X12827Y12315D01*
X12828Y12315D01*
X12830Y12315D01*
X12830Y12314D01*
X12831Y12314D01*
X12831D01*
X12833Y12314D01*
X12834Y12315D01*
X12834Y12315D01*
X12834D01*
X12834Y12315D01*
X12835D01*
X12836Y12315D01*
X12836Y12315D01*
X12837Y12316D01*
X12837Y12316D01*
X12837D01*
X12838Y12316D01*
X12838Y12317D01*
X12839Y12318D01*
X12839Y12318D01*
Y12318D01*
X12839Y12319D01*
X12839Y12320D01*
X12840Y12320D01*
Y12321D01*
Y12321D01*
Y12321D01*
X12851D01*
X12851Y12320D01*
X12851Y12319D01*
X12850Y12318D01*
X12850Y12317D01*
X12850Y12316D01*
X12850Y12316D01*
X12850Y12316D01*
X12850Y12315D01*
X12849Y12315D01*
X12848Y12314D01*
X12848Y12313D01*
X12847Y12312D01*
X12847Y12312D01*
X12846Y12311D01*
X12846Y12311D01*
X12846Y12311D01*
X12845Y12310D01*
X12844Y12309D01*
X12843Y12309D01*
X12842Y12308D01*
X12841Y12308D01*
X12840Y12308D01*
X12840Y12307D01*
X12840Y12307D01*
X12839Y12307D01*
X12837Y12307D01*
X12836Y12306D01*
X12835Y12306D01*
X12833Y12306D01*
X12833Y12306D01*
X12830D01*
X12829Y12306D01*
X12827Y12306D01*
X12826Y12307D01*
X12825Y12307D01*
X12825Y12307D01*
X12824Y12307D01*
X12824D01*
X12823Y12307D01*
X12822Y12308D01*
X12821Y12308D01*
X12820Y12309D01*
X12819Y12309D01*
X12819Y12310D01*
X12818Y12310D01*
X12818Y12310D01*
X12817Y12310D01*
X12817Y12311D01*
X12816Y12312D01*
X12815Y12313D01*
X12815Y12313D01*
X12815Y12314D01*
X12815Y12314D01*
X12815Y12314D01*
X12814Y12315D01*
X12814Y12316D01*
X12814Y12317D01*
X12813Y12318D01*
X12813Y12318D01*
X12813Y12319D01*
Y12319D01*
Y12319D01*
X12813Y12321D01*
X12813Y12322D01*
X12814Y12323D01*
X12814Y12323D01*
X12814Y12324D01*
X12814Y12325D01*
X12814Y12325D01*
X12815Y12325D01*
X12815Y12326D01*
X12816Y12327D01*
X12816Y12327D01*
X12817Y12328D01*
X12817Y12328D01*
X12818Y12329D01*
X12818Y12329D01*
X12818Y12329D01*
X12820Y12330D01*
X12821Y12330D01*
X12821Y12331D01*
X12822Y12331D01*
X12823Y12331D01*
X12823Y12332D01*
X12823D01*
X12826Y12332D01*
X12827Y12333D01*
X12828Y12333D01*
X12829Y12333D01*
X12829Y12333D01*
X12830Y12333D01*
X12830D01*
X12831Y12334D01*
X12832Y12334D01*
X12833Y12334D01*
X12833Y12334D01*
X12833Y12334D01*
X12834Y12334D01*
X12834D01*
X12835Y12335D01*
X12836Y12335D01*
X12836Y12335D01*
X12836Y12335D01*
X12836D01*
X12837Y12336D01*
X12837Y12336D01*
X12838Y12337D01*
X12838Y12337D01*
X12838Y12337D01*
X12838Y12338D01*
X12838Y12338D01*
Y12338D01*
X12838Y12339D01*
X12838Y12340D01*
X12838Y12340D01*
X12837Y12341D01*
X12837Y12341D01*
X12837Y12342D01*
X12837Y12342D01*
X12836Y12342D01*
X12836Y12342D01*
X12835Y12343D01*
X12834Y12343D01*
X12834Y12343D01*
X12833Y12343D01*
X12832Y12343D01*
X12832D01*
X12831Y12343D01*
X12830Y12343D01*
X12829Y12343D01*
X12828Y12342D01*
X12827Y12342D01*
X12827Y12342D01*
X12827Y12342D01*
X12827Y12342D01*
X12826Y12341D01*
X12826Y12340D01*
X12825Y12339D01*
X12825Y12339D01*
X12825Y12338D01*
X12825Y12338D01*
Y12337D01*
Y12337D01*
X12813D01*
X12813Y12338D01*
X12814Y12340D01*
X12814Y12341D01*
X12814Y12341D01*
X12814Y12342D01*
X12814Y12343D01*
X12815Y12343D01*
X12815Y12343D01*
X12815Y12344D01*
X12816Y12345D01*
X12816Y12346D01*
X12817Y12346D01*
X12818Y12347D01*
X12818Y12347D01*
X12818Y12347D01*
X12818Y12348D01*
X12819Y12348D01*
X12820Y12349D01*
X12821Y12349D01*
X12822Y12350D01*
X12823Y12350D01*
X12824Y12350D01*
X12824Y12350D01*
X12824D01*
X12825Y12351D01*
X12827Y12351D01*
X12828Y12351D01*
X12829Y12352D01*
X12830D01*
X12831Y12352D01*
X12833D01*
X12835Y12351D01*
D02*
G37*
G36*
X12972Y12352D02*
X12974Y12351D01*
X12975Y12351D01*
X12977Y12351D01*
X12978Y12350D01*
X12978Y12350D01*
X12979Y12350D01*
X12979Y12350D01*
X12981Y12349D01*
X12982Y12348D01*
X12983Y12348D01*
X12984Y12347D01*
X12985Y12346D01*
X12985Y12346D01*
X12985Y12345D01*
X12986Y12345D01*
X12987Y12344D01*
X12987Y12343D01*
X12988Y12342D01*
X12989Y12340D01*
X12989Y12340D01*
X12989Y12339D01*
X12990Y12338D01*
X12990Y12338D01*
Y12338D01*
X12990Y12337D01*
X12990Y12335D01*
X12991Y12333D01*
X12991Y12332D01*
X12991Y12331D01*
X12991Y12330D01*
Y12330D01*
Y12329D01*
Y12329D01*
Y12329D01*
Y12328D01*
X12991Y12327D01*
X12991Y12325D01*
X12991Y12323D01*
X12990Y12322D01*
X12990Y12321D01*
X12990Y12320D01*
X12990Y12320D01*
X12990Y12319D01*
Y12319D01*
X12989Y12318D01*
X12988Y12317D01*
X12988Y12315D01*
X12987Y12314D01*
X12987Y12313D01*
X12986Y12313D01*
X12986Y12312D01*
X12986Y12312D01*
X12985Y12311D01*
X12983Y12310D01*
X12982Y12310D01*
X12981Y12309D01*
X12980Y12308D01*
X12980Y12308D01*
X12979Y12308D01*
X12979Y12308D01*
X12978Y12307D01*
X12976Y12307D01*
X12974Y12306D01*
X12973Y12306D01*
X12972Y12306D01*
X12971Y12306D01*
X12970D01*
X12968Y12306D01*
X12967Y12306D01*
X12965Y12307D01*
X12964Y12307D01*
X12963Y12307D01*
X12962Y12307D01*
X12961Y12308D01*
X12961Y12308D01*
X12960Y12308D01*
X12959Y12309D01*
X12957Y12310D01*
X12957Y12311D01*
X12956Y12311D01*
X12955Y12312D01*
X12955Y12312D01*
X12955Y12312D01*
X12954Y12313D01*
X12953Y12315D01*
X12952Y12316D01*
X12952Y12317D01*
X12951Y12318D01*
X12951Y12319D01*
X12951Y12319D01*
X12951Y12319D01*
X12950Y12321D01*
X12950Y12323D01*
X12950Y12324D01*
X12950Y12325D01*
X12949Y12327D01*
X12949Y12327D01*
Y12328D01*
Y12328D01*
Y12328D01*
Y12328D01*
Y12329D01*
X12949Y12331D01*
X12950Y12333D01*
X12950Y12334D01*
X12950Y12335D01*
X12950Y12337D01*
X12951Y12337D01*
X12951Y12338D01*
X12951Y12338D01*
X12951Y12340D01*
X12952Y12341D01*
X12953Y12342D01*
X12953Y12343D01*
X12954Y12344D01*
X12954Y12345D01*
X12955Y12345D01*
X12955Y12345D01*
X12956Y12346D01*
X12957Y12347D01*
X12958Y12348D01*
X12959Y12349D01*
X12960Y12349D01*
X12961Y12350D01*
X12961Y12350D01*
X12961Y12350D01*
X12961D01*
X12963Y12350D01*
X12964Y12351D01*
X12966Y12351D01*
X12967Y12351D01*
X12968Y12352D01*
X12969Y12352D01*
X12970D01*
X12972Y12352D01*
D02*
G37*
G36*
X13155Y12275D02*
X13156Y12275D01*
X13157Y12275D01*
X13158Y12275D01*
X13159Y12274D01*
X13160Y12274D01*
X13160Y12274D01*
X13160Y12274D01*
X13161Y12274D01*
X13162Y12273D01*
X13163Y12273D01*
X13164Y12272D01*
X13165Y12272D01*
X13165Y12271D01*
X13165Y12271D01*
X13165Y12271D01*
X13166Y12270D01*
X13167Y12269D01*
X13167Y12268D01*
X13168Y12268D01*
X13168Y12267D01*
X13168Y12266D01*
X13169Y12266D01*
X13169Y12266D01*
X13169Y12265D01*
X13169Y12264D01*
X13169Y12263D01*
X13170Y12262D01*
X13170Y12261D01*
X13170Y12261D01*
Y12260D01*
Y12260D01*
Y12260D01*
X13160D01*
X13160Y12261D01*
X13160Y12262D01*
X13160Y12262D01*
X13160Y12263D01*
X13160Y12263D01*
X13160Y12263D01*
Y12263D01*
X13160Y12264D01*
X13159Y12265D01*
X13159Y12265D01*
X13159Y12266D01*
X13159Y12266D01*
Y12266D01*
X13158Y12266D01*
X13157Y12267D01*
X13157Y12267D01*
X13157Y12267D01*
X13157Y12267D01*
X13157D01*
X13156Y12268D01*
X13155Y12268D01*
X13154Y12268D01*
X13154D01*
X13153Y12268D01*
X13152Y12268D01*
X13151Y12267D01*
X13150Y12267D01*
X13150Y12267D01*
X13150Y12266D01*
X13149Y12266D01*
X13149Y12266D01*
X13149Y12265D01*
X13148Y12265D01*
X13148Y12264D01*
X13148Y12263D01*
X13148Y12262D01*
X13148Y12262D01*
Y12261D01*
Y12261D01*
Y12261D01*
X13148Y12260D01*
X13148Y12260D01*
X13148Y12260D01*
Y12259D01*
X13148Y12259D01*
Y12259D01*
X13148Y12258D01*
X13149Y12258D01*
X13149Y12257D01*
X13149Y12257D01*
X13149Y12257D01*
Y12257D01*
X13150Y12256D01*
X13150Y12255D01*
X13150Y12255D01*
X13151Y12254D01*
X13151Y12254D01*
X13151Y12254D01*
X13152Y12253D01*
X13153Y12252D01*
X13153Y12251D01*
X13153Y12251D01*
X13154Y12251D01*
X13154Y12251D01*
X13169Y12234D01*
Y12228D01*
X13137D01*
Y12236D01*
X13157D01*
X13149Y12244D01*
X13148Y12245D01*
X13147Y12246D01*
X13146Y12247D01*
X13146Y12247D01*
X13145Y12248D01*
X13145Y12248D01*
X13144Y12249D01*
X13144Y12249D01*
X13143Y12251D01*
X13143Y12251D01*
X13142Y12252D01*
X13142Y12252D01*
X13141Y12253D01*
X13141Y12253D01*
X13141Y12253D01*
X13140Y12255D01*
X13140Y12256D01*
X13140Y12256D01*
X13139Y12257D01*
X13139Y12257D01*
X13139Y12258D01*
Y12258D01*
X13139Y12259D01*
X13139Y12260D01*
X13138Y12261D01*
X13138Y12261D01*
Y12262D01*
Y12262D01*
Y12262D01*
X13138Y12263D01*
X13139Y12264D01*
X13139Y12265D01*
X13139Y12266D01*
X13139Y12267D01*
X13139Y12267D01*
X13139Y12268D01*
X13139Y12268D01*
X13140Y12269D01*
X13140Y12269D01*
X13141Y12270D01*
X13141Y12271D01*
X13142Y12271D01*
X13142Y12272D01*
X13142Y12272D01*
X13142Y12272D01*
X13143Y12272D01*
X13144Y12273D01*
X13145Y12273D01*
X13145Y12274D01*
X13146Y12274D01*
X13147Y12274D01*
X13147Y12274D01*
X13147Y12274D01*
X13148Y12275D01*
X13149Y12275D01*
X13150Y12275D01*
X13151Y12275D01*
X13152Y12275D01*
X13153Y12275D01*
X13154D01*
X13155Y12275D01*
D02*
G37*
G36*
X13091Y12268D02*
Y12260D01*
X13080Y12264D01*
Y12228D01*
X13071D01*
Y12275D01*
X13072D01*
X13091Y12268D01*
D02*
G37*
G36*
X13066Y12352D02*
X13068Y12351D01*
X13069Y12351D01*
X13071Y12351D01*
X13072Y12350D01*
X13072Y12350D01*
X13073Y12350D01*
X13073Y12350D01*
X13074Y12349D01*
X13076Y12348D01*
X13077Y12348D01*
X13078Y12347D01*
X13079Y12346D01*
X13079Y12346D01*
X13079Y12345D01*
X13080Y12345D01*
X13080Y12344D01*
X13081Y12343D01*
X13082Y12342D01*
X13083Y12340D01*
X13083Y12340D01*
X13083Y12339D01*
X13084Y12338D01*
X13084Y12338D01*
Y12338D01*
X13084Y12337D01*
X13084Y12335D01*
X13085Y12333D01*
X13085Y12332D01*
X13085Y12331D01*
X13085Y12330D01*
Y12330D01*
Y12329D01*
Y12329D01*
Y12329D01*
Y12328D01*
X13085Y12327D01*
X13085Y12325D01*
X13085Y12323D01*
X13084Y12322D01*
X13084Y12321D01*
X13084Y12320D01*
X13084Y12320D01*
X13084Y12319D01*
Y12319D01*
X13083Y12318D01*
X13082Y12317D01*
X13082Y12315D01*
X13081Y12314D01*
X13080Y12313D01*
X13080Y12313D01*
X13080Y12312D01*
X13080Y12312D01*
X13079Y12311D01*
X13077Y12310D01*
X13076Y12310D01*
X13075Y12309D01*
X13074Y12308D01*
X13074Y12308D01*
X13073Y12308D01*
X13073Y12308D01*
X13072Y12307D01*
X13070Y12307D01*
X13068Y12306D01*
X13067Y12306D01*
X13066Y12306D01*
X13065Y12306D01*
X13064D01*
X13062Y12306D01*
X13061Y12306D01*
X13059Y12307D01*
X13058Y12307D01*
X13057Y12307D01*
X13056Y12307D01*
X13055Y12308D01*
X13055Y12308D01*
X13054Y12308D01*
X13053Y12309D01*
X13051Y12310D01*
X13051Y12311D01*
X13050Y12311D01*
X13049Y12312D01*
X13049Y12312D01*
X13049Y12312D01*
X13048Y12313D01*
X13047Y12315D01*
X13046Y12316D01*
X13046Y12317D01*
X13045Y12318D01*
X13045Y12319D01*
X13045Y12319D01*
X13045Y12319D01*
X13044Y12321D01*
X13044Y12323D01*
X13044Y12324D01*
X13043Y12325D01*
X13043Y12327D01*
X13043Y12327D01*
Y12328D01*
Y12328D01*
Y12328D01*
Y12328D01*
Y12329D01*
X13043Y12331D01*
X13043Y12333D01*
X13044Y12334D01*
X13044Y12335D01*
X13044Y12337D01*
X13045Y12337D01*
X13045Y12338D01*
X13045Y12338D01*
X13045Y12340D01*
X13046Y12341D01*
X13047Y12342D01*
X13047Y12343D01*
X13048Y12344D01*
X13048Y12345D01*
X13049Y12345D01*
X13049Y12345D01*
X13050Y12346D01*
X13051Y12347D01*
X13052Y12348D01*
X13053Y12349D01*
X13054Y12349D01*
X13055Y12350D01*
X13055Y12350D01*
X13055Y12350D01*
X13055D01*
X13057Y12350D01*
X13058Y12351D01*
X13060Y12351D01*
X13061Y12351D01*
X13062Y12352D01*
X13063Y12352D01*
X13064D01*
X13066Y12352D01*
D02*
G37*
G36*
X12913Y12307D02*
X12902D01*
Y12351D01*
X12913D01*
Y12307D01*
D02*
G37*
G36*
X13135D02*
X13123D01*
Y12328D01*
X13114D01*
X13103Y12307D01*
X13089D01*
Y12307D01*
X13102Y12332D01*
X13100Y12332D01*
X13100Y12333D01*
X13099Y12333D01*
X13099Y12334D01*
X13098Y12334D01*
X13098Y12334D01*
X13098Y12334D01*
X13096Y12335D01*
X13095Y12336D01*
X13095Y12337D01*
X13095Y12337D01*
X13095Y12338D01*
X13094Y12338D01*
X13094Y12339D01*
X13093Y12340D01*
X13093Y12341D01*
X13093Y12341D01*
X13092Y12342D01*
X13092Y12342D01*
Y12342D01*
X13092Y12344D01*
X13092Y12345D01*
X13092Y12346D01*
X13092Y12347D01*
Y12348D01*
Y12348D01*
Y12348D01*
X13092Y12350D01*
X13092Y12351D01*
X13092Y12352D01*
X13092Y12354D01*
X13093Y12354D01*
X13093Y12355D01*
X13093Y12356D01*
X13093Y12356D01*
X13094Y12357D01*
X13094Y12358D01*
X13095Y12359D01*
X13096Y12360D01*
X13096Y12360D01*
X13097Y12361D01*
X13097Y12361D01*
X13097Y12361D01*
X13099Y12362D01*
X13100Y12363D01*
X13101Y12363D01*
X13102Y12364D01*
X13103Y12364D01*
X13104Y12365D01*
X13104Y12365D01*
X13104Y12365D01*
X13104D01*
X13106Y12365D01*
X13107Y12365D01*
X13109Y12366D01*
X13110Y12366D01*
X13112Y12366D01*
X13113Y12366D01*
X13135D01*
Y12307D01*
D02*
G37*
G36*
X13229Y12352D02*
X13231Y12351D01*
X13232Y12351D01*
X13234Y12351D01*
X13235Y12350D01*
X13236Y12350D01*
X13236Y12350D01*
X13236Y12350D01*
X13238Y12349D01*
X13239Y12348D01*
X13240Y12348D01*
X13241Y12347D01*
X13242Y12346D01*
X13242Y12346D01*
X13243Y12345D01*
X13243Y12345D01*
X13244Y12344D01*
X13245Y12343D01*
X13245Y12342D01*
X13246Y12340D01*
X13246Y12340D01*
X13247Y12339D01*
X13247Y12338D01*
X13247Y12338D01*
Y12338D01*
X13247Y12337D01*
X13248Y12335D01*
X13248Y12333D01*
X13248Y12332D01*
X13248Y12331D01*
X13248Y12330D01*
Y12330D01*
Y12329D01*
Y12329D01*
Y12329D01*
Y12328D01*
X13248Y12327D01*
X13248Y12325D01*
X13248Y12323D01*
X13248Y12322D01*
X13247Y12321D01*
X13247Y12320D01*
X13247Y12320D01*
X13247Y12319D01*
Y12319D01*
X13246Y12318D01*
X13246Y12317D01*
X13245Y12315D01*
X13244Y12314D01*
X13244Y12313D01*
X13243Y12313D01*
X13243Y12312D01*
X13243Y12312D01*
X13242Y12311D01*
X13241Y12310D01*
X13240Y12310D01*
X13239Y12309D01*
X13238Y12308D01*
X13237Y12308D01*
X13236Y12308D01*
X13236Y12308D01*
X13235Y12307D01*
X13233Y12307D01*
X13232Y12306D01*
X13230Y12306D01*
X13229Y12306D01*
X13228Y12306D01*
X13227D01*
X13226Y12306D01*
X13224Y12306D01*
X13222Y12307D01*
X13221Y12307D01*
X13220Y12307D01*
X13219Y12307D01*
X13219Y12308D01*
X13219Y12308D01*
X13217Y12308D01*
X13216Y12309D01*
X13215Y12310D01*
X13214Y12311D01*
X13213Y12311D01*
X13212Y12312D01*
X13212Y12312D01*
X13212Y12312D01*
X13211Y12313D01*
X13210Y12315D01*
X13210Y12316D01*
X13209Y12317D01*
X13209Y12318D01*
X13208Y12319D01*
X13208Y12319D01*
X13208Y12319D01*
X13207Y12321D01*
X13207Y12323D01*
X13207Y12324D01*
X13207Y12325D01*
X13207Y12327D01*
X13207Y12327D01*
Y12328D01*
Y12328D01*
Y12328D01*
Y12328D01*
Y12329D01*
X13207Y12331D01*
X13207Y12333D01*
X13207Y12334D01*
X13207Y12335D01*
X13207Y12337D01*
X13208Y12337D01*
X13208Y12338D01*
X13208Y12338D01*
X13209Y12340D01*
X13209Y12341D01*
X13210Y12342D01*
X13211Y12343D01*
X13211Y12344D01*
X13212Y12345D01*
X13212Y12345D01*
X13212Y12345D01*
X13213Y12346D01*
X13214Y12347D01*
X13215Y12348D01*
X13216Y12349D01*
X13217Y12349D01*
X13218Y12350D01*
X13218Y12350D01*
X13219Y12350D01*
X13219D01*
X13220Y12350D01*
X13222Y12351D01*
X13223Y12351D01*
X13225Y12351D01*
X13226Y12352D01*
X13227Y12352D01*
X13227D01*
X13229Y12352D01*
D02*
G37*
G36*
X13330D02*
X13331Y12351D01*
X13333Y12351D01*
X13334Y12351D01*
X13335Y12350D01*
X13336Y12350D01*
X13336Y12350D01*
X13337Y12350D01*
X13338Y12349D01*
X13339Y12348D01*
X13340Y12348D01*
X13341Y12347D01*
X13342Y12346D01*
X13343Y12346D01*
X13343Y12345D01*
X13343Y12345D01*
X13344Y12344D01*
X13345Y12343D01*
X13346Y12342D01*
X13346Y12340D01*
X13347Y12340D01*
X13347Y12339D01*
X13347Y12338D01*
X13347Y12338D01*
Y12338D01*
X13348Y12337D01*
X13348Y12335D01*
X13348Y12333D01*
X13348Y12332D01*
X13348Y12331D01*
X13348Y12330D01*
Y12330D01*
Y12329D01*
Y12329D01*
Y12329D01*
Y12328D01*
X13348Y12327D01*
X13348Y12325D01*
X13348Y12323D01*
X13348Y12322D01*
X13347Y12321D01*
X13347Y12320D01*
X13347Y12320D01*
X13347Y12319D01*
Y12319D01*
X13347Y12318D01*
X13346Y12317D01*
X13345Y12315D01*
X13344Y12314D01*
X13344Y12313D01*
X13343Y12313D01*
X13343Y12312D01*
X13343Y12312D01*
X13342Y12311D01*
X13341Y12310D01*
X13340Y12310D01*
X13339Y12309D01*
X13338Y12308D01*
X13337Y12308D01*
X13337Y12308D01*
X13336Y12308D01*
X13335Y12307D01*
X13333Y12307D01*
X13332Y12306D01*
X13331Y12306D01*
X13329Y12306D01*
X13328Y12306D01*
X13328D01*
X13326Y12306D01*
X13324Y12306D01*
X13323Y12307D01*
X13321Y12307D01*
X13320Y12307D01*
X13319Y12307D01*
X13319Y12308D01*
X13319Y12308D01*
X13317Y12308D01*
X13316Y12309D01*
X13315Y12310D01*
X13314Y12311D01*
X13313Y12311D01*
X13313Y12312D01*
X13312Y12312D01*
X13312Y12312D01*
X13311Y12313D01*
X13310Y12315D01*
X13310Y12316D01*
X13309Y12317D01*
X13309Y12318D01*
X13308Y12319D01*
X13308Y12319D01*
X13308Y12319D01*
X13308Y12321D01*
X13307Y12323D01*
X13307Y12324D01*
X13307Y12325D01*
X13307Y12327D01*
X13307Y12327D01*
Y12328D01*
Y12328D01*
Y12328D01*
Y12328D01*
Y12329D01*
X13307Y12331D01*
X13307Y12333D01*
X13307Y12334D01*
X13307Y12335D01*
X13308Y12337D01*
X13308Y12337D01*
X13308Y12338D01*
X13308Y12338D01*
X13309Y12340D01*
X13309Y12341D01*
X13310Y12342D01*
X13311Y12343D01*
X13311Y12344D01*
X13312Y12345D01*
X13312Y12345D01*
X13312Y12345D01*
X13313Y12346D01*
X13314Y12347D01*
X13315Y12348D01*
X13316Y12349D01*
X13317Y12349D01*
X13318Y12350D01*
X13319Y12350D01*
X13319Y12350D01*
X13319D01*
X13320Y12350D01*
X13322Y12351D01*
X13323Y12351D01*
X13325Y12351D01*
X13326Y12352D01*
X13327Y12352D01*
X13328D01*
X13330Y12352D01*
D02*
G37*
G36*
X13349Y12263D02*
X13350Y12263D01*
X13351Y12263D01*
X13352Y12263D01*
X13353Y12263D01*
X13353Y12262D01*
X13354Y12262D01*
X13354Y12262D01*
X13355Y12262D01*
X13356Y12261D01*
X13356Y12260D01*
X13357Y12260D01*
X13357Y12259D01*
X13358Y12259D01*
X13358Y12259D01*
X13358Y12258D01*
X13359Y12258D01*
X13359Y12257D01*
X13360Y12256D01*
X13360Y12255D01*
X13360Y12254D01*
X13361Y12253D01*
X13361Y12253D01*
X13361Y12253D01*
Y12253D01*
X13361Y12252D01*
X13361Y12250D01*
X13362Y12249D01*
X13362Y12248D01*
X13362Y12247D01*
X13362Y12246D01*
Y12246D01*
Y12246D01*
Y12246D01*
Y12246D01*
Y12245D01*
X13362Y12244D01*
X13362Y12242D01*
X13362Y12241D01*
X13361Y12240D01*
X13361Y12239D01*
X13361Y12239D01*
X13361Y12238D01*
X13361Y12238D01*
Y12238D01*
X13360Y12237D01*
X13360Y12236D01*
X13360Y12235D01*
X13359Y12234D01*
X13359Y12233D01*
X13358Y12233D01*
X13358Y12232D01*
X13358Y12232D01*
X13357Y12232D01*
X13357Y12231D01*
X13356Y12230D01*
X13355Y12230D01*
X13355Y12229D01*
X13354Y12229D01*
X13354Y12229D01*
X13354Y12229D01*
X13353Y12228D01*
X13352Y12228D01*
X13351Y12228D01*
X13350Y12228D01*
X13349Y12228D01*
X13348Y12228D01*
X13348D01*
X13347Y12228D01*
X13346Y12228D01*
X13345Y12228D01*
X13345Y12228D01*
X13344Y12228D01*
X13344Y12228D01*
X13343Y12228D01*
X13343D01*
X13342Y12229D01*
X13342Y12229D01*
X13341Y12230D01*
X13341Y12230D01*
X13340Y12230D01*
X13340Y12231D01*
X13340Y12231D01*
X13339Y12231D01*
Y12229D01*
X13340Y12228D01*
X13340Y12227D01*
X13340Y12226D01*
X13341Y12225D01*
X13341Y12224D01*
X13341Y12224D01*
X13341Y12224D01*
X13342Y12224D01*
X13342Y12223D01*
X13343Y12223D01*
X13344Y12222D01*
X13345Y12222D01*
X13346Y12222D01*
X13347Y12222D01*
X13347D01*
X13348Y12222D01*
X13349Y12222D01*
X13350Y12222D01*
X13351Y12222D01*
X13351Y12222D01*
X13352Y12223D01*
X13352Y12223D01*
X13352Y12223D01*
X13353Y12223D01*
X13353Y12224D01*
X13354Y12224D01*
X13355Y12225D01*
X13355Y12225D01*
X13355Y12225D01*
X13356Y12225D01*
X13356Y12226D01*
X13360Y12220D01*
X13359Y12219D01*
X13358Y12218D01*
X13358Y12218D01*
X13357Y12218D01*
X13357Y12218D01*
X13357Y12218D01*
X13356Y12217D01*
X13355Y12217D01*
X13355Y12216D01*
X13354Y12216D01*
X13354Y12216D01*
X13354Y12216D01*
X13354D01*
X13352Y12215D01*
X13352Y12215D01*
X13351Y12215D01*
X13351Y12215D01*
X13351Y12215D01*
X13350Y12215D01*
X13350D01*
X13349Y12215D01*
X13348Y12215D01*
X13348D01*
X13347Y12214D01*
X13347D01*
X13345Y12215D01*
X13344Y12215D01*
X13343Y12215D01*
X13342Y12215D01*
X13341Y12215D01*
X13341Y12215D01*
X13340Y12215D01*
X13340Y12216D01*
X13339Y12216D01*
X13338Y12216D01*
X13337Y12217D01*
X13336Y12217D01*
X13336Y12218D01*
X13335Y12218D01*
X13335Y12218D01*
X13335Y12218D01*
X13334Y12219D01*
X13333Y12220D01*
X13333Y12221D01*
X13332Y12221D01*
X13332Y12222D01*
X13332Y12223D01*
X13332Y12223D01*
X13331Y12223D01*
X13331Y12224D01*
X13331Y12225D01*
X13331Y12226D01*
X13330Y12227D01*
X13330Y12228D01*
X13330Y12229D01*
Y12229D01*
Y12229D01*
Y12229D01*
Y12263D01*
X13339D01*
X13339Y12259D01*
X13340Y12260D01*
X13340Y12261D01*
X13341Y12261D01*
X13341Y12262D01*
X13342Y12262D01*
X13342Y12262D01*
X13343Y12262D01*
X13343Y12262D01*
X13344Y12263D01*
X13344Y12263D01*
X13345Y12263D01*
X13346Y12263D01*
X13347Y12263D01*
X13347Y12263D01*
X13348D01*
X13349Y12263D01*
D02*
G37*
G36*
X13117Y12275D02*
X13118Y12275D01*
X13119Y12275D01*
X13120Y12275D01*
X13121Y12275D01*
X13122Y12274D01*
X13122Y12274D01*
X13122Y12274D01*
X13123Y12274D01*
X13124Y12273D01*
X13125Y12273D01*
X13126Y12272D01*
X13126Y12271D01*
X13127Y12271D01*
X13127Y12271D01*
X13127Y12271D01*
X13128Y12270D01*
X13128Y12269D01*
X13129Y12268D01*
X13129Y12267D01*
X13130Y12266D01*
X13130Y12265D01*
X13130Y12265D01*
X13130Y12265D01*
X13130Y12265D01*
Y12265D01*
X13131Y12263D01*
X13131Y12262D01*
X13131Y12260D01*
X13131Y12259D01*
X13131Y12257D01*
X13131Y12257D01*
Y12256D01*
Y12256D01*
Y12256D01*
Y12256D01*
Y12255D01*
Y12247D01*
X13131Y12245D01*
X13131Y12244D01*
X13131Y12242D01*
X13131Y12241D01*
X13131Y12240D01*
X13130Y12239D01*
X13130Y12239D01*
X13130Y12239D01*
Y12238D01*
X13130Y12238D01*
Y12238D01*
X13130Y12237D01*
X13129Y12236D01*
X13129Y12235D01*
X13128Y12234D01*
X13128Y12233D01*
X13127Y12233D01*
X13127Y12232D01*
X13127Y12232D01*
X13126Y12231D01*
X13125Y12231D01*
X13124Y12230D01*
X13124Y12230D01*
X13123Y12229D01*
X13122Y12229D01*
X13122Y12229D01*
X13122Y12229D01*
X13121Y12228D01*
X13120Y12228D01*
X13119Y12228D01*
X13118Y12228D01*
X13117Y12228D01*
X13116Y12228D01*
X13116D01*
X13114Y12228D01*
X13113Y12228D01*
X13112Y12228D01*
X13111Y12228D01*
X13110Y12228D01*
X13110Y12228D01*
X13109Y12229D01*
X13109Y12229D01*
X13108Y12229D01*
X13107Y12230D01*
X13106Y12230D01*
X13106Y12231D01*
X13105Y12231D01*
X13105Y12232D01*
X13104Y12232D01*
X13104Y12232D01*
X13103Y12233D01*
X13103Y12234D01*
X13102Y12235D01*
X13102Y12236D01*
X13101Y12237D01*
X13101Y12238D01*
X13101Y12238D01*
X13101Y12238D01*
Y12238D01*
X13101Y12240D01*
X13100Y12241D01*
X13100Y12243D01*
X13100Y12244D01*
X13100Y12246D01*
X13100Y12246D01*
Y12246D01*
Y12247D01*
Y12247D01*
Y12247D01*
Y12247D01*
Y12255D01*
X13100Y12257D01*
X13100Y12259D01*
X13100Y12261D01*
X13100Y12262D01*
X13101Y12263D01*
X13101Y12263D01*
X13101Y12264D01*
X13101Y12264D01*
X13101Y12264D01*
X13101Y12264D01*
Y12265D01*
X13101Y12266D01*
X13102Y12267D01*
X13102Y12268D01*
X13103Y12269D01*
X13104Y12270D01*
X13104Y12270D01*
X13104Y12271D01*
X13104Y12271D01*
X13105Y12272D01*
X13106Y12272D01*
X13107Y12273D01*
X13107Y12273D01*
X13108Y12274D01*
X13109Y12274D01*
X13109Y12274D01*
X13109Y12274D01*
X13110Y12275D01*
X13111Y12275D01*
X13112Y12275D01*
X13114Y12275D01*
X13114Y12275D01*
X13115Y12275D01*
X13116D01*
X13117Y12275D01*
D02*
G37*
G36*
X13217Y12263D02*
X13218Y12263D01*
X13219Y12263D01*
X13220Y12263D01*
X13221Y12262D01*
X13222Y12262D01*
X13222Y12262D01*
X13222Y12262D01*
X13223Y12262D01*
X13224Y12261D01*
X13225Y12260D01*
X13226Y12260D01*
X13226Y12259D01*
X13227Y12259D01*
X13227Y12258D01*
X13227Y12258D01*
X13228Y12257D01*
X13229Y12256D01*
X13229Y12256D01*
X13230Y12255D01*
X13230Y12254D01*
X13230Y12253D01*
X13230Y12253D01*
X13230Y12253D01*
Y12253D01*
X13231Y12252D01*
X13231Y12250D01*
X13231Y12249D01*
X13231Y12248D01*
X13231Y12247D01*
X13231Y12246D01*
Y12246D01*
Y12246D01*
Y12246D01*
Y12246D01*
Y12245D01*
X13231Y12244D01*
X13231Y12242D01*
X13231Y12241D01*
X13231Y12240D01*
X13231Y12239D01*
X13231Y12239D01*
X13231Y12238D01*
X13230Y12238D01*
Y12238D01*
X13230Y12237D01*
X13229Y12236D01*
X13229Y12235D01*
X13228Y12234D01*
X13228Y12233D01*
X13228Y12233D01*
X13227Y12233D01*
X13227Y12232D01*
X13226Y12232D01*
X13226Y12231D01*
X13225Y12230D01*
X13224Y12230D01*
X13223Y12229D01*
X13223Y12229D01*
X13222Y12229D01*
X13222Y12229D01*
X13221Y12228D01*
X13220Y12228D01*
X13218Y12228D01*
X13217Y12228D01*
X13216Y12228D01*
X13216Y12228D01*
X13215D01*
X13214Y12228D01*
X13212Y12228D01*
X13211Y12228D01*
X13210Y12228D01*
X13209Y12228D01*
X13209Y12229D01*
X13208Y12229D01*
X13208Y12229D01*
X13207Y12229D01*
X13206Y12230D01*
X13205Y12231D01*
X13204Y12231D01*
X13204Y12232D01*
X13203Y12232D01*
X13203Y12232D01*
X13203Y12232D01*
X13202Y12233D01*
X13202Y12234D01*
X13201Y12235D01*
X13201Y12236D01*
X13200Y12237D01*
X13200Y12238D01*
X13200Y12238D01*
X13200Y12238D01*
X13199Y12239D01*
X13199Y12241D01*
X13199Y12242D01*
X13199Y12243D01*
X13199Y12244D01*
X13199Y12244D01*
Y12245D01*
Y12245D01*
Y12245D01*
Y12245D01*
Y12246D01*
X13199Y12247D01*
X13199Y12248D01*
X13199Y12250D01*
X13199Y12251D01*
X13199Y12252D01*
X13200Y12252D01*
X13200Y12253D01*
X13200Y12253D01*
X13200Y12254D01*
X13201Y12255D01*
X13201Y12256D01*
X13202Y12257D01*
X13202Y12257D01*
X13203Y12258D01*
X13203Y12258D01*
X13203Y12258D01*
X13204Y12259D01*
X13205Y12260D01*
X13206Y12261D01*
X13206Y12261D01*
X13207Y12262D01*
X13208Y12262D01*
X13208Y12262D01*
X13208Y12262D01*
X13208D01*
X13209Y12262D01*
X13211Y12263D01*
X13212Y12263D01*
X13213Y12263D01*
X13214Y12263D01*
X13214Y12263D01*
X13215D01*
X13217Y12263D01*
D02*
G37*
G36*
X13307Y12717D02*
X13307Y12717D01*
Y12515D01*
X13220Y12465D01*
X13132Y12413D01*
X12954Y12515D01*
Y12718D01*
X13132Y12820D01*
X13307Y12717D01*
D02*
G37*
G36*
X13197Y12224D02*
X13190D01*
X13173Y12275D01*
X13180D01*
X13197Y12224D01*
D02*
G37*
G36*
X13275Y12263D02*
X13276Y12263D01*
X13277Y12263D01*
X13278Y12263D01*
X13278Y12263D01*
X13278Y12263D01*
X13279Y12263D01*
X13280Y12262D01*
X13280Y12262D01*
X13281Y12261D01*
X13282Y12261D01*
X13282Y12261D01*
X13283Y12260D01*
X13283Y12260D01*
X13283Y12260D01*
X13284Y12260D01*
X13284Y12259D01*
X13285Y12258D01*
X13285Y12258D01*
X13285Y12257D01*
X13286Y12257D01*
X13286Y12257D01*
X13286Y12257D01*
X13286Y12256D01*
X13286Y12255D01*
X13286Y12255D01*
X13286Y12254D01*
X13287Y12253D01*
X13287Y12253D01*
Y12253D01*
Y12253D01*
X13287Y12252D01*
X13286Y12251D01*
X13286Y12250D01*
X13286Y12250D01*
X13286Y12249D01*
X13286Y12249D01*
X13286Y12249D01*
X13286Y12249D01*
X13285Y12247D01*
X13284Y12247D01*
X13284Y12246D01*
X13284Y12246D01*
X13283Y12246D01*
X13283Y12246D01*
X13283Y12246D01*
X13282Y12245D01*
X13281Y12244D01*
X13281Y12244D01*
X13280Y12244D01*
X13280Y12244D01*
X13279Y12244D01*
X13279Y12244D01*
X13277Y12243D01*
X13277Y12243D01*
X13276Y12242D01*
X13275Y12242D01*
X13275Y12242D01*
X13274Y12242D01*
X13274D01*
X13274Y12242D01*
X13273Y12242D01*
X13272Y12242D01*
X13272Y12241D01*
X13271Y12241D01*
X13271Y12241D01*
X13271Y12241D01*
X13271D01*
X13270Y12241D01*
X13269Y12240D01*
X13269Y12240D01*
X13269Y12240D01*
X13268Y12240D01*
X13268Y12239D01*
X13268Y12239D01*
X13267Y12239D01*
X13267Y12239D01*
X13267Y12238D01*
Y12238D01*
Y12238D01*
X13267Y12237D01*
X13267Y12237D01*
X13268Y12236D01*
X13268Y12236D01*
X13268Y12235D01*
X13268Y12235D01*
X13268Y12235D01*
X13269Y12235D01*
X13269Y12235D01*
X13270Y12234D01*
X13271Y12234D01*
X13272Y12234D01*
X13272Y12234D01*
X13273D01*
X13273Y12234D01*
X13274Y12234D01*
X13275Y12234D01*
X13275D01*
X13275Y12234D01*
X13275D01*
X13276Y12235D01*
X13276Y12235D01*
X13277Y12235D01*
X13277Y12235D01*
X13277D01*
X13278Y12236D01*
X13278Y12236D01*
X13278Y12237D01*
X13278Y12237D01*
Y12237D01*
X13279Y12238D01*
X13279Y12238D01*
X13279Y12239D01*
Y12239D01*
Y12239D01*
Y12239D01*
X13288D01*
X13288Y12238D01*
X13288Y12238D01*
X13287Y12237D01*
X13287Y12236D01*
X13287Y12236D01*
X13287Y12235D01*
X13287Y12235D01*
X13287Y12235D01*
X13286Y12234D01*
X13286Y12233D01*
X13285Y12233D01*
X13285Y12232D01*
X13285Y12232D01*
X13284Y12231D01*
X13284Y12231D01*
X13284Y12231D01*
X13283Y12231D01*
X13282Y12230D01*
X13282Y12230D01*
X13281Y12229D01*
X13280Y12229D01*
X13280Y12229D01*
X13279Y12229D01*
X13279Y12228D01*
X13278Y12228D01*
X13277Y12228D01*
X13276Y12228D01*
X13275Y12228D01*
X13274Y12228D01*
X13273Y12228D01*
X13272D01*
X13270Y12228D01*
X13269Y12228D01*
X13268Y12228D01*
X13268Y12228D01*
X13267Y12228D01*
X13267Y12228D01*
X13267D01*
X13266Y12229D01*
X13265Y12229D01*
X13264Y12229D01*
X13263Y12230D01*
X13263Y12230D01*
X13263Y12230D01*
X13262Y12230D01*
X13262Y12230D01*
X13261Y12231D01*
X13261Y12232D01*
X13260Y12232D01*
X13260Y12233D01*
X13260Y12233D01*
X13259Y12234D01*
X13259Y12234D01*
X13259Y12234D01*
X13259Y12235D01*
X13259Y12235D01*
X13258Y12236D01*
X13258Y12237D01*
X13258Y12237D01*
X13258Y12238D01*
Y12238D01*
Y12238D01*
X13258Y12239D01*
X13258Y12240D01*
X13259Y12241D01*
X13259Y12241D01*
X13259Y12242D01*
X13259Y12242D01*
X13259Y12242D01*
X13259Y12242D01*
X13260Y12243D01*
X13260Y12244D01*
X13260Y12244D01*
X13261Y12245D01*
X13261Y12245D01*
X13262Y12245D01*
X13262Y12245D01*
X13262Y12245D01*
X13263Y12246D01*
X13264Y12247D01*
X13265Y12247D01*
X13265Y12247D01*
X13266Y12247D01*
X13266Y12248D01*
X13266D01*
X13268Y12248D01*
X13269Y12248D01*
X13270Y12249D01*
X13270Y12249D01*
X13271Y12249D01*
X13271Y12249D01*
X13271D01*
X13273Y12249D01*
X13273Y12249D01*
X13273Y12249D01*
X13274Y12249D01*
X13274Y12250D01*
X13274Y12250D01*
X13274D01*
X13275Y12250D01*
X13276Y12250D01*
X13276Y12251D01*
X13276Y12251D01*
X13276D01*
X13277Y12251D01*
X13277Y12251D01*
X13277Y12252D01*
X13277Y12252D01*
X13278Y12252D01*
X13278Y12253D01*
X13278Y12253D01*
Y12253D01*
X13278Y12254D01*
X13278Y12254D01*
X13277Y12255D01*
X13277Y12255D01*
X13277Y12255D01*
X13277Y12256D01*
X13277Y12256D01*
X13277Y12256D01*
X13276Y12256D01*
X13275Y12256D01*
X13275Y12256D01*
X13274Y12257D01*
X13274Y12257D01*
X13273Y12257D01*
X13273D01*
X13272Y12257D01*
X13271Y12257D01*
X13270Y12256D01*
X13270Y12256D01*
X13269Y12256D01*
X13269Y12256D01*
X13269Y12256D01*
X13269Y12255D01*
X13268Y12255D01*
X13268Y12254D01*
X13268Y12254D01*
X13268Y12253D01*
X13268Y12253D01*
X13268Y12253D01*
Y12252D01*
Y12252D01*
X13258D01*
X13258Y12253D01*
X13258Y12254D01*
X13259Y12255D01*
X13259Y12255D01*
X13259Y12256D01*
X13259Y12256D01*
X13259Y12257D01*
X13259Y12257D01*
X13260Y12257D01*
X13260Y12258D01*
X13261Y12259D01*
X13261Y12259D01*
X13262Y12260D01*
X13262Y12260D01*
X13262Y12260D01*
X13262Y12260D01*
X13263Y12261D01*
X13264Y12261D01*
X13264Y12262D01*
X13265Y12262D01*
X13266Y12262D01*
X13266Y12262D01*
X13267Y12263D01*
X13267D01*
X13268Y12263D01*
X13269Y12263D01*
X13270Y12263D01*
X13271Y12263D01*
X13272D01*
X13272Y12263D01*
X13274D01*
X13275Y12263D01*
D02*
G37*
G36*
X13250Y12263D02*
X13255D01*
Y12256D01*
X13250D01*
Y12238D01*
Y12237D01*
X13250Y12236D01*
X13250Y12235D01*
X13250Y12234D01*
X13250Y12234D01*
X13250Y12233D01*
X13250Y12233D01*
Y12233D01*
X13249Y12232D01*
X13249Y12232D01*
X13249Y12231D01*
X13248Y12231D01*
X13248Y12230D01*
X13248Y12230D01*
X13248Y12230D01*
X13248Y12230D01*
X13247Y12229D01*
X13246Y12228D01*
X13245Y12228D01*
X13245Y12228D01*
X13245Y12228D01*
X13245D01*
X13243Y12228D01*
X13242Y12228D01*
X13242Y12228D01*
X13241Y12228D01*
X13240D01*
X13239Y12228D01*
X13239D01*
X13238Y12228D01*
X13238D01*
X13238Y12228D01*
X13237D01*
X13236Y12228D01*
X13236Y12228D01*
X13235Y12228D01*
X13235D01*
X13235Y12228D01*
X13235D01*
Y12235D01*
X13235Y12235D01*
X13236D01*
X13236Y12235D01*
X13236D01*
X13237Y12235D01*
X13238D01*
X13239Y12235D01*
X13239Y12235D01*
X13239D01*
X13240Y12235D01*
X13240Y12235D01*
X13240Y12236D01*
X13240Y12236D01*
X13241Y12236D01*
X13241Y12236D01*
X13241Y12237D01*
X13241Y12237D01*
X13241Y12237D01*
X13241Y12238D01*
Y12239D01*
Y12239D01*
Y12239D01*
Y12256D01*
X13235D01*
Y12263D01*
X13241D01*
Y12271D01*
X13250D01*
Y12263D01*
D02*
G37*
G36*
X13034Y12275D02*
X13036Y12275D01*
X13038Y12275D01*
X13039Y12274D01*
X13040Y12274D01*
X13041Y12274D01*
X13041Y12274D01*
X13041Y12274D01*
X13042Y12273D01*
X13042Y12273D01*
X13042Y12273D01*
X13042D01*
X13044Y12273D01*
X13045Y12272D01*
X13047Y12271D01*
X13048Y12270D01*
X13049Y12269D01*
X13049Y12269D01*
X13050Y12268D01*
X13050Y12268D01*
X13050Y12268D01*
X13051Y12267D01*
X13052Y12265D01*
X13053Y12264D01*
X13053Y12263D01*
X13054Y12262D01*
X13054Y12261D01*
X13054Y12261D01*
X13054Y12260D01*
X13054Y12260D01*
X13054Y12260D01*
Y12260D01*
X13055Y12258D01*
X13055Y12256D01*
X13056Y12255D01*
X13056Y12253D01*
X13056Y12252D01*
X13056Y12252D01*
Y12251D01*
X13056Y12251D01*
Y12250D01*
Y12250D01*
Y12250D01*
Y12250D01*
Y12246D01*
X13056Y12245D01*
X13056Y12243D01*
X13056Y12242D01*
X13055Y12241D01*
X13055Y12240D01*
X13055Y12239D01*
X13055Y12239D01*
X13055Y12239D01*
Y12238D01*
X13054Y12237D01*
X13054Y12236D01*
X13053Y12235D01*
X13053Y12234D01*
X13052Y12234D01*
X13052Y12233D01*
X13052Y12233D01*
X13051Y12233D01*
X13051Y12232D01*
X13050Y12231D01*
X13049Y12230D01*
X13048Y12230D01*
X13047Y12229D01*
X13047Y12229D01*
X13047Y12229D01*
X13046Y12229D01*
X13045Y12228D01*
X13044Y12228D01*
X13043Y12228D01*
X13042Y12228D01*
X13041Y12228D01*
X13040Y12228D01*
X13040D01*
X13038Y12228D01*
X13037Y12228D01*
X13036Y12228D01*
X13035Y12228D01*
X13034Y12228D01*
X13034Y12229D01*
X13033Y12229D01*
X13033Y12229D01*
X13032Y12229D01*
X13031Y12230D01*
X13030Y12230D01*
X13029Y12231D01*
X13029Y12231D01*
X13028Y12232D01*
X13028Y12232D01*
X13028Y12232D01*
X13027Y12233D01*
X13027Y12234D01*
X13026Y12235D01*
X13026Y12235D01*
X13025Y12236D01*
X13025Y12237D01*
X13025Y12237D01*
X13025Y12237D01*
X13025Y12238D01*
X13024Y12239D01*
X13024Y12240D01*
X13024Y12241D01*
X13024Y12242D01*
X13024Y12243D01*
Y12243D01*
Y12243D01*
Y12245D01*
X13024Y12246D01*
X13024Y12247D01*
X13024Y12248D01*
X13024Y12248D01*
X13025Y12249D01*
X13025Y12249D01*
X13025Y12250D01*
X13025Y12251D01*
X13025Y12252D01*
X13026Y12252D01*
X13026Y12253D01*
X13027Y12254D01*
X13027Y12254D01*
X13027Y12255D01*
X13027Y12255D01*
X13028Y12255D01*
X13029Y12256D01*
X13029Y12257D01*
X13030Y12257D01*
X13030Y12258D01*
X13031Y12258D01*
X13031Y12258D01*
X13031Y12258D01*
X13032Y12258D01*
X13033Y12259D01*
X13034Y12259D01*
X13035Y12259D01*
X13036Y12259D01*
X13037Y12259D01*
X13037D01*
X13038Y12259D01*
X13039Y12259D01*
X13040Y12259D01*
X13041Y12259D01*
X13042Y12259D01*
X13042Y12258D01*
X13042Y12258D01*
X13043Y12258D01*
X13043Y12258D01*
X13044Y12257D01*
X13045Y12257D01*
X13045Y12256D01*
X13046Y12256D01*
X13046Y12256D01*
X13046Y12256D01*
X13047Y12255D01*
X13046Y12256D01*
X13046Y12257D01*
X13046Y12258D01*
X13046Y12259D01*
X13045Y12260D01*
X13045Y12260D01*
X13045Y12260D01*
X13045Y12260D01*
X13045Y12261D01*
X13044Y12262D01*
X13044Y12263D01*
X13043Y12263D01*
X13043Y12264D01*
X13042Y12264D01*
X13042Y12264D01*
X13042Y12264D01*
X13041Y12265D01*
X13040Y12265D01*
X13040Y12266D01*
X13039Y12266D01*
X13038Y12266D01*
X13038Y12267D01*
X13037Y12267D01*
X13037D01*
X13036Y12267D01*
X13035Y12267D01*
X13034Y12267D01*
X13033Y12267D01*
X13033D01*
X13032Y12268D01*
X13031D01*
Y12275D01*
X13032D01*
X13034Y12275D01*
D02*
G37*
G36*
X13310Y12263D02*
X13311Y12263D01*
X13312Y12263D01*
X13313Y12263D01*
X13314Y12262D01*
X13315Y12262D01*
X13315Y12262D01*
X13315Y12262D01*
X13316Y12262D01*
X13317Y12261D01*
X13318Y12260D01*
X13319Y12260D01*
X13319Y12259D01*
X13320Y12259D01*
X13320Y12258D01*
X13320Y12258D01*
X13321Y12257D01*
X13322Y12256D01*
X13322Y12256D01*
X13323Y12255D01*
X13323Y12254D01*
X13323Y12253D01*
X13323Y12253D01*
X13323Y12253D01*
Y12253D01*
X13324Y12252D01*
X13324Y12250D01*
X13324Y12249D01*
X13324Y12248D01*
X13324Y12247D01*
X13324Y12246D01*
Y12246D01*
Y12246D01*
Y12246D01*
Y12246D01*
Y12245D01*
X13324Y12244D01*
X13324Y12242D01*
X13324Y12241D01*
X13324Y12240D01*
X13324Y12239D01*
X13324Y12239D01*
X13324Y12238D01*
X13323Y12238D01*
Y12238D01*
X13323Y12237D01*
X13323Y12236D01*
X13322Y12235D01*
X13321Y12234D01*
X13321Y12233D01*
X13321Y12233D01*
X13320Y12233D01*
X13320Y12232D01*
X13319Y12232D01*
X13319Y12231D01*
X13318Y12230D01*
X13317Y12230D01*
X13316Y12229D01*
X13316Y12229D01*
X13315Y12229D01*
X13315Y12229D01*
X13314Y12228D01*
X13313Y12228D01*
X13312Y12228D01*
X13310Y12228D01*
X13309Y12228D01*
X13309Y12228D01*
X13308D01*
X13307Y12228D01*
X13305Y12228D01*
X13304Y12228D01*
X13303Y12228D01*
X13302Y12228D01*
X13302Y12229D01*
X13301Y12229D01*
X13301Y12229D01*
X13300Y12229D01*
X13299Y12230D01*
X13298Y12231D01*
X13297Y12231D01*
X13297Y12232D01*
X13296Y12232D01*
X13296Y12232D01*
X13296Y12232D01*
X13295Y12233D01*
X13295Y12234D01*
X13294Y12235D01*
X13294Y12236D01*
X13293Y12237D01*
X13293Y12238D01*
X13293Y12238D01*
X13293Y12238D01*
X13292Y12239D01*
X13292Y12241D01*
X13292Y12242D01*
X13292Y12243D01*
X13292Y12244D01*
X13292Y12244D01*
Y12245D01*
Y12245D01*
Y12245D01*
Y12245D01*
Y12246D01*
X13292Y12247D01*
X13292Y12248D01*
X13292Y12250D01*
X13292Y12251D01*
X13292Y12252D01*
X13293Y12252D01*
X13293Y12253D01*
X13293Y12253D01*
X13293Y12254D01*
X13294Y12255D01*
X13294Y12256D01*
X13295Y12257D01*
X13295Y12257D01*
X13296Y12258D01*
X13296Y12258D01*
X13296Y12258D01*
X13297Y12259D01*
X13298Y12260D01*
X13299Y12261D01*
X13299Y12261D01*
X13300Y12262D01*
X13301Y12262D01*
X13301Y12262D01*
X13301Y12262D01*
X13301D01*
X13302Y12262D01*
X13304Y12263D01*
X13305Y12263D01*
X13306Y12263D01*
X13307Y12263D01*
X13307Y12263D01*
X13308D01*
X13310Y12263D01*
D02*
G37*
G36*
X13408Y12228D02*
X13398D01*
X13395Y12238D01*
X13378D01*
X13375Y12228D01*
X13364D01*
X13382Y12275D01*
X13391D01*
X13408Y12228D01*
D02*
G37*
G36*
X13900Y14725D02*
X14026Y14724D01*
X14026Y14725D01*
X14026Y14725D01*
X14033Y14724D01*
X14040Y14721D01*
X14047Y14716D01*
X14051Y14710D01*
X14054Y14703D01*
X14055Y14695D01*
X14055Y14695D01*
X14055Y14488D01*
X13829Y14488D01*
Y14488D01*
X13829Y14488D01*
X13811Y14489D01*
X13795Y14495D01*
X13779Y14503D01*
X13766Y14514D01*
X13755Y14527D01*
X13747Y14543D01*
X13741Y14559D01*
X13740Y14575D01*
X13740Y14575D01*
X13742Y14594D01*
X13747Y14618D01*
X13757Y14640D01*
X13769Y14661D01*
X13785Y14680D01*
X13804Y14695D01*
X13824Y14708D01*
X13847Y14717D01*
X13870Y14723D01*
X13895Y14725D01*
X13900Y14725D01*
D02*
G37*
G36*
X13190Y12329D02*
X13203Y12307D01*
X13190D01*
X13183Y12321D01*
X13175Y12307D01*
X13162D01*
X13175Y12329D01*
X13163Y12351D01*
X13175D01*
X13183Y12338D01*
X13190Y12351D01*
X13202D01*
X13190Y12329D01*
D02*
G37*
G36*
X13405Y12307D02*
X13392D01*
Y12346D01*
X13369Y12307D01*
X13356D01*
Y12366D01*
X13369D01*
Y12327D01*
X13392Y12366D01*
X13405D01*
Y12307D01*
D02*
G37*
G36*
X12055Y12046D02*
X12071Y12041D01*
X12087Y12033D01*
X12100Y12022D01*
X12111Y12008D01*
X12120Y11993D01*
X12125Y11976D01*
X12126Y11959D01*
X12126Y11959D01*
X12126Y11959D01*
X12125Y11940D01*
X12119Y11917D01*
X12110Y11894D01*
X12097Y11874D01*
X12081Y11856D01*
X12063Y11840D01*
X12043Y11827D01*
X12020Y11818D01*
X11997Y11812D01*
X11973Y11810D01*
X11967Y11811D01*
X11841Y11811D01*
X11841Y11811D01*
X11841D01*
X11833Y11812D01*
X11826Y11815D01*
X11819Y11819D01*
X11815Y11826D01*
X11812Y11833D01*
X11811Y11841D01*
X11811Y11841D01*
X11811Y12047D01*
X12037Y12047D01*
Y12048D01*
X12037Y12048D01*
X12055Y12046D01*
D02*
G37*
G36*
X13036Y12307D02*
X13025D01*
X13025Y12311D01*
X13024Y12311D01*
X13023Y12310D01*
X13023Y12309D01*
X13022Y12308D01*
X13021Y12308D01*
X13021Y12308D01*
X13020Y12308D01*
X13020Y12307D01*
X13019Y12307D01*
X13018Y12307D01*
X13017Y12306D01*
X13016Y12306D01*
X13015Y12306D01*
X13014Y12306D01*
X13014D01*
X13012Y12306D01*
X13011Y12306D01*
X13009Y12307D01*
X13008Y12307D01*
X13007Y12307D01*
X13007Y12307D01*
X13006Y12308D01*
X13006Y12308D01*
X13005Y12308D01*
X13004Y12309D01*
X13003Y12310D01*
X13002Y12311D01*
X13002Y12311D01*
X13001Y12312D01*
X13001Y12312D01*
X13001Y12312D01*
X13000Y12313D01*
X12999Y12315D01*
X12999Y12316D01*
X12998Y12317D01*
X12998Y12318D01*
X12998Y12319D01*
X12998Y12319D01*
Y12319D01*
X12997Y12321D01*
X12997Y12322D01*
X12997Y12324D01*
X12997Y12325D01*
Y12327D01*
X12996Y12328D01*
Y12328D01*
Y12328D01*
Y12328D01*
Y12328D01*
Y12329D01*
Y12331D01*
X12997Y12333D01*
X12997Y12334D01*
X12997Y12335D01*
X12997Y12337D01*
X12997Y12337D01*
X12997Y12338D01*
X12998Y12338D01*
X12998Y12340D01*
X12998Y12341D01*
X12999Y12342D01*
X13000Y12343D01*
X13000Y12344D01*
X13000Y12345D01*
X13001Y12345D01*
X13001Y12345D01*
X13002Y12346D01*
X13003Y12347D01*
X13003Y12348D01*
X13004Y12349D01*
X13005Y12349D01*
X13006Y12350D01*
X13006Y12350D01*
X13006Y12350D01*
X13007Y12350D01*
X13009Y12351D01*
X13010Y12351D01*
X13011Y12351D01*
X13012Y12352D01*
X13013Y12352D01*
X13014D01*
X13015Y12352D01*
X13016Y12351D01*
X13017Y12351D01*
X13018Y12351D01*
X13019Y12351D01*
X13019Y12350D01*
X13020Y12350D01*
X13020Y12350D01*
X13021Y12350D01*
X13022Y12349D01*
X13022Y12349D01*
X13023Y12348D01*
X13024Y12348D01*
X13024Y12347D01*
X13024Y12347D01*
X13024Y12347D01*
Y12369D01*
X13036D01*
Y12307D01*
D02*
G37*
G36*
X12909Y12368D02*
X12909Y12368D01*
X12910Y12368D01*
X12911Y12367D01*
X12912Y12367D01*
X12912Y12367D01*
X12912Y12367D01*
X12912Y12366D01*
X12913Y12366D01*
X12913Y12365D01*
X12914Y12364D01*
X12914Y12364D01*
X12914Y12363D01*
X12914Y12363D01*
Y12362D01*
Y12362D01*
X12914Y12361D01*
X12914Y12360D01*
X12914Y12360D01*
X12914Y12360D01*
Y12360D01*
X12913Y12359D01*
X12913Y12358D01*
X12912Y12358D01*
X12912Y12358D01*
X12912Y12357D01*
X12911Y12357D01*
X12910Y12357D01*
X12910Y12356D01*
X12910D01*
X12909Y12356D01*
X12908Y12356D01*
X12908Y12356D01*
X12907D01*
X12906Y12356D01*
X12905Y12356D01*
X12905Y12356D01*
X12905Y12356D01*
X12905D01*
X12904Y12357D01*
X12903Y12357D01*
X12903Y12358D01*
X12903Y12358D01*
X12902Y12358D01*
X12902Y12359D01*
X12901Y12359D01*
X12901Y12360D01*
Y12360D01*
X12901Y12361D01*
X12901Y12361D01*
X12901Y12362D01*
Y12362D01*
Y12362D01*
X12901Y12363D01*
X12901Y12364D01*
X12901Y12364D01*
X12901Y12364D01*
Y12365D01*
X12902Y12365D01*
X12902Y12366D01*
X12903Y12366D01*
X12903Y12366D01*
X12903Y12367D01*
X12904Y12367D01*
X12905Y12368D01*
X12905Y12368D01*
X12905D01*
X12906Y12368D01*
X12907Y12368D01*
X12907Y12368D01*
X12907D01*
X12909Y12368D01*
D02*
G37*
G36*
X13829Y12048D02*
Y12047D01*
X14055Y12047D01*
X14056Y11841D01*
X14056Y11841D01*
X14055Y11833D01*
X14052Y11826D01*
X14047Y11819D01*
X14041Y11815D01*
X14033Y11812D01*
X14026Y11811D01*
X14026D01*
X14026Y11811D01*
X13899Y11811D01*
X13894Y11810D01*
X13870Y11812D01*
X13846Y11818D01*
X13824Y11827D01*
X13803Y11840D01*
X13785Y11856D01*
X13769Y11874D01*
X13757Y11894D01*
X13747Y11917D01*
X13742Y11940D01*
X13740Y11959D01*
X13740Y11959D01*
X13740Y11959D01*
X13742Y11976D01*
X13747Y11993D01*
X13755Y12008D01*
X13766Y12022D01*
X13779Y12033D01*
X13795Y12041D01*
X13812Y12046D01*
X13829Y12048D01*
X13829Y12048D01*
D02*
G37*
G36*
X12940Y12351D02*
X12946D01*
Y12342D01*
X12940D01*
Y12319D01*
Y12318D01*
X12940Y12317D01*
X12940Y12316D01*
X12939Y12315D01*
X12939Y12314D01*
X12939Y12313D01*
X12939Y12313D01*
Y12313D01*
X12939Y12312D01*
X12938Y12311D01*
X12938Y12311D01*
X12937Y12310D01*
X12937Y12310D01*
X12937Y12309D01*
X12936Y12309D01*
X12936Y12309D01*
X12935Y12308D01*
X12934Y12307D01*
X12933Y12307D01*
X12933Y12307D01*
X12932Y12307D01*
X12932D01*
X12931Y12306D01*
X12930Y12306D01*
X12929Y12306D01*
X12928Y12306D01*
X12927D01*
X12926Y12306D01*
X12925D01*
X12924Y12306D01*
X12924D01*
X12924Y12306D01*
X12923D01*
X12922Y12307D01*
X12921Y12307D01*
X12921Y12307D01*
X12920D01*
X12920Y12307D01*
X12920D01*
Y12316D01*
X12921Y12316D01*
X12921D01*
X12921Y12316D01*
X12922D01*
X12922Y12316D01*
X12924D01*
X12925Y12316D01*
X12925Y12316D01*
X12925D01*
X12926Y12316D01*
X12926Y12316D01*
X12927Y12316D01*
X12927Y12316D01*
X12927Y12317D01*
X12928Y12317D01*
X12928Y12318D01*
X12928Y12318D01*
X12928Y12319D01*
X12928Y12319D01*
Y12320D01*
Y12320D01*
Y12320D01*
Y12342D01*
X12920D01*
Y12351D01*
X12928D01*
Y12362D01*
X12940D01*
Y12351D01*
D02*
G37*
G36*
X11997Y14723D02*
X12020Y14717D01*
X12042Y14708D01*
X12063Y14696D01*
X12081Y14680D01*
X12097Y14662D01*
X12110Y14641D01*
X12119Y14619D01*
X12124Y14595D01*
X12126Y14577D01*
X12126Y14577D01*
X12126Y14577D01*
X12125Y14559D01*
X12119Y14543D01*
X12111Y14527D01*
X12100Y14514D01*
X12087Y14503D01*
X12071Y14495D01*
X12055Y14489D01*
X12037Y14488D01*
X12037Y14488D01*
Y14488D01*
X11811Y14488D01*
X11811Y14695D01*
X11811Y14695D01*
X11812Y14703D01*
X11815Y14710D01*
X11819Y14716D01*
X11825Y14721D01*
X11833Y14724D01*
X11840Y14725D01*
X11840D01*
X11840Y14724D01*
X11967Y14725D01*
X11972Y14725D01*
X11997Y14723D01*
D02*
G37*
G36*
X12875Y12352D02*
X12877Y12351D01*
X12879Y12351D01*
X12880Y12351D01*
X12881Y12350D01*
X12882Y12350D01*
X12882Y12350D01*
X12882Y12350D01*
X12884Y12349D01*
X12885Y12348D01*
X12886Y12348D01*
X12887Y12347D01*
X12888Y12346D01*
X12888Y12345D01*
X12889Y12345D01*
X12889Y12345D01*
X12889Y12344D01*
X12890Y12343D01*
X12891Y12342D01*
X12892Y12340D01*
X12892Y12339D01*
X12892Y12339D01*
X12892Y12338D01*
X12892Y12338D01*
Y12338D01*
X12893Y12337D01*
X12893Y12335D01*
X12893Y12333D01*
X12893Y12332D01*
X12894Y12331D01*
X12894Y12330D01*
Y12330D01*
Y12329D01*
Y12329D01*
Y12329D01*
Y12328D01*
X12894Y12326D01*
X12893Y12325D01*
X12893Y12323D01*
X12893Y12322D01*
X12893Y12321D01*
X12893Y12320D01*
X12893Y12320D01*
X12892Y12319D01*
Y12319D01*
X12892Y12318D01*
X12891Y12317D01*
X12891Y12315D01*
X12890Y12314D01*
X12889Y12314D01*
X12889Y12313D01*
X12889Y12313D01*
X12889Y12312D01*
X12888Y12311D01*
X12887Y12310D01*
X12886Y12310D01*
X12885Y12309D01*
X12884Y12308D01*
X12883Y12308D01*
X12883Y12308D01*
X12882Y12308D01*
X12881Y12307D01*
X12879Y12307D01*
X12878Y12306D01*
X12876Y12306D01*
X12875Y12306D01*
X12874Y12306D01*
X12873D01*
X12872Y12306D01*
X12871Y12306D01*
X12869Y12306D01*
X12868Y12307D01*
X12867Y12307D01*
X12867Y12307D01*
X12866Y12307D01*
X12866D01*
X12865Y12308D01*
X12864Y12308D01*
X12863Y12309D01*
X12862Y12309D01*
X12861Y12310D01*
X12861Y12310D01*
X12861Y12310D01*
X12861Y12310D01*
X12860Y12311D01*
X12859Y12312D01*
X12858Y12313D01*
X12858Y12314D01*
X12857Y12315D01*
X12857Y12315D01*
X12857Y12315D01*
X12857Y12316D01*
X12856Y12317D01*
X12856Y12318D01*
X12856Y12319D01*
X12855Y12320D01*
X12855Y12321D01*
X12855Y12321D01*
Y12322D01*
Y12322D01*
X12866D01*
X12866Y12321D01*
X12866Y12320D01*
X12867Y12319D01*
X12867Y12319D01*
Y12319D01*
X12867Y12318D01*
X12868Y12318D01*
X12868Y12317D01*
X12868Y12317D01*
X12868D01*
X12869Y12317D01*
X12870Y12316D01*
X12870Y12316D01*
X12871Y12316D01*
X12871D01*
X12872Y12316D01*
X12873Y12316D01*
X12873Y12315D01*
X12874D01*
X12874Y12316D01*
X12875Y12316D01*
X12876Y12316D01*
X12877Y12316D01*
X12877Y12316D01*
X12878Y12316D01*
X12878Y12316D01*
X12878D01*
X12879Y12317D01*
X12880Y12318D01*
X12880Y12319D01*
X12880Y12319D01*
X12880Y12319D01*
Y12319D01*
X12881Y12321D01*
X12881Y12322D01*
X12881Y12322D01*
X12882Y12323D01*
X12882Y12323D01*
Y12323D01*
X12882Y12325D01*
Y12326D01*
X12882Y12327D01*
Y12327D01*
Y12328D01*
Y12328D01*
Y12328D01*
Y12329D01*
X12882Y12331D01*
Y12332D01*
X12882Y12333D01*
Y12333D01*
X12882Y12334D01*
Y12334D01*
Y12334D01*
X12881Y12336D01*
X12881Y12336D01*
X12881Y12337D01*
X12881Y12338D01*
X12881Y12338D01*
X12880Y12338D01*
Y12338D01*
X12880Y12339D01*
X12879Y12340D01*
X12878Y12341D01*
X12878Y12341D01*
X12878Y12341D01*
X12878D01*
X12877Y12341D01*
X12877Y12342D01*
X12875Y12342D01*
X12875D01*
X12874Y12342D01*
X12874D01*
X12872Y12342D01*
X12871Y12342D01*
X12871Y12342D01*
X12871Y12342D01*
X12871Y12341D01*
X12871D01*
X12870Y12341D01*
X12869Y12340D01*
X12868Y12340D01*
X12868Y12340D01*
Y12340D01*
X12868Y12339D01*
X12867Y12338D01*
X12867Y12338D01*
X12867Y12337D01*
Y12337D01*
X12866Y12336D01*
X12866Y12335D01*
X12866Y12335D01*
Y12335D01*
Y12334D01*
Y12334D01*
X12855D01*
X12855Y12336D01*
X12855Y12337D01*
X12856Y12338D01*
X12856Y12339D01*
X12856Y12340D01*
X12856Y12341D01*
X12856Y12341D01*
X12857Y12342D01*
X12857Y12343D01*
X12858Y12344D01*
X12858Y12345D01*
X12859Y12345D01*
X12859Y12346D01*
X12860Y12347D01*
X12860Y12347D01*
X12860Y12347D01*
X12861Y12348D01*
X12862Y12348D01*
X12863Y12349D01*
X12864Y12350D01*
X12865Y12350D01*
X12866Y12350D01*
X12866Y12350D01*
X12866Y12350D01*
X12867Y12351D01*
X12869Y12351D01*
X12870Y12351D01*
X12871Y12351D01*
X12872Y12352D01*
X12873Y12352D01*
X12873D01*
X12875Y12352D01*
D02*
G37*
G36*
X13299Y12307D02*
X13276D01*
X13274Y12307D01*
X13273Y12307D01*
X13271Y12307D01*
X13269Y12307D01*
X13268Y12308D01*
X13267Y12308D01*
X13265Y12309D01*
X13264Y12309D01*
X13263Y12309D01*
X13263Y12310D01*
X13262Y12310D01*
X13261Y12311D01*
X13261Y12311D01*
X13261Y12311D01*
X13260Y12311D01*
X13260D01*
X13259Y12312D01*
X13258Y12313D01*
X13258Y12314D01*
X13257Y12315D01*
X13257Y12316D01*
X13256Y12317D01*
X13255Y12319D01*
X13255Y12321D01*
X13255Y12322D01*
X13255Y12323D01*
X13255Y12323D01*
Y12324D01*
Y12324D01*
Y12324D01*
X13255Y12326D01*
X13255Y12326D01*
X13255Y12327D01*
X13255Y12328D01*
X13255Y12328D01*
X13255Y12328D01*
Y12328D01*
X13256Y12330D01*
X13256Y12331D01*
X13256Y12331D01*
X13257Y12332D01*
X13257Y12332D01*
X13257Y12332D01*
X13257Y12332D01*
X13258Y12333D01*
X13259Y12334D01*
X13259Y12335D01*
X13260Y12335D01*
X13260Y12335D01*
X13260Y12335D01*
X13262Y12336D01*
X13263Y12337D01*
X13264Y12337D01*
X13264Y12337D01*
X13264Y12337D01*
X13265D01*
X13263Y12338D01*
X13262Y12338D01*
X13262Y12339D01*
X13261Y12339D01*
X13261Y12339D01*
X13261Y12339D01*
X13261Y12339D01*
X13260Y12340D01*
X13259Y12341D01*
X13259Y12342D01*
X13258Y12342D01*
X13258Y12342D01*
Y12342D01*
X13257Y12344D01*
X13257Y12345D01*
X13257Y12345D01*
X13257Y12346D01*
X13257Y12346D01*
Y12346D01*
X13256Y12347D01*
X13256Y12349D01*
X13256Y12349D01*
Y12349D01*
Y12350D01*
Y12350D01*
X13256Y12351D01*
X13256Y12353D01*
X13257Y12354D01*
X13257Y12355D01*
X13257Y12356D01*
X13257Y12356D01*
X13257Y12357D01*
X13258Y12357D01*
X13258Y12358D01*
X13259Y12359D01*
X13260Y12360D01*
X13260Y12361D01*
X13261Y12361D01*
X13261Y12362D01*
X13262Y12362D01*
X13262Y12362D01*
X13263Y12363D01*
X13264Y12363D01*
X13265Y12364D01*
X13266Y12364D01*
X13267Y12365D01*
X13268Y12365D01*
X13269Y12365D01*
X13269D01*
X13270Y12365D01*
X13272Y12365D01*
X13273Y12366D01*
X13275Y12366D01*
X13276D01*
X13277Y12366D01*
X13299D01*
Y12307D01*
D02*
G37*
%LPC*%
G36*
X13134Y12717D02*
Y12670D01*
X13174Y12693D01*
X13134Y12717D01*
D02*
G37*
G36*
X13304Y12713D02*
X13220Y12667D01*
X13220Y12618D01*
X13221Y12619D01*
Y12614D01*
X13220Y12468D01*
X13304Y12517D01*
Y12713D01*
D02*
G37*
G36*
X13176Y12589D02*
X13088Y12539D01*
X13130Y12515D01*
X13130Y12418D01*
X13132Y12417D01*
X13134Y12418D01*
X13133Y12515D01*
X13218Y12564D01*
Y12565D01*
X13176Y12589D01*
D02*
G37*
G36*
X12957Y12714D02*
Y12517D01*
X13000Y12492D01*
X13084Y12541D01*
X13042Y12565D01*
Y12614D01*
X13041Y12613D01*
X13041Y12666D01*
X12957Y12714D01*
D02*
G37*
G36*
X13176Y12690D02*
X13043Y12615D01*
Y12566D01*
X13085Y12542D01*
X13218Y12617D01*
X13219Y12667D01*
X13176Y12690D01*
D02*
G37*
G36*
X13218Y12613D02*
X13179Y12591D01*
X13218Y12569D01*
Y12613D01*
D02*
G37*
G36*
X13000Y12740D02*
X12959Y12717D01*
X13041Y12670D01*
X13000Y12740D01*
D02*
G37*
G36*
X13302Y12716D02*
X13176Y12692D01*
X13220Y12668D01*
X13304Y12715D01*
X13302Y12716D01*
D02*
G37*
G36*
X13130Y12715D02*
X13044Y12666D01*
X13044Y12619D01*
X13130Y12668D01*
Y12715D01*
D02*
G37*
G36*
X13328Y12342D02*
X13327D01*
X13326Y12342D01*
X13325Y12342D01*
X13325Y12342D01*
X13324Y12341D01*
X13324Y12341D01*
X13323Y12341D01*
X13323Y12341D01*
X13322Y12340D01*
X13321Y12339D01*
X13321Y12339D01*
X13321Y12338D01*
X13321Y12338D01*
Y12338D01*
X13320Y12337D01*
X13319Y12335D01*
X13319Y12335D01*
X13319Y12334D01*
X13319Y12334D01*
Y12334D01*
X13319Y12332D01*
X13319Y12332D01*
Y12331D01*
X13318Y12330D01*
Y12330D01*
Y12329D01*
Y12329D01*
Y12328D01*
X13319Y12326D01*
X13319Y12326D01*
X13319Y12325D01*
X13319Y12324D01*
X13319Y12324D01*
X13319Y12323D01*
Y12323D01*
X13320Y12322D01*
X13320Y12321D01*
X13320Y12320D01*
X13320Y12320D01*
X13320Y12319D01*
X13321Y12319D01*
X13321Y12319D01*
X13321Y12318D01*
X13322Y12317D01*
X13323Y12317D01*
X13323Y12317D01*
X13323Y12317D01*
X13323Y12316D01*
X13324Y12316D01*
X13325Y12316D01*
X13326Y12316D01*
X13327D01*
X13327Y12315D01*
X13328D01*
X13328Y12316D01*
X13329Y12316D01*
X13330Y12316D01*
X13331Y12316D01*
X13331Y12316D01*
X13332Y12316D01*
X13332Y12316D01*
X13332D01*
X13333Y12317D01*
X13334Y12318D01*
X13334Y12319D01*
X13335Y12319D01*
X13335Y12319D01*
X13335Y12319D01*
X13335Y12321D01*
X13336Y12322D01*
X13336Y12322D01*
X13336Y12323D01*
X13336Y12323D01*
Y12323D01*
X13336Y12325D01*
X13337Y12326D01*
Y12327D01*
X13337Y12327D01*
Y12328D01*
Y12328D01*
Y12328D01*
Y12329D01*
X13337Y12331D01*
X13336Y12332D01*
X13336Y12333D01*
Y12333D01*
X13336Y12334D01*
X13336Y12334D01*
Y12334D01*
X13336Y12336D01*
X13336Y12336D01*
X13335Y12337D01*
X13335Y12338D01*
X13335Y12338D01*
X13335Y12338D01*
Y12338D01*
X13334Y12339D01*
X13333Y12340D01*
X13332Y12341D01*
X13332Y12341D01*
X13332Y12341D01*
X13332D01*
X13331Y12341D01*
X13330Y12342D01*
X13329Y12342D01*
X13328D01*
X13328Y12342D01*
D02*
G37*
G36*
X13287Y12333D02*
X13276D01*
X13274Y12332D01*
X13273Y12332D01*
X13273Y12332D01*
X13272Y12332D01*
X13272Y12332D01*
X13272Y12332D01*
X13272D01*
X13271Y12332D01*
X13270Y12331D01*
X13269Y12331D01*
X13269Y12330D01*
Y12330D01*
X13268Y12329D01*
X13268Y12329D01*
X13268Y12328D01*
X13268Y12328D01*
X13267Y12328D01*
Y12328D01*
X13267Y12327D01*
X13267Y12326D01*
X13267Y12325D01*
Y12325D01*
Y12324D01*
Y12324D01*
X13267Y12323D01*
X13267Y12322D01*
X13267Y12322D01*
X13267Y12322D01*
X13268Y12321D01*
Y12321D01*
X13268Y12320D01*
X13269Y12319D01*
X13269Y12319D01*
X13269Y12319D01*
X13269Y12319D01*
X13270Y12318D01*
X13271Y12318D01*
X13271Y12317D01*
X13272Y12317D01*
X13272Y12317D01*
X13272D01*
X13273Y12317D01*
X13275Y12317D01*
X13275Y12317D01*
X13287D01*
Y12333D01*
D02*
G37*
G36*
X13386Y12263D02*
X13380Y12245D01*
X13392D01*
X13386Y12263D01*
D02*
G37*
G36*
X13228Y12342D02*
X13227D01*
X13226Y12342D01*
X13225Y12342D01*
X13224Y12342D01*
X13224Y12341D01*
X13224Y12341D01*
X13223Y12341D01*
X13223Y12341D01*
X13222Y12340D01*
X13221Y12339D01*
X13221Y12339D01*
X13221Y12338D01*
X13220Y12338D01*
Y12338D01*
X13220Y12337D01*
X13219Y12335D01*
X13219Y12335D01*
X13219Y12334D01*
X13219Y12334D01*
Y12334D01*
X13219Y12332D01*
X13218Y12332D01*
Y12331D01*
X13218Y12330D01*
Y12330D01*
Y12329D01*
Y12329D01*
Y12328D01*
X13218Y12326D01*
X13219Y12326D01*
X13219Y12325D01*
X13219Y12324D01*
X13219Y12324D01*
X13219Y12323D01*
Y12323D01*
X13219Y12322D01*
X13220Y12321D01*
X13220Y12320D01*
X13220Y12320D01*
X13220Y12319D01*
X13220Y12319D01*
X13220Y12319D01*
X13221Y12318D01*
X13222Y12317D01*
X13223Y12317D01*
X13223Y12317D01*
X13223Y12317D01*
X13223Y12316D01*
X13224Y12316D01*
X13225Y12316D01*
X13226Y12316D01*
X13227D01*
X13227Y12315D01*
X13227D01*
X13228Y12316D01*
X13229Y12316D01*
X13230Y12316D01*
X13230Y12316D01*
X13231Y12316D01*
X13231Y12316D01*
X13232Y12316D01*
X13232D01*
X13233Y12317D01*
X13234Y12318D01*
X13234Y12319D01*
X13234Y12319D01*
X13234Y12319D01*
X13235Y12319D01*
X13235Y12321D01*
X13236Y12322D01*
X13236Y12322D01*
X13236Y12323D01*
X13236Y12323D01*
Y12323D01*
X13236Y12325D01*
X13236Y12326D01*
Y12327D01*
X13236Y12327D01*
Y12328D01*
Y12328D01*
Y12328D01*
Y12329D01*
X13236Y12331D01*
X13236Y12332D01*
X13236Y12333D01*
Y12333D01*
X13236Y12334D01*
X13236Y12334D01*
Y12334D01*
X13236Y12336D01*
X13235Y12336D01*
X13235Y12337D01*
X13235Y12338D01*
X13235Y12338D01*
X13235Y12338D01*
Y12338D01*
X13234Y12339D01*
X13233Y12340D01*
X13232Y12341D01*
X13232Y12341D01*
X13232Y12341D01*
X13232D01*
X13231Y12341D01*
X13230Y12342D01*
X13229Y12342D01*
X13228D01*
X13228Y12342D01*
D02*
G37*
G36*
X12971D02*
X12969D01*
X12968Y12342D01*
X12968Y12342D01*
X12967Y12342D01*
X12967Y12341D01*
X12966Y12341D01*
X12966Y12341D01*
X12966Y12341D01*
X12965Y12340D01*
X12964Y12339D01*
X12964Y12339D01*
X12963Y12338D01*
X12963Y12338D01*
Y12338D01*
X12962Y12337D01*
X12962Y12335D01*
X12962Y12335D01*
X12962Y12334D01*
X12962Y12334D01*
Y12334D01*
X12961Y12332D01*
X12961Y12332D01*
Y12331D01*
X12961Y12330D01*
Y12330D01*
Y12329D01*
Y12329D01*
Y12328D01*
X12961Y12326D01*
X12961Y12326D01*
X12961Y12325D01*
X12961Y12324D01*
X12962Y12324D01*
X12962Y12323D01*
Y12323D01*
X12962Y12322D01*
X12962Y12321D01*
X12963Y12320D01*
X12963Y12320D01*
X12963Y12319D01*
X12963Y12319D01*
X12963Y12319D01*
X12964Y12318D01*
X12965Y12317D01*
X12965Y12317D01*
X12966Y12317D01*
X12966Y12317D01*
X12966Y12316D01*
X12967Y12316D01*
X12967Y12316D01*
X12969Y12316D01*
X12969D01*
X12970Y12315D01*
X12970D01*
X12971Y12316D01*
X12972Y12316D01*
X12973Y12316D01*
X12973Y12316D01*
X12974Y12316D01*
X12974Y12316D01*
X12974Y12316D01*
X12974D01*
X12976Y12317D01*
X12977Y12318D01*
X12977Y12319D01*
X12977Y12319D01*
X12977Y12319D01*
X12977Y12319D01*
X12978Y12321D01*
X12978Y12322D01*
X12979Y12322D01*
X12979Y12323D01*
X12979Y12323D01*
Y12323D01*
X12979Y12325D01*
X12979Y12326D01*
Y12327D01*
X12979Y12327D01*
Y12328D01*
Y12328D01*
Y12328D01*
Y12329D01*
X12979Y12331D01*
X12979Y12332D01*
X12979Y12333D01*
Y12333D01*
X12979Y12334D01*
X12979Y12334D01*
Y12334D01*
X12978Y12336D01*
X12978Y12336D01*
X12978Y12337D01*
X12978Y12338D01*
X12977Y12338D01*
X12977Y12338D01*
Y12338D01*
X12976Y12339D01*
X12975Y12340D01*
X12975Y12341D01*
X12975Y12341D01*
X12974Y12341D01*
X12974D01*
X12974Y12341D01*
X12973Y12342D01*
X12972Y12342D01*
X12971D01*
X12971Y12342D01*
D02*
G37*
G36*
X13017D02*
X13016D01*
X13015Y12342D01*
X13014Y12342D01*
X13014Y12342D01*
X13013Y12341D01*
X13013Y12341D01*
X13013Y12341D01*
X13013Y12341D01*
X13011Y12340D01*
X13011Y12339D01*
X13010Y12339D01*
X13010Y12339D01*
X13010Y12338D01*
Y12338D01*
X13009Y12337D01*
X13009Y12335D01*
X13009Y12335D01*
X13009Y12334D01*
X13009Y12334D01*
Y12334D01*
X13008Y12332D01*
X13008Y12332D01*
X13008Y12331D01*
Y12330D01*
Y12330D01*
Y12329D01*
Y12329D01*
Y12328D01*
X13008Y12326D01*
Y12326D01*
X13008Y12325D01*
X13008Y12324D01*
Y12324D01*
X13009Y12323D01*
Y12323D01*
X13009Y12322D01*
X13009Y12321D01*
X13009Y12320D01*
X13010Y12320D01*
X13010Y12319D01*
X13010Y12319D01*
X13010Y12319D01*
X13011Y12318D01*
X13012Y12317D01*
X13012Y12317D01*
X13012Y12317D01*
X13012Y12316D01*
X13013Y12316D01*
X13014Y12316D01*
X13015Y12316D01*
X13016D01*
X13016Y12315D01*
X13016D01*
X13018Y12316D01*
X13019Y12316D01*
X13019Y12316D01*
X13020Y12316D01*
X13021Y12316D01*
X13021Y12316D01*
X13021Y12317D01*
X13021Y12317D01*
X13022Y12317D01*
X13023Y12318D01*
X13024Y12319D01*
X13024Y12319D01*
X13024Y12320D01*
X13024Y12320D01*
X13024Y12320D01*
Y12337D01*
X13024Y12338D01*
X13023Y12339D01*
X13023Y12339D01*
X13022Y12340D01*
X13022Y12340D01*
X13022Y12341D01*
X13022Y12341D01*
X13021Y12341D01*
X13021Y12341D01*
X13020Y12342D01*
X13018Y12342D01*
X13018Y12342D01*
X13017Y12342D01*
D02*
G37*
G36*
X13065D02*
X13063D01*
X13062Y12342D01*
X13062Y12342D01*
X13061Y12342D01*
X13061Y12341D01*
X13060Y12341D01*
X13060Y12341D01*
X13060Y12341D01*
X13059Y12340D01*
X13058Y12339D01*
X13058Y12339D01*
X13057Y12338D01*
X13057Y12338D01*
Y12338D01*
X13056Y12337D01*
X13056Y12335D01*
X13056Y12335D01*
X13056Y12334D01*
X13056Y12334D01*
Y12334D01*
X13055Y12332D01*
X13055Y12332D01*
Y12331D01*
X13055Y12330D01*
Y12330D01*
Y12329D01*
Y12329D01*
Y12328D01*
X13055Y12326D01*
X13055Y12326D01*
X13055Y12325D01*
X13055Y12324D01*
X13056Y12324D01*
X13056Y12323D01*
Y12323D01*
X13056Y12322D01*
X13056Y12321D01*
X13057Y12320D01*
X13057Y12320D01*
X13057Y12319D01*
X13057Y12319D01*
X13057Y12319D01*
X13058Y12318D01*
X13059Y12317D01*
X13059Y12317D01*
X13060Y12317D01*
X13060Y12317D01*
X13060Y12316D01*
X13061Y12316D01*
X13061Y12316D01*
X13063Y12316D01*
X13063D01*
X13064Y12315D01*
X13064D01*
X13065Y12316D01*
X13066Y12316D01*
X13067Y12316D01*
X13067Y12316D01*
X13068Y12316D01*
X13068Y12316D01*
X13068Y12316D01*
X13068D01*
X13070Y12317D01*
X13071Y12318D01*
X13071Y12319D01*
X13071Y12319D01*
X13071Y12319D01*
X13071Y12319D01*
X13072Y12321D01*
X13072Y12322D01*
X13073Y12322D01*
X13073Y12323D01*
X13073Y12323D01*
Y12323D01*
X13073Y12325D01*
X13073Y12326D01*
Y12327D01*
X13073Y12327D01*
Y12328D01*
Y12328D01*
Y12328D01*
Y12329D01*
X13073Y12331D01*
X13073Y12332D01*
X13073Y12333D01*
Y12333D01*
X13073Y12334D01*
X13073Y12334D01*
Y12334D01*
X13072Y12336D01*
X13072Y12336D01*
X13072Y12337D01*
X13072Y12338D01*
X13071Y12338D01*
X13071Y12338D01*
Y12338D01*
X13070Y12339D01*
X13069Y12340D01*
X13069Y12341D01*
X13069Y12341D01*
X13068Y12341D01*
X13068D01*
X13068Y12341D01*
X13067Y12342D01*
X13066Y12342D01*
X13065D01*
X13065Y12342D01*
D02*
G37*
G36*
X13116Y12268D02*
X13116D01*
X13115Y12268D01*
X13114Y12268D01*
X13113Y12267D01*
X13113Y12267D01*
X13113Y12267D01*
X13113D01*
X13112Y12267D01*
X13111Y12266D01*
X13111Y12266D01*
X13111Y12266D01*
X13111Y12265D01*
Y12265D01*
X13111Y12265D01*
X13110Y12264D01*
X13110Y12263D01*
X13110Y12263D01*
X13110Y12262D01*
X13109Y12262D01*
Y12262D01*
X13109Y12261D01*
X13109Y12260D01*
X13109Y12259D01*
Y12259D01*
X13109Y12258D01*
Y12257D01*
Y12257D01*
Y12257D01*
Y12257D01*
Y12246D01*
Y12245D01*
X13109Y12244D01*
X13109Y12243D01*
X13109Y12242D01*
X13109Y12242D01*
X13109Y12241D01*
X13109Y12241D01*
Y12241D01*
X13110Y12240D01*
X13110Y12239D01*
X13110Y12239D01*
X13110Y12238D01*
X13111Y12238D01*
X13111Y12238D01*
X13111Y12237D01*
X13111Y12237D01*
X13111Y12237D01*
X13112Y12236D01*
X13112Y12236D01*
X13113Y12236D01*
X13113Y12235D01*
X13113D01*
X13114Y12235D01*
X13115Y12235D01*
X13115Y12235D01*
X13116D01*
X13117Y12235D01*
X13118Y12235D01*
X13118Y12235D01*
X13118Y12235D01*
X13118Y12235D01*
X13118D01*
X13119Y12236D01*
X13120Y12237D01*
X13120Y12237D01*
X13120Y12237D01*
X13120Y12237D01*
X13120Y12237D01*
X13121Y12238D01*
X13121Y12238D01*
X13121Y12240D01*
X13121Y12240D01*
X13122Y12240D01*
X13122Y12241D01*
Y12241D01*
X13122Y12242D01*
X13122Y12243D01*
X13122Y12243D01*
Y12244D01*
X13122Y12245D01*
Y12246D01*
Y12246D01*
Y12246D01*
Y12257D01*
Y12258D01*
X13122Y12259D01*
X13122Y12260D01*
X13122Y12261D01*
X13122Y12261D01*
X13122Y12262D01*
X13122Y12262D01*
Y12262D01*
X13122Y12263D01*
X13121Y12263D01*
X13121Y12264D01*
X13121Y12265D01*
X13121Y12265D01*
X13121Y12265D01*
X13120Y12265D01*
Y12265D01*
X13120Y12266D01*
X13119Y12267D01*
X13119Y12267D01*
X13119Y12267D01*
X13118Y12267D01*
X13118D01*
X13117Y12268D01*
X13117Y12268D01*
X13116Y12268D01*
D02*
G37*
G36*
X13040Y12252D02*
X13040D01*
X13039Y12252D01*
X13038Y12252D01*
X13038Y12252D01*
X13038Y12251D01*
X13037Y12251D01*
X13037Y12251D01*
X13037D01*
X13036Y12251D01*
X13036Y12250D01*
X13035Y12250D01*
X13035Y12249D01*
X13035Y12249D01*
X13034Y12249D01*
X13034Y12248D01*
X13034Y12247D01*
X13034Y12247D01*
X13034Y12247D01*
Y12247D01*
X13033Y12246D01*
X13033Y12245D01*
X13033Y12244D01*
Y12244D01*
Y12243D01*
Y12243D01*
X13033Y12242D01*
X13033Y12241D01*
X13033Y12241D01*
X13033Y12241D01*
X13033Y12240D01*
X13034Y12240D01*
Y12240D01*
X13034Y12239D01*
X13034Y12238D01*
X13035Y12238D01*
X13035Y12238D01*
X13035Y12237D01*
X13035Y12237D01*
X13036Y12237D01*
X13036Y12236D01*
X13037Y12236D01*
X13037Y12236D01*
X13037Y12236D01*
X13037D01*
X13038Y12235D01*
X13039Y12235D01*
X13039D01*
X13039Y12235D01*
X13040D01*
X13041Y12235D01*
X13042Y12235D01*
X13042Y12235D01*
X13042Y12235D01*
X13043Y12235D01*
X13043D01*
X13043Y12236D01*
X13044Y12237D01*
X13044Y12237D01*
X13045Y12237D01*
X13045Y12237D01*
X13045Y12237D01*
X13045Y12238D01*
X13046Y12239D01*
X13046Y12240D01*
X13046Y12240D01*
X13046Y12240D01*
Y12240D01*
X13047Y12242D01*
X13047Y12243D01*
X13047Y12243D01*
X13047Y12244D01*
Y12244D01*
Y12245D01*
Y12245D01*
Y12248D01*
X13046Y12248D01*
X13046Y12249D01*
X13046Y12249D01*
X13046Y12249D01*
X13045Y12250D01*
X13045Y12250D01*
X13044Y12251D01*
X13044Y12251D01*
X13044Y12251D01*
X13043Y12251D01*
X13042Y12251D01*
X13042Y12252D01*
X13042D01*
X13041Y12252D01*
X13041Y12252D01*
X13040Y12252D01*
D02*
G37*
G36*
X13287Y12356D02*
X13278D01*
X13276Y12356D01*
X13275Y12356D01*
X13273Y12356D01*
X13272Y12355D01*
X13272Y12355D01*
X13271Y12355D01*
X13271Y12354D01*
X13271Y12354D01*
X13270Y12354D01*
X13269Y12353D01*
X13269Y12352D01*
X13269Y12351D01*
X13268Y12350D01*
X13268Y12349D01*
Y12349D01*
Y12349D01*
Y12349D01*
X13268Y12347D01*
X13269Y12346D01*
X13269Y12345D01*
X13269Y12344D01*
X13270Y12344D01*
X13270Y12343D01*
X13270Y12343D01*
X13271Y12343D01*
X13272Y12342D01*
X13273Y12342D01*
X13274Y12342D01*
X13275Y12341D01*
X13276Y12341D01*
X13277D01*
X13277Y12341D01*
X13287D01*
Y12356D01*
D02*
G37*
G36*
X13215Y12256D02*
X13214D01*
X13214Y12256D01*
X13213Y12256D01*
X13213Y12256D01*
X13212Y12255D01*
X13212Y12255D01*
X13212Y12255D01*
X13212Y12255D01*
X13211Y12254D01*
X13210Y12254D01*
X13210Y12253D01*
X13210Y12253D01*
X13210Y12253D01*
Y12253D01*
X13209Y12252D01*
X13209Y12251D01*
X13208Y12250D01*
X13208Y12250D01*
X13208Y12250D01*
Y12250D01*
X13208Y12248D01*
X13208Y12248D01*
Y12247D01*
X13208Y12246D01*
Y12246D01*
Y12246D01*
Y12246D01*
Y12245D01*
X13208Y12244D01*
X13208Y12243D01*
X13208Y12242D01*
X13208Y12242D01*
X13208Y12241D01*
X13208Y12241D01*
Y12241D01*
X13209Y12240D01*
X13209Y12239D01*
X13209Y12239D01*
X13209Y12238D01*
X13209Y12238D01*
X13210Y12238D01*
X13210Y12238D01*
X13210Y12237D01*
X13211Y12236D01*
X13211Y12236D01*
X13212Y12236D01*
X13212Y12236D01*
X13212Y12236D01*
X13212Y12235D01*
X13213Y12235D01*
X13214Y12235D01*
X13214D01*
X13215Y12235D01*
X13215D01*
X13216Y12235D01*
X13216Y12235D01*
X13217Y12235D01*
X13217Y12235D01*
X13218Y12235D01*
X13218Y12236D01*
X13218Y12236D01*
X13218D01*
X13219Y12236D01*
X13220Y12237D01*
X13220Y12237D01*
X13221Y12238D01*
X13221Y12238D01*
X13221Y12238D01*
X13221Y12239D01*
X13222Y12240D01*
X13222Y12240D01*
X13222Y12241D01*
X13222Y12241D01*
Y12241D01*
X13222Y12242D01*
X13222Y12243D01*
Y12244D01*
X13222Y12244D01*
Y12245D01*
Y12245D01*
Y12245D01*
Y12246D01*
X13222Y12247D01*
X13222Y12248D01*
X13222Y12248D01*
Y12249D01*
X13222Y12249D01*
X13222Y12250D01*
Y12250D01*
X13221Y12251D01*
X13221Y12251D01*
X13221Y12252D01*
X13221Y12252D01*
X13221Y12253D01*
X13221Y12253D01*
Y12253D01*
X13220Y12254D01*
X13219Y12255D01*
X13219Y12255D01*
X13219Y12255D01*
X13218Y12255D01*
X13218D01*
X13218Y12255D01*
X13217Y12256D01*
X13216Y12256D01*
X13216D01*
X13215Y12256D01*
D02*
G37*
G36*
X13123Y12356D02*
X13114D01*
X13112Y12356D01*
X13110Y12356D01*
X13109Y12355D01*
X13108Y12355D01*
X13107Y12354D01*
X13107Y12354D01*
X13106Y12354D01*
X13106Y12354D01*
X13105Y12353D01*
X13105Y12352D01*
X13104Y12351D01*
X13104Y12349D01*
X13104Y12349D01*
X13104Y12348D01*
Y12347D01*
Y12347D01*
Y12347D01*
X13104Y12346D01*
X13104Y12345D01*
X13104Y12344D01*
X13104Y12344D01*
X13104Y12344D01*
Y12343D01*
X13105Y12342D01*
X13106Y12342D01*
X13106Y12341D01*
X13106Y12341D01*
X13106Y12341D01*
X13106Y12341D01*
X13107Y12340D01*
X13108Y12339D01*
X13109Y12339D01*
X13109Y12339D01*
X13109Y12339D01*
X13109D01*
X13111Y12339D01*
X13112Y12338D01*
X13113Y12338D01*
X13123D01*
Y12356D01*
D02*
G37*
G36*
X13346Y12256D02*
X13345D01*
X13344Y12256D01*
X13343Y12256D01*
X13343Y12255D01*
X13342Y12255D01*
X13342Y12255D01*
X13342Y12255D01*
X13342Y12255D01*
X13341Y12254D01*
X13340Y12254D01*
X13340Y12253D01*
X13340Y12253D01*
X13340Y12253D01*
X13339Y12253D01*
Y12238D01*
X13340Y12237D01*
X13341Y12236D01*
X13341Y12236D01*
X13342Y12236D01*
X13342Y12236D01*
X13342Y12236D01*
X13342Y12235D01*
X13343Y12235D01*
X13344Y12235D01*
X13345D01*
X13345Y12235D01*
X13346D01*
X13347Y12235D01*
X13347Y12235D01*
X13348Y12235D01*
X13348Y12235D01*
X13349Y12236D01*
X13349Y12236D01*
X13349D01*
X13350Y12236D01*
X13350Y12237D01*
X13351Y12237D01*
X13351Y12238D01*
X13351Y12238D01*
X13351Y12238D01*
X13352Y12239D01*
X13352Y12240D01*
X13352Y12240D01*
X13352Y12241D01*
X13352Y12241D01*
Y12241D01*
X13352Y12242D01*
X13353Y12243D01*
Y12244D01*
X13353Y12244D01*
Y12245D01*
Y12245D01*
Y12245D01*
Y12246D01*
X13353Y12247D01*
X13352Y12248D01*
X13352Y12248D01*
X13352Y12249D01*
X13352Y12249D01*
X13352Y12250D01*
Y12250D01*
X13352Y12251D01*
X13352Y12252D01*
X13351Y12252D01*
X13351Y12252D01*
X13351Y12253D01*
X13351Y12253D01*
Y12253D01*
X13350Y12254D01*
X13349Y12255D01*
X13349Y12255D01*
X13349Y12255D01*
X13349Y12255D01*
X13349D01*
X13348Y12255D01*
X13348Y12256D01*
X13347Y12256D01*
X13346D01*
X13346Y12256D01*
D02*
G37*
G36*
X13308D02*
X13307D01*
X13307Y12256D01*
X13306Y12256D01*
X13306Y12256D01*
X13305Y12255D01*
X13305Y12255D01*
X13305Y12255D01*
X13305Y12255D01*
X13304Y12254D01*
X13303Y12254D01*
X13303Y12253D01*
X13303Y12253D01*
X13303Y12253D01*
Y12253D01*
X13302Y12252D01*
X13302Y12251D01*
X13302Y12250D01*
X13301Y12250D01*
X13301Y12250D01*
Y12250D01*
X13301Y12248D01*
X13301Y12248D01*
Y12247D01*
X13301Y12246D01*
Y12246D01*
Y12246D01*
Y12246D01*
Y12245D01*
X13301Y12244D01*
X13301Y12243D01*
X13301Y12242D01*
X13301Y12242D01*
X13301Y12241D01*
X13301Y12241D01*
Y12241D01*
X13302Y12240D01*
X13302Y12239D01*
X13302Y12239D01*
X13302Y12238D01*
X13302Y12238D01*
X13303Y12238D01*
X13303Y12238D01*
X13303Y12237D01*
X13304Y12236D01*
X13304Y12236D01*
X13305Y12236D01*
X13305Y12236D01*
X13305Y12236D01*
X13305Y12235D01*
X13306Y12235D01*
X13307Y12235D01*
X13307D01*
X13308Y12235D01*
X13308D01*
X13309Y12235D01*
X13309Y12235D01*
X13310Y12235D01*
X13310Y12235D01*
X13311Y12235D01*
X13311Y12236D01*
X13311Y12236D01*
X13311D01*
X13312Y12236D01*
X13313Y12237D01*
X13313Y12237D01*
X13314Y12238D01*
X13314Y12238D01*
X13314Y12238D01*
X13314Y12239D01*
X13315Y12240D01*
X13315Y12240D01*
X13315Y12241D01*
X13315Y12241D01*
Y12241D01*
X13315Y12242D01*
X13315Y12243D01*
Y12244D01*
X13315Y12244D01*
Y12245D01*
Y12245D01*
Y12245D01*
Y12246D01*
X13315Y12247D01*
X13315Y12248D01*
X13315Y12248D01*
Y12249D01*
X13315Y12249D01*
X13315Y12250D01*
Y12250D01*
X13314Y12251D01*
X13314Y12251D01*
X13314Y12252D01*
X13314Y12252D01*
X13314Y12253D01*
X13314Y12253D01*
Y12253D01*
X13313Y12254D01*
X13312Y12255D01*
X13312Y12255D01*
X13312Y12255D01*
X13312Y12255D01*
X13311D01*
X13311Y12255D01*
X13310Y12256D01*
X13309Y12256D01*
X13309D01*
X13308Y12256D01*
D02*
G37*
%LPD*%
D28*
X11871Y14391D02*
X12580D01*
Y13919D02*
Y14391D01*
X11871Y13919D02*
X12580D01*
X11871D02*
Y14391D01*
X13292Y13921D02*
X14001D01*
X13292D02*
Y14393D01*
X14001D01*
Y13921D02*
Y14393D01*
X12122Y12750D02*
X12115Y12757D01*
X12102D01*
X12095Y12750D01*
Y12743D01*
X12102Y12737D01*
X12109D01*
X12102D01*
X12095Y12730D01*
Y12723D01*
X12102Y12717D01*
X12115D01*
X12122Y12723D01*
X12082Y12757D02*
Y12730D01*
X12069Y12717D01*
X12055Y12730D01*
Y12757D01*
X12042Y12750D02*
X12035Y12757D01*
X12022D01*
X12015Y12750D01*
Y12743D01*
X12022Y12737D01*
X12029D01*
X12022D01*
X12015Y12730D01*
Y12723D01*
X12022Y12717D01*
X12035D01*
X12042Y12723D01*
X11918Y12760D02*
X11945D01*
Y12740D01*
X11932Y12747D01*
X11925D01*
X11918Y12740D01*
Y12727D01*
X11925Y12720D01*
X11938D01*
X11945Y12727D01*
X11905Y12760D02*
Y12734D01*
X11892Y12720D01*
X11878Y12734D01*
Y12760D01*
X12080Y12462D02*
X12086Y12469D01*
X12100D01*
X12106Y12462D01*
Y12456D01*
X12100Y12449D01*
X12086D01*
X12080Y12442D01*
Y12436D01*
X12086Y12429D01*
X12100D01*
X12106Y12436D01*
X12066Y12469D02*
X12040D01*
X12053D01*
Y12429D01*
X12026D02*
Y12456D01*
X12013Y12469D01*
X12000Y12456D01*
Y12429D01*
Y12449D01*
X12026D01*
X11986Y12469D02*
X11960D01*
X11973D01*
Y12429D01*
X11946Y12469D02*
Y12436D01*
X11940Y12429D01*
X11926D01*
X11920Y12436D01*
Y12469D01*
X11880Y12462D02*
X11886Y12469D01*
X11900D01*
X11906Y12462D01*
Y12456D01*
X11900Y12449D01*
X11886D01*
X11880Y12442D01*
Y12436D01*
X11886Y12429D01*
X11900D01*
X11906Y12436D01*
D30*
X11846Y12874D02*
X12130D01*
Y13012D01*
X11846D02*
X12130D01*
X11846Y12874D02*
Y13012D01*
D58*
X11919Y12693D02*
X11935Y12677D01*
X11919Y12661D02*
Y12693D01*
X11904Y12677D02*
X11919D01*
Y12661D02*
X11935Y12677D01*
Y12661D02*
Y12693D01*
X11904Y12654D02*
X11935D01*
X11904Y12701D02*
X11935D01*
X12051Y12677D02*
X12067Y12661D01*
Y12693D01*
Y12677D02*
X12083D01*
X12051D02*
X12067Y12693D01*
X12051Y12661D02*
Y12693D01*
Y12701D02*
X12083D01*
X12051Y12654D02*
X12083D01*
X11893Y12513D02*
X11908Y12497D01*
Y12529D01*
Y12513D02*
X11924D01*
X11893D02*
X11908Y12529D01*
X11893Y12497D02*
Y12529D01*
Y12537D02*
X11924D01*
X11893Y12489D02*
X11924D01*
D59*
X12997Y13624D02*
X13005D01*
X12997Y13678D02*
X13005D01*
X12063Y12625D02*
X12071D01*
X12063Y12572D02*
X12071D01*
X11906Y12625D02*
X11914D01*
X11906Y12572D02*
X11914D01*
D60*
X12103Y13369D02*
Y13639D01*
X11873Y13369D02*
Y13639D01*
Y13368D02*
X11905D01*
X12071D02*
X12102D01*
X12071Y13639D02*
X12102D01*
X11873D02*
X11905D01*
D61*
X12260Y12563D02*
Y12603D01*
X12240D01*
X12233Y12596D01*
Y12583D01*
X12240Y12576D01*
X12260D01*
X12247D02*
X12233Y12563D01*
X12220D02*
X12207D01*
X12213D01*
Y12603D01*
X12220Y12596D01*
X12160Y12603D02*
X12187D01*
Y12583D01*
X12173Y12590D01*
X12167D01*
X12160Y12583D01*
Y12570D01*
X12167Y12563D01*
X12180D01*
X12187Y12570D01*
X12374Y12496D02*
Y12536D01*
X12354D01*
X12347Y12529D01*
Y12516D01*
X12354Y12509D01*
X12374D01*
X12361D02*
X12347Y12496D01*
X12334D02*
X12321D01*
X12327D01*
Y12536D01*
X12334Y12529D01*
X12274Y12496D02*
X12301D01*
X12274Y12523D01*
Y12529D01*
X12281Y12536D01*
X12294D01*
X12301Y12529D01*
X13067Y13709D02*
Y13749D01*
X13047D01*
X13040Y13742D01*
Y13729D01*
X13047Y13722D01*
X13067D01*
X13054D02*
X13040Y13709D01*
X13007D02*
Y13749D01*
X13027Y13729D01*
X13000D01*
X12260Y12697D02*
Y12657D01*
X12233D01*
X12193D02*
X12220D01*
X12193Y12684D01*
Y12691D01*
X12200Y12697D01*
X12213D01*
X12220Y12691D01*
X12378Y12697D02*
Y12657D01*
X12351D01*
X12338D02*
X12325D01*
X12331D01*
Y12697D01*
X12338Y12691D01*
X12162Y13370D02*
X12122D01*
Y13390D01*
X12129Y13397D01*
X12155D01*
X12162Y13390D01*
Y13370D01*
X12122Y13437D02*
Y13410D01*
X12149Y13437D01*
X12155D01*
X12162Y13430D01*
Y13417D01*
X12155Y13410D01*
X12737Y13608D02*
X12744Y13615D01*
X12757D01*
X12764Y13608D01*
Y13581D01*
X12757Y13575D01*
X12744D01*
X12737Y13581D01*
X12724Y13575D02*
X12710D01*
X12717D01*
Y13615D01*
X12724Y13608D01*
X12690D02*
X12684Y13615D01*
X12670D01*
X12664Y13608D01*
Y13581D01*
X12670Y13575D01*
X12684D01*
X12690Y13581D01*
Y13608D01*
X12517Y12293D02*
X12523Y12300D01*
X12537D01*
X12543Y12293D01*
Y12267D01*
X12537Y12260D01*
X12523D01*
X12517Y12267D01*
X12503D02*
X12497Y12260D01*
X12483D01*
X12477Y12267D01*
Y12293D01*
X12483Y12300D01*
X12497D01*
X12503Y12293D01*
Y12287D01*
X12497Y12280D01*
X12477D01*
X13088Y13942D02*
X13095Y13936D01*
Y13922D01*
X13088Y13916D01*
X13062D01*
X13055Y13922D01*
Y13936D01*
X13062Y13942D01*
X13095Y13982D02*
Y13956D01*
X13075D01*
X13082Y13969D01*
Y13976D01*
X13075Y13982D01*
X13062D01*
X13055Y13976D01*
Y13962D01*
X13062Y13956D01*
X13144Y14294D02*
X13150Y14288D01*
Y14274D01*
X13144Y14268D01*
X13117D01*
X13110Y14274D01*
Y14288D01*
X13117Y14294D01*
X13110Y14308D02*
Y14321D01*
Y14314D01*
X13150D01*
X13144Y14308D01*
X12811Y12784D02*
Y12751D01*
X12804Y12744D01*
X12791D01*
X12784Y12751D01*
Y12784D01*
X12744Y12744D02*
X12771D01*
X12744Y12771D01*
Y12777D01*
X12751Y12784D01*
X12764D01*
X12771Y12777D01*
X12917Y14213D02*
X12891Y14173D01*
Y14213D02*
X12917Y14173D01*
X12877D02*
X12864D01*
X12871D01*
Y14213D01*
X12877Y14207D01*
X12182Y12900D02*
X12189Y12893D01*
Y12880D01*
X12182Y12873D01*
X12176D01*
X12169Y12880D01*
Y12893D01*
X12162Y12900D01*
X12156D01*
X12149Y12893D01*
Y12880D01*
X12156Y12873D01*
X12149Y12913D02*
Y12926D01*
Y12920D01*
X12189D01*
X12182Y12913D01*
X13232Y13921D02*
X13272D01*
X13232Y13948D01*
X13272D01*
X13232Y13961D02*
X13272D01*
Y13981D01*
X13266Y13988D01*
X13252D01*
X13246Y13981D01*
Y13961D01*
Y13975D02*
X13232Y13988D01*
X13272Y14028D02*
Y14001D01*
X13252D01*
Y14015D01*
Y14001D01*
X13232D01*
Y14041D02*
Y14055D01*
Y14048D01*
X13272D01*
X13266Y14041D01*
X12594Y13917D02*
X12634D01*
X12594Y13944D01*
X12634D01*
X12594Y13957D02*
X12634D01*
Y13977D01*
X12628Y13984D01*
X12614D01*
X12608Y13977D01*
Y13957D01*
Y13971D02*
X12594Y13984D01*
X12634Y14024D02*
Y13997D01*
X12614D01*
Y14011D01*
Y13997D01*
X12594D01*
Y14064D02*
Y14037D01*
X12621Y14064D01*
X12628D01*
X12634Y14057D01*
Y14044D01*
X12628Y14037D01*
X12228Y12536D02*
Y12496D01*
X12208D01*
X12202Y12503D01*
Y12529D01*
X12208Y12536D01*
X12228D01*
X12162D02*
X12175Y12529D01*
X12188Y12516D01*
Y12503D01*
X12182Y12496D01*
X12168D01*
X12162Y12503D01*
Y12509D01*
X12168Y12516D01*
X12188D01*
X12374Y12563D02*
Y12603D01*
X12354D01*
X12347Y12596D01*
Y12583D01*
X12354Y12576D01*
X12374D01*
X12361D02*
X12347Y12563D01*
X12307D02*
X12334D01*
X12307Y12590D01*
Y12596D01*
X12314Y12603D01*
X12327D01*
X12334Y12596D01*
X12294Y12563D02*
X12281D01*
X12287D01*
Y12603D01*
X12294Y12596D01*
D101*
X12518Y12629D02*
G03*
X12518Y12629I-15J0D01*
G01*
X12480Y12641D02*
X12492Y12654D01*
X12480Y12641D02*
X12480Y12390D01*
X12492Y12654D02*
X12742D01*
X12742Y12390D01*
X12480D02*
X12742D01*
D102*
X12842Y14259D02*
X12854D01*
X12623Y14314D02*
Y14334D01*
X12688Y14259D02*
X12700D01*
X12919Y14314D02*
Y14334D01*
X12623Y14408D02*
Y14424D01*
X12919Y14408D02*
Y14424D01*
M02*
