G04 Layer_Color=15132400*
%FSLAX23Y23*%
%MOIN*%
G70*
G01*
G75*
%ADD28C,0.010*%
%ADD30C,0.008*%
%ADD55C,0.010*%
%ADD56C,0.020*%
%ADD57C,0.024*%
%ADD58C,0.004*%
%ADD59C,0.008*%
%ADD60C,0.005*%
%ADD61C,0.007*%
%ADD62C,0.012*%
G36*
X12754Y12151D02*
X12755Y12151D01*
X12756Y12150D01*
X12756D01*
X12756Y12150D01*
X12757Y12150D01*
X12758Y12150D01*
X12758Y12149D01*
X12759Y12149D01*
X12759Y12148D01*
X12760Y12148D01*
X12760Y12147D01*
Y12147D01*
X12760Y12146D01*
X12760Y12146D01*
X12761Y12145D01*
X12761Y12144D01*
Y12144D01*
Y12144D01*
X12761Y12143D01*
X12760Y12142D01*
X12760Y12141D01*
Y12141D01*
X12760Y12141D01*
X12760Y12140D01*
X12759Y12139D01*
X12758Y12139D01*
X12758Y12138D01*
X12758Y12138D01*
X12757Y12138D01*
X12756Y12137D01*
X12756D01*
X12756Y12137D01*
X12755Y12137D01*
X12754Y12137D01*
X12753Y12137D01*
X12752D01*
X12752Y12137D01*
X12751Y12137D01*
X12750Y12137D01*
X12749D01*
X12749Y12137D01*
X12749Y12138D01*
X12748Y12138D01*
X12747Y12139D01*
X12747Y12139D01*
X12747Y12139D01*
X12746Y12140D01*
X12746Y12141D01*
Y12141D01*
X12745Y12141D01*
X12745Y12142D01*
X12745Y12143D01*
X12745Y12144D01*
Y12144D01*
Y12144D01*
X12745Y12145D01*
X12745Y12146D01*
X12746Y12146D01*
X12746Y12147D01*
X12746Y12148D01*
X12747Y12149D01*
X12747Y12149D01*
X12748Y12149D01*
X12748Y12150D01*
X12749Y12150D01*
X12749Y12150D01*
X12750Y12151D01*
X12752Y12151D01*
X12753Y12151D01*
X12754D01*
X12754Y12151D01*
D02*
G37*
G36*
X13996Y12161D02*
X13998Y12161D01*
X14001Y12160D01*
X14002Y12159D01*
X14003Y12159D01*
X14003Y12158D01*
X14003Y12158D01*
X14005Y12157D01*
X14005Y12155D01*
X14006Y12152D01*
X14007Y12151D01*
X14007Y12150D01*
Y12149D01*
Y12149D01*
Y12144D01*
X13988D01*
X13989Y12142D01*
X13990Y12140D01*
X13990Y12139D01*
X13990Y12139D01*
X13992Y12138D01*
X13994Y12137D01*
X13995Y12137D01*
X13996D01*
X13997Y12137D01*
X13998Y12137D01*
X13999Y12138D01*
X13999D01*
X14000Y12138D01*
X14001Y12139D01*
X14002Y12140D01*
X14002Y12140D01*
X14006Y12136D01*
X14005Y12134D01*
X14003Y12133D01*
X14002Y12133D01*
X14001Y12132D01*
X14000Y12132D01*
X13998Y12132D01*
X13996Y12131D01*
X13996D01*
X13994Y12132D01*
X13993Y12132D01*
X13990Y12133D01*
X13988Y12134D01*
X13988Y12134D01*
X13987Y12134D01*
X13987D01*
X13985Y12136D01*
X13984Y12137D01*
X13983Y12139D01*
X13983Y12142D01*
X13983Y12144D01*
X13982Y12145D01*
Y12146D01*
Y12147D01*
X13983Y12149D01*
X13983Y12152D01*
X13984Y12154D01*
X13985Y12155D01*
X13985Y12157D01*
X13986Y12157D01*
X13986Y12158D01*
X13986Y12158D01*
X13988Y12159D01*
X13990Y12160D01*
X13992Y12161D01*
X13993Y12161D01*
X13994Y12162D01*
X13995D01*
X13996Y12161D01*
D02*
G37*
G36*
X13827D02*
X13830Y12160D01*
X13830Y12160D01*
X13831Y12160D01*
X13832Y12159D01*
X13832D01*
X13833Y12159D01*
X13834Y12157D01*
X13835Y12155D01*
X13835Y12154D01*
X13835Y12153D01*
Y12152D01*
Y12152D01*
Y12132D01*
X13830D01*
Y12134D01*
X13828Y12133D01*
X13828Y12133D01*
X13827Y12132D01*
X13827D01*
X13825Y12132D01*
X13824Y12131D01*
X13822D01*
X13819Y12132D01*
X13816Y12133D01*
X13815Y12134D01*
X13814Y12134D01*
X13813Y12136D01*
X13812Y12138D01*
X13812Y12140D01*
Y12140D01*
Y12140D01*
X13812Y12143D01*
X13813Y12145D01*
X13813Y12146D01*
X13814Y12147D01*
X13816Y12148D01*
X13818Y12149D01*
X13820Y12149D01*
X13830D01*
Y12152D01*
X13829Y12154D01*
X13829Y12154D01*
X13828Y12155D01*
X13828Y12155D01*
X13827Y12155D01*
X13825Y12156D01*
X13822D01*
X13821Y12156D01*
X13820Y12155D01*
X13820Y12155D01*
X13818Y12154D01*
X13818Y12154D01*
X13818Y12154D01*
X13813Y12157D01*
X13815Y12159D01*
X13816Y12160D01*
X13817Y12160D01*
X13817Y12160D01*
X13819Y12161D01*
X13821Y12162D01*
X13823D01*
X13827Y12161D01*
D02*
G37*
G36*
X13218Y12078D02*
X13204D01*
X13176Y12124D01*
Y12078D01*
X13161D01*
Y12148D01*
X13176D01*
X13204Y12102D01*
Y12148D01*
X13218D01*
Y12078D01*
D02*
G37*
G36*
X13432Y12105D02*
X13448Y12078D01*
X13433D01*
X13424Y12095D01*
X13414Y12078D01*
X13399D01*
X13415Y12105D01*
X13400Y12130D01*
X13415D01*
X13423Y12115D01*
X13432Y12130D01*
X13447D01*
X13432Y12105D01*
D02*
G37*
G36*
X12585Y12078D02*
X12572D01*
X12571Y12084D01*
X12571Y12084D01*
X12571Y12083D01*
X12570Y12083D01*
X12570Y12082D01*
X12569Y12081D01*
X12568Y12081D01*
X12567Y12080D01*
X12566Y12079D01*
X12566Y12079D01*
X12565Y12079D01*
X12564Y12079D01*
X12563Y12078D01*
X12562Y12078D01*
X12561Y12078D01*
X12560Y12078D01*
X12558Y12078D01*
X12557D01*
X12556Y12078D01*
X12555Y12078D01*
X12554Y12078D01*
X12552Y12078D01*
X12551Y12079D01*
X12549Y12079D01*
X12549Y12080D01*
X12549Y12080D01*
X12548Y12080D01*
X12547Y12081D01*
X12546Y12082D01*
X12545Y12083D01*
X12544Y12084D01*
X12543Y12085D01*
X12543Y12085D01*
X12543Y12086D01*
X12542Y12086D01*
X12542Y12087D01*
X12541Y12088D01*
X12540Y12090D01*
X12540Y12091D01*
X12539Y12093D01*
Y12093D01*
Y12093D01*
X12539Y12094D01*
X12539Y12095D01*
X12538Y12096D01*
X12538Y12098D01*
X12538Y12100D01*
X12538Y12102D01*
X12538Y12104D01*
Y12105D01*
Y12105D01*
Y12105D01*
Y12105D01*
Y12106D01*
X12538Y12107D01*
X12538Y12108D01*
X12538Y12110D01*
X12538Y12112D01*
X12539Y12114D01*
X12539Y12115D01*
Y12116D01*
X12539Y12116D01*
X12539Y12116D01*
X12540Y12117D01*
X12540Y12118D01*
X12541Y12120D01*
X12541Y12121D01*
X12542Y12123D01*
X12543Y12124D01*
X12543Y12124D01*
X12543Y12124D01*
X12544Y12125D01*
X12545Y12126D01*
X12546Y12127D01*
X12547Y12128D01*
X12548Y12129D01*
X12549Y12129D01*
X12550Y12129D01*
X12550Y12130D01*
X12551Y12130D01*
X12552Y12130D01*
X12553Y12131D01*
X12555Y12131D01*
X12556Y12131D01*
X12558Y12131D01*
X12559D01*
X12560Y12131D01*
X12561Y12131D01*
X12562Y12131D01*
X12563Y12131D01*
X12564Y12130D01*
X12565Y12130D01*
X12565Y12130D01*
X12566Y12130D01*
X12566Y12129D01*
X12567Y12129D01*
X12568Y12128D01*
X12569Y12127D01*
X12570Y12127D01*
X12571Y12126D01*
Y12152D01*
X12585D01*
Y12078D01*
D02*
G37*
G36*
X13886Y12132D02*
X13880D01*
Y12135D01*
X13879Y12134D01*
X13878Y12133D01*
X13877Y12133D01*
X13876Y12132D01*
X13875Y12132D01*
X13874Y12132D01*
X13873Y12131D01*
X13872D01*
X13870Y12132D01*
X13869Y12132D01*
X13868Y12132D01*
X13867Y12132D01*
X13866Y12133D01*
X13865Y12134D01*
X13865Y12135D01*
X13864Y12135D01*
X13863Y12137D01*
X13863Y12138D01*
X13863Y12139D01*
Y12139D01*
Y12140D01*
X13862Y12141D01*
Y12144D01*
Y12145D01*
Y12146D01*
Y12146D01*
Y12147D01*
Y12149D01*
Y12150D01*
Y12151D01*
X13863Y12152D01*
Y12154D01*
Y12154D01*
X13863Y12155D01*
X13864Y12157D01*
X13864Y12157D01*
X13864Y12158D01*
X13865Y12159D01*
X13866Y12159D01*
X13867Y12160D01*
X13867Y12160D01*
X13869Y12161D01*
X13871Y12161D01*
X13872Y12162D01*
X13872D01*
X13874Y12161D01*
X13875Y12161D01*
X13876Y12161D01*
X13876Y12160D01*
X13878Y12160D01*
X13879Y12159D01*
X13880Y12158D01*
X13880Y12158D01*
Y12173D01*
X13886D01*
Y12132D01*
D02*
G37*
G36*
X13978Y12161D02*
X13979Y12161D01*
X13979Y12161D01*
X13980Y12160D01*
X13981Y12160D01*
X13982Y12159D01*
X13982Y12159D01*
X13978Y12154D01*
X13977Y12155D01*
X13976Y12155D01*
X13976D01*
X13975Y12156D01*
X13974D01*
X13973Y12155D01*
X13971Y12155D01*
X13970Y12154D01*
X13970Y12154D01*
X13969Y12153D01*
X13969Y12151D01*
X13968Y12150D01*
Y12150D01*
Y12149D01*
Y12132D01*
X13962D01*
Y12161D01*
X13968D01*
Y12158D01*
X13970Y12159D01*
X13971Y12160D01*
X13971Y12160D01*
X13972Y12160D01*
X13973Y12161D01*
X13975Y12162D01*
X13977D01*
X13978Y12161D01*
D02*
G37*
G36*
X13768Y12208D02*
X13770Y12208D01*
X13772Y12207D01*
X13772Y12207D01*
X13773Y12206D01*
X13775Y12205D01*
X13775Y12205D01*
X13775Y12205D01*
X13777Y12203D01*
X13777Y12202D01*
X13778Y12201D01*
Y12200D01*
X13778Y12199D01*
X13778Y12196D01*
Y12194D01*
Y12194D01*
Y12194D01*
Y12190D01*
X13778Y12188D01*
X13778Y12187D01*
X13778Y12186D01*
X13777Y12184D01*
X13776Y12183D01*
X13776Y12182D01*
X13775Y12182D01*
X13774Y12181D01*
X13773Y12180D01*
X13772Y12179D01*
X13772Y12179D01*
X13770Y12179D01*
X13768Y12178D01*
X13767Y12178D01*
X13766D01*
X13764Y12178D01*
X13762Y12179D01*
X13761Y12179D01*
X13760Y12179D01*
X13759Y12180D01*
X13758Y12181D01*
X13757Y12181D01*
X13757Y12182D01*
X13756Y12183D01*
X13755Y12185D01*
X13755Y12186D01*
X13755Y12186D01*
X13754Y12188D01*
X13754Y12191D01*
Y12192D01*
Y12193D01*
Y12193D01*
Y12194D01*
Y12197D01*
X13754Y12199D01*
X13755Y12200D01*
Y12200D01*
X13755Y12202D01*
X13756Y12204D01*
X13757Y12204D01*
X13757Y12205D01*
X13758Y12206D01*
X13759Y12206D01*
X13760Y12207D01*
X13760Y12207D01*
X13762Y12208D01*
X13764Y12208D01*
X13766D01*
X13768Y12208D01*
D02*
G37*
G36*
X13947Y12161D02*
X13950Y12160D01*
X13951Y12160D01*
X13952Y12160D01*
X13952Y12159D01*
X13952D01*
X13953Y12159D01*
X13954Y12157D01*
X13955Y12155D01*
Y12154D01*
X13956Y12153D01*
Y12152D01*
Y12152D01*
Y12132D01*
X13950D01*
Y12134D01*
X13950D01*
X13949Y12133D01*
X13948Y12133D01*
X13947Y12132D01*
X13947D01*
X13946Y12132D01*
X13944Y12131D01*
X13942D01*
X13939Y12132D01*
X13936Y12133D01*
X13935Y12134D01*
X13935Y12134D01*
X13933Y12136D01*
X13932Y12138D01*
X13932Y12140D01*
Y12140D01*
Y12140D01*
X13932Y12143D01*
X13933Y12145D01*
X13934Y12146D01*
X13934Y12147D01*
X13936Y12148D01*
X13939Y12149D01*
X13940Y12149D01*
X13950D01*
Y12152D01*
X13950Y12154D01*
X13949Y12154D01*
X13949Y12155D01*
X13948Y12155D01*
X13947Y12155D01*
X13946Y12156D01*
X13942D01*
X13941Y12156D01*
X13940Y12155D01*
X13940Y12155D01*
X13939Y12155D01*
X13939Y12154D01*
X13938Y12154D01*
Y12154D01*
X13933Y12157D01*
X13935Y12159D01*
X13936Y12160D01*
X13937Y12160D01*
X13937Y12160D01*
X13939Y12161D01*
X13941Y12162D01*
X13943D01*
X13947Y12161D01*
D02*
G37*
G36*
X13922Y12132D02*
X13916D01*
X13910Y12152D01*
X13904Y12132D01*
X13899D01*
X13889Y12161D01*
X13896D01*
X13901Y12141D01*
X13908Y12161D01*
X13912D01*
X13919Y12141D01*
X13919D01*
X13925Y12161D01*
X13931D01*
X13922Y12132D01*
D02*
G37*
G36*
X13858Y12161D02*
X13859Y12161D01*
X13859Y12161D01*
X13860Y12160D01*
X13861Y12160D01*
X13862Y12159D01*
X13862Y12159D01*
X13858Y12154D01*
X13856Y12155D01*
X13856Y12155D01*
X13856D01*
X13854Y12156D01*
X13854D01*
X13852Y12155D01*
X13851Y12155D01*
X13850Y12154D01*
X13850Y12154D01*
X13849Y12153D01*
X13848Y12151D01*
X13848Y12150D01*
Y12150D01*
Y12149D01*
Y12132D01*
X13842D01*
Y12161D01*
X13848D01*
Y12158D01*
X13848D01*
X13849Y12159D01*
X13850Y12160D01*
X13851Y12160D01*
X13851Y12160D01*
X13853Y12161D01*
X13855Y12162D01*
X13857D01*
X13858Y12161D01*
D02*
G37*
G36*
X13110Y12071D02*
Y12071D01*
X13109Y12070D01*
X13109Y12070D01*
X13109Y12069D01*
X13108Y12068D01*
X13108Y12066D01*
Y12066D01*
X13107Y12066D01*
X13107Y12066D01*
X13107Y12065D01*
X13106Y12064D01*
X13105Y12062D01*
X13104Y12062D01*
X13104Y12062D01*
X13104Y12061D01*
X13103Y12061D01*
X13103Y12060D01*
X13102Y12060D01*
X13101Y12059D01*
X13100Y12059D01*
X13100Y12059D01*
X13099Y12059D01*
X13099Y12058D01*
X13098Y12058D01*
X13097Y12058D01*
X13096Y12058D01*
X13094Y12058D01*
X13093Y12057D01*
X13092D01*
X13091Y12058D01*
X13091D01*
X13091Y12058D01*
X13090D01*
X13090Y12058D01*
X13090D01*
X13089Y12058D01*
X13089Y12058D01*
X13088Y12058D01*
X13088D01*
X13088Y12058D01*
X13087Y12058D01*
X13087Y12058D01*
Y12069D01*
X13090D01*
X13091Y12069D01*
X13092Y12069D01*
X13093D01*
X13093Y12069D01*
X13094Y12070D01*
X13095Y12070D01*
X13095Y12070D01*
X13096Y12071D01*
X13096Y12071D01*
X13097Y12072D01*
X13097Y12072D01*
X13097Y12073D01*
X13098Y12074D01*
X13098Y12074D01*
X13099Y12078D01*
X13081Y12130D01*
X13096D01*
X13106Y12098D01*
X13115Y12130D01*
X13130D01*
X13110Y12071D01*
D02*
G37*
G36*
X13045Y12126D02*
X13045Y12126D01*
X13045Y12126D01*
X13046Y12127D01*
X13046Y12127D01*
X13047Y12128D01*
X13048Y12129D01*
X13049Y12129D01*
X13050Y12130D01*
X13050Y12130D01*
X13051Y12130D01*
X13051Y12130D01*
X13052Y12131D01*
X13053Y12131D01*
X13055Y12131D01*
X13056Y12131D01*
X13058Y12131D01*
X13058D01*
X13059Y12131D01*
X13060Y12131D01*
X13062Y12131D01*
X13063Y12130D01*
X13065Y12130D01*
X13066Y12129D01*
X13067Y12129D01*
X13067Y12129D01*
X13068Y12129D01*
X13069Y12128D01*
X13070Y12127D01*
X13071Y12126D01*
X13072Y12125D01*
X13073Y12124D01*
X13073Y12124D01*
X13073Y12123D01*
X13074Y12123D01*
X13074Y12121D01*
X13075Y12120D01*
X13075Y12119D01*
X13076Y12117D01*
X13077Y12115D01*
X13077Y12115D01*
X13077Y12115D01*
X13077Y12114D01*
X13077Y12112D01*
X13077Y12111D01*
X13078Y12109D01*
X13078Y12107D01*
Y12105D01*
Y12104D01*
Y12104D01*
Y12104D01*
Y12103D01*
Y12103D01*
X13078Y12102D01*
Y12100D01*
X13078Y12099D01*
X13077Y12097D01*
X13077Y12095D01*
X13077Y12093D01*
Y12093D01*
X13076Y12092D01*
X13076Y12091D01*
X13076Y12090D01*
X13075Y12089D01*
X13074Y12087D01*
X13074Y12086D01*
X13073Y12085D01*
X13073Y12085D01*
X13072Y12084D01*
X13072Y12084D01*
X13071Y12083D01*
X13070Y12082D01*
X13069Y12081D01*
X13068Y12080D01*
X13066Y12079D01*
X13066Y12079D01*
X13066Y12079D01*
X13065Y12079D01*
X13064Y12079D01*
X13063Y12078D01*
X13061Y12078D01*
X13059Y12078D01*
X13058Y12078D01*
X13057D01*
X13056Y12078D01*
X13055Y12078D01*
X13054Y12078D01*
X13052Y12078D01*
X13051Y12079D01*
X13050Y12079D01*
X13050Y12079D01*
X13049Y12080D01*
X13049Y12080D01*
X13048Y12080D01*
X13047Y12081D01*
X13046Y12082D01*
X13045Y12083D01*
X13044Y12084D01*
X13044Y12078D01*
X13031D01*
Y12152D01*
X13045D01*
Y12126D01*
D02*
G37*
G36*
X13254Y12131D02*
X13256Y12131D01*
X13257Y12131D01*
X13259Y12130D01*
X13261Y12130D01*
X13263Y12129D01*
X13263D01*
X13263Y12129D01*
X13263Y12129D01*
X13264Y12128D01*
X13265Y12128D01*
X13266Y12127D01*
X13268Y12126D01*
X13269Y12125D01*
X13270Y12124D01*
X13270Y12124D01*
X13271Y12123D01*
X13271Y12122D01*
X13272Y12121D01*
X13273Y12120D01*
X13274Y12119D01*
X13274Y12117D01*
X13275Y12115D01*
X13275Y12115D01*
X13275Y12114D01*
X13276Y12114D01*
X13276Y12112D01*
X13276Y12111D01*
X13277Y12109D01*
X13277Y12107D01*
X13277Y12105D01*
Y12104D01*
Y12104D01*
Y12104D01*
Y12103D01*
Y12103D01*
X13277Y12102D01*
X13277Y12100D01*
X13276Y12099D01*
X13276Y12097D01*
X13276Y12095D01*
X13275Y12093D01*
X13275Y12093D01*
X13275Y12093D01*
X13274Y12092D01*
X13274Y12090D01*
X13273Y12089D01*
X13272Y12088D01*
X13271Y12086D01*
X13270Y12085D01*
X13270Y12085D01*
X13270Y12084D01*
X13269Y12084D01*
X13268Y12083D01*
X13267Y12082D01*
X13266Y12081D01*
X13264Y12080D01*
X13263Y12079D01*
X13262Y12079D01*
X13262Y12079D01*
X13261Y12079D01*
X13260Y12079D01*
X13258Y12078D01*
X13256Y12078D01*
X13254Y12078D01*
X13252Y12078D01*
X13251D01*
X13250Y12078D01*
X13249Y12078D01*
X13247Y12078D01*
X13245Y12078D01*
X13243Y12079D01*
X13242Y12079D01*
X13241Y12080D01*
X13241Y12080D01*
X13240Y12080D01*
X13239Y12081D01*
X13238Y12082D01*
X13236Y12083D01*
X13235Y12084D01*
X13234Y12085D01*
X13234Y12085D01*
X13233Y12086D01*
X13233Y12086D01*
X13232Y12087D01*
X13231Y12088D01*
X13231Y12090D01*
X13230Y12092D01*
X13229Y12093D01*
Y12093D01*
X13229Y12094D01*
X13229Y12094D01*
X13229Y12095D01*
X13228Y12096D01*
X13228Y12098D01*
X13228Y12100D01*
X13228Y12102D01*
X13228Y12104D01*
Y12105D01*
Y12105D01*
Y12105D01*
Y12105D01*
Y12106D01*
X13228Y12107D01*
X13228Y12108D01*
X13228Y12110D01*
X13228Y12112D01*
X13229Y12114D01*
X13229Y12115D01*
Y12115D01*
X13229Y12116D01*
X13229Y12116D01*
X13230Y12117D01*
X13230Y12118D01*
X13231Y12120D01*
X13232Y12121D01*
X13233Y12122D01*
X13234Y12124D01*
X13234Y12124D01*
X13234Y12124D01*
X13235Y12125D01*
X13236Y12126D01*
X13237Y12127D01*
X13239Y12127D01*
X13240Y12128D01*
X13242Y12129D01*
X13242Y12129D01*
X13242Y12130D01*
X13243Y12130D01*
X13245Y12130D01*
X13246Y12131D01*
X13248Y12131D01*
X13250Y12131D01*
X13252Y12131D01*
X13253D01*
X13254Y12131D01*
D02*
G37*
G36*
X13373D02*
X13374Y12131D01*
X13376Y12131D01*
X13377Y12130D01*
X13379Y12130D01*
X13381Y12129D01*
X13381D01*
X13381Y12129D01*
X13382Y12129D01*
X13383Y12128D01*
X13384Y12128D01*
X13385Y12127D01*
X13386Y12126D01*
X13387Y12125D01*
X13389Y12124D01*
X13389Y12124D01*
X13389Y12123D01*
X13390Y12122D01*
X13390Y12121D01*
X13391Y12120D01*
X13392Y12119D01*
X13393Y12117D01*
X13393Y12115D01*
X13394Y12115D01*
X13394Y12114D01*
X13394Y12114D01*
X13394Y12112D01*
X13395Y12111D01*
X13395Y12109D01*
X13395Y12107D01*
X13395Y12105D01*
Y12104D01*
Y12104D01*
Y12104D01*
Y12103D01*
Y12103D01*
X13395Y12102D01*
X13395Y12100D01*
X13395Y12099D01*
X13394Y12097D01*
X13394Y12095D01*
X13393Y12093D01*
X13393Y12093D01*
X13393Y12093D01*
X13393Y12092D01*
X13392Y12090D01*
X13392Y12089D01*
X13391Y12088D01*
X13390Y12086D01*
X13389Y12085D01*
X13389Y12085D01*
X13388Y12084D01*
X13387Y12084D01*
X13387Y12083D01*
X13386Y12082D01*
X13384Y12081D01*
X13383Y12080D01*
X13381Y12079D01*
X13381Y12079D01*
X13380Y12079D01*
X13379Y12079D01*
X13378Y12079D01*
X13376Y12078D01*
X13375Y12078D01*
X13373Y12078D01*
X13371Y12078D01*
X13370D01*
X13368Y12078D01*
X13367Y12078D01*
X13365Y12078D01*
X13364Y12078D01*
X13362Y12079D01*
X13360Y12079D01*
X13360Y12080D01*
X13359Y12080D01*
X13358Y12080D01*
X13357Y12081D01*
X13356Y12082D01*
X13355Y12083D01*
X13353Y12084D01*
X13352Y12085D01*
X13352Y12085D01*
X13352Y12086D01*
X13351Y12086D01*
X13351Y12087D01*
X13350Y12088D01*
X13349Y12090D01*
X13348Y12092D01*
X13347Y12093D01*
Y12093D01*
X13347Y12094D01*
X13347Y12094D01*
X13347Y12095D01*
X13347Y12096D01*
X13346Y12098D01*
X13346Y12100D01*
X13346Y12102D01*
X13346Y12104D01*
Y12105D01*
Y12105D01*
Y12105D01*
Y12105D01*
Y12106D01*
X13346Y12107D01*
X13346Y12108D01*
X13346Y12110D01*
X13347Y12112D01*
X13347Y12114D01*
X13347Y12115D01*
Y12115D01*
X13348Y12116D01*
X13348Y12116D01*
X13348Y12117D01*
X13349Y12118D01*
X13349Y12120D01*
X13350Y12121D01*
X13351Y12122D01*
X13352Y12124D01*
X13352Y12124D01*
X13353Y12124D01*
X13353Y12125D01*
X13354Y12126D01*
X13356Y12127D01*
X13357Y12127D01*
X13358Y12128D01*
X13360Y12129D01*
X13360Y12129D01*
X13361Y12130D01*
X13362Y12130D01*
X13363Y12130D01*
X13365Y12131D01*
X13366Y12131D01*
X13368Y12131D01*
X13370Y12131D01*
X13371D01*
X13373Y12131D01*
D02*
G37*
G36*
X12966Y12147D02*
X12967Y12146D01*
X12969Y12146D01*
X12970Y12146D01*
X12971Y12146D01*
X12972Y12145D01*
X12972Y12145D01*
X12972Y12145D01*
X12972Y12145D01*
X12972D01*
X12974Y12144D01*
X12975Y12144D01*
X12976Y12143D01*
X12977Y12142D01*
X12978Y12142D01*
X12978Y12141D01*
X12979Y12141D01*
X12979Y12141D01*
X12980Y12140D01*
X12981Y12138D01*
X12981Y12137D01*
X12982Y12136D01*
X12983Y12135D01*
X12983Y12135D01*
X12983Y12134D01*
X12983Y12134D01*
X12983Y12134D01*
Y12134D01*
X12984Y12133D01*
X12984Y12131D01*
X12985Y12130D01*
X12985Y12129D01*
X12985Y12128D01*
X12985Y12127D01*
Y12127D01*
Y12126D01*
Y12126D01*
Y12126D01*
X12985Y12125D01*
X12985Y12123D01*
X12985Y12122D01*
X12984Y12120D01*
X12984Y12119D01*
X12984Y12118D01*
X12983Y12117D01*
X12983Y12116D01*
X12983Y12115D01*
X12982Y12114D01*
X12982Y12113D01*
X12982Y12113D01*
X12981Y12112D01*
X12981Y12112D01*
X12981Y12112D01*
X12981Y12112D01*
X12979Y12109D01*
X12978Y12107D01*
X12976Y12105D01*
X12974Y12104D01*
X12974Y12103D01*
X12973Y12102D01*
X12972Y12102D01*
X12972Y12101D01*
X12972Y12101D01*
X12971Y12100D01*
X12971Y12100D01*
X12971Y12100D01*
X12969Y12098D01*
X12966Y12096D01*
X12964Y12094D01*
X12962Y12092D01*
X12961Y12091D01*
X12961Y12091D01*
X12960Y12090D01*
X12959Y12089D01*
X12959Y12089D01*
X12958Y12089D01*
X12958Y12089D01*
X12958Y12088D01*
X12956Y12086D01*
X12953Y12084D01*
X12951Y12081D01*
X12950Y12080D01*
X12949Y12079D01*
X12949Y12078D01*
X12948Y12077D01*
X12947Y12076D01*
X12947Y12075D01*
X12946Y12075D01*
X12946Y12074D01*
X12946Y12074D01*
X12946Y12074D01*
X12943Y12077D01*
X12942Y12078D01*
X12941Y12080D01*
X12940Y12081D01*
X12939Y12082D01*
X12938Y12083D01*
X12937Y12084D01*
X12936Y12085D01*
X12935Y12086D01*
X12934Y12087D01*
X12934Y12087D01*
X12933Y12088D01*
X12933Y12088D01*
X12933Y12088D01*
X12933Y12088D01*
X12930Y12091D01*
X12928Y12093D01*
X12926Y12095D01*
X12925Y12096D01*
X12924Y12096D01*
X12923Y12097D01*
X12922Y12098D01*
X12921Y12098D01*
X12921Y12099D01*
X12920Y12099D01*
X12920Y12100D01*
X12920Y12100D01*
X12920Y12100D01*
X12918Y12102D01*
X12916Y12104D01*
X12914Y12106D01*
X12913Y12108D01*
X12912Y12108D01*
X12912Y12109D01*
X12911Y12110D01*
X12911Y12110D01*
X12911Y12111D01*
X12910Y12111D01*
X12910Y12111D01*
X12910Y12111D01*
X12909Y12113D01*
X12909Y12114D01*
X12908Y12115D01*
X12908Y12116D01*
X12907Y12119D01*
X12907Y12121D01*
X12907Y12122D01*
X12906Y12123D01*
X12906Y12124D01*
X12906Y12125D01*
X12906Y12125D01*
Y12126D01*
Y12126D01*
Y12126D01*
X12906Y12128D01*
X12906Y12129D01*
X12907Y12131D01*
X12907Y12132D01*
X12907Y12133D01*
X12908Y12133D01*
X12908Y12134D01*
X12908Y12134D01*
X12908Y12134D01*
Y12134D01*
X12909Y12135D01*
X12909Y12137D01*
X12910Y12138D01*
X12911Y12139D01*
X12911Y12140D01*
X12912Y12140D01*
X12912Y12141D01*
X12912Y12141D01*
X12913Y12142D01*
X12914Y12143D01*
X12916Y12143D01*
X12917Y12144D01*
X12917Y12144D01*
X12918Y12145D01*
X12918Y12145D01*
X12919Y12145D01*
X12919Y12145D01*
X12919D01*
X12920Y12146D01*
X12922Y12146D01*
X12923Y12146D01*
X12924Y12147D01*
X12925Y12147D01*
X12926Y12147D01*
X12927D01*
X12928Y12147D01*
X12929Y12147D01*
X12930Y12146D01*
X12931Y12146D01*
X12932Y12146D01*
X12932Y12146D01*
X12933Y12146D01*
X12933Y12146D01*
X12934Y12145D01*
X12935Y12145D01*
X12936Y12144D01*
X12937Y12144D01*
X12937Y12143D01*
X12938Y12143D01*
X12938Y12143D01*
X12938Y12142D01*
X12939Y12142D01*
X12940Y12141D01*
X12941Y12140D01*
X12941Y12140D01*
X12942Y12139D01*
X12942Y12139D01*
X12942Y12138D01*
X12942Y12138D01*
X12943Y12137D01*
X12944Y12136D01*
X12944Y12135D01*
X12945Y12135D01*
X12945Y12134D01*
X12945Y12133D01*
X12946Y12133D01*
X12946Y12133D01*
X12947Y12135D01*
X12947Y12136D01*
X12948Y12137D01*
X12948Y12137D01*
X12948Y12138D01*
X12949Y12138D01*
X12949Y12138D01*
X12949Y12139D01*
X12950Y12140D01*
X12951Y12141D01*
X12952Y12141D01*
X12952Y12142D01*
X12953Y12142D01*
X12953Y12142D01*
X12953Y12142D01*
X12954Y12143D01*
X12955Y12144D01*
X12956Y12144D01*
X12957Y12145D01*
X12957Y12145D01*
X12958Y12145D01*
X12958Y12146D01*
X12958Y12146D01*
X12959Y12146D01*
X12960Y12146D01*
X12962Y12146D01*
X12962Y12147D01*
X12963Y12147D01*
X12964Y12147D01*
X12964D01*
X12966Y12147D01*
D02*
G37*
G36*
X12620Y12131D02*
X12621Y12131D01*
X12622Y12131D01*
X12624Y12131D01*
X12626Y12130D01*
X12628Y12129D01*
X12628Y12129D01*
X12628Y12129D01*
X12629Y12129D01*
X12630Y12128D01*
X12631Y12127D01*
X12632Y12127D01*
X12634Y12125D01*
X12635Y12124D01*
X12635Y12124D01*
X12635Y12124D01*
X12636Y12123D01*
X12636Y12122D01*
X12637Y12121D01*
X12638Y12120D01*
X12639Y12118D01*
X12639Y12116D01*
X12639Y12116D01*
X12639Y12115D01*
X12640Y12114D01*
X12640Y12113D01*
X12640Y12112D01*
X12640Y12110D01*
X12641Y12108D01*
X12641Y12106D01*
Y12100D01*
X12608D01*
Y12100D01*
X12608Y12099D01*
Y12099D01*
X12608Y12098D01*
X12608Y12097D01*
X12609Y12095D01*
Y12095D01*
X12609Y12095D01*
X12609Y12094D01*
X12610Y12094D01*
X12610Y12093D01*
X12611Y12092D01*
X12612Y12092D01*
X12612Y12091D01*
X12612Y12091D01*
X12613Y12091D01*
X12614Y12090D01*
X12615Y12089D01*
X12615D01*
X12616Y12089D01*
X12616Y12089D01*
X12617Y12089D01*
X12617Y12089D01*
X12618Y12089D01*
X12620Y12089D01*
X12621D01*
X12622Y12089D01*
X12622Y12089D01*
X12623Y12089D01*
X12625Y12089D01*
X12626Y12090D01*
X12627Y12090D01*
X12627Y12090D01*
X12628Y12090D01*
X12628Y12091D01*
X12629Y12091D01*
X12630Y12092D01*
X12631Y12092D01*
X12632Y12093D01*
X12633Y12094D01*
X12640Y12087D01*
X12639Y12087D01*
X12639Y12086D01*
X12639Y12086D01*
X12639Y12086D01*
X12638Y12085D01*
X12636Y12083D01*
X12636Y12083D01*
X12636Y12083D01*
X12636Y12083D01*
X12635Y12082D01*
X12635Y12082D01*
X12634Y12081D01*
X12632Y12080D01*
X12632D01*
X12631Y12080D01*
X12631Y12080D01*
X12630Y12080D01*
X12629Y12079D01*
X12628Y12079D01*
X12626Y12078D01*
X12626D01*
X12626Y12078D01*
X12625Y12078D01*
X12624Y12078D01*
X12623Y12078D01*
X12622Y12078D01*
X12621Y12078D01*
X12618D01*
X12617Y12078D01*
X12616Y12078D01*
X12614Y12078D01*
X12612Y12078D01*
X12610Y12079D01*
X12608Y12079D01*
X12608Y12080D01*
X12608Y12080D01*
X12607Y12080D01*
X12606Y12081D01*
X12604Y12082D01*
X12603Y12082D01*
X12602Y12084D01*
X12600Y12085D01*
X12600Y12085D01*
X12600Y12085D01*
X12599Y12086D01*
X12598Y12087D01*
X12598Y12088D01*
X12597Y12090D01*
X12596Y12091D01*
X12595Y12093D01*
X12595Y12093D01*
X12595Y12094D01*
X12595Y12094D01*
X12594Y12096D01*
X12594Y12097D01*
X12594Y12099D01*
X12594Y12101D01*
X12593Y12103D01*
Y12104D01*
Y12105D01*
Y12105D01*
Y12105D01*
Y12105D01*
X12594Y12107D01*
X12594Y12108D01*
X12594Y12110D01*
X12594Y12112D01*
X12595Y12113D01*
X12595Y12115D01*
Y12115D01*
X12595Y12115D01*
X12595Y12116D01*
X12596Y12117D01*
X12596Y12118D01*
X12597Y12120D01*
X12598Y12121D01*
X12599Y12122D01*
X12600Y12124D01*
X12600Y12124D01*
X12601Y12124D01*
X12601Y12125D01*
X12602Y12126D01*
X12603Y12127D01*
X12605Y12127D01*
X12606Y12128D01*
X12608Y12129D01*
X12608Y12129D01*
X12608Y12130D01*
X12609Y12130D01*
X12611Y12130D01*
X12612Y12131D01*
X12614Y12131D01*
X12616Y12131D01*
X12618Y12131D01*
X12619D01*
X12620Y12131D01*
D02*
G37*
G36*
X12788Y12130D02*
X12797D01*
Y12120D01*
X12788D01*
Y12094D01*
Y12094D01*
Y12094D01*
Y12093D01*
X12788Y12092D01*
X12788Y12092D01*
X12788Y12091D01*
X12788Y12091D01*
X12789Y12090D01*
X12789Y12090D01*
X12789Y12090D01*
X12790Y12089D01*
X12790Y12089D01*
X12791Y12089D01*
X12791D01*
X12792Y12089D01*
X12792Y12089D01*
X12795D01*
X12796Y12089D01*
X12796D01*
X12796Y12089D01*
X12797D01*
X12797Y12089D01*
Y12079D01*
X12797D01*
X12797Y12079D01*
X12797D01*
X12796Y12078D01*
X12795Y12078D01*
X12794Y12078D01*
X12793D01*
X12793Y12078D01*
X12792D01*
X12791Y12078D01*
X12791D01*
X12789Y12078D01*
X12788D01*
X12787Y12078D01*
X12786Y12078D01*
X12785Y12078D01*
X12783Y12078D01*
X12783D01*
X12782Y12078D01*
X12782Y12079D01*
X12781Y12079D01*
X12780Y12080D01*
X12778Y12081D01*
X12778Y12081D01*
X12778Y12081D01*
X12777Y12082D01*
X12777Y12082D01*
X12776Y12083D01*
X12776Y12084D01*
X12776Y12085D01*
X12775Y12086D01*
Y12086D01*
X12775Y12086D01*
X12775Y12087D01*
X12775Y12088D01*
X12774Y12089D01*
X12774Y12090D01*
X12774Y12091D01*
Y12093D01*
Y12120D01*
X12766D01*
Y12130D01*
X12774D01*
Y12143D01*
X12788D01*
Y12130D01*
D02*
G37*
G36*
X13313Y12148D02*
X13314D01*
X13316Y12148D01*
X13318Y12148D01*
X13320Y12148D01*
X13322Y12147D01*
X13322D01*
X13322Y12147D01*
X13323Y12147D01*
X13324Y12146D01*
X13326Y12146D01*
X13327Y12145D01*
X13328Y12144D01*
X13330Y12144D01*
X13330Y12143D01*
X13330Y12143D01*
X13331Y12143D01*
X13332Y12142D01*
X13333Y12141D01*
X13333Y12140D01*
X13334Y12139D01*
X13335Y12138D01*
X13335Y12138D01*
X13335Y12137D01*
X13335Y12136D01*
X13336Y12135D01*
X13336Y12134D01*
X13336Y12133D01*
X13337Y12131D01*
X13337Y12129D01*
Y12129D01*
Y12129D01*
Y12128D01*
X13337Y12128D01*
X13336Y12126D01*
X13336Y12125D01*
Y12124D01*
X13336Y12124D01*
X13336Y12124D01*
X13336Y12123D01*
X13335Y12122D01*
X13334Y12120D01*
Y12120D01*
X13334Y12120D01*
X13334Y12120D01*
X13333Y12119D01*
X13332Y12118D01*
X13331Y12117D01*
X13331Y12117D01*
X13331Y12117D01*
X13330Y12116D01*
X13330Y12116D01*
X13329Y12116D01*
X13328Y12115D01*
X13327Y12114D01*
X13327D01*
X13327Y12114D01*
X13328Y12114D01*
X13328Y12114D01*
X13330Y12113D01*
X13332Y12112D01*
X13332Y12112D01*
X13332Y12112D01*
X13333Y12111D01*
X13333Y12111D01*
X13334Y12110D01*
X13335Y12108D01*
X13336Y12108D01*
X13336Y12108D01*
X13336Y12108D01*
X13336Y12107D01*
X13337Y12106D01*
X13337Y12106D01*
X13338Y12104D01*
Y12104D01*
X13338Y12103D01*
X13338Y12103D01*
X13338Y12102D01*
X13338Y12102D01*
X13338Y12101D01*
X13338Y12099D01*
Y12099D01*
Y12099D01*
Y12098D01*
X13338Y12097D01*
X13338Y12096D01*
X13338Y12095D01*
X13337Y12093D01*
X13337Y12091D01*
X13336Y12089D01*
X13335Y12088D01*
X13335Y12087D01*
X13334Y12086D01*
X13333Y12085D01*
X13332Y12084D01*
X13332D01*
X13331Y12083D01*
X13331Y12083D01*
X13330Y12083D01*
X13330Y12082D01*
X13329Y12082D01*
X13328Y12081D01*
X13327Y12081D01*
X13326Y12080D01*
X13324Y12080D01*
X13323Y12080D01*
X13321Y12079D01*
X13319Y12079D01*
X13317Y12079D01*
X13315Y12079D01*
X13313Y12078D01*
X13286D01*
Y12148D01*
X13312D01*
X13313Y12148D01*
D02*
G37*
G36*
X12725Y12078D02*
X12713D01*
X12704Y12111D01*
X12694Y12078D01*
X12682D01*
X12669Y12130D01*
X12682D01*
X12689Y12097D01*
X12699Y12130D01*
X12709D01*
X12718Y12097D01*
X12725Y12130D01*
X12738D01*
X12725Y12078D01*
D02*
G37*
G36*
X12475D02*
X12461D01*
Y12097D01*
X12462Y12130D01*
X12444Y12078D01*
X12434D01*
X12415Y12130D01*
X12416Y12097D01*
Y12078D01*
X12402D01*
Y12148D01*
X12421D01*
X12439Y12098D01*
X12457Y12148D01*
X12475D01*
Y12078D01*
D02*
G37*
G36*
X12510Y12131D02*
X12511D01*
X12512Y12131D01*
X12514Y12131D01*
X12515Y12131D01*
X12517Y12130D01*
X12517D01*
X12517Y12130D01*
X12518Y12130D01*
X12519Y12129D01*
X12520Y12129D01*
X12521Y12128D01*
X12522Y12127D01*
X12523Y12127D01*
X12523Y12127D01*
X12524Y12126D01*
X12524Y12126D01*
X12525Y12125D01*
X12526Y12124D01*
X12526Y12123D01*
X12527Y12122D01*
X12528Y12121D01*
X12528Y12121D01*
X12528Y12120D01*
X12528Y12120D01*
X12528Y12119D01*
X12529Y12118D01*
X12529Y12116D01*
X12529Y12115D01*
X12529Y12113D01*
Y12091D01*
Y12091D01*
Y12091D01*
Y12090D01*
Y12090D01*
Y12088D01*
X12529Y12087D01*
Y12087D01*
Y12087D01*
X12529Y12086D01*
Y12086D01*
X12530Y12085D01*
X12530Y12084D01*
Y12084D01*
Y12084D01*
X12530Y12083D01*
X12530Y12082D01*
X12530Y12081D01*
X12530Y12081D01*
X12531Y12081D01*
X12531Y12080D01*
X12531Y12079D01*
Y12078D01*
X12517D01*
Y12079D01*
X12517Y12079D01*
X12517Y12079D01*
X12517Y12080D01*
X12516Y12080D01*
X12516Y12081D01*
X12516Y12083D01*
X12516Y12083D01*
X12515Y12083D01*
X12515Y12082D01*
X12514Y12082D01*
X12514Y12081D01*
X12513Y12080D01*
X12512Y12080D01*
X12510Y12079D01*
X12510Y12079D01*
X12510Y12079D01*
X12509Y12079D01*
X12508Y12078D01*
X12507Y12078D01*
X12506Y12078D01*
X12504Y12078D01*
X12503Y12078D01*
X12502D01*
X12501Y12078D01*
X12500D01*
X12499Y12078D01*
X12498Y12078D01*
X12496Y12079D01*
X12496D01*
X12495Y12079D01*
X12495Y12079D01*
X12494Y12079D01*
X12493Y12080D01*
X12492Y12080D01*
X12490Y12082D01*
X12490Y12082D01*
X12490Y12082D01*
X12489Y12083D01*
X12489Y12083D01*
X12488Y12084D01*
X12488Y12085D01*
X12486Y12087D01*
Y12087D01*
X12486Y12087D01*
X12486Y12088D01*
X12486Y12089D01*
X12485Y12089D01*
X12485Y12091D01*
X12485Y12092D01*
X12485Y12093D01*
Y12093D01*
Y12094D01*
X12485Y12094D01*
X12485Y12095D01*
X12485Y12096D01*
X12486Y12098D01*
X12486Y12099D01*
X12487Y12100D01*
X12487Y12100D01*
X12487Y12101D01*
X12487Y12101D01*
X12488Y12102D01*
X12488Y12103D01*
X12489Y12104D01*
X12490Y12105D01*
X12491Y12106D01*
X12491Y12106D01*
X12492Y12106D01*
X12492Y12106D01*
X12493Y12107D01*
X12494Y12107D01*
X12495Y12108D01*
X12497Y12108D01*
X12499Y12109D01*
X12499Y12109D01*
X12499Y12109D01*
X12500Y12109D01*
X12502Y12110D01*
X12503Y12110D01*
X12505Y12110D01*
X12507Y12110D01*
X12515D01*
Y12113D01*
Y12113D01*
Y12114D01*
X12515Y12114D01*
X12515Y12115D01*
X12515Y12116D01*
X12515Y12117D01*
X12514Y12118D01*
X12513Y12119D01*
X12513Y12119D01*
X12513Y12119D01*
X12513Y12120D01*
X12512Y12120D01*
X12511Y12120D01*
X12510Y12121D01*
X12509Y12121D01*
X12508Y12121D01*
X12507D01*
X12506Y12121D01*
X12506Y12121D01*
X12505Y12121D01*
X12504Y12120D01*
X12503Y12120D01*
X12502Y12119D01*
X12502Y12119D01*
X12502Y12119D01*
X12501Y12119D01*
X12501Y12118D01*
X12501Y12117D01*
X12500Y12117D01*
X12500Y12116D01*
X12500Y12115D01*
X12486D01*
Y12115D01*
Y12115D01*
X12486Y12116D01*
X12486Y12117D01*
X12487Y12118D01*
X12487Y12119D01*
X12487Y12120D01*
X12488Y12121D01*
X12488Y12121D01*
X12488Y12122D01*
X12488Y12122D01*
X12489Y12123D01*
X12490Y12124D01*
X12490Y12125D01*
X12491Y12126D01*
X12492Y12126D01*
X12492Y12127D01*
X12493Y12127D01*
X12493Y12127D01*
X12494Y12128D01*
X12495Y12128D01*
X12496Y12129D01*
X12498Y12129D01*
X12499Y12130D01*
X12499Y12130D01*
X12500Y12130D01*
X12501Y12130D01*
X12502Y12131D01*
X12503Y12131D01*
X12505Y12131D01*
X12506Y12131D01*
X12509D01*
X12510Y12131D01*
D02*
G37*
G36*
X12760Y12078D02*
X12746D01*
Y12130D01*
X12760D01*
Y12078D01*
D02*
G37*
G36*
X12818Y12125D02*
X12818Y12125D01*
X12818Y12125D01*
X12819Y12126D01*
X12820Y12127D01*
X12821Y12127D01*
X12822Y12128D01*
X12823Y12129D01*
X12824Y12130D01*
X12824Y12130D01*
X12825Y12130D01*
X12825Y12130D01*
X12826Y12130D01*
X12828Y12131D01*
X12829Y12131D01*
X12830Y12131D01*
X12832Y12131D01*
X12833D01*
X12834Y12131D01*
X12835Y12131D01*
X12837Y12131D01*
X12839Y12130D01*
X12839D01*
X12839Y12130D01*
X12840Y12130D01*
X12841Y12129D01*
X12842Y12129D01*
X12843Y12128D01*
X12843Y12128D01*
X12844Y12127D01*
X12844Y12127D01*
X12845Y12126D01*
X12845Y12126D01*
X12846Y12125D01*
X12846Y12124D01*
X12847Y12123D01*
X12847Y12122D01*
X12848Y12120D01*
X12848Y12120D01*
X12848Y12120D01*
X12848Y12119D01*
X12849Y12118D01*
X12849Y12116D01*
X12849Y12115D01*
X12849Y12113D01*
Y12111D01*
Y12078D01*
X12835D01*
Y12111D01*
Y12111D01*
Y12112D01*
Y12112D01*
X12835Y12113D01*
X12835Y12114D01*
X12835Y12115D01*
Y12115D01*
X12835Y12116D01*
X12834Y12116D01*
X12834Y12117D01*
X12833Y12118D01*
X12833Y12118D01*
X12832Y12119D01*
X12831Y12119D01*
X12830Y12120D01*
X12830D01*
X12830Y12120D01*
X12830D01*
X12829Y12120D01*
X12828Y12120D01*
X12827Y12120D01*
X12826D01*
X12826Y12120D01*
X12825D01*
X12823Y12120D01*
X12822Y12119D01*
X12821Y12119D01*
X12821Y12119D01*
X12821Y12119D01*
X12821Y12118D01*
X12820Y12118D01*
X12819Y12117D01*
X12818Y12115D01*
Y12078D01*
X12804D01*
Y12152D01*
X12818D01*
Y12125D01*
D02*
G37*
G36*
X13897Y12208D02*
X13899Y12208D01*
X13900Y12207D01*
X13901Y12207D01*
X13903Y12206D01*
X13904Y12205D01*
X13905Y12205D01*
X13906Y12205D01*
X13902Y12200D01*
X13900Y12201D01*
X13899Y12202D01*
X13898Y12202D01*
X13898D01*
X13897Y12202D01*
X13895Y12203D01*
X13894D01*
X13892Y12202D01*
X13891Y12202D01*
X13890Y12202D01*
X13890Y12202D01*
X13889Y12201D01*
X13889Y12200D01*
Y12200D01*
Y12199D01*
X13889Y12199D01*
X13890Y12198D01*
X13890Y12198D01*
Y12197D01*
X13891Y12197D01*
X13891Y12197D01*
X13892Y12196D01*
X13893D01*
X13898Y12196D01*
X13901Y12195D01*
X13903Y12195D01*
X13904Y12194D01*
X13904Y12193D01*
X13905Y12191D01*
X13906Y12189D01*
X13906Y12188D01*
Y12188D01*
Y12187D01*
X13906Y12186D01*
X13906Y12184D01*
X13905Y12182D01*
X13903Y12181D01*
X13903Y12180D01*
X13903D01*
X13900Y12179D01*
X13897Y12178D01*
X13896D01*
X13895Y12178D01*
X13894D01*
X13891Y12178D01*
X13889Y12179D01*
X13888Y12179D01*
X13887Y12179D01*
X13887D01*
X13885Y12180D01*
X13883Y12182D01*
X13881Y12183D01*
X13881Y12184D01*
X13885Y12188D01*
X13886Y12186D01*
X13888Y12185D01*
X13889Y12185D01*
X13889Y12185D01*
X13891Y12184D01*
X13893Y12184D01*
X13895D01*
X13896Y12184D01*
X13898Y12184D01*
X13898Y12185D01*
X13899D01*
X13900Y12185D01*
X13900Y12187D01*
X13900Y12187D01*
Y12188D01*
X13900Y12189D01*
X13900Y12189D01*
X13900Y12190D01*
X13899D01*
X13898Y12190D01*
X13897Y12190D01*
X13897D01*
X13891Y12191D01*
X13889Y12191D01*
X13887Y12192D01*
X13886Y12193D01*
X13885Y12193D01*
X13884Y12195D01*
X13883Y12197D01*
X13883Y12199D01*
Y12199D01*
Y12199D01*
X13883Y12201D01*
X13883Y12202D01*
X13885Y12204D01*
X13885Y12206D01*
X13886Y12206D01*
X13889Y12207D01*
X13891Y12208D01*
X13892Y12208D01*
X13894D01*
X13897Y12208D01*
D02*
G37*
G36*
X13857Y12208D02*
X13859Y12207D01*
X13861Y12206D01*
X13861Y12205D01*
X13862Y12204D01*
X13863Y12203D01*
X13864Y12201D01*
Y12200D01*
X13865Y12199D01*
Y12199D01*
Y12198D01*
Y12179D01*
X13859D01*
Y12196D01*
X13858Y12198D01*
X13858Y12200D01*
X13857Y12200D01*
X13857Y12201D01*
X13856Y12202D01*
X13854Y12202D01*
X13853Y12202D01*
X13853D01*
X13851Y12202D01*
X13850Y12202D01*
X13849Y12201D01*
X13849Y12201D01*
X13848Y12199D01*
X13847Y12198D01*
X13847Y12197D01*
Y12196D01*
Y12196D01*
Y12179D01*
X13841D01*
Y12208D01*
X13847D01*
Y12205D01*
X13848Y12206D01*
X13849Y12207D01*
X13850Y12207D01*
X13850Y12207D01*
X13852Y12208D01*
X13853Y12208D01*
X13855D01*
X13857Y12208D01*
D02*
G37*
G36*
X13963Y12179D02*
X13957D01*
Y12181D01*
X13956Y12180D01*
X13955Y12179D01*
X13954Y12179D01*
X13953Y12179D01*
X13952Y12178D01*
X13951Y12178D01*
X13949D01*
X13947Y12178D01*
X13945Y12179D01*
X13943Y12180D01*
X13943Y12180D01*
X13942D01*
X13941Y12182D01*
X13941Y12183D01*
X13940Y12185D01*
Y12187D01*
X13939Y12188D01*
Y12188D01*
Y12189D01*
Y12208D01*
X13945D01*
Y12190D01*
X13946Y12189D01*
X13946Y12187D01*
X13947Y12186D01*
X13947Y12186D01*
X13948Y12185D01*
X13950Y12184D01*
X13951Y12184D01*
X13951D01*
X13953Y12184D01*
X13954Y12185D01*
X13955Y12185D01*
X13955Y12186D01*
X13956Y12187D01*
X13957Y12189D01*
X13957Y12190D01*
Y12190D01*
Y12208D01*
X13963D01*
Y12179D01*
D02*
G37*
G36*
X14005Y12208D02*
X14007Y12208D01*
X14008Y12207D01*
X14009Y12207D01*
X14011Y12206D01*
X14012Y12205D01*
X14013Y12204D01*
X14013Y12204D01*
X14009Y12199D01*
X14008Y12200D01*
X14007Y12201D01*
X14006Y12201D01*
X14006Y12202D01*
X14005Y12202D01*
X14004Y12202D01*
X14003D01*
X14000Y12202D01*
X13998Y12201D01*
X13997Y12200D01*
X13997Y12200D01*
X13996Y12199D01*
X13996Y12198D01*
X13995Y12196D01*
X13995Y12195D01*
Y12194D01*
Y12194D01*
Y12193D01*
X13995Y12190D01*
X13996Y12188D01*
X13997Y12187D01*
X13997Y12186D01*
X13999Y12185D01*
X14001Y12184D01*
X14002Y12184D01*
X14003D01*
X14004Y12184D01*
X14005Y12185D01*
X14006Y12185D01*
X14006D01*
X14007Y12186D01*
X14008Y12187D01*
X14008Y12187D01*
X14009Y12187D01*
X14013Y12183D01*
X14012Y12182D01*
X14010Y12180D01*
X14009Y12180D01*
X14009Y12179D01*
X14007Y12179D01*
X14005Y12178D01*
X14003Y12178D01*
X14003D01*
X14001Y12178D01*
X13999Y12179D01*
X13996Y12180D01*
X13995Y12180D01*
X13994Y12181D01*
X13993Y12181D01*
X13993Y12182D01*
X13992Y12183D01*
X13991Y12185D01*
X13990Y12187D01*
X13990Y12189D01*
X13989Y12190D01*
X13989Y12192D01*
Y12193D01*
Y12193D01*
X13989Y12196D01*
X13990Y12199D01*
X13990Y12200D01*
X13991Y12202D01*
X13992Y12203D01*
X13993Y12204D01*
X13993Y12204D01*
X13993Y12205D01*
X13995Y12206D01*
X13996Y12207D01*
X14000Y12208D01*
X14001Y12208D01*
X14002Y12208D01*
X14003D01*
X14005Y12208D01*
D02*
G37*
G36*
X13911Y12431D02*
X13912Y12430D01*
Y12430D01*
X13917Y12402D01*
X13918Y12401D01*
Y12400D01*
X13918Y12400D01*
X13919Y12400D01*
X13938Y12392D01*
X13938Y12392D01*
X13939D01*
X13939Y12392D01*
X13940D01*
X13963Y12409D01*
X13965D01*
X13965Y12408D01*
X13985Y12388D01*
X13985Y12388D01*
Y12388D01*
Y12387D01*
X13985Y12387D01*
X13969Y12363D01*
X13969Y12363D01*
Y12362D01*
X13969Y12362D01*
Y12362D01*
X13977Y12342D01*
X13978Y12341D01*
X13978Y12341D01*
X13979Y12341D01*
X13979Y12340D01*
X14006Y12335D01*
X14007Y12335D01*
X14007Y12335D01*
X14008Y12334D01*
Y12334D01*
Y12306D01*
Y12305D01*
X14007Y12305D01*
X14007Y12305D01*
X14006Y12304D01*
X13980Y12300D01*
X13979Y12299D01*
X13979Y12299D01*
X13978Y12298D01*
Y12298D01*
X13970Y12277D01*
Y12277D01*
Y12276D01*
X13970Y12276D01*
Y12275D01*
X13985Y12254D01*
X13985Y12253D01*
Y12252D01*
Y12252D01*
X13985Y12252D01*
Y12251D01*
X13965Y12232D01*
X13965Y12231D01*
X13964D01*
X13964Y12232D01*
X13963D01*
X13942Y12247D01*
X13941Y12247D01*
X13940D01*
X13940Y12247D01*
X13930Y12242D01*
X13929Y12241D01*
X13929D01*
X13929Y12242D01*
X13928Y12242D01*
X13909Y12290D01*
X13908Y12290D01*
Y12290D01*
X13909Y12291D01*
X13910Y12291D01*
X13912Y12293D01*
X13912Y12293D01*
X13912D01*
X13913Y12293D01*
X13913Y12294D01*
X13918Y12297D01*
X13919Y12299D01*
X13921Y12301D01*
X13922Y12302D01*
X13923Y12304D01*
X13923Y12305D01*
X13923Y12305D01*
X13925Y12308D01*
X13926Y12310D01*
X13926Y12313D01*
X13927Y12315D01*
X13927Y12317D01*
X13928Y12318D01*
Y12320D01*
Y12320D01*
X13927Y12325D01*
X13926Y12329D01*
X13925Y12333D01*
X13923Y12336D01*
X13921Y12338D01*
X13920Y12340D01*
X13919Y12342D01*
X13918Y12342D01*
X13915Y12345D01*
X13911Y12347D01*
X13908Y12349D01*
X13904Y12350D01*
X13901Y12350D01*
X13899Y12351D01*
X13896D01*
X13892Y12351D01*
X13888Y12350D01*
X13884Y12348D01*
X13881Y12347D01*
X13878Y12345D01*
X13876Y12343D01*
X13875Y12342D01*
X13875Y12342D01*
X13871Y12338D01*
X13869Y12335D01*
X13868Y12331D01*
X13866Y12328D01*
X13866Y12325D01*
X13866Y12322D01*
X13865Y12320D01*
Y12320D01*
Y12320D01*
X13866Y12317D01*
X13866Y12314D01*
X13866Y12312D01*
X13867Y12309D01*
X13868Y12307D01*
X13869Y12306D01*
X13869Y12305D01*
X13869Y12305D01*
X13871Y12302D01*
X13873Y12300D01*
X13875Y12298D01*
X13876Y12297D01*
X13878Y12295D01*
X13879Y12295D01*
X13880Y12294D01*
X13880Y12294D01*
X13880Y12293D01*
X13880Y12293D01*
X13881Y12293D01*
X13881D01*
X13884Y12291D01*
X13884Y12291D01*
Y12290D01*
Y12290D01*
Y12290D01*
X13865Y12242D01*
X13864Y12242D01*
X13864Y12241D01*
X13863Y12242D01*
X13863D01*
X13854Y12247D01*
X13853Y12247D01*
X13852D01*
X13851Y12247D01*
X13830Y12232D01*
X13829Y12231D01*
X13829D01*
X13828Y12232D01*
X13828Y12232D01*
X13808Y12251D01*
X13808Y12252D01*
Y12252D01*
X13808Y12253D01*
Y12254D01*
X13823Y12275D01*
X13823Y12276D01*
Y12276D01*
Y12277D01*
Y12277D01*
X13823Y12277D01*
X13815Y12298D01*
X13815Y12298D01*
X13814Y12299D01*
X13814Y12300D01*
X13813Y12300D01*
X13787Y12304D01*
X13786Y12305D01*
X13786Y12305D01*
X13785Y12306D01*
Y12306D01*
Y12334D01*
X13786Y12335D01*
X13786Y12335D01*
X13787Y12335D01*
X13787D01*
X13814Y12340D01*
X13815Y12341D01*
X13815Y12341D01*
X13816Y12342D01*
Y12342D01*
X13824Y12362D01*
Y12362D01*
Y12362D01*
Y12363D01*
X13824Y12363D01*
X13808Y12387D01*
X13808Y12387D01*
Y12388D01*
X13808Y12388D01*
X13808Y12388D01*
X13828Y12408D01*
X13828Y12409D01*
X13830D01*
X13853Y12392D01*
X13854Y12392D01*
X13854D01*
X13855Y12392D01*
X13855D01*
X13875Y12400D01*
X13875Y12400D01*
X13875Y12400D01*
X13876Y12401D01*
X13876Y12402D01*
X13881Y12430D01*
X13881Y12430D01*
X13881Y12431D01*
X13882Y12431D01*
X13911D01*
X13911Y12431D01*
D02*
G37*
G36*
X12108Y12304D02*
Y12175D01*
X11995Y12110D01*
X11939Y12143D01*
X11884Y12175D01*
Y12303D01*
X11884Y12303D01*
X11995Y12368D01*
X12108Y12304D01*
D02*
G37*
G36*
X13986Y12208D02*
X13986Y12208D01*
X13987D01*
X13988Y12207D01*
X13989Y12207D01*
X13990Y12207D01*
X13990Y12206D01*
X13986Y12201D01*
X13984Y12202D01*
X13984Y12202D01*
X13983D01*
X13982Y12202D01*
X13981D01*
X13980Y12202D01*
X13979Y12202D01*
X13978Y12201D01*
X13978Y12201D01*
X13976Y12200D01*
X13976Y12198D01*
X13976Y12197D01*
Y12197D01*
Y12196D01*
Y12179D01*
X13970D01*
Y12208D01*
X13976D01*
Y12205D01*
X13976D01*
X13977Y12206D01*
X13978Y12207D01*
X13979Y12207D01*
X13979Y12207D01*
X13981Y12208D01*
X13982Y12208D01*
X13985D01*
X13986Y12208D01*
D02*
G37*
G36*
X13800Y12208D02*
X13802Y12207D01*
X13802Y12207D01*
X13803Y12207D01*
X13804Y12206D01*
X13805Y12205D01*
X13805Y12204D01*
X13806Y12204D01*
X13806Y12202D01*
X13807Y12201D01*
Y12200D01*
X13807Y12199D01*
Y12198D01*
X13807Y12197D01*
Y12195D01*
Y12193D01*
Y12193D01*
Y12192D01*
Y12192D01*
Y12190D01*
X13807Y12188D01*
Y12187D01*
X13807Y12186D01*
Y12185D01*
X13806Y12184D01*
X13806Y12183D01*
X13805Y12182D01*
X13805Y12182D01*
X13804Y12181D01*
X13803Y12180D01*
X13802Y12179D01*
X13802Y12179D01*
X13800Y12179D01*
X13799Y12178D01*
X13797Y12178D01*
X13796D01*
X13794Y12178D01*
X13793Y12179D01*
X13793Y12179D01*
X13792Y12180D01*
X13790Y12181D01*
Y12158D01*
X13790Y12158D01*
X13790Y12159D01*
X13792Y12160D01*
X13793Y12160D01*
X13793Y12161D01*
X13794Y12161D01*
X13796Y12161D01*
X13797Y12162D01*
X13798D01*
X13799Y12161D01*
X13802Y12160D01*
X13804Y12159D01*
X13804D01*
X13804Y12158D01*
X13805Y12157D01*
X13807Y12155D01*
X13807Y12153D01*
Y12151D01*
Y12132D01*
X13801D01*
Y12149D01*
Y12150D01*
X13801Y12151D01*
X13801Y12152D01*
X13800Y12154D01*
X13799Y12154D01*
X13798Y12155D01*
X13797Y12155D01*
X13795Y12156D01*
X13795D01*
X13794Y12155D01*
X13793Y12155D01*
X13791Y12154D01*
X13791Y12154D01*
X13790Y12153D01*
X13790Y12151D01*
X13790Y12149D01*
Y12132D01*
X13783D01*
Y12208D01*
X13790D01*
Y12205D01*
X13790Y12205D01*
X13790Y12206D01*
X13791Y12207D01*
X13793Y12207D01*
X13793Y12208D01*
X13794Y12208D01*
X13796Y12208D01*
X13799D01*
X13800Y12208D01*
D02*
G37*
G36*
X14030D02*
X14033Y12207D01*
X14035Y12205D01*
X14035Y12205D01*
X14035Y12205D01*
X14037Y12204D01*
X14038Y12202D01*
X14039Y12199D01*
X14039Y12198D01*
X14039Y12197D01*
Y12196D01*
Y12196D01*
Y12191D01*
X14021D01*
X14021Y12189D01*
X14022Y12187D01*
X14022Y12186D01*
X14023Y12185D01*
X14024Y12185D01*
X14026Y12184D01*
X14027Y12184D01*
X14029D01*
X14030Y12184D01*
X14031Y12184D01*
X14031D01*
X14033Y12185D01*
X14034Y12186D01*
X14034Y12186D01*
X14035Y12187D01*
X14039Y12183D01*
X14037Y12181D01*
X14035Y12180D01*
X14034Y12179D01*
X14034Y12179D01*
X14032Y12179D01*
X14030Y12178D01*
X14029Y12178D01*
X14028D01*
X14026Y12178D01*
X14025Y12179D01*
X14022Y12180D01*
X14021Y12180D01*
X14020Y12180D01*
X14019Y12181D01*
X14019D01*
X14018Y12182D01*
X14016Y12184D01*
X14016Y12186D01*
X14015Y12188D01*
X14015Y12190D01*
X14015Y12192D01*
Y12193D01*
Y12193D01*
X14015Y12196D01*
X14015Y12199D01*
X14016Y12201D01*
X14017Y12202D01*
X14018Y12204D01*
X14018Y12204D01*
X14018Y12205D01*
X14019Y12205D01*
X14020Y12206D01*
X14022Y12207D01*
X14025Y12208D01*
X14026D01*
X14026Y12208D01*
X14029D01*
X14030Y12208D01*
D02*
G37*
G36*
X13827D02*
X13830Y12207D01*
X13831Y12206D01*
X13832Y12205D01*
X13832Y12205D01*
X13832Y12205D01*
X13833Y12204D01*
X13834Y12202D01*
X13835Y12199D01*
X13836Y12198D01*
X13836Y12197D01*
Y12196D01*
Y12196D01*
Y12191D01*
X13817D01*
X13818Y12189D01*
X13818Y12187D01*
X13819Y12186D01*
X13819Y12185D01*
X13821Y12185D01*
X13823Y12184D01*
X13824Y12184D01*
X13826D01*
X13827Y12184D01*
X13828Y12184D01*
X13828D01*
X13829Y12185D01*
X13830Y12186D01*
X13831Y12186D01*
X13831Y12187D01*
X13835Y12183D01*
X13833Y12181D01*
X13832Y12180D01*
X13831Y12179D01*
X13830Y12179D01*
X13828Y12179D01*
X13826Y12178D01*
X13825Y12178D01*
X13825D01*
X13823Y12178D01*
X13821Y12179D01*
X13818Y12180D01*
X13817Y12180D01*
X13817Y12180D01*
X13816Y12181D01*
X13816D01*
X13814Y12182D01*
X13813Y12184D01*
X13812Y12186D01*
X13812Y12188D01*
X13812Y12190D01*
X13811Y12192D01*
Y12193D01*
Y12193D01*
X13812Y12196D01*
X13812Y12199D01*
X13812Y12201D01*
X13813Y12202D01*
X13814Y12204D01*
X13815Y12204D01*
X13815Y12205D01*
X13815Y12205D01*
X13817Y12206D01*
X13818Y12207D01*
X13821Y12208D01*
X13822D01*
X13823Y12208D01*
X13825D01*
X13827Y12208D01*
D02*
G37*
G36*
X13925Y12208D02*
X13926Y12208D01*
X13927Y12207D01*
X13928Y12207D01*
X13929Y12206D01*
X13930Y12205D01*
X13931Y12205D01*
X13931Y12205D01*
X13932Y12203D01*
X13933Y12202D01*
X13933Y12201D01*
Y12200D01*
X13934Y12199D01*
X13934Y12196D01*
Y12194D01*
Y12194D01*
Y12194D01*
Y12190D01*
X13934Y12188D01*
X13934Y12187D01*
X13933Y12186D01*
X13933Y12184D01*
X13932Y12183D01*
X13931Y12182D01*
X13931Y12182D01*
X13930Y12181D01*
X13929Y12180D01*
X13928Y12179D01*
X13928Y12179D01*
X13926Y12179D01*
X13924Y12178D01*
X13923Y12178D01*
X13922D01*
X13920Y12178D01*
X13918Y12179D01*
X13916Y12179D01*
X13916Y12179D01*
X13915Y12180D01*
X13914Y12181D01*
X13913Y12181D01*
X13913Y12182D01*
X13912Y12183D01*
X13911Y12185D01*
X13911Y12186D01*
X13910Y12186D01*
X13910Y12188D01*
X13910Y12191D01*
Y12192D01*
Y12193D01*
Y12193D01*
Y12194D01*
Y12197D01*
X13910Y12199D01*
X13910Y12200D01*
Y12200D01*
X13911Y12202D01*
X13912Y12204D01*
X13913Y12204D01*
X13913Y12205D01*
X13914Y12206D01*
X13915Y12206D01*
X13916Y12207D01*
X13916Y12207D01*
X13918Y12208D01*
X13920Y12208D01*
X13922D01*
X13925Y12208D01*
D02*
G37*
%LPC*%
G36*
X13253Y12120D02*
X13252D01*
X13251Y12120D01*
X13250D01*
X13249Y12120D01*
X13248Y12119D01*
X13247Y12119D01*
X13247D01*
X13247Y12119D01*
X13246Y12118D01*
X13246Y12118D01*
X13245Y12117D01*
X13244Y12115D01*
Y12115D01*
X13244Y12115D01*
X13243Y12115D01*
X13243Y12114D01*
X13243Y12113D01*
X13243Y12113D01*
X13242Y12111D01*
Y12111D01*
X13242Y12110D01*
X13242Y12110D01*
Y12109D01*
X13242Y12108D01*
X13242Y12107D01*
X13241Y12105D01*
Y12104D01*
Y12104D01*
Y12103D01*
Y12103D01*
X13242Y12102D01*
Y12101D01*
X13242Y12100D01*
X13242Y12098D01*
Y12098D01*
X13242Y12097D01*
X13242Y12097D01*
X13242Y12096D01*
X13243Y12095D01*
X13244Y12093D01*
X13244Y12093D01*
X13244Y12093D01*
X13244Y12092D01*
X13245Y12092D01*
X13246Y12091D01*
X13247Y12090D01*
X13247D01*
X13247Y12090D01*
X13248Y12089D01*
X13249Y12089D01*
X13249Y12089D01*
X13250Y12089D01*
X13251Y12089D01*
X13252Y12089D01*
X13253D01*
X13253Y12089D01*
X13254D01*
X13255Y12089D01*
X13256Y12089D01*
X13257Y12090D01*
X13257Y12090D01*
X13257Y12090D01*
X13258Y12090D01*
X13258Y12091D01*
X13259Y12092D01*
X13260Y12093D01*
X13260Y12093D01*
X13261Y12093D01*
X13261Y12094D01*
X13261Y12094D01*
X13261Y12095D01*
X13262Y12096D01*
X13262Y12098D01*
Y12098D01*
X13262Y12098D01*
X13262Y12099D01*
X13263Y12100D01*
X13263Y12101D01*
X13263Y12101D01*
X13263Y12104D01*
Y12105D01*
Y12105D01*
Y12105D01*
Y12106D01*
X13263Y12107D01*
Y12108D01*
X13263Y12109D01*
X13262Y12111D01*
Y12111D01*
X13262Y12111D01*
X13262Y12112D01*
X13262Y12112D01*
X13261Y12114D01*
X13260Y12115D01*
Y12116D01*
X13260Y12116D01*
X13260Y12116D01*
X13259Y12117D01*
X13259Y12118D01*
X13257Y12119D01*
X13257Y12119D01*
X13257Y12119D01*
X13256Y12119D01*
X13256Y12120D01*
X13255Y12120D01*
X13254Y12120D01*
X13253Y12120D01*
D02*
G37*
G36*
X11967Y12222D02*
X11940Y12207D01*
Y12206D01*
X11994Y12175D01*
X11994Y12113D01*
X11995Y12113D01*
X11996Y12113D01*
X11996Y12175D01*
X12023Y12190D01*
X11967Y12222D01*
D02*
G37*
G36*
X13055Y12120D02*
X13053D01*
X13053Y12120D01*
X13052Y12120D01*
X13050Y12120D01*
X13049Y12119D01*
X13048Y12119D01*
X13048Y12119D01*
X13048Y12118D01*
X13047Y12118D01*
X13047Y12118D01*
X13046Y12117D01*
X13046Y12116D01*
X13045Y12116D01*
X13045Y12115D01*
Y12094D01*
X13045Y12094D01*
X13045Y12094D01*
X13045Y12093D01*
X13046Y12093D01*
X13047Y12091D01*
X13047Y12091D01*
X13048Y12090D01*
X13048Y12090D01*
X13049Y12090D01*
X13049Y12090D01*
X13050Y12089D01*
X13051Y12089D01*
X13052Y12089D01*
X13053Y12089D01*
X13054Y12089D01*
X13055D01*
X13055Y12089D01*
X13056D01*
X13057Y12089D01*
X13059Y12090D01*
X13059Y12090D01*
X13059Y12090D01*
X13059Y12090D01*
X13060Y12091D01*
X13061Y12092D01*
X13062Y12093D01*
X13062Y12093D01*
X13062Y12093D01*
X13062Y12094D01*
X13063Y12094D01*
X13063Y12095D01*
X13063Y12096D01*
X13064Y12098D01*
Y12098D01*
X13064Y12098D01*
Y12099D01*
X13064Y12100D01*
X13064Y12101D01*
Y12102D01*
X13064Y12104D01*
Y12105D01*
Y12105D01*
Y12105D01*
Y12106D01*
Y12107D01*
X13064Y12108D01*
X13064Y12109D01*
X13064Y12111D01*
Y12111D01*
X13063Y12111D01*
X13063Y12112D01*
X13063Y12112D01*
X13063Y12114D01*
X13062Y12116D01*
Y12116D01*
X13062Y12116D01*
X13061Y12116D01*
X13061Y12117D01*
X13060Y12118D01*
X13059Y12119D01*
X13059Y12119D01*
X13058Y12119D01*
X13058Y12119D01*
X13058Y12120D01*
X13057Y12120D01*
X13056Y12120D01*
X13055Y12120D01*
D02*
G37*
G36*
X12515Y12102D02*
X12509D01*
X12508Y12102D01*
X12506Y12102D01*
X12505Y12101D01*
X12505D01*
X12504Y12101D01*
X12504Y12101D01*
X12504Y12101D01*
X12503Y12101D01*
X12501Y12100D01*
X12501Y12100D01*
X12501Y12099D01*
X12500Y12098D01*
X12500Y12097D01*
Y12097D01*
X12499Y12097D01*
X12499Y12096D01*
X12499Y12095D01*
X12499Y12094D01*
Y12094D01*
Y12094D01*
X12499Y12093D01*
X12499Y12093D01*
X12499Y12092D01*
X12500Y12091D01*
X12500Y12090D01*
X12501Y12090D01*
X12501Y12090D01*
X12501Y12089D01*
X12501Y12089D01*
X12502Y12089D01*
X12503Y12089D01*
X12504Y12088D01*
X12505Y12088D01*
X12506Y12088D01*
X12506D01*
X12507Y12088D01*
X12508Y12088D01*
X12509Y12088D01*
X12509D01*
X12509Y12089D01*
X12510Y12089D01*
X12511Y12089D01*
X12512Y12090D01*
X12512D01*
X12512Y12090D01*
X12513Y12090D01*
X12513Y12090D01*
X12514Y12091D01*
X12514Y12091D01*
X12514Y12092D01*
X12515Y12092D01*
X12515Y12093D01*
Y12102D01*
D02*
G37*
G36*
X11967Y12286D02*
X11940Y12271D01*
X11940Y12240D01*
X12025Y12192D01*
X12051Y12207D01*
Y12238D01*
X11967Y12286D01*
D02*
G37*
G36*
X11887Y12302D02*
X11886Y12302D01*
X11939Y12272D01*
X11967Y12287D01*
X11887Y12302D01*
D02*
G37*
G36*
X12079Y12318D02*
X12053Y12273D01*
X12105Y12303D01*
X12079Y12318D01*
D02*
G37*
G36*
X11994Y12303D02*
X11968Y12288D01*
X11994Y12273D01*
Y12303D01*
D02*
G37*
G36*
X11996Y12302D02*
Y12272D01*
X12051Y12241D01*
X12051Y12271D01*
X11996Y12302D01*
D02*
G37*
G36*
X11940Y12237D02*
Y12209D01*
X11965Y12223D01*
X11940Y12237D01*
D02*
G37*
G36*
X12106Y12301D02*
X12053Y12271D01*
X12053Y12237D01*
X12052Y12238D01*
Y12207D01*
X12025Y12191D01*
X12079Y12160D01*
X12106Y12176D01*
Y12301D01*
D02*
G37*
G36*
X11886Y12301D02*
Y12176D01*
X11939Y12145D01*
X11938Y12238D01*
Y12241D01*
X11939Y12240D01*
X11939Y12271D01*
X11886Y12301D01*
D02*
G37*
G36*
X13372Y12120D02*
X13370D01*
X13369Y12120D01*
X13369D01*
X13367Y12120D01*
X13366Y12119D01*
X13366Y12119D01*
X13365D01*
X13365Y12119D01*
X13365Y12118D01*
X13364Y12118D01*
X13363Y12117D01*
X13362Y12115D01*
Y12115D01*
X13362Y12115D01*
X13362Y12115D01*
X13361Y12114D01*
X13361Y12113D01*
X13361Y12113D01*
X13360Y12111D01*
Y12111D01*
X13360Y12110D01*
X13360Y12110D01*
Y12109D01*
X13360Y12108D01*
X13360Y12107D01*
X13360Y12105D01*
Y12104D01*
Y12104D01*
Y12103D01*
Y12103D01*
X13360Y12102D01*
Y12101D01*
X13360Y12100D01*
X13360Y12098D01*
Y12098D01*
X13360Y12097D01*
X13361Y12097D01*
X13361Y12096D01*
X13361Y12095D01*
X13362Y12093D01*
X13362Y12093D01*
X13362Y12093D01*
X13363Y12092D01*
X13363Y12092D01*
X13364Y12091D01*
X13366Y12090D01*
X13366D01*
X13366Y12090D01*
X13366Y12089D01*
X13367Y12089D01*
X13368Y12089D01*
X13368Y12089D01*
X13369Y12089D01*
X13371Y12089D01*
X13371D01*
X13372Y12089D01*
X13372D01*
X13374Y12089D01*
X13375Y12089D01*
X13375Y12090D01*
X13376Y12090D01*
X13376Y12090D01*
X13376Y12090D01*
X13377Y12091D01*
X13378Y12092D01*
X13379Y12093D01*
X13379Y12093D01*
X13379Y12093D01*
X13379Y12094D01*
X13380Y12094D01*
X13380Y12095D01*
X13380Y12096D01*
X13381Y12098D01*
Y12098D01*
X13381Y12098D01*
X13381Y12099D01*
X13381Y12100D01*
X13381Y12101D01*
X13381Y12101D01*
X13381Y12104D01*
Y12105D01*
Y12105D01*
Y12105D01*
Y12106D01*
X13381Y12107D01*
Y12108D01*
X13381Y12109D01*
X13381Y12111D01*
Y12111D01*
X13380Y12111D01*
X13380Y12112D01*
X13380Y12112D01*
X13380Y12114D01*
X13379Y12115D01*
Y12116D01*
X13379Y12116D01*
X13378Y12116D01*
X13378Y12117D01*
X13377Y12118D01*
X13375Y12119D01*
X13375Y12119D01*
X13375Y12119D01*
X13375Y12119D01*
X13374Y12120D01*
X13373Y12120D01*
X13373Y12120D01*
X13372Y12120D01*
D02*
G37*
G36*
X13824Y12203D02*
X13824D01*
X13822Y12202D01*
X13820Y12202D01*
X13819Y12201D01*
X13819Y12201D01*
X13818Y12200D01*
X13818Y12198D01*
X13817Y12197D01*
Y12196D01*
Y12196D01*
X13830D01*
X13830Y12198D01*
X13829Y12200D01*
X13828Y12201D01*
X13828Y12201D01*
X13827Y12202D01*
X13825Y12202D01*
X13824Y12203D01*
D02*
G37*
G36*
X14028D02*
X14027D01*
X14025Y12202D01*
X14024Y12202D01*
X14023Y12201D01*
X14023Y12201D01*
X14021Y12200D01*
X14021Y12198D01*
X14021Y12197D01*
Y12196D01*
Y12196D01*
X14033D01*
X14033Y12198D01*
X14033Y12200D01*
X14032Y12201D01*
X14031Y12201D01*
X14030Y12202D01*
X14029Y12202D01*
X14028Y12203D01*
D02*
G37*
G36*
X13875Y12156D02*
X13873D01*
X13871Y12155D01*
X13870Y12154D01*
X13869Y12153D01*
X13869Y12153D01*
Y12153D01*
X13868Y12150D01*
X13868Y12149D01*
Y12147D01*
Y12147D01*
Y12147D01*
X13868Y12144D01*
X13869Y12142D01*
X13869Y12141D01*
Y12140D01*
X13870Y12139D01*
X13870Y12139D01*
X13872Y12137D01*
X13873Y12137D01*
X13874D01*
X13875Y12137D01*
X13877Y12138D01*
X13878Y12139D01*
X13879Y12140D01*
X13879Y12140D01*
X13880Y12142D01*
X13880Y12145D01*
Y12146D01*
Y12146D01*
Y12147D01*
Y12149D01*
X13880Y12151D01*
X13880Y12152D01*
X13879Y12153D01*
X13879Y12154D01*
X13878Y12154D01*
X13876Y12155D01*
X13875Y12156D01*
D02*
G37*
G36*
X13830Y12144D02*
X13821D01*
X13820Y12144D01*
X13819Y12144D01*
X13818Y12143D01*
X13818Y12142D01*
X13817Y12142D01*
X13817Y12141D01*
Y12141D01*
X13817Y12140D01*
X13818Y12139D01*
X13818Y12138D01*
X13818Y12138D01*
X13820Y12137D01*
X13821Y12137D01*
X13822Y12137D01*
X13823D01*
X13825Y12137D01*
X13827Y12137D01*
X13828Y12138D01*
X13828D01*
X13829Y12139D01*
X13829Y12140D01*
X13830Y12142D01*
Y12142D01*
Y12142D01*
Y12144D01*
D02*
G37*
G36*
X13923Y12202D02*
X13922D01*
X13920Y12202D01*
X13920Y12202D01*
X13919D01*
X13918Y12201D01*
X13918Y12201D01*
X13917Y12201D01*
Y12200D01*
X13916Y12199D01*
X13916Y12198D01*
Y12198D01*
X13916Y12197D01*
Y12195D01*
Y12194D01*
Y12194D01*
Y12194D01*
Y12191D01*
X13916Y12190D01*
Y12189D01*
Y12189D01*
X13917Y12187D01*
X13917Y12186D01*
Y12186D01*
X13918Y12185D01*
X13918Y12185D01*
X13919Y12185D01*
X13919D01*
X13921Y12184D01*
X13922D01*
X13924Y12184D01*
X13925Y12185D01*
X13925D01*
X13926Y12185D01*
X13926Y12185D01*
X13927Y12186D01*
X13928Y12188D01*
X13928Y12188D01*
Y12189D01*
X13928Y12190D01*
Y12191D01*
Y12193D01*
Y12193D01*
Y12195D01*
Y12197D01*
X13928Y12197D01*
Y12198D01*
X13928Y12199D01*
X13927Y12200D01*
X13927Y12200D01*
X13927Y12200D01*
X13926Y12201D01*
X13926Y12202D01*
X13925Y12202D01*
X13925D01*
X13923Y12202D01*
D02*
G37*
G36*
X13950Y12144D02*
X13941D01*
X13940Y12144D01*
X13939Y12144D01*
X13939Y12143D01*
X13938Y12142D01*
X13938Y12142D01*
X13938Y12141D01*
Y12141D01*
X13938Y12140D01*
X13938Y12139D01*
X13938Y12138D01*
X13939Y12138D01*
X13940Y12137D01*
X13941Y12137D01*
X13943Y12137D01*
X13943D01*
X13946Y12137D01*
X13947Y12137D01*
X13948Y12138D01*
X13948D01*
X13949Y12139D01*
X13950Y12140D01*
X13950Y12142D01*
Y12142D01*
Y12142D01*
Y12144D01*
D02*
G37*
G36*
X13311Y12137D02*
X13301D01*
Y12119D01*
X13312D01*
X13312Y12119D01*
X13313D01*
X13314Y12119D01*
X13316Y12120D01*
X13317Y12120D01*
X13318Y12121D01*
X13319Y12121D01*
X13320Y12121D01*
X13320Y12122D01*
X13320Y12122D01*
X13321Y12123D01*
X13321Y12124D01*
X13322Y12125D01*
X13322Y12126D01*
X13322Y12128D01*
Y12128D01*
Y12128D01*
Y12128D01*
X13322Y12129D01*
X13322Y12130D01*
X13322Y12131D01*
X13321Y12133D01*
X13320Y12134D01*
X13319Y12134D01*
X13319Y12135D01*
X13319Y12135D01*
X13318Y12135D01*
X13317Y12136D01*
X13316Y12136D01*
X13315Y12136D01*
X13313Y12137D01*
X13311Y12137D01*
D02*
G37*
G36*
X13767Y12202D02*
X13766D01*
X13764Y12202D01*
X13764Y12202D01*
X13763D01*
X13762Y12201D01*
X13762Y12201D01*
X13761Y12200D01*
X13760Y12199D01*
X13760Y12198D01*
Y12198D01*
X13760Y12197D01*
Y12195D01*
Y12194D01*
Y12194D01*
Y12194D01*
Y12191D01*
X13760Y12190D01*
Y12189D01*
Y12189D01*
X13761Y12187D01*
X13761Y12186D01*
Y12186D01*
X13763Y12185D01*
X13763Y12185D01*
X13763D01*
X13765Y12184D01*
X13766D01*
X13768Y12184D01*
X13769Y12185D01*
X13769D01*
X13770Y12185D01*
X13770Y12185D01*
X13771Y12186D01*
X13772Y12188D01*
X13772Y12188D01*
Y12189D01*
X13772Y12190D01*
Y12191D01*
Y12193D01*
Y12193D01*
Y12195D01*
Y12197D01*
X13772Y12197D01*
Y12198D01*
X13772Y12199D01*
X13772Y12200D01*
X13771Y12200D01*
X13771Y12200D01*
X13770Y12201D01*
X13770Y12202D01*
X13769Y12202D01*
X13769D01*
X13767Y12202D01*
D02*
G37*
G36*
X13313Y12109D02*
X13301D01*
Y12090D01*
X13314D01*
X13315Y12090D01*
X13316Y12090D01*
X13318Y12091D01*
X13318D01*
X13318Y12091D01*
X13319Y12091D01*
X13319Y12091D01*
X13320Y12092D01*
X13321Y12093D01*
X13321Y12093D01*
X13321Y12093D01*
X13322Y12093D01*
X13323Y12094D01*
X13323Y12095D01*
Y12096D01*
X13323Y12096D01*
X13323Y12096D01*
X13323Y12097D01*
X13324Y12098D01*
X13324Y12099D01*
Y12099D01*
Y12100D01*
Y12100D01*
X13324Y12101D01*
X13324Y12102D01*
X13323Y12103D01*
Y12103D01*
X13323Y12103D01*
X13323Y12104D01*
X13323Y12104D01*
X13322Y12105D01*
X13321Y12106D01*
Y12106D01*
X13321Y12106D01*
X13320Y12107D01*
X13319Y12108D01*
X13318Y12108D01*
X13318D01*
X13318Y12108D01*
X13317Y12108D01*
X13317Y12108D01*
X13316Y12109D01*
X13315Y12109D01*
X13313Y12109D01*
D02*
G37*
G36*
X12562Y12120D02*
X12561D01*
X12561Y12120D01*
X12560D01*
X12558Y12120D01*
X12558Y12119D01*
X12557Y12119D01*
X12557D01*
X12557Y12119D01*
X12556Y12118D01*
X12556Y12118D01*
X12555Y12117D01*
X12554Y12116D01*
Y12115D01*
X12554Y12115D01*
X12554Y12115D01*
X12553Y12114D01*
X12553Y12114D01*
X12553Y12113D01*
X12552Y12111D01*
Y12111D01*
X12552Y12110D01*
X12552Y12110D01*
Y12109D01*
X12552Y12108D01*
X12552Y12107D01*
X12552Y12105D01*
Y12104D01*
Y12104D01*
Y12103D01*
Y12103D01*
X12552Y12102D01*
Y12101D01*
X12552Y12100D01*
X12552Y12098D01*
Y12098D01*
X12552Y12097D01*
X12552Y12097D01*
X12553Y12096D01*
X12553Y12095D01*
X12554Y12093D01*
X12554Y12093D01*
X12554Y12093D01*
X12554Y12092D01*
X12555Y12092D01*
X12556Y12091D01*
X12557Y12090D01*
X12557D01*
X12557Y12090D01*
X12558Y12089D01*
X12558Y12089D01*
X12559Y12089D01*
X12560Y12089D01*
X12562Y12089D01*
X12562D01*
X12563Y12089D01*
X12563Y12089D01*
X12565Y12089D01*
X12566Y12090D01*
X12567Y12090D01*
X12567Y12090D01*
X12568Y12090D01*
X12568Y12091D01*
X12568Y12091D01*
X12569Y12092D01*
X12570Y12092D01*
X12570Y12093D01*
X12571Y12094D01*
Y12115D01*
X12571Y12115D01*
X12570Y12115D01*
X12570Y12115D01*
X12570Y12116D01*
X12569Y12117D01*
X12568Y12118D01*
X12567Y12119D01*
X12567Y12119D01*
X12567Y12119D01*
X12566Y12119D01*
X12566Y12119D01*
X12565Y12120D01*
X12564Y12120D01*
X12563Y12120D01*
X12562Y12120D01*
D02*
G37*
G36*
X13797Y12202D02*
X13795D01*
X13793Y12202D01*
X13791Y12201D01*
X13791Y12200D01*
X13790Y12199D01*
Y12199D01*
X13790Y12197D01*
X13790Y12195D01*
Y12193D01*
Y12193D01*
Y12193D01*
Y12191D01*
X13790Y12189D01*
X13790Y12187D01*
X13790Y12186D01*
X13791Y12185D01*
X13793Y12185D01*
X13794Y12184D01*
X13796D01*
X13798Y12184D01*
X13799Y12185D01*
X13800Y12186D01*
X13800Y12187D01*
Y12187D01*
X13801Y12187D01*
X13801Y12189D01*
X13801Y12191D01*
Y12193D01*
Y12194D01*
Y12194D01*
Y12195D01*
X13801Y12197D01*
X13800Y12199D01*
Y12200D01*
X13800Y12200D01*
X13800Y12201D01*
X13798Y12202D01*
X13797Y12202D01*
D02*
G37*
G36*
X12618Y12120D02*
X12617D01*
X12616Y12120D01*
X12615Y12120D01*
X12614Y12119D01*
X12614D01*
X12613Y12119D01*
X12613Y12119D01*
X12612Y12118D01*
X12611Y12117D01*
Y12117D01*
X12610Y12117D01*
X12610Y12116D01*
X12610Y12116D01*
X12609Y12115D01*
X12609Y12114D01*
Y12114D01*
X12609Y12113D01*
X12609Y12113D01*
X12608Y12112D01*
X12608Y12111D01*
X12608Y12109D01*
X12627D01*
Y12110D01*
Y12111D01*
Y12111D01*
X12627Y12111D01*
Y12112D01*
X12627Y12113D01*
X12626Y12114D01*
Y12114D01*
X12626Y12115D01*
X12626Y12115D01*
X12626Y12115D01*
X12625Y12116D01*
X12625Y12117D01*
Y12117D01*
X12624Y12118D01*
X12624Y12118D01*
X12623Y12119D01*
X12622Y12119D01*
X12622D01*
X12622Y12119D01*
X12621Y12120D01*
X12621Y12120D01*
X12620Y12120D01*
X12619Y12120D01*
X12618Y12120D01*
D02*
G37*
G36*
X13995Y12156D02*
X13995D01*
X13993Y12156D01*
X13991Y12155D01*
X13990Y12154D01*
X13990Y12154D01*
X13989Y12153D01*
X13989Y12151D01*
X13988Y12150D01*
Y12149D01*
Y12149D01*
X14001D01*
X14001Y12151D01*
X14000Y12153D01*
X13999Y12154D01*
X13999Y12154D01*
X13998Y12155D01*
X13996Y12156D01*
X13995Y12156D01*
D02*
G37*
%LPD*%
D28*
X12512Y13547D02*
G03*
X12512Y13547I-189J0D01*
G01*
X12916Y13500D02*
G03*
X12951Y13500I18J0D01*
G01*
X12067Y13904D02*
X12102D01*
Y13730D02*
Y13904D01*
X11873D02*
X11909D01*
X11873Y13730D02*
Y13904D01*
Y13730D02*
X12102D01*
X13965Y14260D02*
Y14378D01*
X13886D02*
X13965D01*
Y13984D02*
Y14102D01*
X13886Y13984D02*
X13965D01*
X13571Y14299D02*
X13650Y14378D01*
X13571Y14063D02*
Y14102D01*
Y14063D02*
X13650Y13984D01*
X13886D01*
X13650Y14378D02*
X13886D01*
X13571Y14260D02*
Y14299D01*
X13654Y12754D02*
X13689D01*
Y12580D02*
Y12754D01*
X13460D02*
X13496D01*
X13460Y12580D02*
Y12754D01*
Y12580D02*
X13689D01*
X13918Y12754D02*
X13953D01*
Y12580D02*
Y12754D01*
X13724D02*
X13760D01*
X13724Y12580D02*
Y12754D01*
Y12580D02*
X13953D01*
X12740Y13500D02*
X12916D01*
X12951D02*
X13126D01*
Y12940D02*
Y13500D01*
X12740Y12940D02*
X13126D01*
X12740D02*
Y13500D01*
X11885Y13947D02*
Y14065D01*
Y13947D02*
X11964D01*
X11885Y14223D02*
Y14341D01*
X11964D01*
X12200Y13947D02*
X12279Y14026D01*
Y14223D02*
Y14262D01*
X12200Y14341D02*
X12279Y14262D01*
X11964Y14341D02*
X12200D01*
X11964Y13947D02*
X12200D01*
X12279Y14026D02*
Y14065D01*
X12139Y13831D02*
Y13771D01*
X12169D01*
X12179Y13781D01*
Y13791D01*
X12169Y13801D01*
X12139D01*
X12169D01*
X12179Y13811D01*
Y13821D01*
X12169Y13831D01*
X12139D01*
X12199Y13771D02*
X12219D01*
X12209D01*
Y13831D01*
X12199Y13821D01*
X12548Y13281D02*
Y13221D01*
X12578D01*
X12588Y13231D01*
Y13271D01*
X12578Y13281D01*
X12548D01*
X12608D02*
X12648D01*
Y13271D01*
X12608Y13231D01*
Y13221D01*
X12472Y13059D02*
Y13119D01*
X12502D01*
X12512Y13109D01*
Y13089D01*
X12502Y13079D01*
X12472D01*
X12492D02*
X12512Y13059D01*
X12572D02*
X12532D01*
X12572Y13099D01*
Y13109D01*
X12562Y13119D01*
X12542D01*
X12532Y13109D01*
X12632Y13059D02*
X12592D01*
X12632Y13099D01*
Y13109D01*
X12622Y13119D01*
X12602D01*
X12592Y13109D01*
D30*
X12011Y12556D02*
X12056D01*
X12011Y12466D02*
X12056D01*
X11866D02*
X11916D01*
X11866D02*
Y12556D01*
X11916D01*
X12056Y12521D02*
Y12556D01*
Y12466D02*
Y12481D01*
X11999Y13175D02*
X12044D01*
X11999Y13085D02*
X12044D01*
X11854D02*
X11904D01*
X11854D02*
Y13175D01*
X11904D01*
X12044Y13140D02*
Y13175D01*
Y13085D02*
Y13100D01*
D55*
X11863Y13234D02*
G03*
X11863Y13234I-5J0D01*
G01*
X12925Y14161D02*
G03*
X12925Y14161I-5J0D01*
G01*
X11863Y12594D02*
G03*
X11863Y12594I-5J0D01*
G01*
X12170Y12996D02*
G03*
X12170Y12996I-5J0D01*
G01*
X12553Y13086D02*
G03*
X12553Y13086I-5J0D01*
G01*
X13679Y13723D02*
Y13919D01*
Y13723D02*
X13963D01*
X13679Y13919D02*
X13963D01*
Y13723D02*
Y13919D01*
X13459Y12303D02*
Y12499D01*
Y12303D02*
X13743D01*
X13459Y12499D02*
X13743D01*
Y12303D02*
Y12499D01*
D56*
X13666Y13939D02*
G03*
X13666Y13939I-10J0D01*
G01*
X13446Y12519D02*
G03*
X13446Y12519I-10J0D01*
G01*
D57*
X13017Y14107D02*
G03*
X13017Y14107I-12J0D01*
G01*
D58*
X12531Y13416D02*
G03*
X12531Y13416I-2J0D01*
G01*
X13921Y14646D02*
X13937Y14661D01*
Y14630D02*
Y14661D01*
Y14646D02*
X13953D01*
X13921D02*
X13937Y14630D01*
X13921D02*
Y14661D01*
Y14622D02*
X13953D01*
X13921Y14669D02*
X13953D01*
X13921Y11890D02*
X13937Y11906D01*
Y11874D02*
Y11906D01*
Y11890D02*
X13953D01*
X13921D02*
X13937Y11874D01*
X13921D02*
Y11906D01*
Y11866D02*
X13953D01*
X13921Y11913D02*
X13953D01*
X11929Y11874D02*
X11945Y11890D01*
X11929Y11874D02*
Y11906D01*
X11913Y11890D02*
X11929D01*
Y11906D02*
X11945Y11890D01*
Y11874D02*
Y11906D01*
X11913Y11913D02*
X11945D01*
X11913Y11866D02*
X11945D01*
X11929Y14630D02*
X11945Y14646D01*
X11929Y14630D02*
Y14661D01*
X11913Y14646D02*
X11929D01*
Y14661D02*
X11945Y14646D01*
Y14630D02*
Y14661D01*
X11913Y14669D02*
X11945D01*
X11913Y14622D02*
X11945D01*
D59*
X13689Y13692D02*
G03*
X13739Y13692I25J0D01*
G01*
X12120Y13287D02*
Y13406D01*
X11856Y13287D02*
Y13406D01*
X12120D01*
X11856Y13287D02*
X12120D01*
X12966Y13796D02*
X13316D01*
X12966Y14146D02*
X13316D01*
Y13796D02*
Y14146D01*
X12966D02*
X12966Y13796D01*
X12308Y12357D02*
Y12365D01*
X12254Y12357D02*
Y12365D01*
X11962Y12939D02*
Y12947D01*
X12015Y12939D02*
Y12947D01*
X12120Y12648D02*
Y12766D01*
X11856Y12648D02*
Y12766D01*
X12120D01*
X11856Y12648D02*
X12120D01*
X12100Y13102D02*
Y13128D01*
X12132D01*
X12100Y13013D02*
Y13039D01*
Y13013D02*
X12132D01*
X12339Y13206D02*
Y13214D01*
X12393Y13206D02*
Y13214D01*
X12476Y13206D02*
Y13214D01*
X12422Y13206D02*
Y13214D01*
X12594Y13457D02*
X12603D01*
X12540D02*
X12548D01*
X12603Y13441D02*
Y13457D01*
X12540Y13441D02*
Y13457D01*
X12718Y14107D02*
X12718Y14099D01*
X12772Y14099D02*
Y14107D01*
X12791Y14065D02*
Y14073D01*
X12845Y14065D02*
Y14073D01*
X13528Y12892D02*
Y13692D01*
Y12892D02*
X13900D01*
Y13692D01*
X13739D02*
X13900D01*
X13528D02*
X13689D01*
X12559Y13114D02*
Y13146D01*
X12613Y13114D02*
Y13146D01*
X12559Y13114D02*
X12613D01*
X12559Y13146D02*
X12613D01*
D60*
X12056Y12491D02*
Y12511D01*
X12046Y12501D02*
X12066D01*
X12044Y13110D02*
Y13130D01*
X12034Y13120D02*
X12054D01*
D61*
X12538Y13199D02*
X12532Y13205D01*
X12518D01*
X12512Y13199D01*
Y13172D01*
X12518Y13165D01*
X12532D01*
X12538Y13172D01*
X12578Y13165D02*
X12552D01*
X12578Y13192D01*
Y13199D01*
X12572Y13205D01*
X12558D01*
X12552Y13199D01*
X12618Y13165D02*
X12592D01*
X12618Y13192D01*
Y13199D01*
X12612Y13205D01*
X12598D01*
X12592Y13199D01*
X13388Y13212D02*
X13381Y13205D01*
Y13192D01*
X13388Y13185D01*
X13415D01*
X13421Y13192D01*
Y13205D01*
X13415Y13212D01*
X13421Y13245D02*
X13381D01*
X13401Y13225D01*
Y13252D01*
X12469Y13016D02*
X12429D01*
Y13036D01*
X12435Y13042D01*
X12449D01*
X12455Y13036D01*
Y13016D01*
Y13029D02*
X12469Y13042D01*
Y13056D02*
Y13069D01*
Y13062D01*
X12429D01*
X12435Y13056D01*
X12469Y13109D02*
X12429D01*
X12449Y13089D01*
Y13116D01*
X12386Y13016D02*
X12346D01*
Y13036D01*
X12353Y13042D01*
X12366D01*
X12372Y13036D01*
Y13016D01*
Y13029D02*
X12386Y13042D01*
Y13056D02*
Y13069D01*
Y13062D01*
X12346D01*
X12353Y13056D01*
Y13089D02*
X12346Y13096D01*
Y13109D01*
X12353Y13116D01*
X12359D01*
X12366Y13109D01*
Y13102D01*
Y13109D01*
X12372Y13116D01*
X12379D01*
X12386Y13109D01*
Y13096D01*
X12379Y13089D01*
X12220Y12280D02*
X12180D01*
Y12300D01*
X12187Y12306D01*
X12200D01*
X12207Y12300D01*
Y12280D01*
Y12293D02*
X12220Y12306D01*
X12180Y12346D02*
Y12320D01*
X12200D01*
X12194Y12333D01*
Y12340D01*
X12200Y12346D01*
X12214D01*
X12220Y12340D01*
Y12326D01*
X12214Y12320D01*
X12787Y13949D02*
Y13989D01*
X12807D01*
X12814Y13982D01*
Y13969D01*
X12807Y13962D01*
X12787D01*
X12801D02*
X12814Y13949D01*
X12854D02*
X12827D01*
X12854Y13975D01*
Y13982D01*
X12847Y13989D01*
X12834D01*
X12827Y13982D01*
X12713Y13984D02*
Y14024D01*
X12733D01*
X12739Y14018D01*
Y14004D01*
X12733Y13998D01*
X12713D01*
X12726D02*
X12739Y13984D01*
X12753D02*
X12766D01*
X12759D01*
Y14024D01*
X12753Y14018D01*
X11904Y12948D02*
X11897Y12941D01*
Y12928D01*
X11904Y12921D01*
X11930D01*
X11937Y12928D01*
Y12941D01*
X11930Y12948D01*
X11937Y12988D02*
Y12961D01*
X11910Y12988D01*
X11904D01*
X11897Y12981D01*
Y12968D01*
X11904Y12961D01*
X11937Y13001D02*
Y13015D01*
Y13008D01*
X11897D01*
X11904Y13001D01*
X12054Y12427D02*
X12048Y12434D01*
X12034D01*
X12028Y12427D01*
Y12400D01*
X12034Y12394D01*
X12048D01*
X12054Y12400D01*
X12094Y12394D02*
X12068D01*
X12094Y12420D01*
Y12427D01*
X12088Y12434D01*
X12074D01*
X12068Y12427D01*
X12108D02*
X12114Y12434D01*
X12128D01*
X12134Y12427D01*
Y12400D01*
X12128Y12394D01*
X12114D01*
X12108Y12400D01*
Y12427D01*
X11849Y13003D02*
X11842Y12996D01*
Y12983D01*
X11849Y12976D01*
X11875D01*
X11882Y12983D01*
Y12996D01*
X11875Y13003D01*
X11882Y13016D02*
Y13030D01*
Y13023D01*
X11842D01*
X11849Y13016D01*
X11875Y13050D02*
X11882Y13056D01*
Y13070D01*
X11875Y13076D01*
X11849D01*
X11842Y13070D01*
Y13056D01*
X11849Y13050D01*
X11855D01*
X11862Y13056D01*
Y13076D01*
X12105Y12498D02*
X12099Y12505D01*
X12085D01*
X12079Y12498D01*
Y12471D01*
X12085Y12465D01*
X12099D01*
X12105Y12471D01*
X12119Y12465D02*
X12132D01*
X12125D01*
Y12505D01*
X12119Y12498D01*
X12152D02*
X12159Y12505D01*
X12172D01*
X12179Y12498D01*
Y12491D01*
X12172Y12485D01*
X12179Y12478D01*
Y12471D01*
X12172Y12465D01*
X12159D01*
X12152Y12471D01*
Y12478D01*
X12159Y12485D01*
X12152Y12491D01*
Y12498D01*
X12159Y12485D02*
X12172D01*
X12523Y13392D02*
X12516Y13398D01*
X12503D01*
X12496Y13392D01*
Y13365D01*
X12503Y13358D01*
X12516D01*
X12523Y13365D01*
X12536Y13358D02*
X12549D01*
X12543D01*
Y13398D01*
X12536Y13392D01*
X12596Y13398D02*
X12583Y13392D01*
X12569Y13378D01*
Y13365D01*
X12576Y13358D01*
X12589D01*
X12596Y13365D01*
Y13372D01*
X12589Y13378D01*
X12569D01*
X13388Y13416D02*
X13381Y13410D01*
Y13396D01*
X13388Y13390D01*
X13415D01*
X13421Y13396D01*
Y13410D01*
X13415Y13416D01*
X13421Y13430D02*
Y13443D01*
Y13436D01*
X13381D01*
X13388Y13430D01*
X13381Y13490D02*
Y13463D01*
X13401D01*
X13395Y13476D01*
Y13483D01*
X13401Y13490D01*
X13415D01*
X13421Y13483D01*
Y13470D01*
X13415Y13463D01*
X13267Y13561D02*
X13260Y13568D01*
X13247D01*
X13240Y13561D01*
Y13534D01*
X13247Y13528D01*
X13260D01*
X13267Y13534D01*
X13280Y13528D02*
X13293D01*
X13287D01*
Y13568D01*
X13280Y13561D01*
X13333Y13528D02*
Y13568D01*
X13313Y13548D01*
X13340D01*
X13388Y13298D02*
X13381Y13292D01*
Y13278D01*
X13388Y13272D01*
X13415D01*
X13421Y13278D01*
Y13292D01*
X13415Y13298D01*
X13421Y13312D02*
Y13325D01*
Y13318D01*
X13381D01*
X13388Y13312D01*
Y13345D02*
X13381Y13352D01*
Y13365D01*
X13388Y13372D01*
X13395D01*
X13401Y13365D01*
Y13358D01*
Y13365D01*
X13408Y13372D01*
X13415D01*
X13421Y13365D01*
Y13352D01*
X13415Y13345D01*
X13267Y12994D02*
X13260Y13001D01*
X13247D01*
X13240Y12994D01*
Y12967D01*
X13247Y12961D01*
X13260D01*
X13267Y12967D01*
X13280Y12961D02*
X13293D01*
X13287D01*
Y13001D01*
X13280Y12994D01*
X13340Y12961D02*
X13313D01*
X13340Y12987D01*
Y12994D01*
X13333Y13001D01*
X13320D01*
X13313Y12994D01*
X13384Y13098D02*
X13377Y13091D01*
Y13078D01*
X13384Y13071D01*
X13411D01*
X13417Y13078D01*
Y13091D01*
X13411Y13098D01*
X13417Y13111D02*
Y13124D01*
Y13118D01*
X13377D01*
X13384Y13111D01*
X13417Y13144D02*
Y13158D01*
Y13151D01*
X13377D01*
X13384Y13144D01*
X13027Y12754D02*
X13020Y12760D01*
X13007D01*
X13000Y12754D01*
Y12727D01*
X13007Y12720D01*
X13020D01*
X13027Y12727D01*
X13040Y12754D02*
X13047Y12760D01*
X13060D01*
X13067Y12754D01*
Y12747D01*
X13060Y12740D01*
X13067Y12734D01*
Y12727D01*
X13060Y12720D01*
X13047D01*
X13040Y12727D01*
Y12734D01*
X13047Y12740D01*
X13040Y12747D01*
Y12754D01*
X13047Y12740D02*
X13060D01*
X13027Y12679D02*
X13020Y12686D01*
X13007D01*
X13000Y12679D01*
Y12652D01*
X13007Y12646D01*
X13020D01*
X13027Y12652D01*
X13040Y12686D02*
X13067D01*
Y12679D01*
X13040Y12652D01*
Y12646D01*
X12616Y14338D02*
X12610Y14331D01*
Y14318D01*
X12616Y14311D01*
X12643D01*
X12650Y14318D01*
Y14331D01*
X12643Y14338D01*
X12610Y14378D02*
X12616Y14364D01*
X12630Y14351D01*
X12643D01*
X12650Y14358D01*
Y14371D01*
X12643Y14378D01*
X12636D01*
X12630Y14371D01*
Y14351D01*
X12616Y14224D02*
X12610Y14217D01*
Y14204D01*
X12616Y14197D01*
X12643D01*
X12650Y14204D01*
Y14217D01*
X12643Y14224D01*
X12650Y14263D02*
Y14237D01*
X12623Y14263D01*
X12616D01*
X12610Y14257D01*
Y14244D01*
X12616Y14237D01*
X13047Y12567D02*
Y12607D01*
X13067D01*
X13074Y12600D01*
Y12587D01*
X13067Y12580D01*
X13047D01*
X13061D02*
X13074Y12567D01*
X13087D02*
X13101D01*
X13094D01*
Y12607D01*
X13087Y12600D01*
X13121Y12567D02*
X13134D01*
X13127D01*
Y12607D01*
X13121Y12600D01*
X12898Y12563D02*
Y12603D01*
X12918D01*
X12924Y12596D01*
Y12583D01*
X12918Y12576D01*
X12898D01*
X12911D02*
X12924Y12563D01*
X12938D02*
X12951D01*
X12944D01*
Y12603D01*
X12938Y12596D01*
X12971D02*
X12978Y12603D01*
X12991D01*
X12998Y12596D01*
Y12570D01*
X12991Y12563D01*
X12978D01*
X12971Y12570D01*
Y12596D01*
X13217Y12409D02*
X13177D01*
Y12429D01*
X13183Y12436D01*
X13197D01*
X13203Y12429D01*
Y12409D01*
Y12423D02*
X13217Y12436D01*
X13210Y12449D02*
X13217Y12456D01*
Y12469D01*
X13210Y12476D01*
X13183D01*
X13177Y12469D01*
Y12456D01*
X13183Y12449D01*
X13190D01*
X13197Y12456D01*
Y12476D01*
X12890Y12421D02*
X12850D01*
Y12441D01*
X12856Y12448D01*
X12870D01*
X12876Y12441D01*
Y12421D01*
Y12435D02*
X12890Y12448D01*
X12856Y12461D02*
X12850Y12468D01*
Y12481D01*
X12856Y12488D01*
X12863D01*
X12870Y12481D01*
X12876Y12488D01*
X12883D01*
X12890Y12481D01*
Y12468D01*
X12883Y12461D01*
X12876D01*
X12870Y12468D01*
X12863Y12461D01*
X12856D01*
X12870Y12468D02*
Y12481D01*
X13047Y12252D02*
Y12292D01*
X13067D01*
X13074Y12285D01*
Y12272D01*
X13067Y12265D01*
X13047D01*
X13061D02*
X13074Y12252D01*
X13087Y12292D02*
X13114D01*
Y12285D01*
X13087Y12259D01*
Y12252D01*
X12898D02*
Y12292D01*
X12918D01*
X12924Y12285D01*
Y12272D01*
X12918Y12265D01*
X12898D01*
X12911D02*
X12924Y12252D01*
X12964Y12292D02*
X12951Y12285D01*
X12938Y12272D01*
Y12259D01*
X12944Y12252D01*
X12958D01*
X12964Y12259D01*
Y12265D01*
X12958Y12272D01*
X12938D01*
X12594Y13534D02*
Y13561D01*
X12587Y13568D01*
X12574D01*
X12567Y13561D01*
Y13534D01*
X12574Y13528D01*
X12587D01*
X12580Y13541D02*
X12594Y13528D01*
X12587D02*
X12594Y13534D01*
X12607Y13528D02*
X12620D01*
X12614D01*
Y13568D01*
X12607Y13561D01*
X13421Y13763D02*
Y13730D01*
X13428Y13723D01*
X13441D01*
X13448Y13730D01*
Y13763D01*
X13461D02*
X13488D01*
Y13756D01*
X13461Y13730D01*
Y13723D01*
X11839Y13505D02*
Y13471D01*
X11845Y13465D01*
X11859D01*
X11865Y13471D01*
Y13505D01*
X11905D02*
X11892Y13498D01*
X11879Y13485D01*
Y13471D01*
X11885Y13465D01*
X11899D01*
X11905Y13471D01*
Y13478D01*
X11899Y13485D01*
X11879D01*
X12941Y14288D02*
Y14255D01*
X12948Y14248D01*
X12961D01*
X12968Y14255D01*
Y14288D01*
X12981Y14248D02*
X12994D01*
X12988D01*
Y14288D01*
X12981Y14281D01*
X12661Y13627D02*
Y13593D01*
X12668Y13587D01*
X12681D01*
X12688Y13593D01*
Y13627D01*
X12721Y13587D02*
Y13627D01*
X12701Y13607D01*
X12728D01*
X12233Y12813D02*
Y12780D01*
X12240Y12773D01*
X12253D01*
X12260Y12780D01*
Y12813D01*
X12273Y12806D02*
X12280Y12813D01*
X12293D01*
X12300Y12806D01*
Y12800D01*
X12293Y12793D01*
X12286D01*
X12293D01*
X12300Y12786D01*
Y12780D01*
X12293Y12773D01*
X12280D01*
X12273Y12780D01*
X13230Y12868D02*
X13257Y12828D01*
Y12868D02*
X13230Y12828D01*
X13297D02*
X13270D01*
X13297Y12855D01*
Y12861D01*
X13290Y12868D01*
X13277D01*
X13270Y12861D01*
X12267Y13886D02*
X12274D01*
X12287Y13899D01*
X12274Y13912D01*
X12267D01*
X12287Y13899D02*
X12307D01*
Y13926D02*
Y13939D01*
Y13932D01*
X12267D01*
X12274Y13926D01*
X12727Y14407D02*
X12721Y14414D01*
X12707D01*
X12701Y14407D01*
Y14381D01*
X12707Y14374D01*
X12721D01*
X12727Y14381D01*
X12741Y14407D02*
X12747Y14414D01*
X12761D01*
X12767Y14407D01*
Y14401D01*
X12761Y14394D01*
X12754D01*
X12761D01*
X12767Y14387D01*
Y14381D01*
X12761Y14374D01*
X12747D01*
X12741Y14381D01*
X11858Y14607D02*
Y14567D01*
X11878D01*
X11885Y14574D01*
Y14600D01*
X11878Y14607D01*
X11858D01*
X11898Y14567D02*
X11912D01*
X11905D01*
Y14607D01*
X11898Y14600D01*
X11949Y14429D02*
X11909D01*
Y14449D01*
X11915Y14456D01*
X11929D01*
X11935Y14449D01*
Y14429D01*
Y14442D02*
X11949Y14456D01*
X11915Y14469D02*
X11909Y14476D01*
Y14489D01*
X11915Y14496D01*
X11922D01*
X11929Y14489D01*
Y14482D01*
Y14489D01*
X11935Y14496D01*
X11942D01*
X11949Y14489D01*
Y14476D01*
X11942Y14469D01*
X11843Y12859D02*
Y12826D01*
X11849Y12819D01*
X11863D01*
X11869Y12826D01*
Y12859D01*
X11909D02*
X11883D01*
Y12839D01*
X11896Y12846D01*
X11903D01*
X11909Y12839D01*
Y12826D01*
X11903Y12819D01*
X11889D01*
X11883Y12826D01*
X13684Y14435D02*
X13677Y14442D01*
X13664D01*
X13657Y14435D01*
Y14408D01*
X13664Y14402D01*
X13677D01*
X13684Y14408D01*
X13697Y14402D02*
X13711D01*
X13704D01*
Y14442D01*
X13697Y14435D01*
X13731Y14442D02*
X13757D01*
Y14435D01*
X13731Y14408D01*
Y14402D01*
X11920Y14396D02*
X11914Y14402D01*
X11900D01*
X11894Y14396D01*
Y14369D01*
X11900Y14362D01*
X11914D01*
X11920Y14369D01*
X11960Y14362D02*
X11934D01*
X11960Y14389D01*
Y14396D01*
X11954Y14402D01*
X11940D01*
X11934Y14396D01*
X11994Y14362D02*
Y14402D01*
X11974Y14382D01*
X12000D01*
X13870Y14607D02*
Y14567D01*
X13890D01*
X13897Y14574D01*
Y14600D01*
X13890Y14607D01*
X13870D01*
X13910Y14600D02*
X13917Y14607D01*
X13930D01*
X13937Y14600D01*
Y14594D01*
X13930Y14587D01*
X13923D01*
X13930D01*
X13937Y14580D01*
Y14574D01*
X13930Y14567D01*
X13917D01*
X13910Y14574D01*
X11862Y11973D02*
Y11933D01*
X11882D01*
X11889Y11940D01*
Y11966D01*
X11882Y11973D01*
X11862D01*
X11922Y11933D02*
Y11973D01*
X11902Y11953D01*
X11929D01*
X13870Y11969D02*
Y11929D01*
X13890D01*
X13897Y11936D01*
Y11962D01*
X13890Y11969D01*
X13870D01*
X13937D02*
X13910D01*
Y11949D01*
X13923Y11956D01*
X13930D01*
X13937Y11949D01*
Y11936D01*
X13930Y11929D01*
X13917D01*
X13910Y11936D01*
X13953Y14421D02*
X13913D01*
Y14441D01*
X13919Y14448D01*
X13933D01*
X13939Y14441D01*
Y14421D01*
Y14435D02*
X13953Y14448D01*
Y14461D02*
Y14475D01*
Y14468D01*
X13913D01*
X13919Y14461D01*
X13913Y14521D02*
X13919Y14508D01*
X13933Y14495D01*
X13946D01*
X13953Y14501D01*
Y14515D01*
X13946Y14521D01*
X13939D01*
X13933Y14515D01*
Y14495D01*
X11953Y11984D02*
X11913D01*
Y12004D01*
X11919Y12011D01*
X11933D01*
X11939Y12004D01*
Y11984D01*
Y11998D02*
X11953Y12011D01*
Y12024D02*
Y12038D01*
Y12031D01*
X11913D01*
X11919Y12024D01*
X11913Y12058D02*
Y12084D01*
X11919D01*
X11946Y12058D01*
X11953D01*
X13953Y11984D02*
X13913D01*
Y12004D01*
X13919Y12011D01*
X13933D01*
X13939Y12004D01*
Y11984D01*
Y11998D02*
X13953Y12011D01*
Y12024D02*
Y12038D01*
Y12031D01*
X13913D01*
X13919Y12024D01*
Y12058D02*
X13913Y12064D01*
Y12078D01*
X13919Y12084D01*
X13926D01*
X13933Y12078D01*
X13939Y12084D01*
X13946D01*
X13953Y12078D01*
Y12064D01*
X13946Y12058D01*
X13939D01*
X13933Y12064D01*
X13926Y12058D01*
X13919D01*
X13933Y12064D02*
Y12078D01*
X12101Y13148D02*
Y13175D01*
X12095Y13182D01*
X12081D01*
X12075Y13175D01*
Y13148D01*
X12081Y13142D01*
X12095D01*
X12088Y13155D02*
X12101Y13142D01*
X12095D02*
X12101Y13148D01*
X12141Y13142D02*
X12115D01*
X12141Y13168D01*
Y13175D01*
X12135Y13182D01*
X12121D01*
X12115Y13175D01*
X12043Y12878D02*
Y12918D01*
X12063D01*
X12070Y12911D01*
Y12898D01*
X12063Y12891D01*
X12043D01*
X12057D02*
X12070Y12878D01*
X12110D02*
X12083D01*
X12110Y12905D01*
Y12911D01*
X12103Y12918D01*
X12090D01*
X12083Y12911D01*
X12123D02*
X12130Y12918D01*
X12143D01*
X12150Y12911D01*
Y12885D01*
X12143Y12878D01*
X12130D01*
X12123Y12885D01*
Y12911D01*
X13624Y13759D02*
X13617Y13752D01*
Y13739D01*
X13624Y13732D01*
X13631D01*
X13637Y13739D01*
Y13752D01*
X13644Y13759D01*
X13651D01*
X13657Y13752D01*
Y13739D01*
X13651Y13732D01*
X13657Y13772D02*
X13617D01*
Y13792D01*
X13624Y13799D01*
X13637D01*
X13644Y13792D01*
Y13772D01*
X13617Y13812D02*
Y13826D01*
Y13819D01*
X13657D01*
Y13812D01*
Y13826D01*
X13487Y12265D02*
X13480Y12272D01*
X13467D01*
X13460Y12265D01*
Y12259D01*
X13467Y12252D01*
X13480D01*
X13487Y12245D01*
Y12239D01*
X13480Y12232D01*
X13467D01*
X13460Y12239D01*
X13500Y12232D02*
Y12272D01*
X13520D01*
X13527Y12265D01*
Y12252D01*
X13520Y12245D01*
X13500D01*
X13540Y12272D02*
X13553D01*
X13547D01*
Y12232D01*
X13540D01*
X13553D01*
X13466Y12521D02*
Y12561D01*
X13479Y12548D01*
X13493Y12561D01*
Y12521D01*
X13513D02*
X13526D01*
X13533Y12528D01*
Y12541D01*
X13526Y12548D01*
X13513D01*
X13506Y12541D01*
Y12528D01*
X13513Y12521D01*
X13553Y12554D02*
Y12548D01*
X13546D01*
X13559D01*
X13553D01*
Y12528D01*
X13559Y12521D01*
X13586D02*
X13599D01*
X13606Y12528D01*
Y12541D01*
X13599Y12548D01*
X13586D01*
X13579Y12541D01*
Y12528D01*
X13586Y12521D01*
X13619Y12548D02*
Y12521D01*
Y12534D01*
X13626Y12541D01*
X13633Y12548D01*
X13639D01*
X13659Y12561D02*
Y12521D01*
X13679D01*
X13686Y12528D01*
Y12534D01*
X13679Y12541D01*
X13659D01*
X13679D01*
X13686Y12548D01*
Y12554D01*
X13679Y12561D01*
X13659D01*
X13728Y12519D02*
Y12559D01*
X13741Y12546D01*
X13755Y12559D01*
Y12519D01*
X13775D02*
X13788D01*
X13795Y12526D01*
Y12539D01*
X13788Y12546D01*
X13775D01*
X13768Y12539D01*
Y12526D01*
X13775Y12519D01*
X13815Y12552D02*
Y12546D01*
X13808D01*
X13821D01*
X13815D01*
Y12526D01*
X13821Y12519D01*
X13848D02*
X13861D01*
X13868Y12526D01*
Y12539D01*
X13861Y12546D01*
X13848D01*
X13841Y12539D01*
Y12526D01*
X13848Y12519D01*
X13881Y12546D02*
Y12519D01*
Y12532D01*
X13888Y12539D01*
X13895Y12546D01*
X13901D01*
X13921Y12519D02*
Y12546D01*
X13935Y12559D01*
X13948Y12546D01*
Y12519D01*
Y12539D01*
X13921D01*
D62*
X11911Y13685D02*
X11938D01*
X12031D02*
X12058D01*
X12044Y13698D02*
Y13672D01*
M02*
