G04 Layer_Physical_Order=2*
G04 Layer_Color=11436288*
%FSLAX23Y23*%
%MOIN*%
G70*
G01*
G75*
%ADD12R,0.045X0.051*%
%ADD21R,0.039X0.051*%
%ADD25R,0.051X0.039*%
%ADD28C,0.010*%
%ADD29C,0.039*%
%ADD30C,0.008*%
%ADD31C,0.015*%
%ADD32C,0.020*%
%ADD33C,0.025*%
%ADD35C,0.060*%
%ADD36O,0.060X0.120*%
%ADD37C,0.034*%
%ADD38R,0.050X0.050*%
%ADD39C,0.050*%
%ADD40C,0.067*%
%ADD41R,0.067X0.067*%
%ADD42C,0.028*%
%ADD43R,0.049X0.061*%
%ADD44R,0.063X0.055*%
%ADD45R,0.057X0.051*%
%ADD46R,0.075X0.075*%
%ADD47R,0.016X0.053*%
%ADD48R,0.160X0.090*%
%ADD49R,0.049X0.055*%
%ADD50R,0.040X0.046*%
%ADD51R,0.050X0.016*%
%ADD52R,0.016X0.050*%
G04:AMPARAMS|DCode=53|XSize=60mil|YSize=31mil|CornerRadius=8mil|HoleSize=0mil|Usage=FLASHONLY|Rotation=0.000|XOffset=0mil|YOffset=0mil|HoleType=Round|Shape=RoundedRectangle|*
%AMROUNDEDRECTD53*
21,1,0.060,0.016,0,0,0.0*
21,1,0.044,0.031,0,0,0.0*
1,1,0.016,0.022,-0.008*
1,1,0.016,-0.022,-0.008*
1,1,0.016,-0.022,0.008*
1,1,0.016,0.022,0.008*
%
%ADD53ROUNDEDRECTD53*%
%ADD54R,0.047X0.057*%
G36*
X11993Y14723D02*
X12017Y14717D01*
X12040Y14708D01*
X12061Y14695D01*
X12080Y14679D01*
X12096Y14660D01*
X12109Y14639D01*
X12119Y14616D01*
X12125Y14592D01*
X12126Y14568D01*
X12126Y14567D01*
X12126D01*
X12127Y14551D01*
X12132Y14537D01*
X12139Y14523D01*
X12149Y14511D01*
X12161Y14501D01*
X12174Y14494D01*
X12189Y14489D01*
X12205Y14488D01*
Y14488D01*
X12205Y14488D01*
X13661Y14488D01*
X13677Y14489D01*
X13692Y14494D01*
X13705Y14501D01*
X13717Y14511D01*
X13727Y14523D01*
X13735Y14537D01*
X13739Y14551D01*
X13741Y14567D01*
X13741D01*
X13740Y14568D01*
X13742Y14592D01*
X13747Y14616D01*
X13757Y14639D01*
X13770Y14660D01*
X13786Y14679D01*
X13805Y14695D01*
X13826Y14708D01*
X13849Y14717D01*
X13873Y14723D01*
X13897Y14725D01*
X13898Y14724D01*
Y14724D01*
X14026D01*
Y14724D01*
X14026Y14725D01*
X14033Y14724D01*
X14040Y14721D01*
X14047Y14716D01*
X14051Y14710D01*
X14054Y14703D01*
X14055Y14695D01*
X14055Y14695D01*
X14055D01*
X14055Y11841D01*
X14054Y11833D01*
X14051Y11826D01*
X14047Y11819D01*
X14040Y11815D01*
X14033Y11812D01*
X14026Y11811D01*
X14026Y11811D01*
Y11811D01*
X13898Y11811D01*
X13873Y11812D01*
X13849Y11818D01*
X13826Y11828D01*
X13805Y11841D01*
X13786Y11857D01*
X13770Y11876D01*
X13757Y11897D01*
X13747Y11920D01*
X13742Y11944D01*
X13740Y11963D01*
X13741Y11969D01*
Y11969D01*
Y11969D01*
X13741Y11969D01*
X13740Y11975D01*
Y11975D01*
Y11975D01*
D01*
X13739Y11980D01*
X13739Y11984D01*
X13735Y11999D01*
X13727Y12012D01*
X13717Y12024D01*
X13705Y12034D01*
X13692Y12042D01*
X13677Y12046D01*
X13661Y12048D01*
Y12048D01*
X13655Y12047D01*
X12205Y12048D01*
X12189Y12046D01*
X12174Y12042D01*
X12161Y12034D01*
X12149Y12024D01*
X12139Y12012D01*
X12132Y11999D01*
X12127Y11984D01*
X12126Y11969D01*
X12126D01*
X12126Y11968D01*
X12125Y11944D01*
X12119Y11920D01*
X12109Y11897D01*
X12096Y11876D01*
X12080Y11857D01*
X12061Y11841D01*
X12040Y11828D01*
X12017Y11818D01*
X11993Y11812D01*
X11969Y11811D01*
X11969Y11811D01*
Y11811D01*
X11841Y11811D01*
X11833Y11812D01*
X11826Y11815D01*
X11819Y11819D01*
X11815Y11826D01*
X11812Y11833D01*
X11811Y11840D01*
X11811Y11841D01*
X11811D01*
X11811Y14695D01*
X11812Y14703D01*
X11815Y14710D01*
X11819Y14716D01*
X11826Y14721D01*
X11833Y14724D01*
X11840Y14725D01*
X11841Y14724D01*
Y14724D01*
X11969Y14725D01*
X11993Y14723D01*
D02*
G37*
%LPC*%
G36*
X13959Y12937D02*
X13921D01*
X13922Y12931D01*
X13926Y12920D01*
X13933Y12911D01*
X13942Y12904D01*
X13953Y12900D01*
X13959Y12899D01*
Y12937D01*
D02*
G37*
G36*
X13507D02*
X13469D01*
Y12899D01*
X13475Y12900D01*
X13486Y12904D01*
X13495Y12911D01*
X13502Y12920D01*
X13506Y12931D01*
X13507Y12937D01*
D02*
G37*
G36*
X12113Y12860D02*
X12061D01*
Y12802D01*
X12113D01*
Y12860D01*
D02*
G37*
G36*
X12165Y13029D02*
X12158Y13027D01*
X12151Y13023D01*
X12147Y13016D01*
X12145Y13008D01*
X12147Y13001D01*
X12151Y12994D01*
X12155Y12991D01*
Y12947D01*
X12122Y12914D01*
X12050D01*
X12050Y12919D01*
X12050Y12919D01*
X12050Y12920D01*
X12050Y12920D01*
X12052Y12920D01*
X12052D01*
X12057Y12921D01*
X12065Y12926D01*
X12070Y12934D01*
X12072Y12943D01*
X12070Y12952D01*
X12065Y12959D01*
X12057Y12965D01*
X12048Y12966D01*
X12039Y12965D01*
X12032Y12959D01*
X12027Y12952D01*
X12025Y12943D01*
X12027Y12934D01*
X12032Y12926D01*
X12039Y12921D01*
X12044Y12920D01*
X12044D01*
X12047Y12920D01*
X12047Y12920D01*
X12047Y12919D01*
X12047Y12919D01*
X12046Y12914D01*
X12035D01*
X12032Y12918D01*
X12025Y12922D01*
X12018Y12924D01*
X12010Y12922D01*
X12003Y12918D01*
X11999Y12911D01*
X11998Y12904D01*
X11999Y12896D01*
X12003Y12889D01*
X12010Y12885D01*
X12018Y12883D01*
X12025Y12885D01*
X12032Y12889D01*
X12035Y12893D01*
X12126D01*
X12130Y12894D01*
X12133Y12896D01*
X12173Y12936D01*
X12175Y12939D01*
X12176Y12943D01*
Y12991D01*
X12180Y12994D01*
X12184Y13001D01*
X12186Y13008D01*
X12184Y13016D01*
X12180Y13023D01*
X12173Y13027D01*
X12165Y13029D01*
D02*
G37*
G36*
X13469Y12985D02*
Y12947D01*
X13507D01*
X13506Y12953D01*
X13502Y12964D01*
X13495Y12973D01*
X13486Y12980D01*
X13475Y12984D01*
X13469Y12985D01*
D02*
G37*
G36*
X13181Y13006D02*
X13173Y13005D01*
X13165Y13002D01*
X13159Y12997D01*
X13154Y12990D01*
X13151Y12983D01*
X13150Y12975D01*
X13151Y12966D01*
X13154Y12959D01*
X13159Y12952D01*
X13165Y12947D01*
X13173Y12944D01*
X13181Y12943D01*
X13189Y12944D01*
X13197Y12947D01*
X13203Y12952D01*
X13208Y12959D01*
X13211Y12966D01*
X13212Y12975D01*
X13211Y12983D01*
X13208Y12990D01*
X13203Y12997D01*
X13197Y13002D01*
X13189Y13005D01*
X13181Y13006D01*
D02*
G37*
G36*
X11929Y12966D02*
X11920Y12965D01*
X11913Y12959D01*
X11907Y12952D01*
X11906Y12943D01*
X11907Y12934D01*
X11913Y12926D01*
X11920Y12921D01*
X11929Y12919D01*
X11938Y12921D01*
X11946Y12926D01*
X11951Y12934D01*
X11953Y12943D01*
X11951Y12952D01*
X11946Y12959D01*
X11938Y12965D01*
X11929Y12966D01*
D02*
G37*
G36*
X12014Y12860D02*
X11962D01*
Y12802D01*
X12014D01*
Y12860D01*
D02*
G37*
G36*
X12055Y12713D02*
X12028D01*
Y12682D01*
X12055D01*
Y12713D01*
D02*
G37*
G36*
X13166Y12688D02*
Y12670D01*
X13184D01*
X13183Y12674D01*
X13178Y12682D01*
X13170Y12687D01*
X13166Y12688D01*
D02*
G37*
G36*
X13156D02*
X13152Y12687D01*
X13144Y12682D01*
X13139Y12674D01*
X13138Y12670D01*
X13156D01*
Y12688D01*
D02*
G37*
G36*
X11959Y12713D02*
X11934D01*
Y12687D01*
X11924D01*
Y12710D01*
X11920Y12709D01*
X11912Y12704D01*
X11910Y12701D01*
X11904Y12702D01*
Y12709D01*
X11846D01*
Y12646D01*
X11854D01*
Y12635D01*
X11839D01*
Y12562D01*
X11901D01*
Y12635D01*
X11876D01*
Y12646D01*
X11904D01*
Y12672D01*
X11910Y12673D01*
X11912Y12670D01*
X11920Y12665D01*
X11929Y12663D01*
X11931Y12661D01*
Y12642D01*
X11959D01*
Y12677D01*
Y12713D01*
D02*
G37*
G36*
X11916Y12860D02*
X11864D01*
Y12802D01*
X11916D01*
Y12860D01*
D02*
G37*
G36*
X13033Y12819D02*
X13025Y12818D01*
X13019Y12813D01*
X13014Y12807D01*
X13013Y12799D01*
X13013Y12796D01*
X13008Y12791D01*
X13007Y12791D01*
X12999Y12790D01*
X12993Y12785D01*
X12988Y12779D01*
X12987Y12771D01*
X12988Y12763D01*
X12991Y12760D01*
X12986Y12756D01*
X12985Y12757D01*
X12977Y12758D01*
X12969Y12757D01*
X12963Y12752D01*
X12958Y12746D01*
X12957Y12738D01*
X12958Y12734D01*
X12956Y12733D01*
X12952Y12731D01*
X12947Y12735D01*
X12939Y12736D01*
X12931Y12735D01*
X12925Y12730D01*
X12920Y12724D01*
X12919Y12716D01*
X12920Y12708D01*
X12925Y12702D01*
X12928Y12700D01*
Y12243D01*
X12928Y12243D01*
X12929Y12239D01*
X12931Y12235D01*
X12946Y12220D01*
X12943Y12211D01*
X12941Y12201D01*
X12943Y12191D01*
X12947Y12181D01*
X12953Y12173D01*
X12961Y12167D01*
X12971Y12163D01*
X12981Y12161D01*
X12991Y12163D01*
X13001Y12167D01*
X13009Y12173D01*
X13015Y12181D01*
X13019Y12191D01*
X13021Y12201D01*
X13019Y12211D01*
X13015Y12221D01*
X13009Y12229D01*
X13001Y12235D01*
X12991Y12239D01*
X12981Y12241D01*
X12971Y12239D01*
X12962Y12236D01*
X12950Y12248D01*
Y12700D01*
X12953Y12702D01*
X12958Y12708D01*
X12959Y12716D01*
X12958Y12720D01*
X12960Y12721D01*
X12964Y12723D01*
X12969Y12719D01*
X12972Y12719D01*
Y12552D01*
X12968Y12549D01*
X12963Y12543D01*
X12962Y12535D01*
X12963Y12527D01*
X12968Y12521D01*
X12974Y12516D01*
X12982Y12515D01*
X12990Y12516D01*
X12991Y12517D01*
X12996Y12514D01*
Y12421D01*
X12997Y12417D01*
X12997Y12417D01*
Y12380D01*
X12996Y12380D01*
X12989Y12375D01*
X12985Y12369D01*
X12983Y12361D01*
X12985Y12353D01*
X12989Y12347D01*
X12996Y12342D01*
X13004Y12341D01*
X13011Y12342D01*
X13018Y12347D01*
X13022Y12353D01*
X13024Y12361D01*
X13022Y12369D01*
X13018Y12375D01*
X13017Y12376D01*
Y12410D01*
X13023Y12412D01*
X13030Y12411D01*
X13038Y12412D01*
X13044Y12417D01*
X13049Y12423D01*
X13050Y12431D01*
X13049Y12439D01*
X13044Y12445D01*
X13043Y12446D01*
Y12782D01*
X13047Y12785D01*
X13052Y12791D01*
X13053Y12799D01*
X13052Y12807D01*
X13047Y12813D01*
X13041Y12818D01*
X13033Y12819D01*
D02*
G37*
G36*
X12296Y13562D02*
X12288Y13561D01*
X12282Y13556D01*
X12278Y13551D01*
X12223Y13495D01*
X12219Y13489D01*
X12217Y13482D01*
Y12877D01*
X12214Y12873D01*
X12214Y12870D01*
X12128Y12785D01*
X12028D01*
X12021Y12786D01*
X12014Y12785D01*
X11995D01*
X11988Y12786D01*
X11980Y12784D01*
X11974Y12780D01*
X11970Y12773D01*
X11968Y12766D01*
X11969Y12759D01*
Y12743D01*
X11968Y12736D01*
X11970Y12729D01*
X11974Y12722D01*
X11979Y12719D01*
X11977Y12713D01*
X11969D01*
Y12677D01*
Y12642D01*
X12018D01*
Y12677D01*
Y12713D01*
X11999D01*
X11998Y12719D01*
X12002Y12722D01*
X12007Y12729D01*
X12008Y12736D01*
X12007Y12741D01*
X12011Y12747D01*
X12014D01*
X12021Y12746D01*
X12028Y12747D01*
X12136D01*
X12143Y12748D01*
X12149Y12752D01*
X12247Y12851D01*
X12251Y12857D01*
X12253Y12863D01*
X12253Y12864D01*
X12255Y12871D01*
Y13474D01*
X12305Y13524D01*
X12310Y13528D01*
X12315Y13534D01*
X12316Y13542D01*
X12315Y13550D01*
X12310Y13556D01*
X12304Y13561D01*
X12296Y13562D01*
D02*
G37*
G36*
X13267Y13604D02*
X13259Y13603D01*
X13253Y13598D01*
X13248Y13592D01*
X13247Y13584D01*
X13248Y13577D01*
Y13496D01*
X13247Y13492D01*
X13248Y13489D01*
Y13146D01*
X13247Y13139D01*
X13248Y13131D01*
X13253Y13125D01*
X13259Y13120D01*
X13267Y13119D01*
X13275Y13120D01*
X13281Y13125D01*
X13286Y13131D01*
X13287Y13139D01*
X13286Y13146D01*
Y13484D01*
X13286Y13485D01*
X13288Y13492D01*
X13286Y13500D01*
X13286Y13501D01*
Y13577D01*
X13287Y13584D01*
X13286Y13592D01*
X13281Y13598D01*
X13275Y13603D01*
X13267Y13604D01*
D02*
G37*
G36*
X13329Y13116D02*
X13328Y13116D01*
X13322Y13113D01*
X13316Y13109D01*
X13315Y13107D01*
X13220D01*
X13218Y13110D01*
X13146D01*
X13147Y13105D01*
X13151Y13097D01*
X13156Y13090D01*
X13163Y13084D01*
X13172Y13081D01*
X13172Y13080D01*
X13173Y13077D01*
X13172Y13074D01*
X13165Y13072D01*
X13159Y13067D01*
X13154Y13060D01*
X13151Y13053D01*
X13150Y13045D01*
X13151Y13036D01*
X13154Y13029D01*
X13159Y13022D01*
X13165Y13017D01*
X13173Y13014D01*
X13181Y13013D01*
X13189Y13014D01*
X13197Y13017D01*
X13203Y13022D01*
X13208Y13029D01*
X13211Y13036D01*
X13212Y13045D01*
X13211Y13053D01*
X13208Y13060D01*
X13203Y13067D01*
X13199Y13070D01*
X13202Y13075D01*
X13205Y13075D01*
X13205Y13075D01*
X13309D01*
Y13032D01*
X13309Y13025D01*
X13312Y13019D01*
X13316Y13013D01*
X13406Y12924D01*
X13411Y12920D01*
X13417Y12917D01*
X13424Y12916D01*
X13429D01*
X13433Y12911D01*
X13442Y12904D01*
X13453Y12900D01*
X13459Y12899D01*
Y12942D01*
Y12985D01*
X13453Y12984D01*
X13442Y12980D01*
X13433Y12973D01*
X13430Y12973D01*
X13360Y13042D01*
Y13086D01*
X13334D01*
Y13091D01*
X13329D01*
Y13116D01*
D02*
G37*
G36*
X13339D02*
Y13096D01*
X13360D01*
X13360Y13098D01*
X13357Y13104D01*
X13353Y13109D01*
X13347Y13113D01*
X13341Y13116D01*
X13339Y13116D01*
D02*
G37*
G36*
X13181Y13216D02*
X13173Y13215D01*
X13165Y13212D01*
X13159Y13207D01*
X13154Y13200D01*
X13151Y13193D01*
X13150Y13185D01*
X13151Y13176D01*
X13154Y13169D01*
X13159Y13162D01*
X13165Y13157D01*
X13172Y13155D01*
X13173Y13152D01*
X13172Y13149D01*
X13172Y13149D01*
X13163Y13145D01*
X13156Y13140D01*
X13151Y13132D01*
X13147Y13124D01*
X13146Y13120D01*
X13216D01*
X13215Y13124D01*
X13212Y13132D01*
X13206Y13140D01*
X13199Y13145D01*
X13190Y13149D01*
X13190Y13149D01*
X13190Y13152D01*
X13190Y13155D01*
X13197Y13157D01*
X13203Y13162D01*
X13208Y13169D01*
X13211Y13176D01*
X13212Y13185D01*
X13211Y13193D01*
X13208Y13200D01*
X13203Y13207D01*
X13197Y13212D01*
X13189Y13215D01*
X13181Y13216D01*
D02*
G37*
G36*
X12459Y13173D02*
X12455Y13172D01*
X12447Y13167D01*
X12442Y13159D01*
X12441Y13155D01*
X12459D01*
Y13173D01*
D02*
G37*
G36*
X12074Y13410D02*
X11902D01*
Y13308D01*
X12074D01*
Y13333D01*
X12103D01*
X12139Y13296D01*
Y13248D01*
Y13181D01*
X12140Y13174D01*
X12143Y13168D01*
X12147Y13162D01*
X12152Y13158D01*
X12159Y13156D01*
X12165Y13155D01*
X12172Y13156D01*
X12178Y13158D01*
X12184Y13162D01*
X12188Y13168D01*
X12190Y13174D01*
X12191Y13181D01*
Y13248D01*
Y13307D01*
X12190Y13314D01*
X12188Y13320D01*
X12184Y13325D01*
X12132Y13377D01*
X12126Y13381D01*
X12120Y13384D01*
X12114Y13385D01*
X12074D01*
Y13410D01*
D02*
G37*
G36*
X12459Y13145D02*
X12441D01*
X12442Y13141D01*
X12447Y13133D01*
X12455Y13128D01*
X12459Y13127D01*
Y13145D01*
D02*
G37*
G36*
X11920Y13087D02*
X11895D01*
Y13059D01*
X11920D01*
Y13087D01*
D02*
G37*
G36*
X13464Y13082D02*
X13454Y13080D01*
X13444Y13076D01*
X13436Y13070D01*
X13430Y13062D01*
X13426Y13052D01*
X13424Y13042D01*
X13426Y13032D01*
X13430Y13022D01*
X13436Y13014D01*
X13444Y13008D01*
X13454Y13004D01*
X13464Y13002D01*
X13474Y13004D01*
X13484Y13008D01*
X13492Y13014D01*
X13498Y13022D01*
X13502Y13032D01*
X13504Y13042D01*
X13502Y13052D01*
X13498Y13062D01*
X13492Y13070D01*
X13484Y13076D01*
X13474Y13080D01*
X13464Y13082D01*
D02*
G37*
G36*
X12508Y12978D02*
X12490D01*
Y12960D01*
X12494Y12961D01*
X12502Y12966D01*
X12507Y12974D01*
X12508Y12978D01*
D02*
G37*
G36*
X13959Y12985D02*
X13953Y12984D01*
X13942Y12980D01*
X13933Y12973D01*
X13926Y12964D01*
X13922Y12953D01*
X13921Y12947D01*
X13959D01*
Y12985D01*
D02*
G37*
G36*
X11885Y13049D02*
X11860D01*
Y13021D01*
X11877D01*
X11880Y13019D01*
X11885Y13018D01*
Y13049D01*
D02*
G37*
G36*
Y13087D02*
X11860D01*
Y13059D01*
X11885D01*
Y13087D01*
D02*
G37*
G36*
X11953Y13908D02*
Y13839D01*
Y13769D01*
X11959Y13770D01*
X11968Y13774D01*
X11977Y13780D01*
X11983Y13788D01*
X11987Y13798D01*
X11989Y13798D01*
X11993Y13798D01*
X11996Y13790D01*
X12002Y13783D01*
Y13700D01*
X11902D01*
Y13600D01*
X11852Y13549D01*
X11848Y13544D01*
X11845Y13538D01*
X11844Y13531D01*
Y13140D01*
X11845Y13133D01*
X11848Y13127D01*
X11852Y13121D01*
X11862Y13112D01*
X11867Y13107D01*
X11870Y13106D01*
X11873Y13105D01*
X11880Y13104D01*
X12001D01*
X12017Y13088D01*
X12014Y13085D01*
X12014Y13084D01*
X12014Y13084D01*
X12013Y13084D01*
X12013Y13084D01*
X12013Y13083D01*
X12012D01*
X12009Y13083D01*
X12008D01*
X12008D01*
X11962D01*
Y13025D01*
X11978D01*
Y12999D01*
X11974Y12997D01*
X11970Y12990D01*
X11968Y12982D01*
X11970Y12975D01*
X11974Y12968D01*
X11980Y12964D01*
X11988Y12962D01*
X11996Y12964D01*
X12002Y12968D01*
X12007Y12975D01*
X12008Y12982D01*
X12007Y12990D01*
X12002Y12997D01*
X11998Y12999D01*
Y13025D01*
X12014D01*
Y13077D01*
Y13077D01*
X12014Y13078D01*
X12014Y13081D01*
Y13082D01*
X12015Y13082D01*
X12015Y13082D01*
X12015Y13083D01*
X12016Y13083D01*
X12016Y13083D01*
X12019Y13085D01*
X12061Y13043D01*
Y13025D01*
X12113D01*
Y13083D01*
X12095D01*
X12030Y13148D01*
X12024Y13152D01*
X12018Y13155D01*
X12011Y13156D01*
X11896D01*
Y13520D01*
X11974Y13598D01*
X12074D01*
Y13700D01*
X12053D01*
Y13783D01*
X12059Y13790D01*
X12063Y13799D01*
X12064Y13809D01*
Y13869D01*
X12063Y13878D01*
X12059Y13887D01*
X12053Y13894D01*
X12046Y13900D01*
X12037Y13904D01*
X12028Y13905D01*
X12018Y13904D01*
X12009Y13900D01*
X12002Y13894D01*
X11996Y13887D01*
X11993Y13880D01*
X11989Y13879D01*
X11987Y13880D01*
X11983Y13889D01*
X11977Y13897D01*
X11968Y13904D01*
X11959Y13908D01*
X11953Y13908D01*
D02*
G37*
G36*
X11920Y13049D02*
X11895D01*
Y13018D01*
X11899Y13019D01*
X11902Y13021D01*
X11920D01*
Y13049D01*
D02*
G37*
G36*
X12320Y12240D02*
X12242D01*
Y12162D01*
X12320D01*
Y12240D01*
D02*
G37*
G36*
X12881Y12241D02*
X12871Y12239D01*
X12861Y12235D01*
X12853Y12229D01*
X12847Y12221D01*
X12843Y12211D01*
X12841Y12201D01*
X12843Y12191D01*
X12847Y12181D01*
X12853Y12173D01*
X12861Y12167D01*
X12871Y12163D01*
X12881Y12161D01*
X12891Y12163D01*
X12901Y12167D01*
X12909Y12173D01*
X12915Y12181D01*
X12919Y12191D01*
X12921Y12201D01*
X12919Y12211D01*
X12915Y12221D01*
X12909Y12229D01*
X12901Y12235D01*
X12891Y12239D01*
X12881Y12241D01*
D02*
G37*
G36*
X12781D02*
X12771Y12239D01*
X12761Y12235D01*
X12753Y12229D01*
X12747Y12221D01*
X12743Y12211D01*
X12741Y12201D01*
X12743Y12191D01*
X12747Y12181D01*
X12753Y12173D01*
X12761Y12167D01*
X12771Y12163D01*
X12781Y12161D01*
X12791Y12163D01*
X12801Y12167D01*
X12809Y12173D01*
X12815Y12181D01*
X12819Y12191D01*
X12821Y12201D01*
X12819Y12211D01*
X12815Y12221D01*
X12809Y12229D01*
X12801Y12235D01*
X12791Y12239D01*
X12781Y12241D01*
D02*
G37*
G36*
X12376Y12244D02*
X12370Y12243D01*
X12359Y12239D01*
X12350Y12232D01*
X12343Y12223D01*
X12339Y12212D01*
X12338Y12206D01*
X12376D01*
Y12244D01*
D02*
G37*
G36*
X13741Y12346D02*
X13706D01*
Y12311D01*
X13711Y12312D01*
X13721Y12316D01*
X13730Y12322D01*
X13736Y12331D01*
X13740Y12341D01*
X13741Y12346D01*
D02*
G37*
G36*
X13696D02*
X13661D01*
X13662Y12341D01*
X13666Y12331D01*
X13672Y12322D01*
X13681Y12316D01*
X13691Y12312D01*
X13696Y12311D01*
Y12346D01*
D02*
G37*
G36*
X12386Y12244D02*
Y12206D01*
X12424D01*
X12423Y12212D01*
X12419Y12223D01*
X12412Y12232D01*
X12403Y12239D01*
X12392Y12243D01*
X12386Y12244D01*
D02*
G37*
G36*
X12681Y12241D02*
X12671Y12239D01*
X12661Y12235D01*
X12653Y12229D01*
X12647Y12221D01*
X12643Y12211D01*
X12641Y12201D01*
X12643Y12191D01*
X12647Y12181D01*
X12653Y12173D01*
X12661Y12167D01*
X12671Y12163D01*
X12681Y12161D01*
X12691Y12163D01*
X12701Y12167D01*
X12709Y12173D01*
X12715Y12181D01*
X12719Y12191D01*
X12721Y12201D01*
X12719Y12211D01*
X12715Y12221D01*
X12709Y12229D01*
X12701Y12235D01*
X12691Y12239D01*
X12681Y12241D01*
D02*
G37*
G36*
X13167Y12358D02*
X13121D01*
X13122Y12354D01*
X13127Y12346D01*
X13135Y12341D01*
X13135Y12341D01*
Y12132D01*
X13129Y12128D01*
X13124Y12120D01*
X13123Y12116D01*
X13169D01*
X13168Y12120D01*
X13163Y12128D01*
X13157Y12132D01*
Y12343D01*
X13161Y12346D01*
X13166Y12354D01*
X13167Y12358D01*
D02*
G37*
G36*
X13858Y12103D02*
X13844Y12101D01*
X13830Y12095D01*
X13819Y12087D01*
X13810Y12075D01*
X13804Y12062D01*
X13803Y12047D01*
X13804Y12033D01*
X13810Y12019D01*
X13819Y12008D01*
X13830Y11999D01*
X13844Y11993D01*
X13858Y11992D01*
X13873Y11993D01*
X13886Y11999D01*
X13898Y12008D01*
X13906Y12019D01*
X13912Y12033D01*
X13914Y12047D01*
X13912Y12062D01*
X13906Y12075D01*
X13898Y12087D01*
X13886Y12095D01*
X13873Y12101D01*
X13858Y12103D01*
D02*
G37*
G36*
X12008D02*
X11993Y12101D01*
X11980Y12095D01*
X11968Y12087D01*
X11960Y12075D01*
X11954Y12062D01*
X11952Y12047D01*
X11954Y12033D01*
X11960Y12019D01*
X11968Y12008D01*
X11980Y11999D01*
X11993Y11993D01*
X12008Y11992D01*
X12022Y11993D01*
X12036Y11999D01*
X12047Y12008D01*
X12056Y12019D01*
X12062Y12033D01*
X12064Y12047D01*
X12062Y12062D01*
X12056Y12075D01*
X12047Y12087D01*
X12036Y12095D01*
X12022Y12101D01*
X12008Y12103D01*
D02*
G37*
G36*
X13702Y12134D02*
X13698Y12133D01*
X13690Y12128D01*
X13685Y12120D01*
X13684Y12116D01*
X13702D01*
Y12134D01*
D02*
G37*
G36*
X12424Y12196D02*
X12386D01*
Y12158D01*
X12392Y12159D01*
X12403Y12163D01*
X12412Y12170D01*
X12419Y12179D01*
X12423Y12190D01*
X12424Y12196D01*
D02*
G37*
G36*
X12376D02*
X12338D01*
X12339Y12190D01*
X12343Y12179D01*
X12350Y12170D01*
X12359Y12163D01*
X12370Y12159D01*
X12376Y12158D01*
Y12196D01*
D02*
G37*
G36*
X13712Y12134D02*
Y12116D01*
X13730D01*
X13729Y12120D01*
X13724Y12128D01*
X13716Y12133D01*
X13712Y12134D01*
D02*
G37*
G36*
X12066Y12546D02*
X12006D01*
Y12523D01*
X11981D01*
Y12545D01*
X11924D01*
Y12481D01*
X11981D01*
Y12501D01*
X12006D01*
Y12477D01*
X12066D01*
Y12546D01*
D02*
G37*
G36*
X11859Y12549D02*
X11831D01*
Y12518D01*
X11859D01*
Y12549D01*
D02*
G37*
G36*
X11897D02*
X11869D01*
Y12513D01*
Y12477D01*
X11897D01*
Y12492D01*
X11902Y12496D01*
X11907Y12504D01*
X11908Y12508D01*
X11885D01*
Y12518D01*
X11908D01*
X11907Y12522D01*
X11902Y12530D01*
X11897Y12534D01*
Y12549D01*
D02*
G37*
G36*
X13184Y12660D02*
X13138D01*
X13139Y12656D01*
X13144Y12648D01*
X13150Y12644D01*
Y12559D01*
X13149Y12558D01*
Y12536D01*
X13167D01*
X13166Y12538D01*
X13169Y12541D01*
X13169Y12541D01*
X13171Y12544D01*
X13172Y12549D01*
Y12644D01*
X13178Y12648D01*
X13183Y12656D01*
X13184Y12660D01*
D02*
G37*
G36*
X12300Y13392D02*
X12292Y13391D01*
X12286Y13386D01*
X12281Y13380D01*
X12280Y13372D01*
X12281Y13364D01*
X12282Y13363D01*
Y12800D01*
X12145Y12663D01*
X12140Y12666D01*
Y12709D01*
X12083D01*
Y12669D01*
X12061Y12648D01*
X12055Y12650D01*
Y12672D01*
X12028D01*
Y12642D01*
X12040D01*
X12044Y12636D01*
X12043Y12635D01*
X11996D01*
Y12562D01*
X12057D01*
Y12615D01*
X12071Y12629D01*
X12077Y12626D01*
Y12562D01*
X12138D01*
Y12602D01*
X12314Y12779D01*
X12318Y12785D01*
X12319Y12786D01*
X12320Y12792D01*
Y13370D01*
X12320Y13372D01*
X12319Y13380D01*
X12314Y13386D01*
X12308Y13391D01*
X12300Y13392D01*
D02*
G37*
G36*
X12215Y12606D02*
X12207Y12605D01*
X12200Y12600D01*
X12196Y12594D01*
X12194Y12586D01*
X12195Y12582D01*
X12139Y12526D01*
X12133Y12528D01*
Y12546D01*
X12073D01*
Y12477D01*
X12133D01*
Y12501D01*
X12140D01*
X12140Y12501D01*
X12145Y12501D01*
X12148Y12504D01*
X12211Y12566D01*
X12215Y12566D01*
X12222Y12567D01*
X12229Y12572D01*
X12233Y12578D01*
X12235Y12586D01*
X12233Y12594D01*
X12229Y12600D01*
X12222Y12605D01*
X12215Y12606D01*
D02*
G37*
G36*
X11981Y12635D02*
X11920D01*
Y12562D01*
X11981D01*
Y12635D01*
D02*
G37*
G36*
X11859Y12508D02*
X11831D01*
Y12477D01*
X11859D01*
Y12508D01*
D02*
G37*
G36*
X13696Y12391D02*
X13691Y12390D01*
X13681Y12386D01*
X13672Y12380D01*
X13666Y12371D01*
X13662Y12361D01*
X13661Y12356D01*
X13696D01*
Y12391D01*
D02*
G37*
G36*
X13420Y12889D02*
X13412Y12888D01*
X13406Y12883D01*
X13401Y12877D01*
X13400Y12869D01*
X13401Y12861D01*
X13406Y12855D01*
X13409Y12853D01*
Y12366D01*
X13406Y12364D01*
X13401Y12358D01*
X13400Y12350D01*
X13401Y12342D01*
X13406Y12336D01*
X13412Y12331D01*
X13420Y12330D01*
X13428Y12331D01*
X13434Y12336D01*
X13439Y12342D01*
X13440Y12350D01*
X13439Y12358D01*
X13434Y12364D01*
X13431Y12366D01*
Y12853D01*
X13434Y12855D01*
X13439Y12861D01*
X13440Y12869D01*
X13439Y12877D01*
X13434Y12883D01*
X13428Y12888D01*
X13420Y12889D01*
D02*
G37*
G36*
X13501Y12387D02*
X13492Y12386D01*
X13483Y12382D01*
X13475Y12377D01*
X13470Y12369D01*
X13466Y12360D01*
X13465Y12351D01*
X13466Y12342D01*
X13470Y12333D01*
X13475Y12325D01*
X13483Y12320D01*
X13492Y12316D01*
X13501Y12315D01*
X13510Y12316D01*
X13519Y12320D01*
X13527Y12325D01*
X13532Y12333D01*
X13536Y12342D01*
X13537Y12351D01*
X13536Y12360D01*
X13532Y12369D01*
X13527Y12377D01*
X13519Y12382D01*
X13510Y12386D01*
X13501Y12387D01*
D02*
G37*
G36*
X13706Y12391D02*
Y12356D01*
X13741D01*
X13740Y12361D01*
X13736Y12371D01*
X13730Y12380D01*
X13721Y12386D01*
X13711Y12390D01*
X13706Y12391D01*
D02*
G37*
G36*
X13549Y12513D02*
X13541Y12512D01*
X13535Y12507D01*
X13530Y12501D01*
X13529Y12493D01*
X13530Y12485D01*
X13535Y12479D01*
X13537Y12477D01*
X13537Y12472D01*
X13531Y12471D01*
X13527Y12477D01*
X13519Y12482D01*
X13510Y12486D01*
X13501Y12487D01*
X13492Y12486D01*
X13483Y12482D01*
X13475Y12477D01*
X13470Y12469D01*
X13466Y12460D01*
X13465Y12451D01*
X13466Y12442D01*
X13470Y12433D01*
X13475Y12425D01*
X13483Y12420D01*
X13492Y12416D01*
X13501Y12415D01*
X13510Y12416D01*
X13519Y12420D01*
X13527Y12425D01*
X13532Y12432D01*
X13535Y12432D01*
X13538Y12430D01*
Y12403D01*
X13538Y12403D01*
X13539Y12399D01*
X13541Y12395D01*
X13569Y12367D01*
X13566Y12360D01*
X13565Y12351D01*
X13566Y12342D01*
X13570Y12333D01*
X13575Y12325D01*
X13583Y12320D01*
X13592Y12316D01*
X13601Y12315D01*
X13610Y12316D01*
X13619Y12320D01*
X13627Y12325D01*
X13632Y12333D01*
X13636Y12342D01*
X13637Y12351D01*
X13636Y12360D01*
X13632Y12369D01*
X13627Y12377D01*
X13619Y12382D01*
X13610Y12386D01*
X13601Y12387D01*
X13592Y12386D01*
X13585Y12383D01*
X13560Y12408D01*
Y12440D01*
X13566Y12442D01*
X13570Y12433D01*
X13575Y12425D01*
X13583Y12420D01*
X13592Y12416D01*
X13601Y12415D01*
X13610Y12416D01*
X13619Y12420D01*
X13627Y12425D01*
X13632Y12433D01*
X13636Y12442D01*
X13637Y12451D01*
X13636Y12460D01*
X13632Y12469D01*
X13627Y12477D01*
X13619Y12482D01*
X13610Y12486D01*
X13601Y12487D01*
X13592Y12486D01*
X13583Y12482D01*
X13575Y12477D01*
X13570Y12469D01*
X13566Y12460D01*
X13560Y12462D01*
Y12477D01*
X13563Y12479D01*
X13568Y12485D01*
X13569Y12493D01*
X13568Y12501D01*
X13563Y12507D01*
X13557Y12512D01*
X13549Y12513D01*
D02*
G37*
G36*
X13701Y12487D02*
X13692Y12486D01*
X13683Y12482D01*
X13675Y12477D01*
X13670Y12469D01*
X13666Y12460D01*
X13665Y12451D01*
X13666Y12442D01*
X13670Y12433D01*
X13675Y12425D01*
X13683Y12420D01*
X13692Y12416D01*
X13701Y12415D01*
X13710Y12416D01*
X13719Y12420D01*
X13727Y12425D01*
X13732Y12433D01*
X13736Y12442D01*
X13737Y12451D01*
X13736Y12460D01*
X13732Y12469D01*
X13727Y12477D01*
X13719Y12482D01*
X13710Y12486D01*
X13701Y12487D01*
D02*
G37*
G36*
X13102Y12687D02*
X13095Y12686D01*
X13088Y12681D01*
X13084Y12675D01*
X13082Y12667D01*
X13084Y12659D01*
X13088Y12653D01*
X13091Y12651D01*
Y12314D01*
X13088Y12312D01*
X13084Y12305D01*
X13082Y12298D01*
X13084Y12290D01*
X13088Y12283D01*
X13095Y12279D01*
X13102Y12277D01*
X13110Y12279D01*
X13117Y12283D01*
X13121Y12290D01*
X13123Y12298D01*
X13121Y12305D01*
X13117Y12312D01*
X13114Y12314D01*
Y12428D01*
D01*
D01*
X13114Y12428D01*
X13114Y12428D01*
X13119Y12429D01*
X13120Y12429D01*
X13120Y12429D01*
X13120Y12429D01*
X13120Y12428D01*
X13120Y12427D01*
X13121Y12422D01*
X13121Y12422D01*
X13126Y12414D01*
X13132Y12410D01*
Y12384D01*
X13127Y12380D01*
X13122Y12372D01*
X13121Y12368D01*
X13167D01*
X13166Y12372D01*
X13161Y12380D01*
X13155Y12384D01*
Y12410D01*
X13161Y12414D01*
X13166Y12422D01*
X13167Y12426D01*
X13144D01*
Y12436D01*
X13167D01*
X13166Y12440D01*
X13161Y12448D01*
X13155Y12452D01*
Y12510D01*
X13161Y12514D01*
X13166Y12522D01*
X13167Y12526D01*
X13144D01*
Y12531D01*
X13139D01*
Y12554D01*
X13134Y12553D01*
X13126Y12548D01*
X13121Y12540D01*
X13120Y12535D01*
X13120D01*
X13120Y12535D01*
X13120Y12533D01*
X13120Y12533D01*
X13120Y12533D01*
X13119Y12533D01*
X13114Y12534D01*
X13114Y12534D01*
X13114Y12534D01*
D01*
D01*
Y12651D01*
X13117Y12653D01*
X13121Y12659D01*
X13123Y12667D01*
X13121Y12675D01*
X13117Y12681D01*
X13110Y12686D01*
X13102Y12687D01*
D02*
G37*
G36*
X13715Y14314D02*
X13707Y14313D01*
X13701Y14308D01*
X13699Y14305D01*
X13255D01*
X13253Y14308D01*
X13247Y14313D01*
X13239Y14314D01*
X13231Y14313D01*
X13225Y14308D01*
X13220Y14302D01*
X13219Y14294D01*
X13220Y14286D01*
X13225Y14280D01*
X13231Y14275D01*
X13239Y14274D01*
X13247Y14275D01*
X13253Y14280D01*
X13255Y14283D01*
X13699D01*
X13701Y14280D01*
X13707Y14275D01*
X13715Y14274D01*
X13723Y14275D01*
X13729Y14280D01*
X13734Y14286D01*
X13735Y14294D01*
X13734Y14302D01*
X13729Y14308D01*
X13723Y14313D01*
X13715Y14314D01*
D02*
G37*
G36*
X12866Y14418D02*
X12823D01*
Y14371D01*
Y14324D01*
X12866D01*
X12866Y14324D01*
Y14324D01*
X12866Y14324D01*
X12871Y14322D01*
Y14312D01*
X12856D01*
Y14277D01*
X12840D01*
Y14302D01*
X12827D01*
Y14266D01*
Y14229D01*
X12840D01*
Y14254D01*
X12856D01*
Y14237D01*
X12892D01*
Y14275D01*
X12902D01*
Y14237D01*
X12939D01*
Y14257D01*
X12940Y14260D01*
X12941Y14265D01*
X12994D01*
X12998Y14259D01*
X13006Y14254D01*
X13010Y14253D01*
Y14276D01*
Y14299D01*
X13006Y14298D01*
X12998Y14293D01*
X12994Y14287D01*
X12939D01*
Y14312D01*
X12923D01*
Y14330D01*
X12929Y14332D01*
X12943Y14318D01*
X12943Y14318D01*
X12946Y14316D01*
X12951Y14315D01*
X13030D01*
X13035Y14313D01*
Y14298D01*
X13029Y14295D01*
X13024Y14298D01*
X13020Y14299D01*
Y14276D01*
Y14253D01*
X13024Y14254D01*
X13028Y14256D01*
X13032Y14259D01*
X13032Y14259D01*
X13033Y14259D01*
X13038Y14262D01*
X13040Y14262D01*
X13047D01*
X13050Y14259D01*
X13058Y14258D01*
X13066Y14259D01*
X13069Y14262D01*
X13099D01*
Y14313D01*
X13103Y14317D01*
X13103D01*
Y14342D01*
X13031D01*
Y14337D01*
X12955D01*
X12944Y14348D01*
Y14366D01*
X12906D01*
Y14371D01*
X12901D01*
Y14407D01*
X12867D01*
X12866Y14412D01*
Y14418D01*
D02*
G37*
G36*
X13936Y14299D02*
X13932Y14298D01*
X13924Y14293D01*
X13919Y14285D01*
X13918Y14281D01*
X13936D01*
Y14299D01*
D02*
G37*
G36*
X13419Y14458D02*
X13411Y14457D01*
X13405Y14452D01*
X13400Y14446D01*
X13399Y14438D01*
X13400Y14430D01*
X13405Y14424D01*
X13409Y14421D01*
Y14369D01*
X13405Y14366D01*
X13400Y14360D01*
X13399Y14352D01*
X13400Y14344D01*
X13405Y14338D01*
X13411Y14333D01*
X13419Y14332D01*
X13427Y14333D01*
X13433Y14338D01*
X13438Y14344D01*
X13439Y14352D01*
X13438Y14360D01*
X13433Y14366D01*
X13429Y14369D01*
Y14421D01*
X13433Y14424D01*
X13438Y14430D01*
X13439Y14438D01*
X13438Y14446D01*
X13433Y14452D01*
X13427Y14457D01*
X13419Y14458D01*
D02*
G37*
G36*
X12813Y14418D02*
X12729D01*
Y14371D01*
Y14324D01*
X12813D01*
Y14371D01*
Y14418D01*
D02*
G37*
G36*
X12719D02*
X12676D01*
Y14412D01*
X12675Y14407D01*
X12641D01*
Y14371D01*
X12636D01*
Y14366D01*
X12598D01*
Y14335D01*
X12619D01*
Y14312D01*
X12604D01*
Y14280D01*
X12687D01*
Y14312D01*
X12671D01*
Y14322D01*
X12676Y14324D01*
X12676Y14324D01*
Y14324D01*
X12676Y14324D01*
X12719D01*
Y14371D01*
Y14418D01*
D02*
G37*
G36*
X11943Y13834D02*
X11908D01*
Y13809D01*
X11909Y13798D01*
X11913Y13788D01*
X11920Y13780D01*
X11928Y13774D01*
X11938Y13770D01*
X11943Y13769D01*
Y13834D01*
D02*
G37*
G36*
X13386Y13723D02*
X13368D01*
Y13705D01*
X13372Y13706D01*
X13380Y13711D01*
X13385Y13719D01*
X13386Y13723D01*
D02*
G37*
G36*
X12318Y13685D02*
X12312Y13685D01*
X12303Y13681D01*
X12294Y13674D01*
X12288Y13666D01*
X12284Y13656D01*
X12283Y13651D01*
X12318D01*
Y13685D01*
D02*
G37*
G36*
X13936Y14271D02*
X13918D01*
X13919Y14267D01*
X13924Y14259D01*
X13932Y14254D01*
X13936Y14253D01*
Y14271D01*
D02*
G37*
G36*
X13205Y14271D02*
X13197Y14270D01*
X13191Y14265D01*
X13186Y14259D01*
X13185Y14251D01*
X13186Y14243D01*
X13191Y14237D01*
X13197Y14232D01*
X13205Y14231D01*
X13213Y14232D01*
X13219Y14237D01*
X13219Y14237D01*
X13456D01*
X13458Y14234D01*
X13465Y14229D01*
X13472Y14228D01*
X13480Y14229D01*
X13487Y14234D01*
X13491Y14240D01*
X13493Y14248D01*
X13491Y14256D01*
X13487Y14262D01*
X13480Y14267D01*
X13472Y14268D01*
X13465Y14267D01*
X13458Y14262D01*
X13456Y14259D01*
X13223D01*
X13219Y14265D01*
X13213Y14270D01*
X13205Y14271D01*
D02*
G37*
G36*
X11943Y13908D02*
X11938Y13908D01*
X11928Y13904D01*
X11920Y13897D01*
X11913Y13889D01*
X11909Y13879D01*
X11908Y13869D01*
Y13844D01*
X11943D01*
Y13908D01*
D02*
G37*
G36*
X14023Y14354D02*
X13979D01*
X13973Y14353D01*
X13969Y14350D01*
X13967Y14348D01*
X13638D01*
X13638Y14348D01*
X13631Y14353D01*
X13624Y14354D01*
X13616Y14353D01*
X13609Y14348D01*
X13605Y14342D01*
X13603Y14334D01*
X13605Y14326D01*
X13609Y14320D01*
X13616Y14315D01*
X13624Y14314D01*
X13631Y14315D01*
X13638Y14320D01*
X13638Y14320D01*
X13966D01*
X13966Y14319D01*
X13969Y14314D01*
X13971Y14313D01*
X13971Y14311D01*
X13971Y14306D01*
X13966Y14303D01*
X13962Y14297D01*
X13962Y14297D01*
X13956Y14295D01*
X13950Y14298D01*
X13946Y14299D01*
Y14276D01*
Y14253D01*
X13950Y14254D01*
X13958Y14259D01*
X13959Y14261D01*
X13965Y14261D01*
X13967Y14261D01*
X13971Y14258D01*
X13971Y14254D01*
X13971Y14252D01*
X13969Y14250D01*
X13966Y14246D01*
X13965Y14243D01*
X13768D01*
X13766Y14247D01*
X13760Y14251D01*
X13752Y14252D01*
X13744Y14251D01*
X13738Y14247D01*
X13733Y14240D01*
X13732Y14232D01*
X13733Y14225D01*
X13738Y14218D01*
X13744Y14214D01*
X13752Y14212D01*
X13760Y14214D01*
X13766Y14218D01*
X13768Y14221D01*
X13965D01*
X13966Y14219D01*
X13969Y14214D01*
X13973Y14211D01*
X13979Y14210D01*
Y14204D01*
X13973Y14203D01*
X13969Y14200D01*
X13966Y14196D01*
X13965Y14193D01*
X13799D01*
X13797Y14197D01*
X13791Y14201D01*
X13783Y14202D01*
X13775Y14201D01*
X13769Y14197D01*
X13764Y14190D01*
X13763Y14182D01*
X13764Y14175D01*
X13769Y14168D01*
X13775Y14164D01*
X13783Y14162D01*
X13791Y14164D01*
X13797Y14168D01*
X13799Y14171D01*
X13965D01*
X13966Y14169D01*
X13969Y14164D01*
X13973Y14161D01*
X13979Y14160D01*
Y14154D01*
X13973Y14153D01*
X13969Y14150D01*
X13966Y14146D01*
X13965Y14143D01*
X13849D01*
X13844Y14143D01*
X13841Y14140D01*
X13841Y14140D01*
X13822Y14122D01*
X13819Y14123D01*
X13811Y14121D01*
X13805Y14117D01*
X13800Y14110D01*
X13799Y14102D01*
X13800Y14095D01*
X13805Y14088D01*
X13811Y14084D01*
X13819Y14082D01*
X13827Y14084D01*
X13833Y14088D01*
X13838Y14095D01*
X13839Y14102D01*
X13838Y14106D01*
X13853Y14121D01*
X13965D01*
X13966Y14119D01*
X13969Y14114D01*
X13973Y14111D01*
X13979Y14110D01*
Y14104D01*
X13973Y14103D01*
X13969Y14100D01*
X13966Y14096D01*
X13965Y14093D01*
X13893D01*
X13891Y14097D01*
X13884Y14101D01*
X13876Y14102D01*
X13869Y14101D01*
X13862Y14097D01*
X13858Y14090D01*
X13856Y14082D01*
X13858Y14075D01*
X13862Y14068D01*
X13869Y14064D01*
X13876Y14062D01*
X13884Y14064D01*
X13891Y14068D01*
X13893Y14071D01*
X13965D01*
X13966Y14069D01*
X13969Y14064D01*
X13973Y14061D01*
X13979Y14060D01*
Y14054D01*
X13973Y14053D01*
X13969Y14050D01*
X13966Y14046D01*
X13965Y14043D01*
X13738D01*
X13736Y14047D01*
X13729Y14051D01*
X13721Y14052D01*
X13714Y14051D01*
X13707Y14047D01*
X13703Y14040D01*
X13701Y14032D01*
X13703Y14025D01*
X13704Y14022D01*
X13701Y14016D01*
X13657D01*
X13654Y14022D01*
X13656Y14025D01*
X13657Y14033D01*
X13656Y14041D01*
X13651Y14047D01*
X13645Y14052D01*
X13637Y14053D01*
X13629Y14052D01*
X13623Y14047D01*
X13621Y14044D01*
X13611D01*
X13610Y14050D01*
X13615Y14054D01*
X13620Y14060D01*
X13621Y14068D01*
X13620Y14076D01*
X13615Y14082D01*
X13609Y14087D01*
X13601Y14088D01*
X13593Y14087D01*
X13587Y14082D01*
X13583Y14076D01*
X13432D01*
X13429Y14080D01*
X13423Y14085D01*
X13415Y14086D01*
X13407Y14085D01*
X13401Y14080D01*
X13396Y14074D01*
X13395Y14066D01*
X13396Y14058D01*
X13401Y14052D01*
X13403Y14050D01*
X13401Y14044D01*
X13388D01*
X13388Y14044D01*
X13384Y14043D01*
X13380Y14041D01*
X13380Y14041D01*
X13349Y14010D01*
X13332D01*
X13332D01*
X13332D01*
X13331Y14010D01*
X13331Y14016D01*
X13332Y14017D01*
X13332D01*
X13336Y14017D01*
X13342Y14022D01*
X13347Y14028D01*
X13348Y14036D01*
X13347Y14044D01*
X13342Y14050D01*
X13336Y14055D01*
X13328Y14056D01*
X13320Y14055D01*
X13314Y14050D01*
X13312Y14047D01*
X12535D01*
X12532Y14053D01*
X12534Y14056D01*
X12535Y14063D01*
X12538Y14065D01*
X12541Y14066D01*
X12544Y14066D01*
X12710D01*
X12714Y14067D01*
X12717Y14069D01*
X12770Y14122D01*
X13121D01*
X13124Y14118D01*
X13130Y14113D01*
X13138Y14112D01*
X13146Y14113D01*
X13152Y14118D01*
X13157Y14124D01*
X13158Y14132D01*
X13157Y14140D01*
X13152Y14146D01*
X13146Y14151D01*
X13138Y14152D01*
X13130Y14151D01*
X13124Y14146D01*
X13121Y14142D01*
X13099D01*
X13096Y14148D01*
X13097Y14149D01*
X13098Y14157D01*
X13097Y14165D01*
X13092Y14171D01*
X13086Y14176D01*
X13078Y14177D01*
X13070Y14176D01*
X13064Y14171D01*
X13060Y14165D01*
X12619D01*
X12617Y14168D01*
X12611Y14173D01*
X12603Y14174D01*
X12595Y14173D01*
X12589Y14168D01*
X12586Y14164D01*
X12579Y14164D01*
X12578Y14165D01*
X12572Y14170D01*
X12564Y14171D01*
X12558Y14170D01*
X12440Y14288D01*
X12436Y14290D01*
X12432Y14291D01*
X12432Y14291D01*
X11907D01*
X11906Y14293D01*
X11903Y14298D01*
X11899Y14301D01*
X11893Y14302D01*
Y14308D01*
X11899Y14309D01*
X11903Y14312D01*
X11906Y14317D01*
X11907Y14319D01*
X12506D01*
X12639Y14185D01*
X12639Y14185D01*
X12643Y14183D01*
X12647Y14182D01*
X12647Y14182D01*
X12899D01*
X12901Y14179D01*
X12907Y14174D01*
X12915Y14173D01*
X12923Y14174D01*
X12929Y14179D01*
X12934Y14185D01*
X12935Y14193D01*
X12934Y14201D01*
X12929Y14207D01*
X12923Y14212D01*
X12915Y14213D01*
X12907Y14212D01*
X12901Y14207D01*
X12899Y14204D01*
X12781D01*
X12780Y14210D01*
X12785Y14214D01*
X12790Y14220D01*
X12791Y14228D01*
X12791Y14228D01*
X12795Y14233D01*
X12804D01*
Y14229D01*
X12817D01*
Y14266D01*
Y14302D01*
X12804D01*
Y14298D01*
X12706D01*
Y14272D01*
X12701Y14267D01*
X12693Y14266D01*
X12693Y14265D01*
X12687Y14268D01*
Y14270D01*
X12604D01*
Y14260D01*
X12598Y14258D01*
X12518Y14338D01*
X12515Y14340D01*
X12510Y14341D01*
X12510Y14341D01*
X11907D01*
X11906Y14343D01*
X11903Y14348D01*
X11899Y14351D01*
X11893Y14352D01*
X11849D01*
X11843Y14351D01*
X11839Y14348D01*
X11836Y14343D01*
X11835Y14338D01*
Y14322D01*
X11836Y14317D01*
X11839Y14312D01*
X11843Y14309D01*
X11849Y14308D01*
Y14302D01*
X11843Y14301D01*
X11839Y14298D01*
X11836Y14293D01*
X11835Y14288D01*
Y14272D01*
X11836Y14267D01*
X11839Y14262D01*
X11843Y14259D01*
X11849Y14258D01*
Y14252D01*
X11843Y14251D01*
X11839Y14248D01*
X11836Y14243D01*
X11835Y14238D01*
Y14222D01*
X11836Y14217D01*
X11839Y14212D01*
X11843Y14209D01*
X11849Y14208D01*
Y14202D01*
X11843Y14201D01*
X11839Y14198D01*
X11836Y14193D01*
X11835Y14188D01*
Y14172D01*
X11836Y14167D01*
X11839Y14162D01*
X11843Y14159D01*
X11849Y14158D01*
Y14152D01*
X11843Y14151D01*
X11839Y14148D01*
X11836Y14143D01*
X11835Y14138D01*
Y14122D01*
X11836Y14117D01*
X11839Y14112D01*
X11843Y14109D01*
X11849Y14108D01*
Y14102D01*
X11843Y14101D01*
X11839Y14098D01*
X11836Y14093D01*
X11835Y14088D01*
Y14072D01*
X11836Y14067D01*
X11839Y14062D01*
X11841Y14060D01*
X11841Y14058D01*
X11841Y14054D01*
X11836Y14051D01*
X11832Y14045D01*
X11831Y14038D01*
Y14035D01*
X11871D01*
Y14025D01*
X11831D01*
Y14022D01*
X11832Y14015D01*
X11836Y14009D01*
X11841Y14006D01*
X11841Y14001D01*
X11841Y13999D01*
X11839Y13998D01*
X11836Y13993D01*
X11835Y13988D01*
Y13972D01*
X11836Y13967D01*
X11839Y13962D01*
X11843Y13959D01*
X11849Y13958D01*
X11893D01*
X11899Y13959D01*
X11903Y13962D01*
X11906Y13967D01*
X11907Y13972D01*
X11908Y13972D01*
X11946Y14010D01*
X12165D01*
X12167Y14007D01*
X12173Y14002D01*
X12181Y14001D01*
X12189Y14002D01*
X12195Y14007D01*
X12200Y14013D01*
X12201Y14021D01*
X12200Y14029D01*
X12195Y14035D01*
X12189Y14040D01*
X12181Y14041D01*
X12173Y14040D01*
X12167Y14035D01*
X12165Y14032D01*
X11965D01*
X11963Y14038D01*
X11964Y14039D01*
X11969Y14047D01*
X11970Y14051D01*
X11947D01*
Y14061D01*
X11970D01*
X11970Y14064D01*
X11973Y14070D01*
X12224D01*
X12265Y14028D01*
X12265Y14028D01*
X12269Y14026D01*
X12273Y14025D01*
X12938D01*
X12942Y14019D01*
X12939Y14014D01*
X12938Y14010D01*
X12961D01*
Y14000D01*
X12938D01*
X12939Y13996D01*
X12944Y13988D01*
X12944Y13980D01*
X12943Y13979D01*
X12942Y13971D01*
X12943Y13963D01*
X12948Y13957D01*
X12954Y13952D01*
X12962Y13951D01*
X12967Y13952D01*
X12979Y13939D01*
Y13928D01*
X12973Y13923D01*
X12970Y13923D01*
X12963Y13922D01*
X12956Y13918D01*
X12952Y13911D01*
X12950Y13903D01*
X12952Y13896D01*
X12952Y13895D01*
X12950Y13889D01*
X12906D01*
X12902Y13894D01*
X12896Y13899D01*
X12888Y13900D01*
X12884Y13899D01*
X12870Y13914D01*
X12867Y13916D01*
X12862Y13917D01*
X12862Y13917D01*
X12716D01*
X12714Y13923D01*
X12718Y13925D01*
X12720Y13928D01*
X12871D01*
X12873Y13925D01*
X12879Y13921D01*
X12887Y13919D01*
X12895Y13921D01*
X12901Y13925D01*
X12906Y13932D01*
X12907Y13940D01*
X12906Y13947D01*
X12901Y13954D01*
X12895Y13958D01*
X12887Y13960D01*
X12879Y13958D01*
X12873Y13954D01*
X12871Y13951D01*
X12720D01*
X12718Y13954D01*
X12711Y13958D01*
X12704Y13960D01*
X12696Y13958D01*
X12689Y13954D01*
X12685Y13947D01*
X12683Y13940D01*
X12685Y13932D01*
X12687Y13929D01*
X12685Y13927D01*
X12683Y13924D01*
X12676Y13926D01*
X12668Y13924D01*
X12662Y13920D01*
X12657Y13913D01*
X12656Y13906D01*
X12657Y13898D01*
X12659Y13896D01*
X12656Y13889D01*
X12655Y13889D01*
X12654Y13889D01*
X12648Y13894D01*
X12641Y13895D01*
X12633Y13894D01*
X12626Y13889D01*
X12622Y13883D01*
X12620Y13875D01*
X12622Y13867D01*
X12623Y13866D01*
X12620Y13861D01*
X12595D01*
X12595Y13861D01*
X12591Y13867D01*
X12584Y13872D01*
X12576Y13873D01*
X12569Y13872D01*
X12562Y13867D01*
X12558Y13861D01*
X12556Y13853D01*
X12558Y13845D01*
X12561Y13840D01*
X12559Y13835D01*
X12558Y13834D01*
X12540D01*
X12539Y13838D01*
X12535Y13844D01*
X12528Y13849D01*
X12521Y13850D01*
X12513Y13849D01*
X12506Y13844D01*
X12502Y13838D01*
X12500Y13830D01*
X12502Y13823D01*
X12506Y13816D01*
X12509Y13814D01*
X12507Y13808D01*
X12350D01*
X12346Y13807D01*
X12344Y13806D01*
X12340Y13807D01*
X12332Y13806D01*
X12326Y13801D01*
X12321Y13795D01*
X12320Y13787D01*
X12321Y13779D01*
X12326Y13773D01*
X12332Y13768D01*
X12340Y13767D01*
X12348Y13768D01*
X12354Y13773D01*
X12359Y13779D01*
X12360Y13786D01*
X12394D01*
X12397Y13780D01*
X12397Y13780D01*
X12396Y13779D01*
X12389Y13778D01*
X12383Y13773D01*
X12378Y13767D01*
X12377Y13759D01*
X12378Y13751D01*
X12383Y13745D01*
X12389Y13740D01*
X12392Y13740D01*
X12394Y13733D01*
X12372Y13711D01*
X12370Y13707D01*
X12369Y13703D01*
X12369Y13703D01*
Y13653D01*
X12366Y13649D01*
X12363Y13648D01*
X12363Y13648D01*
X12363Y13648D01*
X12363Y13648D01*
X12363Y13649D01*
X12363Y13649D01*
Y13649D01*
X12362Y13656D01*
X12358Y13666D01*
X12351Y13674D01*
X12343Y13681D01*
X12333Y13685D01*
X12328Y13685D01*
Y13646D01*
Y13606D01*
X12333Y13607D01*
X12343Y13611D01*
X12351Y13617D01*
X12358Y13625D01*
X12362Y13635D01*
X12363Y13643D01*
Y13643D01*
X12363Y13643D01*
X12363Y13643D01*
X12363Y13643D01*
X12363Y13643D01*
X12363Y13643D01*
X12366Y13643D01*
X12369Y13638D01*
Y12601D01*
X12369Y12601D01*
X12370Y12597D01*
X12372Y12593D01*
X12400Y12565D01*
X12404Y12563D01*
X12408Y12562D01*
X12411Y12557D01*
Y12557D01*
X12411Y12554D01*
Y12554D01*
X12408Y12549D01*
X12405Y12548D01*
X12304D01*
X12299Y12547D01*
X12296Y12545D01*
X12296Y12545D01*
X12273Y12522D01*
X12271Y12518D01*
X12270Y12514D01*
X12270Y12514D01*
Y12418D01*
X12267Y12416D01*
X12262Y12409D01*
X12261Y12401D01*
X12262Y12394D01*
X12267Y12387D01*
X12273Y12383D01*
X12281Y12381D01*
X12289Y12383D01*
X12295Y12387D01*
X12300Y12394D01*
X12301Y12401D01*
X12300Y12409D01*
X12295Y12416D01*
X12292Y12418D01*
Y12509D01*
X12308Y12526D01*
X12405D01*
X12407Y12525D01*
X12408Y12521D01*
X12407Y12517D01*
X12405Y12516D01*
X12392D01*
X12388Y12515D01*
X12384Y12513D01*
X12384Y12513D01*
X12363Y12492D01*
X12361Y12488D01*
X12360Y12484D01*
X12360Y12484D01*
Y12311D01*
X12360Y12311D01*
X12361Y12307D01*
X12363Y12303D01*
X12446Y12220D01*
X12443Y12211D01*
X12441Y12201D01*
X12443Y12191D01*
X12447Y12181D01*
X12453Y12173D01*
X12461Y12167D01*
X12471Y12163D01*
X12481Y12161D01*
X12491Y12163D01*
X12501Y12167D01*
X12509Y12173D01*
X12515Y12181D01*
X12519Y12191D01*
X12521Y12201D01*
X12519Y12211D01*
X12515Y12221D01*
X12509Y12229D01*
X12501Y12235D01*
X12491Y12239D01*
X12481Y12241D01*
X12471Y12239D01*
X12462Y12236D01*
X12410Y12288D01*
X12413Y12294D01*
X12472D01*
X12546Y12220D01*
X12543Y12211D01*
X12541Y12201D01*
X12543Y12191D01*
X12547Y12181D01*
X12553Y12173D01*
X12561Y12167D01*
X12571Y12163D01*
X12581Y12161D01*
X12591Y12163D01*
X12601Y12167D01*
X12609Y12173D01*
X12615Y12181D01*
X12619Y12191D01*
X12621Y12201D01*
X12619Y12211D01*
X12615Y12221D01*
X12609Y12229D01*
X12601Y12235D01*
X12591Y12239D01*
X12592Y12245D01*
X12621D01*
Y12245D01*
X12625Y12249D01*
X12676D01*
Y12313D01*
X12643D01*
X12640Y12318D01*
X12640Y12319D01*
X12644Y12321D01*
X12644D01*
X12647Y12321D01*
X12670D01*
X12672Y12321D01*
X12674D01*
X12676D01*
X12678Y12321D01*
X12701D01*
X12704Y12321D01*
X12706Y12321D01*
X12707D01*
X12710Y12321D01*
X12735D01*
Y12337D01*
X12740Y12341D01*
X12741Y12341D01*
X12749Y12342D01*
X12755Y12347D01*
X12760Y12353D01*
X12761Y12361D01*
X12760Y12369D01*
X12755Y12375D01*
X12749Y12380D01*
X12741Y12381D01*
X12738Y12381D01*
X12735Y12383D01*
Y12383D01*
X12710D01*
X12707Y12383D01*
X12707D01*
X12703Y12386D01*
X12702Y12387D01*
X12701Y12389D01*
Y12567D01*
X12707Y12570D01*
X12708Y12570D01*
X12716Y12568D01*
X12723Y12570D01*
X12730Y12574D01*
X12734Y12581D01*
X12736Y12589D01*
X12734Y12596D01*
X12730Y12603D01*
X12727Y12605D01*
Y12613D01*
X12734Y12620D01*
X12743D01*
X12746Y12619D01*
X12749Y12614D01*
Y12614D01*
X12749Y12611D01*
Y12588D01*
X12749Y12586D01*
Y12584D01*
Y12582D01*
X12749Y12580D01*
Y12557D01*
X12749Y12554D01*
Y12553D01*
Y12551D01*
X12749Y12548D01*
Y12525D01*
X12749Y12523D01*
Y12521D01*
Y12519D01*
X12749Y12517D01*
Y12493D01*
X12749Y12491D01*
X12749Y12489D01*
Y12487D01*
X12749Y12485D01*
Y12462D01*
X12749Y12459D01*
X12749Y12459D01*
X12749Y12456D01*
X12749D01*
X12749Y12456D01*
Y12428D01*
X12749D01*
Y12424D01*
X12749D01*
Y12396D01*
X12811D01*
Y12399D01*
X12854D01*
X12854Y12396D01*
X12859Y12390D01*
X12865Y12385D01*
X12873Y12384D01*
X12881Y12385D01*
X12887Y12390D01*
X12892Y12396D01*
X12893Y12404D01*
X12892Y12412D01*
X12887Y12418D01*
X12884Y12420D01*
Y12814D01*
X12887Y12816D01*
X12892Y12822D01*
X12893Y12830D01*
X12892Y12838D01*
X12887Y12844D01*
X12881Y12849D01*
X12873Y12850D01*
X12865Y12849D01*
X12859Y12844D01*
X12854Y12838D01*
X12853Y12830D01*
X12854Y12822D01*
X12859Y12816D01*
X12862Y12814D01*
Y12456D01*
X12856Y12454D01*
X12855Y12455D01*
X12849Y12460D01*
X12845Y12460D01*
X12841Y12463D01*
X12840Y12467D01*
X12841Y12471D01*
X12840Y12479D01*
X12835Y12485D01*
X12829Y12490D01*
X12821Y12491D01*
X12817Y12490D01*
X12811Y12495D01*
X12811Y12495D01*
Y12517D01*
X12811Y12519D01*
Y12521D01*
Y12523D01*
X12811Y12525D01*
Y12548D01*
X12811Y12551D01*
Y12553D01*
Y12554D01*
X12811Y12557D01*
Y12580D01*
X12811Y12582D01*
Y12584D01*
Y12586D01*
X12811Y12588D01*
Y12611D01*
X12811Y12614D01*
Y12616D01*
Y12617D01*
X12811Y12620D01*
Y12645D01*
X12749D01*
Y12642D01*
X12730D01*
X12730Y12642D01*
X12725Y12642D01*
X12722Y12639D01*
X12722Y12639D01*
X12708Y12625D01*
X12705Y12622D01*
X12704Y12617D01*
X12704Y12617D01*
Y12615D01*
X12698Y12613D01*
X12698Y12614D01*
X12698Y12614D01*
X12683Y12629D01*
X12686Y12635D01*
X12690Y12634D01*
X12698Y12635D01*
X12704Y12640D01*
X12709Y12646D01*
X12710Y12654D01*
X12710Y12654D01*
X12714Y12659D01*
X12735D01*
Y12671D01*
X12741Y12674D01*
X12742Y12673D01*
X12750Y12672D01*
X12758Y12673D01*
X12764Y12678D01*
X12769Y12684D01*
X12770Y12692D01*
X12769Y12700D01*
X12764Y12706D01*
X12758Y12711D01*
X12750Y12712D01*
X12742Y12711D01*
X12741Y12710D01*
X12735Y12713D01*
Y12721D01*
X12707D01*
X12707Y12721D01*
X12707D01*
X12704D01*
Y12721D01*
X12701Y12721D01*
X12678D01*
X12676Y12721D01*
Y12721D01*
X12675D01*
X12669Y12726D01*
Y12778D01*
X12672Y12781D01*
X12672Y12781D01*
X12674Y12784D01*
X12675Y12789D01*
X12675Y12789D01*
Y12853D01*
X12678Y12855D01*
X12682Y12861D01*
X12684Y12869D01*
X12682Y12877D01*
X12678Y12883D01*
X12672Y12887D01*
X12664Y12889D01*
X12656Y12887D01*
X12655Y12887D01*
X12649Y12890D01*
Y12965D01*
X12655Y12966D01*
X12658Y12959D01*
X12663Y12952D01*
X12669Y12947D01*
X12677Y12944D01*
X12685Y12943D01*
X12693Y12944D01*
X12701Y12947D01*
X12707Y12952D01*
X12712Y12959D01*
X12715Y12966D01*
X12716Y12975D01*
X12715Y12983D01*
X12713Y12987D01*
X12730Y13004D01*
X12732Y13007D01*
X12733Y13012D01*
X12733Y13012D01*
Y13495D01*
X12748D01*
X12749Y13489D01*
X12747Y13489D01*
X12746Y13484D01*
Y12953D01*
X12747Y12948D01*
X12752Y12947D01*
X13114D01*
X13119Y12948D01*
X13121Y12953D01*
Y13484D01*
X13119Y13489D01*
X13116Y13490D01*
X13117Y13496D01*
X13127D01*
X13151Y13472D01*
X13150Y13465D01*
X13151Y13456D01*
X13154Y13449D01*
X13159Y13442D01*
X13165Y13437D01*
X13173Y13434D01*
X13181Y13433D01*
X13189Y13434D01*
X13197Y13437D01*
X13203Y13442D01*
X13208Y13449D01*
X13211Y13456D01*
X13212Y13465D01*
X13211Y13473D01*
X13208Y13480D01*
X13203Y13487D01*
X13197Y13492D01*
X13189Y13495D01*
X13181Y13496D01*
X13174Y13495D01*
X13145Y13524D01*
X13140Y13527D01*
X13134Y13528D01*
X13063D01*
X13060Y13534D01*
X13061Y13534D01*
X13062Y13542D01*
X13061Y13549D01*
Y13615D01*
X13072D01*
Y13688D01*
X13071D01*
X13070Y13689D01*
X13073Y13695D01*
X13097D01*
X13101Y13690D01*
X13101Y13688D01*
X13102Y13680D01*
X13107Y13674D01*
X13113Y13669D01*
X13121Y13668D01*
X13129Y13669D01*
X13135Y13674D01*
X13140Y13680D01*
X13141Y13688D01*
X13140Y13696D01*
X13135Y13702D01*
X13129Y13707D01*
X13121Y13708D01*
X13116Y13707D01*
X13111Y13712D01*
X13108Y13715D01*
X13104Y13715D01*
X13004D01*
X13000Y13715D01*
X12997Y13712D01*
X12986Y13701D01*
X12981Y13702D01*
X12973Y13701D01*
X12967Y13696D01*
X12962Y13690D01*
X12962Y13688D01*
X12930D01*
Y13615D01*
X12991D01*
Y13665D01*
X12995Y13668D01*
X13000Y13674D01*
X13001Y13682D01*
X13000Y13687D01*
X13008Y13695D01*
X13020D01*
X13023Y13689D01*
X13022Y13688D01*
X13011D01*
Y13615D01*
X13023D01*
Y13549D01*
X13022Y13542D01*
X13023Y13534D01*
X13024Y13534D01*
X13021Y13528D01*
X12765D01*
Y13563D01*
X12704D01*
X12704Y13563D01*
X12704D01*
X12701D01*
X12700Y13563D01*
X12699Y13563D01*
X12698Y13563D01*
D01*
X12698D01*
Y13563D01*
X12639D01*
Y13495D01*
X12654D01*
Y13434D01*
X12711D01*
Y13421D01*
X12705Y13418D01*
X12701Y13422D01*
X12693Y13425D01*
X12685Y13426D01*
X12677Y13425D01*
X12669Y13422D01*
X12663Y13417D01*
X12658Y13410D01*
X12655Y13403D01*
X12654Y13395D01*
X12655Y13386D01*
X12658Y13379D01*
X12663Y13372D01*
X12669Y13367D01*
X12677Y13364D01*
X12685Y13363D01*
X12693Y13364D01*
X12701Y13367D01*
X12705Y13371D01*
X12711Y13368D01*
Y13351D01*
X12705Y13348D01*
X12701Y13352D01*
X12693Y13355D01*
X12685Y13356D01*
X12677Y13355D01*
X12669Y13352D01*
X12663Y13347D01*
X12658Y13340D01*
X12656Y13335D01*
X12581D01*
X12577Y13334D01*
X12573Y13332D01*
X12553Y13312D01*
X12553Y13312D01*
X12552Y13310D01*
X12551Y13310D01*
X12547Y13314D01*
X12547Y13315D01*
Y13315D01*
X12547Y13317D01*
X12529D01*
Y13299D01*
X12533Y13300D01*
X12541Y13305D01*
X12543Y13308D01*
Y13308D01*
X12545Y13310D01*
X12545Y13310D01*
X12545Y13310D01*
X12545Y13309D01*
X12549Y13307D01*
X12549Y13307D01*
X12550Y13307D01*
X12550Y13307D01*
X12549Y13305D01*
X12549Y13304D01*
X12549Y13303D01*
Y12796D01*
X12543Y12793D01*
X12540Y12795D01*
X12532Y12797D01*
X12524Y12795D01*
X12518Y12791D01*
X12513Y12784D01*
X12512Y12777D01*
X12513Y12769D01*
X12518Y12762D01*
X12522Y12760D01*
Y12727D01*
X12516Y12726D01*
X12512Y12731D01*
X12506Y12736D01*
X12498Y12737D01*
X12490Y12736D01*
X12484Y12731D01*
X12479Y12725D01*
X12478Y12717D01*
X12479Y12709D01*
X12484Y12703D01*
X12486Y12701D01*
Y12659D01*
X12512D01*
X12514Y12659D01*
X12514Y12659D01*
X12518D01*
Y12659D01*
X12518Y12659D01*
X12545D01*
Y12655D01*
X12552D01*
Y12621D01*
X12552Y12621D01*
X12553Y12617D01*
X12555Y12613D01*
X12584Y12584D01*
Y12392D01*
X12583Y12391D01*
X12578Y12387D01*
X12577D01*
X12577D01*
X12573Y12383D01*
X12571D01*
X12552D01*
X12549Y12383D01*
X12548D01*
X12546D01*
X12543Y12383D01*
X12520D01*
X12518Y12383D01*
X12516Y12383D01*
X12514D01*
X12512Y12383D01*
X12486D01*
Y12321D01*
X12512D01*
X12514Y12321D01*
X12516Y12321D01*
X12518D01*
X12520Y12321D01*
X12543D01*
X12546Y12321D01*
X12548D01*
X12549D01*
X12552Y12321D01*
X12558D01*
X12558Y12321D01*
X12562Y12317D01*
X12562Y12315D01*
Y12294D01*
X12561Y12292D01*
X12560Y12288D01*
X12583D01*
Y12286D01*
X12591D01*
Y12276D01*
X12560D01*
X12561Y12274D01*
X12562Y12272D01*
Y12245D01*
X12570D01*
X12571Y12239D01*
X12562Y12236D01*
X12485Y12313D01*
X12481Y12315D01*
X12477Y12316D01*
X12477Y12316D01*
X12411D01*
X12398Y12329D01*
Y12449D01*
X12405Y12456D01*
X12411Y12454D01*
Y12453D01*
Y12430D01*
X12411Y12428D01*
Y12426D01*
X12411Y12424D01*
X12411Y12422D01*
Y12396D01*
X12473D01*
Y12422D01*
X12473Y12424D01*
Y12426D01*
X12473Y12428D01*
X12473Y12430D01*
Y12453D01*
X12473Y12456D01*
Y12458D01*
Y12459D01*
X12473Y12462D01*
Y12487D01*
X12473D01*
X12473Y12487D01*
Y12491D01*
X12473D01*
X12473Y12491D01*
Y12517D01*
X12473Y12518D01*
X12477Y12522D01*
X12479Y12522D01*
X12482Y12519D01*
X12490Y12518D01*
X12498Y12519D01*
X12504Y12524D01*
X12509Y12530D01*
X12510Y12538D01*
X12509Y12546D01*
X12504Y12552D01*
X12498Y12557D01*
X12490Y12558D01*
X12482Y12557D01*
X12479Y12554D01*
X12473Y12558D01*
Y12580D01*
X12473Y12582D01*
X12473Y12582D01*
X12473Y12586D01*
X12473D01*
X12473Y12586D01*
Y12614D01*
X12473D01*
X12473Y12617D01*
X12473D01*
Y12645D01*
X12457D01*
Y12972D01*
X12460Y12973D01*
X12463D01*
X12468Y12966D01*
X12476Y12961D01*
X12480Y12960D01*
Y12983D01*
X12485D01*
Y12988D01*
X12508D01*
X12507Y12992D01*
X12502Y13000D01*
X12496Y13004D01*
Y13129D01*
X12496Y13129D01*
X12495Y13133D01*
X12493Y13137D01*
X12493Y13137D01*
X12487Y13143D01*
X12487Y13145D01*
X12469D01*
Y13127D01*
X12474Y13122D01*
Y13004D01*
X12468Y13000D01*
X12463Y12993D01*
X12460D01*
X12457Y12994D01*
Y13034D01*
X12461Y13036D01*
X12466Y13043D01*
X12467Y13051D01*
X12466Y13058D01*
X12461Y13065D01*
X12455Y13069D01*
X12447Y13071D01*
X12439Y13069D01*
X12438Y13068D01*
X12432Y13072D01*
Y13679D01*
X12435Y13679D01*
X12438Y13680D01*
X12442Y13674D01*
X12448Y13669D01*
X12456Y13668D01*
X12461Y13669D01*
X12470Y13660D01*
Y13290D01*
X12466Y13287D01*
X12461Y13281D01*
X12460Y13273D01*
X12461Y13265D01*
X12466Y13259D01*
X12472Y13254D01*
X12480Y13253D01*
X12488Y13254D01*
X12494Y13259D01*
X12499Y13265D01*
X12500Y13273D01*
X12499Y13281D01*
X12494Y13287D01*
X12490Y13290D01*
Y13664D01*
X12489Y13668D01*
X12487Y13671D01*
X12475Y13683D01*
X12476Y13688D01*
X12475Y13696D01*
X12470Y13702D01*
X12464Y13707D01*
X12456Y13708D01*
X12451Y13707D01*
X12448Y13713D01*
X12459Y13723D01*
X13137D01*
X13151Y13709D01*
X13150Y13705D01*
X13152Y13697D01*
X13156Y13690D01*
X13163Y13686D01*
X13170Y13684D01*
X13178Y13686D01*
X13184Y13690D01*
X13189Y13697D01*
X13190Y13705D01*
X13189Y13712D01*
X13184Y13719D01*
X13178Y13723D01*
X13170Y13725D01*
X13165Y13724D01*
X13157Y13732D01*
X13159Y13738D01*
X13188D01*
X13219Y13708D01*
X13218Y13704D01*
X13219Y13696D01*
X13224Y13690D01*
X13230Y13685D01*
X13238Y13684D01*
X13246Y13685D01*
X13251Y13689D01*
X13255Y13689D01*
X13259Y13689D01*
X13264Y13685D01*
X13272Y13684D01*
X13279Y13685D01*
X13286Y13690D01*
X13290Y13696D01*
X13292Y13704D01*
X13290Y13712D01*
X13286Y13718D01*
X13279Y13723D01*
X13278Y13723D01*
X13228Y13773D01*
X13224Y13775D01*
X13220Y13776D01*
X13220Y13776D01*
X13144D01*
X13142Y13782D01*
X13158Y13798D01*
X13162Y13798D01*
X13170Y13799D01*
X13176Y13803D01*
X13180Y13810D01*
X13182Y13818D01*
X13180Y13825D01*
X13176Y13832D01*
X13172Y13835D01*
X13173Y13841D01*
X13175Y13842D01*
X13207Y13809D01*
X13207Y13809D01*
X13211Y13807D01*
X13215Y13806D01*
X13215Y13806D01*
X13672D01*
X13675Y13804D01*
X13679Y13803D01*
X13693D01*
X13695Y13797D01*
X13695Y13797D01*
X13690Y13789D01*
X13686Y13780D01*
X13685Y13771D01*
X13686Y13762D01*
X13690Y13753D01*
X13695Y13745D01*
X13696Y13745D01*
X13694Y13739D01*
X13693Y13739D01*
X13685Y13738D01*
X13685Y13737D01*
X13679Y13740D01*
Y13743D01*
X13678Y13747D01*
X13676Y13750D01*
X13656Y13770D01*
X13653Y13772D01*
X13649Y13773D01*
X13339D01*
X13335Y13772D01*
X13332Y13770D01*
X13328Y13766D01*
X13323Y13767D01*
X13315Y13766D01*
X13309Y13761D01*
X13304Y13755D01*
X13303Y13747D01*
X13304Y13739D01*
X13309Y13733D01*
X13315Y13728D01*
X13323Y13727D01*
X13331Y13728D01*
X13335Y13724D01*
X13336Y13724D01*
X13319Y13708D01*
X13316Y13702D01*
X13315Y13696D01*
Y13661D01*
X13313Y13659D01*
X13309Y13654D01*
X13306Y13648D01*
X13306Y13646D01*
X13356D01*
X13356Y13648D01*
X13353Y13654D01*
X13349Y13659D01*
X13347Y13661D01*
Y13689D01*
X13358Y13700D01*
Y13728D01*
X13363D01*
Y13733D01*
X13386D01*
X13385Y13737D01*
X13380Y13745D01*
X13378Y13747D01*
X13380Y13753D01*
X13397D01*
X13399Y13747D01*
X13399Y13746D01*
X13394Y13740D01*
X13393Y13732D01*
X13394Y13724D01*
X13396Y13722D01*
Y13559D01*
X13393Y13556D01*
X13388Y13550D01*
X13387Y13542D01*
X13388Y13534D01*
X13393Y13528D01*
X13399Y13523D01*
X13407Y13522D01*
X13415Y13523D01*
X13421Y13527D01*
X13422Y13528D01*
X13428Y13527D01*
X13430Y13522D01*
X13436Y13514D01*
X13444Y13508D01*
X13454Y13504D01*
X13464Y13502D01*
X13474Y13504D01*
X13484Y13508D01*
X13492Y13514D01*
X13498Y13522D01*
X13502Y13532D01*
X13504Y13542D01*
X13502Y13552D01*
X13498Y13562D01*
X13492Y13570D01*
X13484Y13576D01*
X13474Y13580D01*
X13464Y13582D01*
X13454Y13580D01*
X13444Y13576D01*
X13436Y13570D01*
X13430Y13562D01*
X13429Y13562D01*
X13424Y13565D01*
Y13599D01*
X13459D01*
Y13642D01*
Y13685D01*
X13424D01*
Y13715D01*
X13427Y13718D01*
X13432Y13724D01*
X13433Y13732D01*
X13432Y13740D01*
X13427Y13746D01*
X13427Y13747D01*
X13429Y13753D01*
X13504D01*
X13508Y13748D01*
X13507Y13747D01*
X13506Y13739D01*
X13507Y13731D01*
X13512Y13725D01*
X13515Y13723D01*
Y13597D01*
X13515Y13596D01*
X13514Y13592D01*
X13515Y13588D01*
X13517Y13584D01*
X13522Y13580D01*
X13521Y13576D01*
X13522Y13568D01*
X13527Y13562D01*
X13533Y13557D01*
X13541Y13556D01*
X13549Y13557D01*
X13550Y13558D01*
X13555Y13554D01*
Y13406D01*
X13555Y13402D01*
X13558Y13399D01*
X13922Y13035D01*
X13925Y13033D01*
X13925Y13033D01*
X13926Y13032D01*
X13930Y13022D01*
X13936Y13014D01*
X13944Y13008D01*
X13954Y13004D01*
X13964Y13002D01*
X13974Y13004D01*
X13984Y13008D01*
X13992Y13014D01*
X13998Y13022D01*
X14002Y13032D01*
X14003Y13039D01*
X14009Y13039D01*
Y12962D01*
X14003Y12960D01*
X14002Y12964D01*
X13995Y12973D01*
X13986Y12980D01*
X13975Y12984D01*
X13969Y12985D01*
Y12942D01*
Y12899D01*
X13975Y12900D01*
X13986Y12904D01*
X13995Y12911D01*
X14002Y12920D01*
X14003Y12924D01*
X14009Y12922D01*
Y12147D01*
X13984Y12121D01*
X13979Y12122D01*
X13974Y12121D01*
X13957Y12138D01*
X13954Y12140D01*
X13950Y12141D01*
X13794D01*
X13790Y12140D01*
X13787Y12138D01*
X13740Y12091D01*
X13730D01*
X13726Y12097D01*
X13729Y12102D01*
X13730Y12106D01*
X13684D01*
X13685Y12102D01*
X13688Y12097D01*
X13684Y12091D01*
X13169D01*
X13165Y12097D01*
X13168Y12102D01*
X13169Y12106D01*
X13123D01*
X13124Y12102D01*
X13127Y12097D01*
X13123Y12091D01*
X12145D01*
X12091Y12145D01*
X12088Y12147D01*
X12084Y12148D01*
X11940D01*
X11936Y12147D01*
X11933Y12145D01*
X11903Y12116D01*
X11902Y12117D01*
X11894Y12118D01*
X11886Y12117D01*
X11880Y12112D01*
X11875Y12106D01*
X11874Y12098D01*
X11875Y12090D01*
X11880Y12084D01*
X11886Y12079D01*
X11894Y12078D01*
X11902Y12079D01*
X11908Y12084D01*
X11913Y12090D01*
X11914Y12098D01*
X11944Y12128D01*
X12080D01*
X12134Y12074D01*
X12137Y12072D01*
X12141Y12071D01*
X13744D01*
X13748Y12072D01*
X13751Y12074D01*
X13798Y12121D01*
X13946D01*
X13960Y12107D01*
X13959Y12102D01*
X13960Y12094D01*
X13965Y12088D01*
X13971Y12083D01*
X13979Y12082D01*
X13987Y12083D01*
X13993Y12088D01*
X13998Y12094D01*
X13999Y12102D01*
X13998Y12107D01*
X14027Y12135D01*
X14029Y12139D01*
X14030Y12143D01*
Y13879D01*
X14029Y13883D01*
X14027Y13886D01*
X13981Y13932D01*
X13978Y13934D01*
X13974Y13935D01*
X13815D01*
X13812Y13941D01*
X13843Y13971D01*
X13965D01*
X13966Y13969D01*
X13969Y13964D01*
X13973Y13961D01*
X13979Y13960D01*
X14023D01*
X14029Y13961D01*
X14033Y13964D01*
X14036Y13969D01*
X14037Y13974D01*
Y13990D01*
X14036Y13996D01*
X14033Y14000D01*
X14029Y14003D01*
X14023Y14004D01*
Y14010D01*
X14029Y14011D01*
X14033Y14014D01*
X14036Y14019D01*
X14037Y14024D01*
Y14040D01*
X14036Y14046D01*
X14033Y14050D01*
X14029Y14053D01*
X14023Y14054D01*
Y14060D01*
X14029Y14061D01*
X14033Y14064D01*
X14036Y14069D01*
X14037Y14074D01*
Y14090D01*
X14036Y14096D01*
X14033Y14100D01*
X14029Y14103D01*
X14023Y14104D01*
Y14110D01*
X14029Y14111D01*
X14033Y14114D01*
X14036Y14119D01*
X14037Y14124D01*
Y14140D01*
X14036Y14146D01*
X14033Y14150D01*
X14029Y14153D01*
X14023Y14154D01*
Y14160D01*
X14029Y14161D01*
X14033Y14164D01*
X14036Y14169D01*
X14037Y14174D01*
Y14190D01*
X14036Y14196D01*
X14033Y14200D01*
X14029Y14203D01*
X14023Y14204D01*
Y14210D01*
X14029Y14211D01*
X14033Y14214D01*
X14036Y14219D01*
X14037Y14224D01*
Y14240D01*
X14036Y14246D01*
X14033Y14250D01*
X14031Y14252D01*
X14031Y14254D01*
X14031Y14258D01*
X14036Y14261D01*
X14040Y14267D01*
X14041Y14274D01*
Y14277D01*
X14001D01*
Y14287D01*
X14041D01*
Y14290D01*
X14040Y14297D01*
X14036Y14303D01*
X14031Y14306D01*
X14031Y14311D01*
X14031Y14313D01*
X14033Y14314D01*
X14036Y14319D01*
X14037Y14324D01*
Y14340D01*
X14036Y14346D01*
X14033Y14350D01*
X14029Y14353D01*
X14023Y14354D01*
D02*
G37*
G36*
X11954Y14615D02*
X11936D01*
X11936Y14613D01*
X11861Y14538D01*
X11859Y14534D01*
X11858Y14530D01*
X11858Y14530D01*
Y14411D01*
X11852Y14407D01*
X11847Y14399D01*
X11846Y14395D01*
X11892D01*
X11891Y14399D01*
X11886Y14407D01*
X11880Y14411D01*
Y14525D01*
X11952Y14597D01*
X11954Y14597D01*
Y14615D01*
D02*
G37*
G36*
X13858Y14544D02*
X13844Y14542D01*
X13830Y14536D01*
X13819Y14528D01*
X13810Y14516D01*
X13804Y14503D01*
X13803Y14488D01*
X13804Y14474D01*
X13810Y14460D01*
X13819Y14449D01*
X13830Y14440D01*
X13844Y14434D01*
X13858Y14432D01*
X13873Y14434D01*
X13886Y14440D01*
X13898Y14449D01*
X13906Y14460D01*
X13912Y14474D01*
X13914Y14488D01*
X13912Y14503D01*
X13906Y14516D01*
X13898Y14528D01*
X13886Y14536D01*
X13873Y14542D01*
X13858Y14544D01*
D02*
G37*
G36*
X12008D02*
X11993Y14542D01*
X11980Y14536D01*
X11968Y14528D01*
X11960Y14516D01*
X11954Y14503D01*
X11952Y14488D01*
X11954Y14474D01*
X11960Y14460D01*
X11968Y14449D01*
X11980Y14440D01*
X11993Y14434D01*
X12008Y14432D01*
X12022Y14434D01*
X12036Y14440D01*
X12047Y14449D01*
X12056Y14460D01*
X12062Y14474D01*
X12064Y14488D01*
X12062Y14503D01*
X12056Y14516D01*
X12047Y14528D01*
X12036Y14536D01*
X12022Y14542D01*
X12008Y14544D01*
D02*
G37*
G36*
X11964Y14643D02*
Y14625D01*
X11982D01*
X11981Y14629D01*
X11976Y14637D01*
X11968Y14642D01*
X11964Y14643D01*
D02*
G37*
G36*
X11954D02*
X11950Y14642D01*
X11942Y14637D01*
X11937Y14629D01*
X11936Y14625D01*
X11954D01*
Y14643D01*
D02*
G37*
G36*
X11982Y14615D02*
X11964D01*
Y14597D01*
X11968Y14598D01*
X11976Y14603D01*
X11981Y14611D01*
X11982Y14615D01*
D02*
G37*
G36*
X11864Y14385D02*
X11846D01*
X11847Y14381D01*
X11852Y14373D01*
X11860Y14368D01*
X11864Y14367D01*
Y14385D01*
D02*
G37*
G36*
X13103Y14376D02*
X13072D01*
Y14352D01*
X13103D01*
Y14376D01*
D02*
G37*
G36*
X13062D02*
X13031D01*
Y14352D01*
X13062D01*
Y14376D01*
D02*
G37*
G36*
X12911Y14407D02*
Y14376D01*
X12944D01*
Y14407D01*
X12911D01*
D02*
G37*
G36*
X12631D02*
X12598D01*
Y14376D01*
X12631D01*
Y14407D01*
D02*
G37*
G36*
X11892Y14385D02*
X11874D01*
Y14367D01*
X11878Y14368D01*
X11886Y14373D01*
X11891Y14381D01*
X11892Y14385D01*
D02*
G37*
G36*
X13507Y13685D02*
X13469D01*
Y13647D01*
X13507D01*
Y13685D01*
D02*
G37*
G36*
X13357Y13636D02*
X13305D01*
Y13486D01*
X13357D01*
Y13636D01*
D02*
G37*
G36*
X12166Y13587D02*
X11996D01*
Y13561D01*
Y13535D01*
X12166D01*
Y13561D01*
Y13587D01*
D02*
G37*
G36*
X13356Y13476D02*
X13336D01*
Y13456D01*
X13338Y13456D01*
X13344Y13459D01*
X13349Y13463D01*
X13353Y13468D01*
X13356Y13474D01*
X13356Y13476D01*
D02*
G37*
G36*
X12602Y13707D02*
X12594Y13706D01*
X12588Y13701D01*
X12583Y13695D01*
X12582Y13687D01*
X12583Y13679D01*
X12588Y13673D01*
X12591Y13671D01*
Y13521D01*
X12588Y13519D01*
X12583Y13513D01*
X12582Y13505D01*
X12583Y13497D01*
X12588Y13491D01*
X12594Y13486D01*
X12602Y13485D01*
X12610Y13486D01*
X12616Y13491D01*
X12621Y13497D01*
X12622Y13505D01*
X12621Y13513D01*
X12616Y13519D01*
X12613Y13521D01*
Y13671D01*
X12616Y13673D01*
X12621Y13679D01*
X12622Y13687D01*
X12621Y13695D01*
X12616Y13701D01*
X12610Y13706D01*
X12602Y13707D01*
D02*
G37*
G36*
X11986Y13586D02*
X11984Y13586D01*
X11978Y13583D01*
X11973Y13579D01*
X11969Y13574D01*
X11966Y13568D01*
X11966Y13566D01*
X11986D01*
Y13586D01*
D02*
G37*
G36*
X12176D02*
Y13566D01*
X12196D01*
X12196Y13568D01*
X12193Y13574D01*
X12189Y13579D01*
X12184Y13583D01*
X12178Y13586D01*
X12176Y13586D01*
D02*
G37*
G36*
X11986Y13556D02*
X11966D01*
X11966Y13554D01*
X11969Y13548D01*
X11973Y13543D01*
X11978Y13539D01*
X11984Y13536D01*
X11986Y13536D01*
Y13556D01*
D02*
G37*
G36*
X12196D02*
X12176D01*
Y13536D01*
X12178Y13536D01*
X12184Y13539D01*
X12189Y13543D01*
X12193Y13548D01*
X12196Y13554D01*
X12196Y13556D01*
D02*
G37*
G36*
X13216Y13320D02*
X13146D01*
X13147Y13315D01*
X13151Y13307D01*
X13156Y13300D01*
X13163Y13294D01*
X13172Y13291D01*
X13172Y13290D01*
X13173Y13287D01*
X13172Y13284D01*
X13165Y13282D01*
X13159Y13277D01*
X13154Y13270D01*
X13151Y13263D01*
X13150Y13255D01*
X13151Y13246D01*
X13154Y13239D01*
X13159Y13232D01*
X13165Y13227D01*
X13173Y13224D01*
X13181Y13223D01*
X13189Y13224D01*
X13197Y13227D01*
X13203Y13232D01*
X13208Y13239D01*
X13211Y13246D01*
X13212Y13255D01*
X13211Y13263D01*
X13208Y13270D01*
X13203Y13277D01*
X13197Y13282D01*
X13190Y13284D01*
X13190Y13287D01*
X13190Y13290D01*
X13190Y13291D01*
X13199Y13294D01*
X13206Y13300D01*
X13212Y13307D01*
X13215Y13315D01*
X13216Y13320D01*
D02*
G37*
G36*
X12519Y13317D02*
X12501D01*
X12502Y13313D01*
X12507Y13305D01*
X12515Y13300D01*
X12519Y13299D01*
Y13317D01*
D02*
G37*
G36*
X12469Y13173D02*
Y13155D01*
X12487D01*
X12486Y13159D01*
X12481Y13167D01*
X12473Y13172D01*
X12469Y13173D01*
D02*
G37*
G36*
X13464Y13482D02*
X13454Y13480D01*
X13444Y13476D01*
X13436Y13470D01*
X13430Y13462D01*
X13426Y13452D01*
X13424Y13442D01*
X13426Y13432D01*
X13430Y13422D01*
X13436Y13414D01*
X13444Y13408D01*
X13454Y13404D01*
X13464Y13402D01*
X13474Y13404D01*
X13475Y13404D01*
X13641Y13238D01*
Y13207D01*
X13635Y13207D01*
X13634Y13210D01*
X13630Y13216D01*
X13504Y13343D01*
X13502Y13352D01*
X13498Y13362D01*
X13492Y13370D01*
X13484Y13376D01*
X13474Y13380D01*
X13464Y13382D01*
X13454Y13380D01*
X13444Y13376D01*
X13436Y13370D01*
X13430Y13362D01*
X13426Y13352D01*
X13424Y13342D01*
X13426Y13332D01*
X13430Y13322D01*
X13436Y13314D01*
X13444Y13308D01*
X13454Y13304D01*
X13464Y13302D01*
X13474Y13304D01*
X13484Y13308D01*
X13485Y13308D01*
X13598Y13195D01*
Y13141D01*
X13592Y13139D01*
X13589Y13143D01*
X13502Y13231D01*
X13502Y13232D01*
X13504Y13242D01*
X13502Y13252D01*
X13498Y13262D01*
X13492Y13270D01*
X13484Y13276D01*
X13474Y13280D01*
X13464Y13282D01*
X13454Y13280D01*
X13444Y13276D01*
X13436Y13270D01*
X13430Y13262D01*
X13426Y13252D01*
X13424Y13242D01*
X13426Y13232D01*
X13430Y13222D01*
X13436Y13214D01*
X13444Y13208D01*
X13454Y13204D01*
X13464Y13202D01*
X13474Y13204D01*
X13475Y13204D01*
X13557Y13122D01*
Y13082D01*
X13551Y13080D01*
X13548Y13084D01*
X13502Y13131D01*
X13502Y13132D01*
X13504Y13142D01*
X13502Y13152D01*
X13498Y13162D01*
X13492Y13170D01*
X13484Y13176D01*
X13474Y13180D01*
X13464Y13182D01*
X13454Y13180D01*
X13444Y13176D01*
X13436Y13170D01*
X13430Y13162D01*
X13426Y13152D01*
X13424Y13142D01*
X13426Y13132D01*
X13430Y13122D01*
X13436Y13114D01*
X13444Y13108D01*
X13454Y13104D01*
X13464Y13102D01*
X13474Y13104D01*
X13475Y13104D01*
X13516Y13063D01*
Y12750D01*
X13509Y12745D01*
X13504Y12737D01*
X13500Y12728D01*
X13499Y12719D01*
Y12659D01*
X13500Y12650D01*
X13504Y12641D01*
X13509Y12633D01*
X13517Y12628D01*
X13526Y12624D01*
X13535Y12623D01*
X13544Y12624D01*
X13553Y12628D01*
X13561Y12633D01*
X13566Y12641D01*
X13570Y12650D01*
X13571Y12659D01*
Y12719D01*
X13570Y12728D01*
X13566Y12737D01*
X13561Y12745D01*
X13554Y12750D01*
Y12759D01*
X13560Y12761D01*
X13563Y12757D01*
X13583Y12737D01*
X13579Y12728D01*
X13578Y12719D01*
Y12659D01*
X13579Y12650D01*
X13583Y12641D01*
X13589Y12633D01*
X13596Y12628D01*
X13605Y12624D01*
X13614Y12623D01*
X13624Y12624D01*
X13633Y12628D01*
X13640Y12633D01*
X13646Y12641D01*
X13649Y12650D01*
X13651Y12659D01*
Y12719D01*
X13649Y12728D01*
X13646Y12737D01*
X13640Y12745D01*
X13633Y12750D01*
X13624Y12754D01*
X13618Y12755D01*
X13595Y12778D01*
Y12887D01*
X13601Y12889D01*
X13604Y12885D01*
X13763Y12725D01*
X13763Y12719D01*
Y12659D01*
X13764Y12650D01*
X13768Y12641D01*
X13773Y12633D01*
X13781Y12628D01*
X13790Y12624D01*
X13799Y12623D01*
X13808Y12624D01*
X13817Y12628D01*
X13825Y12633D01*
X13830Y12641D01*
X13834Y12650D01*
X13835Y12659D01*
Y12719D01*
X13834Y12728D01*
X13830Y12737D01*
X13825Y12745D01*
X13817Y12750D01*
X13808Y12754D01*
X13799Y12755D01*
X13790Y12754D01*
X13788Y12754D01*
X13636Y12906D01*
Y12945D01*
X13642Y12945D01*
X13643Y12942D01*
X13647Y12936D01*
X13846Y12736D01*
X13843Y12728D01*
X13842Y12719D01*
Y12659D01*
X13843Y12650D01*
X13847Y12641D01*
X13853Y12633D01*
X13860Y12628D01*
X13869Y12624D01*
X13878Y12623D01*
X13888Y12624D01*
X13897Y12628D01*
X13904Y12633D01*
X13910Y12641D01*
X13913Y12650D01*
X13915Y12659D01*
Y12719D01*
X13913Y12728D01*
X13910Y12737D01*
X13904Y12745D01*
X13897Y12750D01*
X13888Y12754D01*
X13881Y12755D01*
X13679Y12957D01*
Y13246D01*
X13677Y13253D01*
X13673Y13259D01*
X13502Y13431D01*
X13502Y13432D01*
X13504Y13442D01*
X13502Y13452D01*
X13498Y13462D01*
X13492Y13470D01*
X13484Y13476D01*
X13474Y13480D01*
X13464Y13482D01*
D02*
G37*
G36*
X12323Y13485D02*
X12313Y13484D01*
X12305Y13480D01*
X12297Y13474D01*
X12291Y13467D01*
X12288Y13458D01*
X12287Y13449D01*
X12288Y13439D01*
X12291Y13431D01*
X12297Y13423D01*
X12305Y13417D01*
X12313Y13414D01*
X12323Y13413D01*
X12332Y13414D01*
X12341Y13417D01*
X12349Y13423D01*
X12354Y13431D01*
X12358Y13439D01*
X12359Y13449D01*
X12358Y13458D01*
X12354Y13467D01*
X12349Y13474D01*
X12341Y13480D01*
X12332Y13484D01*
X12323Y13485D01*
D02*
G37*
G36*
X13326Y13476D02*
X13306D01*
X13306Y13474D01*
X13309Y13468D01*
X13313Y13463D01*
X13318Y13459D01*
X13324Y13456D01*
X13326Y13456D01*
Y13476D01*
D02*
G37*
G36*
X12544Y13636D02*
X12498D01*
X12499Y13632D01*
X12504Y13624D01*
X12510Y13620D01*
Y13341D01*
X12507Y13339D01*
X12502Y13331D01*
X12501Y13327D01*
X12547D01*
X12546Y13331D01*
X12541Y13339D01*
X12533Y13344D01*
X12532Y13345D01*
Y13620D01*
X12538Y13624D01*
X12543Y13632D01*
X12544Y13636D01*
D02*
G37*
G36*
X13181Y13426D02*
X13173Y13425D01*
X13165Y13422D01*
X13159Y13417D01*
X13154Y13410D01*
X13151Y13403D01*
X13150Y13395D01*
X13151Y13386D01*
X13154Y13379D01*
X13159Y13372D01*
X13165Y13367D01*
X13172Y13365D01*
X13173Y13362D01*
X13172Y13359D01*
X13172Y13359D01*
X13163Y13355D01*
X13156Y13350D01*
X13151Y13342D01*
X13147Y13334D01*
X13146Y13330D01*
X13216D01*
X13215Y13334D01*
X13212Y13342D01*
X13206Y13350D01*
X13199Y13355D01*
X13190Y13359D01*
X13190Y13359D01*
X13190Y13362D01*
X13190Y13365D01*
X13197Y13367D01*
X13203Y13372D01*
X13208Y13379D01*
X13211Y13386D01*
X13212Y13395D01*
X13211Y13403D01*
X13208Y13410D01*
X13203Y13417D01*
X13197Y13422D01*
X13189Y13425D01*
X13181Y13426D01*
D02*
G37*
G36*
X12318Y13641D02*
X12283D01*
X12284Y13635D01*
X12288Y13625D01*
X12294Y13617D01*
X12303Y13611D01*
X12312Y13607D01*
X12318Y13606D01*
Y13641D01*
D02*
G37*
G36*
X13507Y13637D02*
X13469D01*
Y13599D01*
X13507D01*
Y13637D01*
D02*
G37*
G36*
X12526Y13664D02*
Y13646D01*
X12544D01*
X12543Y13650D01*
X12538Y13658D01*
X12530Y13663D01*
X12526Y13664D01*
D02*
G37*
G36*
X12516D02*
X12512Y13663D01*
X12504Y13658D01*
X12499Y13650D01*
X12498Y13646D01*
X12516D01*
Y13664D01*
D02*
G37*
%LPD*%
G36*
X12578Y12811D02*
X12586Y12810D01*
X12594Y12811D01*
X12596Y12813D01*
X12602Y12810D01*
Y12788D01*
X12598Y12785D01*
X12593Y12779D01*
X12592Y12771D01*
X12593Y12763D01*
X12598Y12757D01*
X12604Y12752D01*
X12612Y12751D01*
X12620Y12752D01*
X12626Y12757D01*
X12631Y12763D01*
X12632Y12771D01*
X12632Y12774D01*
X12637Y12779D01*
X12639Y12779D01*
X12641Y12779D01*
X12647Y12774D01*
Y12730D01*
X12645Y12725D01*
X12632D01*
Y12690D01*
X12622D01*
Y12725D01*
X12609D01*
Y12725D01*
X12609Y12721D01*
X12585D01*
X12581Y12725D01*
D01*
X12577Y12729D01*
X12576Y12731D01*
X12578Y12733D01*
X12579Y12741D01*
X12578Y12749D01*
X12573Y12755D01*
X12569Y12758D01*
Y12810D01*
X12575Y12813D01*
X12578Y12811D01*
D02*
G37*
G36*
X12658Y13309D02*
X12663Y13302D01*
X12669Y13297D01*
X12677Y13294D01*
X12685Y13293D01*
X12693Y13294D01*
X12701Y13297D01*
X12705Y13301D01*
X12711Y13298D01*
Y13281D01*
X12705Y13278D01*
X12701Y13282D01*
X12693Y13285D01*
X12685Y13286D01*
X12677Y13285D01*
X12669Y13282D01*
X12663Y13277D01*
X12658Y13270D01*
X12656Y13266D01*
X12613D01*
X12613Y13266D01*
X12608Y13265D01*
X12605Y13262D01*
X12578Y13236D01*
X12576Y13232D01*
X12575Y13230D01*
X12569Y13231D01*
Y13299D01*
X12585Y13314D01*
X12656D01*
X12658Y13309D01*
D02*
G37*
G36*
X12451Y14245D02*
X12448Y14240D01*
X12447Y14240D01*
X12443Y14241D01*
X12443Y14241D01*
X11907D01*
X11906Y14243D01*
X11903Y14248D01*
X11899Y14251D01*
X11893Y14252D01*
Y14258D01*
X11899Y14259D01*
X11903Y14262D01*
X11906Y14267D01*
X11907Y14269D01*
X12427D01*
X12451Y14245D01*
D02*
G37*
G36*
X14009Y13874D02*
Y13645D01*
X14003Y13645D01*
X14002Y13652D01*
X13998Y13662D01*
X13992Y13670D01*
X13984Y13676D01*
X13974Y13680D01*
X13964Y13682D01*
X13954Y13680D01*
X13944Y13676D01*
X13936Y13670D01*
X13930Y13662D01*
X13926Y13652D01*
X13924Y13642D01*
X13926Y13632D01*
X13930Y13622D01*
X13936Y13614D01*
X13944Y13608D01*
X13954Y13604D01*
X13964Y13602D01*
X13974Y13604D01*
X13984Y13608D01*
X13992Y13614D01*
X13998Y13622D01*
X14002Y13632D01*
X14003Y13639D01*
X14009Y13639D01*
Y13545D01*
X14003Y13545D01*
X14002Y13552D01*
X13998Y13562D01*
X13992Y13570D01*
X13984Y13576D01*
X13974Y13580D01*
X13964Y13582D01*
X13954Y13580D01*
X13944Y13576D01*
X13936Y13570D01*
X13930Y13562D01*
X13926Y13552D01*
X13924Y13542D01*
X13926Y13532D01*
X13930Y13522D01*
X13936Y13514D01*
X13944Y13508D01*
X13954Y13504D01*
X13964Y13502D01*
X13974Y13504D01*
X13984Y13508D01*
X13992Y13514D01*
X13998Y13522D01*
X14002Y13532D01*
X14003Y13539D01*
X14009Y13539D01*
Y13445D01*
X14003Y13445D01*
X14002Y13452D01*
X13998Y13462D01*
X13992Y13470D01*
X13984Y13476D01*
X13974Y13480D01*
X13964Y13482D01*
X13954Y13480D01*
X13944Y13476D01*
X13936Y13470D01*
X13930Y13462D01*
X13926Y13452D01*
X13924Y13442D01*
X13926Y13432D01*
X13930Y13422D01*
X13936Y13414D01*
X13944Y13408D01*
X13954Y13404D01*
X13964Y13402D01*
X13974Y13404D01*
X13984Y13408D01*
X13992Y13414D01*
X13998Y13422D01*
X14002Y13432D01*
X14003Y13439D01*
X14009Y13439D01*
Y13345D01*
X14003Y13345D01*
X14002Y13352D01*
X13998Y13362D01*
X13992Y13370D01*
X13984Y13376D01*
X13974Y13380D01*
X13964Y13382D01*
X13954Y13380D01*
X13944Y13376D01*
X13936Y13370D01*
X13930Y13362D01*
X13926Y13352D01*
X13924Y13342D01*
X13926Y13332D01*
X13930Y13322D01*
X13936Y13314D01*
X13944Y13308D01*
X13954Y13304D01*
X13964Y13302D01*
X13974Y13304D01*
X13984Y13308D01*
X13992Y13314D01*
X13998Y13322D01*
X14002Y13332D01*
X14003Y13339D01*
X14009Y13339D01*
Y13245D01*
X14003Y13245D01*
X14002Y13252D01*
X13998Y13262D01*
X13992Y13270D01*
X13984Y13276D01*
X13974Y13280D01*
X13964Y13282D01*
X13954Y13280D01*
X13944Y13276D01*
X13936Y13270D01*
X13930Y13262D01*
X13926Y13252D01*
X13926Y13252D01*
X13829D01*
X13679Y13402D01*
Y13506D01*
X13685Y13508D01*
X13686Y13507D01*
X13692Y13502D01*
X13700Y13501D01*
X13708Y13502D01*
X13714Y13507D01*
X13715Y13508D01*
X13721Y13506D01*
Y13462D01*
X13720Y13461D01*
X13715Y13455D01*
X13714Y13447D01*
X13715Y13439D01*
X13720Y13433D01*
X13726Y13428D01*
X13734Y13427D01*
X13742Y13428D01*
X13748Y13433D01*
X13753Y13439D01*
X13754Y13447D01*
X13753Y13455D01*
X13748Y13461D01*
X13743Y13465D01*
Y13703D01*
X13746Y13705D01*
X13751Y13711D01*
X13752Y13719D01*
X13751Y13727D01*
X13746Y13733D01*
X13743Y13735D01*
X13743Y13743D01*
X13747Y13745D01*
X13752Y13753D01*
X13756Y13762D01*
X13757Y13771D01*
X13756Y13780D01*
X13752Y13789D01*
X13747Y13797D01*
X13747Y13797D01*
X13749Y13803D01*
X13767D01*
X13787Y13783D01*
X13786Y13780D01*
X13785Y13771D01*
X13786Y13762D01*
X13790Y13753D01*
X13795Y13745D01*
X13803Y13740D01*
X13812Y13736D01*
X13821Y13735D01*
X13830Y13736D01*
X13839Y13740D01*
X13847Y13745D01*
X13852Y13753D01*
X13856Y13762D01*
X13862Y13760D01*
Y13742D01*
X13823Y13703D01*
X13790D01*
X13787Y13707D01*
X13781Y13712D01*
X13773Y13713D01*
X13765Y13712D01*
X13759Y13707D01*
X13754Y13701D01*
X13753Y13693D01*
X13754Y13685D01*
X13759Y13679D01*
X13765Y13674D01*
X13773Y13673D01*
X13781Y13674D01*
X13787Y13679D01*
X13790Y13683D01*
X13827D01*
X13831Y13684D01*
X13834Y13686D01*
X13879Y13731D01*
X13881Y13734D01*
X13882Y13738D01*
Y13746D01*
X13888Y13748D01*
X13892Y13742D01*
X13901Y13736D01*
X13911Y13732D01*
X13916Y13731D01*
Y13771D01*
X13921D01*
Y13776D01*
X13961D01*
X13960Y13781D01*
X13956Y13791D01*
X13950Y13800D01*
X13941Y13806D01*
X13931Y13810D01*
X13925Y13811D01*
X13923Y13817D01*
X13928Y13823D01*
X13930Y13826D01*
X13931Y13830D01*
Y13836D01*
X13939Y13840D01*
X13947Y13845D01*
X13952Y13853D01*
X13956Y13862D01*
X13957Y13871D01*
X13956Y13880D01*
X13952Y13889D01*
X13947Y13897D01*
X13939Y13902D01*
X13930Y13906D01*
X13921Y13907D01*
X13912Y13906D01*
X13903Y13902D01*
X13895Y13897D01*
X13890Y13889D01*
X13886Y13880D01*
X13885Y13871D01*
X13886Y13862D01*
X13890Y13853D01*
X13895Y13845D01*
X13903Y13840D01*
X13906Y13838D01*
X13908Y13831D01*
X13902Y13826D01*
X13896Y13828D01*
X13895Y13832D01*
X13891Y13839D01*
X13884Y13843D01*
X13876Y13844D01*
X13869Y13843D01*
X13862Y13839D01*
X13858Y13832D01*
X13856Y13824D01*
X13857Y13821D01*
X13839Y13803D01*
X13830Y13806D01*
X13821Y13807D01*
X13812Y13806D01*
X13803Y13802D01*
X13801Y13801D01*
X13787Y13815D01*
X13788Y13822D01*
X13805Y13839D01*
X13812Y13836D01*
X13821Y13835D01*
X13830Y13836D01*
X13839Y13840D01*
X13847Y13845D01*
X13852Y13853D01*
X13856Y13862D01*
X13857Y13871D01*
X13856Y13880D01*
X13852Y13889D01*
X13847Y13897D01*
X13839Y13902D01*
X13830Y13906D01*
X13821Y13907D01*
X13812Y13906D01*
X13803Y13902D01*
X13795Y13897D01*
X13790Y13889D01*
X13786Y13880D01*
X13785Y13871D01*
X13786Y13862D01*
X13789Y13855D01*
X13775Y13841D01*
X13751D01*
X13748Y13847D01*
X13752Y13853D01*
X13756Y13862D01*
X13757Y13871D01*
X13756Y13880D01*
X13752Y13889D01*
X13747Y13897D01*
X13739Y13902D01*
X13730Y13906D01*
X13721Y13907D01*
X13712Y13906D01*
X13703Y13902D01*
X13695Y13897D01*
X13690Y13889D01*
X13686Y13880D01*
X13685Y13871D01*
X13685Y13871D01*
X13675Y13860D01*
X13651D01*
X13648Y13865D01*
X13648Y13866D01*
X13649Y13874D01*
X13648Y13882D01*
X13643Y13888D01*
X13638Y13892D01*
X13639Y13898D01*
X13683D01*
X13687Y13899D01*
X13691Y13901D01*
X13704Y13914D01*
X13970D01*
X14009Y13874D01*
D02*
G37*
G36*
X12658Y13169D02*
X12663Y13162D01*
X12669Y13157D01*
X12677Y13154D01*
X12685Y13153D01*
X12693Y13154D01*
X12701Y13157D01*
X12705Y13161D01*
X12711Y13158D01*
Y13141D01*
X12705Y13138D01*
X12701Y13142D01*
X12693Y13145D01*
X12685Y13146D01*
X12677Y13145D01*
X12669Y13142D01*
X12663Y13137D01*
X12658Y13130D01*
X12655Y13124D01*
X12653Y13122D01*
X12652Y13122D01*
X12632Y13101D01*
X12630Y13098D01*
X12629Y13094D01*
Y12822D01*
X12628Y12822D01*
X12622Y12825D01*
Y13159D01*
X12638Y13174D01*
X12656D01*
X12658Y13169D01*
D02*
G37*
G36*
X13659Y13713D02*
Y13398D01*
X13660Y13394D01*
X13662Y13391D01*
X13818Y13235D01*
X13821Y13233D01*
X13825Y13232D01*
X13926D01*
X13926Y13232D01*
X13930Y13222D01*
X13936Y13214D01*
X13944Y13208D01*
X13954Y13204D01*
X13964Y13202D01*
X13974Y13204D01*
X13984Y13208D01*
X13992Y13214D01*
X13998Y13222D01*
X14002Y13232D01*
X14003Y13239D01*
X14009Y13239D01*
Y13145D01*
X14003Y13145D01*
X14002Y13152D01*
X13998Y13162D01*
X13992Y13170D01*
X13984Y13176D01*
X13974Y13180D01*
X13964Y13182D01*
X13954Y13180D01*
X13944Y13176D01*
X13936Y13170D01*
X13930Y13162D01*
X13926Y13152D01*
X13926Y13152D01*
X13882D01*
X13649Y13385D01*
Y13700D01*
Y13712D01*
X13653Y13715D01*
X13659Y13713D01*
D02*
G37*
G36*
X12437Y12755D02*
Y12649D01*
X12432Y12645D01*
X12411D01*
X12407Y12650D01*
Y12755D01*
X12413Y12758D01*
X12414Y12758D01*
X12422Y12756D01*
X12430Y12758D01*
X12431Y12759D01*
X12437Y12755D01*
D02*
G37*
G36*
X12658Y13239D02*
X12663Y13232D01*
X12669Y13227D01*
X12677Y13224D01*
X12685Y13223D01*
X12693Y13224D01*
X12701Y13227D01*
X12705Y13231D01*
X12711Y13228D01*
Y13211D01*
X12705Y13208D01*
X12701Y13212D01*
X12693Y13215D01*
X12685Y13216D01*
X12677Y13215D01*
X12669Y13212D01*
X12663Y13207D01*
X12658Y13200D01*
X12656Y13195D01*
X12634D01*
X12630Y13194D01*
X12626Y13192D01*
X12610Y13176D01*
X12605Y13178D01*
X12605Y13179D01*
X12606Y13186D01*
X12605Y13194D01*
X12600Y13200D01*
X12597Y13202D01*
Y13223D01*
X12617Y13243D01*
X12656D01*
X12658Y13239D01*
D02*
G37*
G36*
X12650Y12619D02*
X12658Y12618D01*
X12662Y12619D01*
X12679Y12602D01*
Y12389D01*
X12677Y12386D01*
X12673Y12383D01*
X12672D01*
X12670Y12383D01*
X12647D01*
X12644Y12383D01*
X12643D01*
X12641D01*
X12638Y12383D01*
X12617D01*
X12613Y12387D01*
X12613Y12387D01*
Y12387D01*
X12613Y12387D01*
X12606D01*
Y12584D01*
X12635Y12613D01*
X12637Y12616D01*
X12638Y12621D01*
X12643Y12623D01*
X12644Y12624D01*
X12650Y12619D01*
D02*
G37*
G36*
X12293Y14056D02*
X12293Y14056D01*
X12296Y14053D01*
X12295Y14047D01*
X12278D01*
X12236Y14089D01*
X12233Y14091D01*
X12228Y14092D01*
X12228Y14092D01*
X11906D01*
X11906Y14093D01*
X11903Y14098D01*
X11899Y14101D01*
X11893Y14102D01*
Y14108D01*
X11899Y14109D01*
X11903Y14112D01*
X11906Y14117D01*
X11907Y14119D01*
X12230D01*
X12293Y14056D01*
D02*
G37*
G36*
X13966Y14019D02*
X13969Y14014D01*
X13973Y14011D01*
X13979Y14010D01*
Y14004D01*
X13973Y14003D01*
X13969Y14000D01*
X13966Y13996D01*
X13965Y13993D01*
X13838D01*
X13838Y13993D01*
X13834Y13993D01*
X13830Y13990D01*
X13794Y13954D01*
X13772D01*
X13769Y13960D01*
X13771Y13962D01*
X13772Y13970D01*
X13771Y13978D01*
X13766Y13984D01*
X13770Y13989D01*
X13775Y13985D01*
X13783Y13984D01*
X13791Y13985D01*
X13797Y13990D01*
X13802Y13996D01*
X13803Y14004D01*
X13802Y14012D01*
X13799Y14015D01*
X13803Y14021D01*
X13965D01*
X13966Y14019D01*
D02*
G37*
G36*
X13622Y13721D02*
X13625Y13717D01*
X13629Y13714D01*
Y13700D01*
Y13381D01*
X13630Y13377D01*
X13632Y13374D01*
X13871Y13135D01*
X13874Y13133D01*
X13878Y13132D01*
X13926D01*
X13926Y13132D01*
X13930Y13122D01*
X13936Y13114D01*
X13944Y13108D01*
X13954Y13104D01*
X13964Y13102D01*
X13974Y13104D01*
X13984Y13108D01*
X13992Y13114D01*
X13998Y13122D01*
X14002Y13132D01*
X14003Y13139D01*
X14009Y13139D01*
Y13045D01*
X14003Y13045D01*
X14002Y13052D01*
X13998Y13062D01*
X13992Y13070D01*
X13984Y13076D01*
X13974Y13080D01*
X13964Y13082D01*
X13954Y13080D01*
X13944Y13076D01*
X13936Y13070D01*
X13931Y13063D01*
X13924Y13062D01*
X13575Y13410D01*
Y13714D01*
X13579Y13717D01*
X13586Y13718D01*
X13589Y13715D01*
Y13596D01*
X13588Y13595D01*
X13583Y13589D01*
X13582Y13581D01*
X13583Y13573D01*
X13588Y13567D01*
X13594Y13562D01*
X13602Y13561D01*
X13610Y13562D01*
X13616Y13567D01*
X13621Y13573D01*
X13622Y13581D01*
X13621Y13589D01*
X13616Y13595D01*
X13610Y13600D01*
X13609Y13600D01*
Y13717D01*
X13613Y13720D01*
X13615Y13722D01*
X13616Y13722D01*
X13622Y13721D01*
D02*
G37*
G36*
X12756Y14137D02*
X12706Y14086D01*
X12688D01*
X12687Y14092D01*
X12692Y14096D01*
X12697Y14102D01*
X12698Y14110D01*
X12697Y14118D01*
X12692Y14124D01*
X12686Y14129D01*
X12678Y14130D01*
X12670Y14129D01*
X12667Y14126D01*
X12660Y14129D01*
X12660Y14131D01*
X12656Y14137D01*
X12656Y14139D01*
X12658Y14143D01*
X12754D01*
X12756Y14137D01*
D02*
G37*
G36*
X13204Y14019D02*
X13198Y14018D01*
X13192Y14013D01*
X13187Y14007D01*
X13186Y13999D01*
X13187Y13991D01*
X13192Y13985D01*
X13198Y13980D01*
X13206Y13979D01*
X13214Y13980D01*
X13220Y13985D01*
X13222Y13988D01*
X13354D01*
X13354Y13988D01*
X13358Y13989D01*
X13362Y13991D01*
X13384Y14013D01*
X13385Y14013D01*
X13390Y14006D01*
X13390Y14005D01*
X13391Y13997D01*
X13392Y13996D01*
X13390Y13989D01*
X13386Y13989D01*
X13380Y13984D01*
X13375Y13978D01*
X13374Y13970D01*
X13375Y13962D01*
X13380Y13956D01*
X13386Y13951D01*
X13388Y13951D01*
X13393Y13948D01*
X13392Y13940D01*
X13393Y13932D01*
X13398Y13926D01*
X13404Y13921D01*
X13408Y13921D01*
X13411Y13916D01*
X13411Y13914D01*
X13410Y13908D01*
X13411Y13901D01*
X13411Y13900D01*
X13408Y13895D01*
X13406Y13895D01*
X13400Y13890D01*
X13395Y13884D01*
X13394Y13876D01*
X13395Y13868D01*
X13397Y13866D01*
X13393Y13860D01*
X13233D01*
X13182Y13911D01*
X13179Y13914D01*
X13174Y13915D01*
X13174Y13915D01*
X13047D01*
X13043Y13919D01*
Y13962D01*
X13046Y13966D01*
X13047Y13966D01*
X13047Y13966D01*
Y13966D01*
X13047Y13972D01*
Y13994D01*
X13056D01*
X13061Y13987D01*
X13069Y13982D01*
X13073Y13981D01*
Y14004D01*
X13078D01*
Y14009D01*
X13101D01*
X13100Y14013D01*
X13097Y14019D01*
X13100Y14025D01*
X13204D01*
X13204Y14019D01*
D02*
G37*
G36*
X12515Y14111D02*
X12512Y14105D01*
X12496D01*
X12493Y14109D01*
X12486Y14114D01*
X12479Y14115D01*
X12471Y14114D01*
X12464Y14109D01*
X12460Y14103D01*
X12459Y14095D01*
X12460Y14087D01*
X12464Y14081D01*
X12465Y14081D01*
X12463Y14075D01*
X12305D01*
X12242Y14138D01*
X12239Y14140D01*
X12234Y14141D01*
X12234Y14141D01*
X11907D01*
X11906Y14143D01*
X11903Y14148D01*
X11899Y14151D01*
X11893Y14152D01*
Y14158D01*
X11899Y14159D01*
X11903Y14162D01*
X11906Y14167D01*
X11907Y14169D01*
X12457D01*
X12515Y14111D01*
D02*
G37*
G36*
X13743Y13988D02*
X13738Y13984D01*
X13736Y13981D01*
X13420D01*
X13419Y13987D01*
X13424Y13991D01*
X13426Y13994D01*
X13742D01*
X13743Y13988D01*
D02*
G37*
G36*
X12460Y14197D02*
X12458Y14191D01*
X11907D01*
X11906Y14193D01*
X11903Y14198D01*
X11899Y14201D01*
X11893Y14202D01*
Y14208D01*
X11899Y14209D01*
X11903Y14212D01*
X11906Y14217D01*
X11907Y14219D01*
X12439D01*
X12460Y14197D01*
D02*
G37*
%LPC*%
G36*
X13101Y13999D02*
X13083D01*
Y13981D01*
X13087Y13982D01*
X13095Y13987D01*
X13100Y13995D01*
X13101Y13999D01*
D02*
G37*
G36*
X13961Y13766D02*
X13926D01*
Y13731D01*
X13931Y13732D01*
X13941Y13736D01*
X13950Y13742D01*
X13956Y13751D01*
X13960Y13761D01*
X13961Y13766D01*
D02*
G37*
%LPD*%
D12*
X11875Y12677D02*
D03*
X11964D02*
D03*
X12111D02*
D03*
X12023D02*
D03*
X11953Y12513D02*
D03*
X11864D02*
D03*
D21*
X12591Y12281D02*
D03*
X12651D02*
D03*
D25*
X13011Y13996D02*
D03*
Y13937D02*
D03*
X13067Y14287D02*
D03*
X13067Y14347D02*
D03*
D28*
X12722Y13517D02*
X12735Y13529D01*
X13047Y14326D02*
X13067Y14347D01*
X12906Y14371D02*
X12951Y14326D01*
X13047D01*
X12925Y14276D02*
X13015D01*
X12918Y14269D02*
X12925Y14276D01*
X13772Y13814D02*
X13815Y13771D01*
X13679Y13814D02*
X13772D01*
X13676Y13817D02*
X13679Y13814D01*
X13679Y13849D02*
X13701Y13871D01*
X13686Y13830D02*
X13780D01*
X13683Y13833D02*
X13686Y13830D01*
X13780D02*
X13821Y13871D01*
X12432Y14280D02*
X12561Y14151D01*
X12564D01*
X12961Y14005D02*
X13077D01*
X12603Y14154D02*
X13075D01*
X13077Y14005D02*
X13078Y14004D01*
X12521Y13325D02*
Y13641D01*
X12228Y14081D02*
X12273Y14036D01*
X12665Y14097D02*
X12678Y14110D01*
X12544Y14097D02*
X12665D01*
X12461Y14180D02*
X12544Y14097D01*
X11871Y14180D02*
X12461D01*
X12550Y14123D02*
X12641D01*
X12443Y14230D02*
X12550Y14123D01*
X12647Y14193D02*
X12915D01*
X12510Y14330D02*
X12647Y14193D01*
X12704Y13940D02*
X12708D01*
X12737Y14221D02*
Y14227D01*
X12711Y13940D02*
X12887D01*
X13075Y14154D02*
X13078Y14157D01*
X11871Y14280D02*
X12432D01*
X11871Y14230D02*
X12443D01*
X11871Y14130D02*
X12234D01*
X11872Y14081D02*
X12228D01*
X11871Y14330D02*
X12510D01*
X12701Y14247D02*
X12720Y14266D01*
X12380Y12601D02*
X12408Y12573D01*
X12396Y12608D02*
X12404Y12600D01*
X11871Y14080D02*
X11872Y14081D01*
X12708Y13940D02*
X12709Y13938D01*
X12771Y14228D02*
Y14266D01*
X12709Y13938D02*
X12711Y13940D01*
X12745Y14235D02*
Y14266D01*
X12737Y14227D02*
X12745Y14235D01*
X12404Y12600D02*
X12442D01*
X12408Y12573D02*
X12437D01*
X12442Y12568D01*
X13206Y13999D02*
X13354D01*
X13388Y14033D01*
X13410Y14005D02*
X13782D01*
X13799Y13943D02*
X13838Y13982D01*
X14001D01*
X13701Y13871D02*
X13721D01*
X13823Y13771D02*
X13876Y13824D01*
X13782Y14005D02*
X13783Y14004D01*
X13721Y14032D02*
X14001D01*
X13783Y14182D02*
X14001D01*
X13815Y13771D02*
X13821D01*
X11865Y12603D02*
Y12677D01*
Y12603D02*
X11870Y12598D01*
X11865Y12677D02*
X11875Y12687D01*
X11871Y14030D02*
X11921D01*
X11947Y14056D01*
X11871Y13980D02*
X11900D01*
X11941Y14021D01*
X12181D01*
X12822Y14266D02*
X12888D01*
X13995Y14276D02*
X14001Y14282D01*
X12780Y12473D02*
X12782Y12471D01*
X12780Y12442D02*
X12781Y12441D01*
X12730Y12361D02*
X12741D01*
X12595Y12285D02*
Y12352D01*
X12627Y12305D02*
Y12352D01*
Y12305D02*
X12651Y12281D01*
X12690Y12654D02*
Y12690D01*
X12690Y12690D02*
X12690Y12690D01*
X12723Y12692D02*
X12750D01*
X13146Y12111D02*
Y12361D01*
X13144Y12363D02*
X13146Y12361D01*
X12595Y12352D02*
Y12589D01*
X12563Y12621D02*
X12595Y12589D01*
X12563Y12621D02*
Y12690D01*
X12658Y12783D02*
X12664Y12789D01*
X12595Y12589D02*
X12627Y12621D01*
Y12690D01*
X12594Y12636D02*
Y12689D01*
X12595Y12690D01*
X12658Y12638D02*
X12690Y12606D01*
Y12352D02*
Y12606D01*
X12658Y12638D02*
Y12783D01*
X13752Y14232D02*
X14001D01*
X13999Y14334D02*
X14001Y14332D01*
X13821Y13771D02*
X13823D01*
X13420Y12350D02*
Y12869D01*
X13549Y12403D02*
X13601Y12351D01*
X13549Y12403D02*
Y12493D01*
X13102Y12298D02*
Y12667D01*
X13144Y12431D02*
Y12531D01*
X13161Y12549D01*
Y12665D01*
X12443Y12538D02*
X12490D01*
X12442Y12537D02*
X12443Y12538D01*
X12477Y12305D02*
X12581Y12201D01*
X12387Y12324D02*
X12406Y12305D01*
X12477D01*
X12371Y12311D02*
X12481Y12201D01*
X12281Y12401D02*
Y12514D01*
X12304Y12537D01*
X12442D01*
X12371Y12311D02*
Y12484D01*
X12392Y12505D01*
X12442D01*
X12387Y12324D02*
Y12454D01*
X12406Y12473D01*
X12442D01*
X12782Y12471D02*
X12821D01*
X12781Y12441D02*
X12841D01*
X13144Y12365D02*
Y12431D01*
X12867Y12410D02*
X12873Y12404D01*
X12786Y12410D02*
X12867D01*
X12664Y12789D02*
Y12869D01*
X12873Y12404D02*
Y12830D01*
X13941Y14276D02*
X13995D01*
X12521Y13325D02*
X12524Y13322D01*
X11869Y14390D02*
Y14530D01*
X11959Y14620D01*
X13394Y13970D02*
X13752D01*
X13876Y14082D02*
X14001D01*
X14000Y14131D02*
X14001Y14132D01*
X12685Y12975D02*
X12722Y13012D01*
Y13517D01*
X12613Y13255D02*
X12685D01*
X12586Y13228D02*
X12613Y13255D01*
X12586Y13186D02*
Y13228D01*
Y12830D02*
Y13005D01*
Y13073D01*
X12485Y12983D02*
Y13129D01*
X12464Y13150D02*
X12485Y13129D01*
X12939Y12243D02*
X12981Y12201D01*
X12939Y12243D02*
Y12716D01*
X13239Y14294D02*
X13715D01*
X13732Y13449D02*
X13734Y13447D01*
X13700Y13521D02*
Y13712D01*
X13525Y13592D02*
X13526Y13593D01*
Y13739D01*
X13388Y14033D02*
X13637D01*
X13636Y13943D02*
X13799D01*
X13732Y13449D02*
Y13719D01*
X13693D02*
X13700Y13712D01*
X13525Y13592D02*
X13541Y13576D01*
X12273Y14036D02*
X13328D01*
X12602Y13505D02*
Y13687D01*
X13215Y13817D02*
X13676D01*
X13222Y13833D02*
X13683D01*
X13228Y13849D02*
X13679D01*
X12521Y13823D02*
Y13830D01*
X13272Y13704D02*
Y13713D01*
X12676Y13906D02*
X12862D01*
X12846Y13874D02*
X12873Y13848D01*
X12641Y13874D02*
X12846D01*
X12641Y13875D02*
X12641Y13874D01*
X12576Y13853D02*
X12580Y13850D01*
X12799D01*
X12521Y13830D02*
X12528Y13823D01*
X12862D01*
X12863Y13823D01*
X12883D01*
X12884Y13823D01*
X12970Y13903D02*
X13174D01*
X13228Y13849D01*
X12888Y13878D02*
X13177D01*
X13222Y13833D01*
X12882Y13880D02*
X12888D01*
X12862Y13906D02*
X12888Y13880D01*
X12873Y13848D02*
X12879Y13854D01*
X13179D01*
X13215Y13817D01*
X13013Y13823D02*
X13016Y13826D01*
X12884Y13823D02*
X13013D01*
X13193Y13749D02*
X13238Y13704D01*
X13125Y13781D02*
X13162Y13818D01*
X13092Y13797D02*
X13114Y13819D01*
X13220Y13765D02*
X13272Y13713D01*
X12397Y13759D02*
X12419Y13781D01*
X12340Y13787D02*
X12350Y13797D01*
X13092D01*
X12419Y13781D02*
X13125D01*
X12380Y13703D02*
X12442Y13765D01*
X12396Y13696D02*
X12449Y13749D01*
X12396Y12608D02*
Y13696D01*
X12449Y13749D02*
X13193D01*
X12380Y12601D02*
Y13703D01*
X12442Y13765D02*
X13220D01*
X11954Y12512D02*
X12036D01*
X11953Y12513D02*
X11954Y12512D01*
X11864Y12513D02*
X11885D01*
X12103Y12512D02*
X12140D01*
X12215Y12586D01*
X12716Y12589D02*
Y12617D01*
X12730Y12631D01*
X12780D01*
X12234Y14130D02*
X12301Y14064D01*
X12515D01*
X13849Y14132D02*
X14001D01*
X13819Y14102D02*
X13849Y14132D01*
X13205Y14251D02*
X13206Y14252D01*
X13210Y14248D01*
X13472D01*
D29*
X12645Y14362D02*
X12897D01*
X13331Y13481D02*
Y13641D01*
X12114Y13359D02*
X12165Y13307D01*
X11988Y13359D02*
X12114D01*
X12011Y13130D02*
X12087Y13054D01*
X11870Y13140D02*
X11880Y13130D01*
X12011D01*
X11870Y13140D02*
Y13531D01*
X11988Y13649D01*
X12028Y13688D01*
Y13839D01*
X11991Y13561D02*
X12171D01*
X12645Y14275D02*
Y14362D01*
X12897Y14275D02*
Y14362D01*
X13334Y13032D02*
Y13091D01*
Y13032D02*
X13424Y12942D01*
X13464D01*
X12165Y13248D02*
Y13307D01*
Y13181D02*
Y13248D01*
D30*
X13414Y13876D02*
X13623D01*
X12710Y14076D02*
X12766Y14132D01*
X12544Y14076D02*
X12710D01*
X12991Y13942D02*
X13008D01*
X12962Y13971D02*
X12991Y13942D01*
X13623Y13876D02*
X13625Y13878D01*
X13565Y13406D02*
X13929Y13042D01*
X13669Y13398D02*
X13825Y13242D01*
X13964D01*
X13878Y13142D02*
X13964D01*
X13929Y13042D02*
X13964D01*
X13414Y13940D02*
X13416Y13942D01*
X13412Y13940D02*
X13414D01*
X11929Y12687D02*
X12023D01*
X12111Y12683D02*
Y12687D01*
X12027Y12598D02*
X12111Y12683D01*
X11988Y12982D02*
Y13054D01*
X12018Y12904D02*
X12126D01*
X12165Y12943D01*
Y13008D01*
X13007Y12365D02*
Y12420D01*
X13006Y12421D02*
X13007Y12420D01*
X13004Y12361D02*
X13007Y12365D01*
X13006Y12421D02*
Y12770D01*
X12982Y12535D02*
Y12743D01*
X13030Y12431D02*
X13033Y12434D01*
Y12799D01*
X13006Y12770D02*
X13007Y12771D01*
X12977Y12738D02*
X12982Y12743D01*
X12639Y12799D02*
Y13094D01*
X12660Y13115D01*
X12685D01*
X12612Y12771D02*
Y13163D01*
X12634Y13185D01*
X12685D01*
X12581Y13325D02*
X12685D01*
X12559Y13303D02*
X12581Y13325D01*
X12559Y12741D02*
Y13303D01*
X12766Y14132D02*
X13138D01*
X13744Y12081D02*
X13794Y12131D01*
X13950D01*
X13979Y12102D01*
X11895Y12093D02*
X11940Y12138D01*
X12084D01*
X12141Y12081D01*
X13744D01*
X13419Y14352D02*
Y14438D01*
X13639Y13381D02*
X13878Y13142D01*
X13921Y13830D02*
Y13871D01*
X13872Y13781D02*
X13921Y13830D01*
X13872Y13738D02*
Y13781D01*
X13827Y13693D02*
X13872Y13738D01*
X13773Y13693D02*
X13827D01*
X13599Y14066D02*
X13601Y14068D01*
X13415Y14066D02*
X13599D01*
X13625Y13878D02*
X13629Y13874D01*
X13565Y13406D02*
Y13731D01*
X13639Y13381D02*
Y13700D01*
X13565Y13731D02*
X13565Y13731D01*
X13416Y13942D02*
X13578D01*
X13599Y13584D02*
X13602Y13581D01*
X13599Y13584D02*
Y13734D01*
X13669Y13398D02*
Y13743D01*
X13649Y13763D02*
X13669Y13743D01*
X13639Y13700D02*
Y13731D01*
X13339Y13763D02*
X13649D01*
X13323Y13747D02*
X13339Y13763D01*
X13104Y13705D02*
X13121Y13688D01*
X13004Y13705D02*
X13104D01*
X12981Y13682D02*
X13004Y13705D01*
X13430Y13908D02*
X13683D01*
X13700Y13924D01*
X13974D01*
X14020Y13879D01*
Y12143D02*
Y13879D01*
X13979Y12102D02*
X14020Y12143D01*
X12532Y12690D02*
Y12777D01*
X12442Y12631D02*
X12447Y12636D01*
Y13051D01*
X12456Y13688D02*
X12480Y13664D01*
Y13273D02*
Y13664D01*
X12422Y12777D02*
Y13701D01*
X12454Y13733D01*
X13141D01*
X13170Y13705D01*
X12479Y14095D02*
X12525D01*
X12544Y14076D01*
D31*
X13624Y14334D02*
X13999D01*
X13407Y13542D02*
X13410Y13545D01*
Y13729D01*
X13413Y13732D01*
D32*
X12737Y13532D02*
X12757Y13512D01*
X13205Y13091D02*
X13334D01*
X13181Y13115D02*
X13205Y13091D01*
X12685Y13465D02*
Y13519D01*
X13134Y13512D02*
X13181Y13465D01*
X12669Y13535D02*
X12685Y13519D01*
X13331Y13641D02*
Y13696D01*
X13363Y13728D01*
X12757Y13512D02*
X13134D01*
D33*
X13267Y13139D02*
Y13584D01*
X12236Y12871D02*
Y13482D01*
X12296Y13542D01*
X12107Y12598D02*
X12301Y12792D01*
X13464Y13242D02*
X13576Y13130D01*
Y12770D02*
Y13130D01*
Y12770D02*
X13614Y12732D01*
X13799Y12689D02*
Y12716D01*
X13617Y12898D02*
X13799Y12716D01*
X13617Y12898D02*
Y13203D01*
X13660Y12949D02*
X13878Y12731D01*
X13660Y12949D02*
Y13246D01*
X13878Y12689D02*
Y12731D01*
X13535Y12689D02*
Y13071D01*
X13464Y13142D02*
X13535Y13071D01*
X13464Y13442D02*
X13660Y13246D01*
X13478Y13342D02*
X13617Y13203D01*
X13614Y12689D02*
Y12732D01*
X12300Y13372D02*
X12301Y13371D01*
Y12792D02*
Y13371D01*
X13464Y13342D02*
X13478D01*
X12021Y12766D02*
X12136D01*
X11988Y12736D02*
Y12766D01*
X12021D01*
X12136D02*
X12234Y12864D01*
X13042Y13542D02*
Y13650D01*
D35*
X12323Y13646D02*
D03*
Y13449D02*
D03*
X13721Y13871D02*
D03*
X13821D02*
D03*
X13921D02*
D03*
Y13771D02*
D03*
X13821D02*
D03*
X13721D02*
D03*
X13501Y12451D02*
D03*
X13601D02*
D03*
X13701D02*
D03*
Y12351D02*
D03*
X13601D02*
D03*
X13501D02*
D03*
D36*
X11948Y13839D02*
D03*
X12028D02*
D03*
X13535Y12689D02*
D03*
X13614D02*
D03*
X13799D02*
D03*
X13878D02*
D03*
D37*
X11929Y12943D02*
D03*
X12048D02*
D03*
D38*
X12685Y13465D02*
D03*
D39*
Y13395D02*
D03*
Y13325D02*
D03*
Y13255D02*
D03*
Y13185D02*
D03*
Y13115D02*
D03*
Y13045D02*
D03*
Y12975D02*
D03*
X13181Y13465D02*
D03*
Y13395D02*
D03*
Y13325D02*
D03*
Y13255D02*
D03*
Y13185D02*
D03*
Y13115D02*
D03*
Y13045D02*
D03*
Y12975D02*
D03*
D40*
X13964Y12942D02*
D03*
Y13042D02*
D03*
Y13142D02*
D03*
Y13242D02*
D03*
Y13342D02*
D03*
Y13442D02*
D03*
Y13542D02*
D03*
Y13642D02*
D03*
X13464Y12942D02*
D03*
Y13042D02*
D03*
Y13142D02*
D03*
Y13242D02*
D03*
Y13342D02*
D03*
Y13442D02*
D03*
Y13542D02*
D03*
X12981Y12201D02*
D03*
X12781D02*
D03*
X12881D02*
D03*
X12381D02*
D03*
X12481D02*
D03*
X12681D02*
D03*
X12581D02*
D03*
D41*
X13464Y13642D02*
D03*
X12281Y12201D02*
D03*
D42*
X12650Y14259D02*
D03*
X13058Y14278D02*
D03*
X13015Y14276D02*
D03*
X13414Y13876D02*
D03*
X12340Y13787D02*
D03*
X12564Y14151D02*
D03*
X12397Y13759D02*
D03*
X13941Y14276D02*
D03*
X13078Y14004D02*
D03*
X13268Y13492D02*
D03*
X13267Y13139D02*
D03*
X13331Y13481D02*
D03*
X13267Y13584D02*
D03*
X12296Y13542D02*
D03*
X12480Y13273D02*
D03*
X12521Y13641D02*
D03*
X12678Y14110D02*
D03*
X12603Y14154D02*
D03*
X12641Y14123D02*
D03*
X12704Y13940D02*
D03*
X12737Y14221D02*
D03*
X12602Y13505D02*
D03*
X13078Y14157D02*
D03*
X12701Y14247D02*
D03*
X13328Y14036D02*
D03*
X12771Y14228D02*
D03*
X12887Y13940D02*
D03*
X13206Y13999D02*
D03*
X13876Y13824D02*
D03*
X13783Y14004D02*
D03*
X13721Y14032D02*
D03*
X13783Y14182D02*
D03*
X13410Y14005D02*
D03*
X13700Y13521D02*
D03*
X13734Y13447D02*
D03*
X13412Y13940D02*
D03*
X13331Y13641D02*
D03*
X12300Y13372D02*
D03*
X12165Y13248D02*
D03*
X11890Y13041D02*
D03*
X11949Y12598D02*
D03*
X11929Y12687D02*
D03*
X11988Y12982D02*
D03*
X12018Y12904D02*
D03*
X12165Y13008D02*
D03*
X13334Y13091D02*
D03*
X11988Y12766D02*
D03*
Y12736D02*
D03*
X12021Y12766D02*
D03*
X12166Y13214D02*
D03*
Y13180D02*
D03*
X11947Y14056D02*
D03*
X12181Y14021D02*
D03*
X11991Y13561D02*
D03*
X12171D02*
D03*
X12741Y12361D02*
D03*
X12690Y12654D02*
D03*
X12750Y12692D02*
D03*
X13102Y12667D02*
D03*
X13033Y12799D02*
D03*
X12639D02*
D03*
X13707Y12111D02*
D03*
X13146D02*
D03*
X13161Y12665D02*
D03*
X12583Y12283D02*
D03*
X12658Y12638D02*
D03*
X12594Y12636D02*
D03*
X13394Y13970D02*
D03*
X13624Y14334D02*
D03*
X13752Y14232D02*
D03*
Y13970D02*
D03*
X13876Y14082D02*
D03*
X13144Y12363D02*
D03*
X13420Y12350D02*
D03*
Y12869D02*
D03*
X13549Y12493D02*
D03*
X13102Y12298D02*
D03*
X13004Y12361D02*
D03*
X13144Y12531D02*
D03*
X12982Y12535D02*
D03*
X12490Y12538D02*
D03*
X12281Y12401D02*
D03*
X12821Y12471D02*
D03*
X12841Y12441D02*
D03*
X13144Y12431D02*
D03*
X13030Y12431D02*
D03*
X12873Y12404D02*
D03*
X13007Y12771D02*
D03*
X12612D02*
D03*
X12664Y12869D02*
D03*
X12977Y12738D02*
D03*
X12873Y12830D02*
D03*
X12559Y12741D02*
D03*
X12586Y12830D02*
D03*
X12981Y13682D02*
D03*
X12524Y13322D02*
D03*
X12233Y12865D02*
D03*
X11869Y14390D02*
D03*
X11959Y14620D02*
D03*
X12918Y14269D02*
D03*
X12962Y13971D02*
D03*
X12961Y14005D02*
D03*
X12586Y13186D02*
D03*
Y13073D02*
D03*
Y13005D02*
D03*
X12485Y12983D02*
D03*
X12464Y13150D02*
D03*
X12939Y12716D02*
D03*
X12498Y12717D02*
D03*
X13205Y14251D02*
D03*
X12915Y14193D02*
D03*
X13138Y14132D02*
D03*
X13979Y12102D02*
D03*
X11894Y12098D02*
D03*
X13715Y14294D02*
D03*
X13239D02*
D03*
X13419Y14438D02*
D03*
Y14352D02*
D03*
X13773Y13693D02*
D03*
X13526Y13739D02*
D03*
X13601Y14068D02*
D03*
X13415Y14066D02*
D03*
X13637Y14033D02*
D03*
X13636Y13943D02*
D03*
X13629Y13874D02*
D03*
X13732Y13719D02*
D03*
X13693D02*
D03*
X13541Y13576D02*
D03*
X13602Y13581D02*
D03*
X13565Y13731D02*
D03*
X13578Y13942D02*
D03*
X13599Y13734D02*
D03*
X13639Y13731D02*
D03*
X13407Y13542D02*
D03*
X13413Y13732D02*
D03*
X13272Y13704D02*
D03*
X13238D02*
D03*
X13323Y13747D02*
D03*
X13363Y13728D02*
D03*
X13121Y13688D02*
D03*
X13042Y13542D02*
D03*
X13047Y13680D02*
D03*
X13430Y13908D02*
D03*
X12532Y12777D02*
D03*
X12447Y13051D02*
D03*
X12422Y12777D02*
D03*
X12456Y13688D02*
D03*
X12602Y13687D02*
D03*
X12873Y13848D02*
D03*
X12521Y13830D02*
D03*
X13114Y13819D02*
D03*
X13162Y13818D02*
D03*
X12676Y13906D02*
D03*
X12641Y13875D02*
D03*
X12799Y13850D02*
D03*
X12576Y13853D02*
D03*
X12970Y13903D02*
D03*
X12888Y13880D02*
D03*
X13016Y13826D02*
D03*
X13170Y13705D02*
D03*
X11885Y12513D02*
D03*
X12215Y12586D02*
D03*
X12716Y12589D02*
D03*
X12479Y14095D02*
D03*
X12515Y14064D02*
D03*
X13819Y14102D02*
D03*
X13472Y14248D02*
D03*
D43*
X12961Y13651D02*
D03*
X13041D02*
D03*
X12107Y12598D02*
D03*
X12027D02*
D03*
X11951D02*
D03*
X11870D02*
D03*
D44*
X12897Y14275D02*
D03*
X12645D02*
D03*
D45*
X12906Y14371D02*
D03*
X12636D02*
D03*
D46*
X12818D02*
D03*
X12724D02*
D03*
D47*
X12822Y14266D02*
D03*
X12797D02*
D03*
X12771D02*
D03*
X12745D02*
D03*
X12720D02*
D03*
D48*
X11988Y13359D02*
D03*
Y13649D02*
D03*
D49*
X12670Y13529D02*
D03*
X12735D02*
D03*
D50*
X11890Y13054D02*
D03*
X11988D02*
D03*
X12087D02*
D03*
X11890Y12831D02*
D03*
X11988D02*
D03*
X12087D02*
D03*
D51*
X12442Y12600D02*
D03*
X12442Y12568D02*
D03*
Y12631D02*
D03*
Y12537D02*
D03*
Y12505D02*
D03*
Y12473D02*
D03*
Y12442D02*
D03*
X12442Y12410D02*
D03*
X12780D02*
D03*
Y12442D02*
D03*
X12780Y12473D02*
D03*
X12780Y12505D02*
D03*
Y12537D02*
D03*
Y12568D02*
D03*
Y12600D02*
D03*
Y12631D02*
D03*
D52*
X12500Y12352D02*
D03*
X12532Y12352D02*
D03*
X12563D02*
D03*
X12595Y12352D02*
D03*
X12627D02*
D03*
X12658D02*
D03*
X12690D02*
D03*
X12721Y12352D02*
D03*
X12721Y12690D02*
D03*
X12690D02*
D03*
X12658D02*
D03*
X12627D02*
D03*
X12595D02*
D03*
X12563Y12690D02*
D03*
X12532Y12690D02*
D03*
X12500D02*
D03*
D53*
X11871Y13980D02*
D03*
Y14030D02*
D03*
Y14080D02*
D03*
Y14130D02*
D03*
Y14180D02*
D03*
Y14230D02*
D03*
Y14280D02*
D03*
Y14330D02*
D03*
X14001Y14332D02*
D03*
Y14282D02*
D03*
Y14232D02*
D03*
Y14182D02*
D03*
Y14132D02*
D03*
Y14082D02*
D03*
Y14032D02*
D03*
Y13982D02*
D03*
D54*
X12036Y12512D02*
D03*
X12103D02*
D03*
M02*
