M48
;Layer_Color=6321
;FILE_FORMAT=2:3
INCH
;TYPE=PLATED
T1F00S00C0.012
T2F00S00C0.030
T3F00S00C0.031
T4F00S00C0.034
T5F00S00C0.038
T6F00S00C0.043
T7F00S00C0.044
T8F00S00C0.098
%
T01
X12583Y12283
X12741Y12361
X12873Y12404
X12841Y12441
X12821Y12471
X13030Y12431
X13004Y12361
X13144Y12363
X13144Y12431
X13102Y12298
X13146Y12111
X13420Y12350
X13549Y12493
X13707Y12111
X13979Y12102
X12281Y12401
X11894Y12098
X11885Y12513
X11949Y12598
X11929Y12687
X11988Y12736
Y12766
X12021
X12018Y12904
X11988Y12982
X11890Y13041
X12165Y13008
X12166Y13180
Y13214
X12165Y13248
X12300Y13372
X12296Y13542
X12171Y13561
X11991
X11947Y14056
X12181Y14021
X12340Y13787
X12397Y13759
X12456Y13688
X12480Y13273
X12464Y13150
X12447Y13051
X12485Y12983
X12422Y12777
X12498Y12717
X12490Y12538
X12215Y12586
X12233Y12865
X12532Y12777
X12559Y12741
X12612Y12771
X12639Y12799
X12586Y12830
X12664Y12869
X12586Y13005
Y13073
Y13186
X12524Y13322
X12602Y13505
Y13687
X12521Y13641
X12521Y13830
X12576Y13853
X12641Y13875
X12676Y13906
X12704Y13940
X12887Y13940
X12888Y13880
X12873Y13848
X12799Y13850
X12970Y13903
X12962Y13971
X12961Y14005
X13078Y14004
X13206Y13999
X13328Y14036
X13410Y14005
X13394Y13970
X13412Y13940
X13430Y13908
X13414Y13876
X13413Y13732
X13363Y13728
X13323Y13747
X13272Y13704
X13238
X13170Y13705
X13121Y13688
X13047Y13680
X12981Y13682
X13016Y13826
X13114Y13819
X13162Y13818
X13267Y13584
X13268Y13492
X13331Y13481
X13407Y13542
X13541Y13576
X13602Y13581
X13599Y13734
X13565Y13731
X13526Y13739
X13639Y13731
X13693Y13719
X13732
X13773Y13693
X13876Y13824
X13752Y13970
X13783Y14004
X13721Y14032
X13637Y14033
X13636Y13943
X13578Y13942
X13629Y13874
X13700Y13521
X13734Y13447
X13331Y13641
X13042Y13542
X13267Y13139
X13334Y13091
X13420Y12869
X13033Y12799
X13007Y12771
X12977Y12738
X12939Y12716
X12873Y12830
X12750Y12692
X12690Y12654
X12658Y12638
X12594Y12636
X12716Y12589
X12982Y12535
X13144Y12531
X13161Y12665
X13102Y12667
X13138Y14132
X13078Y14157
X13058Y14278
X13015Y14276
X12918Y14269
X12915Y14193
X12771Y14228
X12737Y14221
X12701Y14247
X12650Y14259
X12641Y14123
X12678Y14110
X12603Y14154
X12564Y14151
X12515Y14064
X13205Y14251
X13239Y14294
X13419Y14352
Y14438
X13472Y14248
X13624Y14334
X13715Y14294
X13752Y14232
X13783Y14182
X13819Y14102
X13876Y14082
X13941Y14276
X13601Y14068
X13415Y14066
X12479Y14095
X11869Y14390
X11959Y14620
T02
X12323Y13449
Y13646
T03
X12685Y12975
Y13045
Y13115
Y13185
Y13255
Y13325
Y13395
Y13465
X13181
Y13395
Y13325
Y13255
Y13185
Y13115
Y13045
Y12975
T04
X11929Y12943
X12048
T05
X13501Y12351
Y12451
X13601
X13701
Y12351
X13601
X13721Y13771
Y13871
X13821
X13921
Y13771
X13821
T06
X12581Y12201
X12681
X12781
X12881
X12981
X12481
X12381
X12281
X13464Y12942
Y13042
Y13142
Y13242
Y13342
Y13442
Y13542
Y13642
X13964
Y13542
Y13442
Y13342
Y13242
Y13142
Y13042
Y12942
T07
X11948Y13839
X12028
X13535Y12689
X13614
X13799
X13878
T08
X13858Y12047
X12008
X13858Y14488
X12008
M30
