G04 Layer_Color=2752767*
%FSLAX23Y23*%
%MOIN*%
G70*
G01*
G75*
%ADD60C,0.005*%
%ADD103C,0.007*%
D60*
X12303Y13626D02*
Y13666D01*
X12343D01*
Y13626D01*
X12303D01*
Y13429D02*
Y13469D01*
X12343D01*
Y13429D01*
X12303D01*
X11929Y12923D02*
X11909Y12963D01*
X11949D01*
X11929Y12923D01*
X12048D02*
X12028Y12963D01*
X12068D01*
X12048Y12923D01*
X13721Y13851D02*
X13731Y13861D01*
X13741D01*
X13731Y13871D01*
X13741Y13881D01*
X13731D01*
X13721Y13891D01*
X13711Y13881D01*
X13701D01*
X13711Y13871D01*
X13701Y13861D01*
X13711D01*
X13721Y13851D01*
X13821D02*
X13831Y13861D01*
X13841D01*
X13831Y13871D01*
X13841Y13881D01*
X13831D01*
X13821Y13891D01*
X13811Y13881D01*
X13801D01*
X13811Y13871D01*
X13801Y13861D01*
X13811D01*
X13821Y13851D01*
X13921D02*
X13931Y13861D01*
X13941D01*
X13931Y13871D01*
X13941Y13881D01*
X13931D01*
X13921Y13891D01*
X13911Y13881D01*
X13901D01*
X13911Y13871D01*
X13901Y13861D01*
X13911D01*
X13921Y13851D01*
Y13751D02*
X13931Y13761D01*
X13941D01*
X13931Y13771D01*
X13941Y13781D01*
X13931D01*
X13921Y13791D01*
X13911Y13781D01*
X13901D01*
X13911Y13771D01*
X13901Y13761D01*
X13911D01*
X13921Y13751D01*
X13821D02*
X13831Y13761D01*
X13841D01*
X13831Y13771D01*
X13841Y13781D01*
X13831D01*
X13821Y13791D01*
X13811Y13781D01*
X13801D01*
X13811Y13771D01*
X13801Y13761D01*
X13811D01*
X13821Y13751D01*
X13721D02*
X13731Y13761D01*
X13741D01*
X13731Y13771D01*
X13741Y13781D01*
X13731D01*
X13721Y13791D01*
X13711Y13781D01*
X13701D01*
X13711Y13771D01*
X13701Y13761D01*
X13711D01*
X13721Y13751D01*
X13501Y12431D02*
X13511Y12441D01*
X13521D01*
X13511Y12451D01*
X13521Y12461D01*
X13511D01*
X13501Y12471D01*
X13491Y12461D01*
X13481D01*
X13491Y12451D01*
X13481Y12441D01*
X13491D01*
X13501Y12431D01*
X13601D02*
X13611Y12441D01*
X13621D01*
X13611Y12451D01*
X13621Y12461D01*
X13611D01*
X13601Y12471D01*
X13591Y12461D01*
X13581D01*
X13591Y12451D01*
X13581Y12441D01*
X13591D01*
X13601Y12431D01*
X13701D02*
X13711Y12441D01*
X13721D01*
X13711Y12451D01*
X13721Y12461D01*
X13711D01*
X13701Y12471D01*
X13691Y12461D01*
X13681D01*
X13691Y12451D01*
X13681Y12441D01*
X13691D01*
X13701Y12431D01*
Y12331D02*
X13711Y12341D01*
X13721D01*
X13711Y12351D01*
X13721Y12361D01*
X13711D01*
X13701Y12371D01*
X13691Y12361D01*
X13681D01*
X13691Y12351D01*
X13681Y12341D01*
X13691D01*
X13701Y12331D01*
X13601D02*
X13611Y12341D01*
X13621D01*
X13611Y12351D01*
X13621Y12361D01*
X13611D01*
X13601Y12371D01*
X13591Y12361D01*
X13581D01*
X13591Y12351D01*
X13581Y12341D01*
X13591D01*
X13601Y12331D01*
X13501D02*
X13511Y12341D01*
X13521D01*
X13511Y12351D01*
X13521Y12361D01*
X13511D01*
X13501Y12371D01*
X13491Y12361D01*
X13481D01*
X13491Y12351D01*
X13481Y12341D01*
X13491D01*
X13501Y12331D01*
X12665Y13445D02*
X12675Y13465D01*
X12665Y13485D01*
X12685Y13475D01*
X12705Y13485D01*
X12695Y13465D01*
X12705Y13445D01*
X12685Y13455D01*
X12665Y13445D01*
Y13375D02*
X12675Y13395D01*
X12665Y13415D01*
X12685Y13405D01*
X12705Y13415D01*
X12695Y13395D01*
X12705Y13375D01*
X12685Y13385D01*
X12665Y13375D01*
Y13305D02*
X12675Y13325D01*
X12665Y13345D01*
X12685Y13335D01*
X12705Y13345D01*
X12695Y13325D01*
X12705Y13305D01*
X12685Y13315D01*
X12665Y13305D01*
Y13235D02*
X12675Y13255D01*
X12665Y13275D01*
X12685Y13265D01*
X12705Y13275D01*
X12695Y13255D01*
X12705Y13235D01*
X12685Y13245D01*
X12665Y13235D01*
Y13165D02*
X12675Y13185D01*
X12665Y13205D01*
X12685Y13195D01*
X12705Y13205D01*
X12695Y13185D01*
X12705Y13165D01*
X12685Y13175D01*
X12665Y13165D01*
Y13095D02*
X12675Y13115D01*
X12665Y13135D01*
X12685Y13125D01*
X12705Y13135D01*
X12695Y13115D01*
X12705Y13095D01*
X12685Y13105D01*
X12665Y13095D01*
Y13025D02*
X12675Y13045D01*
X12665Y13065D01*
X12685Y13055D01*
X12705Y13065D01*
X12695Y13045D01*
X12705Y13025D01*
X12685Y13035D01*
X12665Y13025D01*
Y12955D02*
X12675Y12975D01*
X12665Y12995D01*
X12685Y12985D01*
X12705Y12995D01*
X12695Y12975D01*
X12705Y12955D01*
X12685Y12965D01*
X12665Y12955D01*
X13161Y13445D02*
X13171Y13465D01*
X13161Y13485D01*
X13181Y13475D01*
X13201Y13485D01*
X13191Y13465D01*
X13201Y13445D01*
X13181Y13455D01*
X13161Y13445D01*
Y13375D02*
X13171Y13395D01*
X13161Y13415D01*
X13181Y13405D01*
X13201Y13415D01*
X13191Y13395D01*
X13201Y13375D01*
X13181Y13385D01*
X13161Y13375D01*
Y13305D02*
X13171Y13325D01*
X13161Y13345D01*
X13181Y13335D01*
X13201Y13345D01*
X13191Y13325D01*
X13201Y13305D01*
X13181Y13315D01*
X13161Y13305D01*
Y13235D02*
X13171Y13255D01*
X13161Y13275D01*
X13181Y13265D01*
X13201Y13275D01*
X13191Y13255D01*
X13201Y13235D01*
X13181Y13245D01*
X13161Y13235D01*
Y13165D02*
X13171Y13185D01*
X13161Y13205D01*
X13181Y13195D01*
X13201Y13205D01*
X13191Y13185D01*
X13201Y13165D01*
X13181Y13175D01*
X13161Y13165D01*
Y13095D02*
X13171Y13115D01*
X13161Y13135D01*
X13181Y13125D01*
X13201Y13135D01*
X13191Y13115D01*
X13201Y13095D01*
X13181Y13105D01*
X13161Y13095D01*
Y13025D02*
X13171Y13045D01*
X13161Y13065D01*
X13181Y13055D01*
X13201Y13065D01*
X13191Y13045D01*
X13201Y13025D01*
X13181Y13035D01*
X13161Y13025D01*
Y12955D02*
X13171Y12975D01*
X13161Y12995D01*
X13181Y12985D01*
X13201Y12995D01*
X13191Y12975D01*
X13201Y12955D01*
X13181Y12965D01*
X13161Y12955D01*
X13954Y12932D02*
Y12922D01*
X13974D01*
Y12932D01*
X13984D01*
Y12952D01*
X13974D01*
Y12962D01*
X13954D01*
Y12952D01*
X13944D01*
Y12932D01*
X13954D01*
Y13032D02*
Y13022D01*
X13974D01*
Y13032D01*
X13984D01*
Y13052D01*
X13974D01*
Y13062D01*
X13954D01*
Y13052D01*
X13944D01*
Y13032D01*
X13954D01*
Y13132D02*
Y13122D01*
X13974D01*
Y13132D01*
X13984D01*
Y13152D01*
X13974D01*
Y13162D01*
X13954D01*
Y13152D01*
X13944D01*
Y13132D01*
X13954D01*
Y13232D02*
Y13222D01*
X13974D01*
Y13232D01*
X13984D01*
Y13252D01*
X13974D01*
Y13262D01*
X13954D01*
Y13252D01*
X13944D01*
Y13232D01*
X13954D01*
Y13332D02*
Y13322D01*
X13974D01*
Y13332D01*
X13984D01*
Y13352D01*
X13974D01*
Y13362D01*
X13954D01*
Y13352D01*
X13944D01*
Y13332D01*
X13954D01*
Y13432D02*
Y13422D01*
X13974D01*
Y13432D01*
X13984D01*
Y13452D01*
X13974D01*
Y13462D01*
X13954D01*
Y13452D01*
X13944D01*
Y13432D01*
X13954D01*
Y13532D02*
Y13522D01*
X13974D01*
Y13532D01*
X13984D01*
Y13552D01*
X13974D01*
Y13562D01*
X13954D01*
Y13552D01*
X13944D01*
Y13532D01*
X13954D01*
Y13632D02*
Y13622D01*
X13974D01*
Y13632D01*
X13984D01*
Y13652D01*
X13974D01*
Y13662D01*
X13954D01*
Y13652D01*
X13944D01*
Y13632D01*
X13954D01*
X13454Y12932D02*
Y12922D01*
X13474D01*
Y12932D01*
X13484D01*
Y12952D01*
X13474D01*
Y12962D01*
X13454D01*
Y12952D01*
X13444D01*
Y12932D01*
X13454D01*
Y13032D02*
Y13022D01*
X13474D01*
Y13032D01*
X13484D01*
Y13052D01*
X13474D01*
Y13062D01*
X13454D01*
Y13052D01*
X13444D01*
Y13032D01*
X13454D01*
Y13132D02*
Y13122D01*
X13474D01*
Y13132D01*
X13484D01*
Y13152D01*
X13474D01*
Y13162D01*
X13454D01*
Y13152D01*
X13444D01*
Y13132D01*
X13454D01*
Y13232D02*
Y13222D01*
X13474D01*
Y13232D01*
X13484D01*
Y13252D01*
X13474D01*
Y13262D01*
X13454D01*
Y13252D01*
X13444D01*
Y13232D01*
X13454D01*
Y13332D02*
Y13322D01*
X13474D01*
Y13332D01*
X13484D01*
Y13352D01*
X13474D01*
Y13362D01*
X13454D01*
Y13352D01*
X13444D01*
Y13332D01*
X13454D01*
Y13432D02*
Y13422D01*
X13474D01*
Y13432D01*
X13484D01*
Y13452D01*
X13474D01*
Y13462D01*
X13454D01*
Y13452D01*
X13444D01*
Y13432D01*
X13454D01*
Y13532D02*
Y13522D01*
X13474D01*
Y13532D01*
X13484D01*
Y13552D01*
X13474D01*
Y13562D01*
X13454D01*
Y13552D01*
X13444D01*
Y13532D01*
X13454D01*
Y13632D02*
Y13622D01*
X13474D01*
Y13632D01*
X13484D01*
Y13652D01*
X13474D01*
Y13662D01*
X13454D01*
Y13652D01*
X13444D01*
Y13632D01*
X13454D01*
X12971Y12191D02*
Y12181D01*
X12991D01*
Y12191D01*
X13001D01*
Y12211D01*
X12991D01*
Y12221D01*
X12971D01*
Y12211D01*
X12961D01*
Y12191D01*
X12971D01*
X12271D02*
Y12181D01*
X12291D01*
Y12191D01*
X12301D01*
Y12211D01*
X12291D01*
Y12221D01*
X12271D01*
Y12211D01*
X12261D01*
Y12191D01*
X12271D01*
X12771D02*
Y12181D01*
X12791D01*
Y12191D01*
X12801D01*
Y12211D01*
X12791D01*
Y12221D01*
X12771D01*
Y12211D01*
X12761D01*
Y12191D01*
X12771D01*
X12871D02*
Y12181D01*
X12891D01*
Y12191D01*
X12901D01*
Y12211D01*
X12891D01*
Y12221D01*
X12871D01*
Y12211D01*
X12861D01*
Y12191D01*
X12871D01*
X12371D02*
Y12181D01*
X12391D01*
Y12191D01*
X12401D01*
Y12211D01*
X12391D01*
Y12221D01*
X12371D01*
Y12211D01*
X12361D01*
Y12191D01*
X12371D01*
X12471D02*
Y12181D01*
X12491D01*
Y12191D01*
X12501D01*
Y12211D01*
X12491D01*
Y12221D01*
X12471D01*
Y12211D01*
X12461D01*
Y12191D01*
X12471D01*
X12671D02*
Y12181D01*
X12691D01*
Y12191D01*
X12701D01*
Y12211D01*
X12691D01*
Y12221D01*
X12671D01*
Y12211D01*
X12661D01*
Y12191D01*
X12671D01*
X12571D02*
Y12181D01*
X12591D01*
Y12191D01*
X12601D01*
Y12211D01*
X12591D01*
Y12221D01*
X12571D01*
Y12211D01*
X12561D01*
Y12191D01*
X12571D01*
X11988Y12027D02*
X11998D01*
X12008Y12037D01*
X12018Y12027D01*
X12028D01*
Y12037D01*
X12018Y12047D01*
X12028Y12057D01*
Y12067D01*
X12018D01*
X12008Y12057D01*
X11998Y12067D01*
X11988D01*
Y12057D01*
X11998Y12047D01*
X11988Y12037D01*
Y12027D01*
X13838D02*
X13848D01*
X13858Y12037D01*
X13868Y12027D01*
X13878D01*
Y12037D01*
X13868Y12047D01*
X13878Y12057D01*
Y12067D01*
X13868D01*
X13858Y12057D01*
X13848Y12067D01*
X13838D01*
Y12057D01*
X13848Y12047D01*
X13838Y12037D01*
Y12027D01*
Y14468D02*
X13848D01*
X13858Y14478D01*
X13868Y14468D01*
X13878D01*
Y14478D01*
X13868Y14488D01*
X13878Y14498D01*
Y14508D01*
X13868D01*
X13858Y14498D01*
X13848Y14508D01*
X13838D01*
Y14498D01*
X13848Y14488D01*
X13838Y14478D01*
Y14468D01*
X11988D02*
X11998D01*
X12008Y14478D01*
X12018Y14468D01*
X12028D01*
Y14478D01*
X12018Y14488D01*
X12028Y14498D01*
Y14508D01*
X12018D01*
X12008Y14498D01*
X11998Y14508D01*
X11988D01*
Y14498D01*
X11998Y14488D01*
X11988Y14478D01*
Y14468D01*
X12630Y14259D02*
X12650Y14279D01*
X12670Y14259D01*
X12650Y14239D01*
X12630Y14259D01*
X13038Y14278D02*
X13058Y14298D01*
X13078Y14278D01*
X13058Y14258D01*
X13038Y14278D01*
X12995Y14276D02*
X13015Y14296D01*
X13035Y14276D01*
X13015Y14256D01*
X12995Y14276D01*
X13394Y13876D02*
X13414Y13896D01*
X13434Y13876D01*
X13414Y13856D01*
X13394Y13876D01*
X12320Y13787D02*
X12340Y13807D01*
X12360Y13787D01*
X12340Y13767D01*
X12320Y13787D01*
X12544Y14151D02*
X12564Y14171D01*
X12584Y14151D01*
X12564Y14131D01*
X12544Y14151D01*
X12377Y13759D02*
X12397Y13779D01*
X12417Y13759D01*
X12397Y13739D01*
X12377Y13759D01*
X13921Y14276D02*
X13941Y14296D01*
X13961Y14276D01*
X13941Y14256D01*
X13921Y14276D01*
X13058Y14004D02*
X13078Y14024D01*
X13098Y14004D01*
X13078Y13984D01*
X13058Y14004D01*
X13248Y13492D02*
X13268Y13512D01*
X13288Y13492D01*
X13268Y13472D01*
X13248Y13492D01*
X13247Y13139D02*
X13267Y13159D01*
X13287Y13139D01*
X13267Y13119D01*
X13247Y13139D01*
X13311Y13481D02*
X13331Y13501D01*
X13351Y13481D01*
X13331Y13461D01*
X13311Y13481D01*
X13247Y13584D02*
X13267Y13604D01*
X13287Y13584D01*
X13267Y13564D01*
X13247Y13584D01*
X12276Y13542D02*
X12296Y13562D01*
X12316Y13542D01*
X12296Y13522D01*
X12276Y13542D01*
X12460Y13273D02*
X12480Y13293D01*
X12500Y13273D01*
X12480Y13253D01*
X12460Y13273D01*
X12501Y13641D02*
X12521Y13661D01*
X12541Y13641D01*
X12521Y13621D01*
X12501Y13641D01*
X12658Y14110D02*
X12678Y14130D01*
X12698Y14110D01*
X12678Y14090D01*
X12658Y14110D01*
X12583Y14154D02*
X12603Y14174D01*
X12623Y14154D01*
X12603Y14134D01*
X12583Y14154D01*
X12621Y14123D02*
X12641Y14143D01*
X12661Y14123D01*
X12641Y14103D01*
X12621Y14123D01*
X12684Y13940D02*
X12704Y13960D01*
X12724Y13940D01*
X12704Y13920D01*
X12684Y13940D01*
X12717Y14221D02*
X12737Y14241D01*
X12757Y14221D01*
X12737Y14201D01*
X12717Y14221D01*
X12582Y13505D02*
X12602Y13525D01*
X12622Y13505D01*
X12602Y13485D01*
X12582Y13505D01*
X13058Y14157D02*
X13078Y14177D01*
X13098Y14157D01*
X13078Y14137D01*
X13058Y14157D01*
X12681Y14247D02*
X12701Y14267D01*
X12721Y14247D01*
X12701Y14227D01*
X12681Y14247D01*
X13308Y14036D02*
X13328Y14056D01*
X13348Y14036D01*
X13328Y14016D01*
X13308Y14036D01*
X12751Y14228D02*
X12771Y14248D01*
X12791Y14228D01*
X12771Y14208D01*
X12751Y14228D01*
X12867Y13940D02*
X12887Y13960D01*
X12907Y13940D01*
X12887Y13920D01*
X12867Y13940D01*
X13186Y13999D02*
X13206Y14019D01*
X13226Y13999D01*
X13206Y13979D01*
X13186Y13999D01*
X13856Y13824D02*
X13876Y13844D01*
X13896Y13824D01*
X13876Y13804D01*
X13856Y13824D01*
X13763Y14004D02*
X13783Y14024D01*
X13803Y14004D01*
X13783Y13984D01*
X13763Y14004D01*
X13701Y14032D02*
X13721Y14052D01*
X13741Y14032D01*
X13721Y14012D01*
X13701Y14032D01*
X13763Y14182D02*
X13783Y14202D01*
X13803Y14182D01*
X13783Y14162D01*
X13763Y14182D01*
X13390Y14005D02*
X13410Y14025D01*
X13430Y14005D01*
X13410Y13985D01*
X13390Y14005D01*
X13680Y13521D02*
X13700Y13541D01*
X13720Y13521D01*
X13700Y13501D01*
X13680Y13521D01*
X13714Y13447D02*
X13734Y13467D01*
X13754Y13447D01*
X13734Y13427D01*
X13714Y13447D01*
X13392Y13940D02*
X13412Y13960D01*
X13432Y13940D01*
X13412Y13920D01*
X13392Y13940D01*
X13311Y13641D02*
X13331Y13661D01*
X13351Y13641D01*
X13331Y13621D01*
X13311Y13641D01*
X12280Y13372D02*
X12300Y13392D01*
X12320Y13372D01*
X12300Y13352D01*
X12280Y13372D01*
X12145Y13248D02*
X12165Y13268D01*
X12185Y13248D01*
X12165Y13228D01*
X12145Y13248D01*
X11870Y13041D02*
X11890Y13061D01*
X11910Y13041D01*
X11890Y13021D01*
X11870Y13041D01*
X11929Y12598D02*
X11949Y12618D01*
X11969Y12598D01*
X11949Y12578D01*
X11929Y12598D01*
X11909Y12687D02*
X11929Y12707D01*
X11949Y12687D01*
X11929Y12667D01*
X11909Y12687D01*
X11968Y12982D02*
X11988Y13002D01*
X12008Y12982D01*
X11988Y12962D01*
X11968Y12982D01*
X11998Y12904D02*
X12018Y12924D01*
X12038Y12904D01*
X12018Y12884D01*
X11998Y12904D01*
X12145Y13008D02*
X12165Y13028D01*
X12185Y13008D01*
X12165Y12988D01*
X12145Y13008D01*
X13314Y13091D02*
X13334Y13111D01*
X13354Y13091D01*
X13334Y13071D01*
X13314Y13091D01*
X11968Y12766D02*
X11988Y12786D01*
X12008Y12766D01*
X11988Y12746D01*
X11968Y12766D01*
Y12736D02*
X11988Y12756D01*
X12008Y12736D01*
X11988Y12716D01*
X11968Y12736D01*
X12001Y12766D02*
X12021Y12786D01*
X12041Y12766D01*
X12021Y12746D01*
X12001Y12766D01*
X12146Y13214D02*
X12166Y13234D01*
X12186Y13214D01*
X12166Y13194D01*
X12146Y13214D01*
Y13180D02*
X12166Y13200D01*
X12186Y13180D01*
X12166Y13160D01*
X12146Y13180D01*
X11927Y14056D02*
X11947Y14076D01*
X11967Y14056D01*
X11947Y14036D01*
X11927Y14056D01*
X12161Y14021D02*
X12181Y14041D01*
X12201Y14021D01*
X12181Y14001D01*
X12161Y14021D01*
X11971Y13561D02*
X11991Y13581D01*
X12011Y13561D01*
X11991Y13541D01*
X11971Y13561D01*
X12151D02*
X12171Y13581D01*
X12191Y13561D01*
X12171Y13541D01*
X12151Y13561D01*
X12721Y12361D02*
X12741Y12381D01*
X12761Y12361D01*
X12741Y12341D01*
X12721Y12361D01*
X12670Y12654D02*
X12690Y12674D01*
X12710Y12654D01*
X12690Y12634D01*
X12670Y12654D01*
X12730Y12692D02*
X12750Y12712D01*
X12770Y12692D01*
X12750Y12672D01*
X12730Y12692D01*
X13082Y12667D02*
X13102Y12687D01*
X13122Y12667D01*
X13102Y12647D01*
X13082Y12667D01*
X13013Y12799D02*
X13033Y12819D01*
X13053Y12799D01*
X13033Y12779D01*
X13013Y12799D01*
X12619D02*
X12639Y12819D01*
X12659Y12799D01*
X12639Y12779D01*
X12619Y12799D01*
X13687Y12111D02*
X13707Y12131D01*
X13727Y12111D01*
X13707Y12091D01*
X13687Y12111D01*
X13126D02*
X13146Y12131D01*
X13166Y12111D01*
X13146Y12091D01*
X13126Y12111D01*
X13141Y12665D02*
X13161Y12685D01*
X13181Y12665D01*
X13161Y12645D01*
X13141Y12665D01*
X12563Y12283D02*
X12583Y12303D01*
X12603Y12283D01*
X12583Y12263D01*
X12563Y12283D01*
X12638Y12638D02*
X12658Y12658D01*
X12678Y12638D01*
X12658Y12618D01*
X12638Y12638D01*
X12574Y12636D02*
X12594Y12656D01*
X12614Y12636D01*
X12594Y12616D01*
X12574Y12636D01*
X13374Y13970D02*
X13394Y13990D01*
X13414Y13970D01*
X13394Y13950D01*
X13374Y13970D01*
X13604Y14334D02*
X13624Y14354D01*
X13644Y14334D01*
X13624Y14314D01*
X13604Y14334D01*
X13732Y14232D02*
X13752Y14252D01*
X13772Y14232D01*
X13752Y14212D01*
X13732Y14232D01*
Y13970D02*
X13752Y13990D01*
X13772Y13970D01*
X13752Y13950D01*
X13732Y13970D01*
X13856Y14082D02*
X13876Y14102D01*
X13896Y14082D01*
X13876Y14062D01*
X13856Y14082D01*
X13124Y12363D02*
X13144Y12383D01*
X13164Y12363D01*
X13144Y12343D01*
X13124Y12363D01*
X13400Y12350D02*
X13420Y12370D01*
X13440Y12350D01*
X13420Y12330D01*
X13400Y12350D01*
Y12869D02*
X13420Y12889D01*
X13440Y12869D01*
X13420Y12849D01*
X13400Y12869D01*
X13529Y12493D02*
X13549Y12513D01*
X13569Y12493D01*
X13549Y12473D01*
X13529Y12493D01*
X13082Y12298D02*
X13102Y12318D01*
X13122Y12298D01*
X13102Y12278D01*
X13082Y12298D01*
X12984Y12361D02*
X13004Y12381D01*
X13024Y12361D01*
X13004Y12341D01*
X12984Y12361D01*
X13124Y12531D02*
X13144Y12551D01*
X13164Y12531D01*
X13144Y12511D01*
X13124Y12531D01*
X12962Y12535D02*
X12982Y12555D01*
X13002Y12535D01*
X12982Y12515D01*
X12962Y12535D01*
X12470Y12538D02*
X12490Y12558D01*
X12510Y12538D01*
X12490Y12518D01*
X12470Y12538D01*
X12261Y12401D02*
X12281Y12421D01*
X12301Y12401D01*
X12281Y12381D01*
X12261Y12401D01*
X12801Y12471D02*
X12821Y12491D01*
X12841Y12471D01*
X12821Y12451D01*
X12801Y12471D01*
X12821Y12441D02*
X12841Y12461D01*
X12861Y12441D01*
X12841Y12421D01*
X12821Y12441D01*
X13124Y12431D02*
X13144Y12451D01*
X13164Y12431D01*
X13144Y12411D01*
X13124Y12431D01*
X13010Y12431D02*
X13030Y12451D01*
X13050Y12431D01*
X13030Y12411D01*
X13010Y12431D01*
X12853Y12404D02*
X12873Y12424D01*
X12893Y12404D01*
X12873Y12384D01*
X12853Y12404D01*
X12987Y12771D02*
X13007Y12791D01*
X13027Y12771D01*
X13007Y12751D01*
X12987Y12771D01*
X12592D02*
X12612Y12791D01*
X12632Y12771D01*
X12612Y12751D01*
X12592Y12771D01*
X12644Y12869D02*
X12664Y12889D01*
X12684Y12869D01*
X12664Y12849D01*
X12644Y12869D01*
X12957Y12738D02*
X12977Y12758D01*
X12997Y12738D01*
X12977Y12718D01*
X12957Y12738D01*
X12853Y12830D02*
X12873Y12850D01*
X12893Y12830D01*
X12873Y12810D01*
X12853Y12830D01*
X12539Y12741D02*
X12559Y12761D01*
X12579Y12741D01*
X12559Y12721D01*
X12539Y12741D01*
X12566Y12830D02*
X12586Y12850D01*
X12606Y12830D01*
X12586Y12810D01*
X12566Y12830D01*
X12961Y13682D02*
X12981Y13702D01*
X13001Y13682D01*
X12981Y13662D01*
X12961Y13682D01*
X12504Y13322D02*
X12524Y13342D01*
X12544Y13322D01*
X12524Y13302D01*
X12504Y13322D01*
X12213Y12865D02*
X12233Y12885D01*
X12253Y12865D01*
X12233Y12845D01*
X12213Y12865D01*
X11849Y14390D02*
X11869Y14410D01*
X11889Y14390D01*
X11869Y14370D01*
X11849Y14390D01*
X11939Y14620D02*
X11959Y14640D01*
X11979Y14620D01*
X11959Y14600D01*
X11939Y14620D01*
X12898Y14269D02*
X12918Y14289D01*
X12938Y14269D01*
X12918Y14249D01*
X12898Y14269D01*
X12942Y13971D02*
X12962Y13991D01*
X12982Y13971D01*
X12962Y13951D01*
X12942Y13971D01*
X12941Y14005D02*
X12961Y14025D01*
X12981Y14005D01*
X12961Y13985D01*
X12941Y14005D01*
X12566Y13186D02*
X12586Y13206D01*
X12606Y13186D01*
X12586Y13166D01*
X12566Y13186D01*
Y13073D02*
X12586Y13093D01*
X12606Y13073D01*
X12586Y13053D01*
X12566Y13073D01*
Y13005D02*
X12586Y13025D01*
X12606Y13005D01*
X12586Y12985D01*
X12566Y13005D01*
X12465Y12983D02*
X12485Y13003D01*
X12505Y12983D01*
X12485Y12963D01*
X12465Y12983D01*
X12444Y13150D02*
X12464Y13170D01*
X12484Y13150D01*
X12464Y13130D01*
X12444Y13150D01*
X12919Y12716D02*
X12939Y12736D01*
X12959Y12716D01*
X12939Y12696D01*
X12919Y12716D01*
X12478Y12717D02*
X12498Y12737D01*
X12518Y12717D01*
X12498Y12697D01*
X12478Y12717D01*
X13185Y14251D02*
X13205Y14271D01*
X13225Y14251D01*
X13205Y14231D01*
X13185Y14251D01*
X12895Y14193D02*
X12915Y14213D01*
X12935Y14193D01*
X12915Y14173D01*
X12895Y14193D01*
X13118Y14132D02*
X13138Y14152D01*
X13158Y14132D01*
X13138Y14112D01*
X13118Y14132D01*
X13959Y12102D02*
X13979Y12122D01*
X13999Y12102D01*
X13979Y12082D01*
X13959Y12102D01*
X11874Y12098D02*
X11894Y12118D01*
X11914Y12098D01*
X11894Y12078D01*
X11874Y12098D01*
X13695Y14294D02*
X13715Y14314D01*
X13735Y14294D01*
X13715Y14274D01*
X13695Y14294D01*
X13219D02*
X13239Y14314D01*
X13259Y14294D01*
X13239Y14274D01*
X13219Y14294D01*
X13399Y14438D02*
X13419Y14458D01*
X13439Y14438D01*
X13419Y14418D01*
X13399Y14438D01*
Y14352D02*
X13419Y14372D01*
X13439Y14352D01*
X13419Y14332D01*
X13399Y14352D01*
X13753Y13693D02*
X13773Y13713D01*
X13793Y13693D01*
X13773Y13673D01*
X13753Y13693D01*
X13506Y13739D02*
X13526Y13759D01*
X13546Y13739D01*
X13526Y13719D01*
X13506Y13739D01*
X13581Y14068D02*
X13601Y14088D01*
X13621Y14068D01*
X13601Y14048D01*
X13581Y14068D01*
X13395Y14066D02*
X13415Y14086D01*
X13435Y14066D01*
X13415Y14046D01*
X13395Y14066D01*
X13617Y14033D02*
X13637Y14053D01*
X13657Y14033D01*
X13637Y14013D01*
X13617Y14033D01*
X13616Y13943D02*
X13636Y13963D01*
X13656Y13943D01*
X13636Y13923D01*
X13616Y13943D01*
X13609Y13874D02*
X13629Y13894D01*
X13649Y13874D01*
X13629Y13854D01*
X13609Y13874D01*
X13712Y13719D02*
X13732Y13739D01*
X13752Y13719D01*
X13732Y13699D01*
X13712Y13719D01*
X13673D02*
X13693Y13739D01*
X13713Y13719D01*
X13693Y13699D01*
X13673Y13719D01*
X13521Y13576D02*
X13541Y13596D01*
X13561Y13576D01*
X13541Y13556D01*
X13521Y13576D01*
X13582Y13581D02*
X13602Y13601D01*
X13622Y13581D01*
X13602Y13561D01*
X13582Y13581D01*
X13545Y13731D02*
X13565Y13751D01*
X13585Y13731D01*
X13565Y13711D01*
X13545Y13731D01*
X13558Y13942D02*
X13578Y13962D01*
X13598Y13942D01*
X13578Y13922D01*
X13558Y13942D01*
X13579Y13734D02*
X13599Y13754D01*
X13619Y13734D01*
X13599Y13714D01*
X13579Y13734D01*
X13619Y13731D02*
X13639Y13751D01*
X13659Y13731D01*
X13639Y13711D01*
X13619Y13731D01*
X13387Y13542D02*
X13407Y13562D01*
X13427Y13542D01*
X13407Y13522D01*
X13387Y13542D01*
X13393Y13732D02*
X13413Y13752D01*
X13433Y13732D01*
X13413Y13712D01*
X13393Y13732D01*
X13252Y13704D02*
X13272Y13724D01*
X13292Y13704D01*
X13272Y13684D01*
X13252Y13704D01*
X13218D02*
X13238Y13724D01*
X13258Y13704D01*
X13238Y13684D01*
X13218Y13704D01*
X13303Y13747D02*
X13323Y13767D01*
X13343Y13747D01*
X13323Y13727D01*
X13303Y13747D01*
X13343Y13728D02*
X13363Y13748D01*
X13383Y13728D01*
X13363Y13708D01*
X13343Y13728D01*
X13101Y13688D02*
X13121Y13708D01*
X13141Y13688D01*
X13121Y13668D01*
X13101Y13688D01*
X13022Y13542D02*
X13042Y13562D01*
X13062Y13542D01*
X13042Y13522D01*
X13022Y13542D01*
X13027Y13680D02*
X13047Y13700D01*
X13067Y13680D01*
X13047Y13660D01*
X13027Y13680D01*
X13410Y13908D02*
X13430Y13928D01*
X13450Y13908D01*
X13430Y13888D01*
X13410Y13908D01*
X12512Y12777D02*
X12532Y12797D01*
X12552Y12777D01*
X12532Y12757D01*
X12512Y12777D01*
X12427Y13051D02*
X12447Y13071D01*
X12467Y13051D01*
X12447Y13031D01*
X12427Y13051D01*
X12402Y12777D02*
X12422Y12797D01*
X12442Y12777D01*
X12422Y12757D01*
X12402Y12777D01*
X12436Y13688D02*
X12456Y13708D01*
X12476Y13688D01*
X12456Y13668D01*
X12436Y13688D01*
X12582Y13687D02*
X12602Y13707D01*
X12622Y13687D01*
X12602Y13667D01*
X12582Y13687D01*
X12853Y13848D02*
X12873Y13868D01*
X12893Y13848D01*
X12873Y13828D01*
X12853Y13848D01*
X12501Y13830D02*
X12521Y13850D01*
X12541Y13830D01*
X12521Y13810D01*
X12501Y13830D01*
X13094Y13819D02*
X13114Y13839D01*
X13134Y13819D01*
X13114Y13799D01*
X13094Y13819D01*
X13142Y13818D02*
X13162Y13838D01*
X13182Y13818D01*
X13162Y13798D01*
X13142Y13818D01*
X12656Y13906D02*
X12676Y13926D01*
X12696Y13906D01*
X12676Y13886D01*
X12656Y13906D01*
X12621Y13875D02*
X12641Y13895D01*
X12661Y13875D01*
X12641Y13855D01*
X12621Y13875D01*
X12779Y13850D02*
X12799Y13870D01*
X12819Y13850D01*
X12799Y13830D01*
X12779Y13850D01*
X12556Y13853D02*
X12576Y13873D01*
X12596Y13853D01*
X12576Y13833D01*
X12556Y13853D01*
X12950Y13903D02*
X12970Y13923D01*
X12990Y13903D01*
X12970Y13883D01*
X12950Y13903D01*
X12868Y13880D02*
X12888Y13900D01*
X12908Y13880D01*
X12888Y13860D01*
X12868Y13880D01*
X12996Y13826D02*
X13016Y13846D01*
X13036Y13826D01*
X13016Y13806D01*
X12996Y13826D01*
X13150Y13705D02*
X13170Y13725D01*
X13190Y13705D01*
X13170Y13685D01*
X13150Y13705D01*
X11865Y12513D02*
X11885Y12533D01*
X11905Y12513D01*
X11885Y12493D01*
X11865Y12513D01*
X12195Y12586D02*
X12215Y12606D01*
X12235Y12586D01*
X12215Y12566D01*
X12195Y12586D01*
X12696Y12589D02*
X12716Y12609D01*
X12736Y12589D01*
X12716Y12569D01*
X12696Y12589D01*
X12459Y14095D02*
X12479Y14115D01*
X12499Y14095D01*
X12479Y14075D01*
X12459Y14095D01*
X12495Y14064D02*
X12515Y14084D01*
X12535Y14064D01*
X12515Y14044D01*
X12495Y14064D01*
X13799Y14102D02*
X13819Y14122D01*
X13839Y14102D01*
X13819Y14082D01*
X13799Y14102D01*
X13452Y14248D02*
X13472Y14268D01*
X13492Y14248D01*
X13472Y14228D01*
X13452Y14248D01*
D103*
X11968Y13839D02*
G03*
X11968Y13839I-20J0D01*
G01*
X12048D02*
G03*
X12048Y13839I-20J0D01*
G01*
X13555Y12689D02*
G03*
X13555Y12689I-20J0D01*
G01*
X13634D02*
G03*
X13634Y12689I-20J0D01*
G01*
X13819D02*
G03*
X13819Y12689I-20J0D01*
G01*
X13898D02*
G03*
X13898Y12689I-20J0D01*
G01*
M02*
