G04 Layer_Color=8150272*
%FSLAX23Y23*%
%MOIN*%
G70*
G01*
G75*
%ADD65R,0.053X0.059*%
%ADD74R,0.047X0.059*%
%ADD78R,0.059X0.047*%
%ADD81C,0.068*%
%ADD82O,0.068X0.128*%
%ADD83C,0.042*%
%ADD84R,0.058X0.058*%
%ADD85C,0.058*%
%ADD86C,0.075*%
%ADD87R,0.075X0.075*%
%ADD88C,0.008*%
%ADD89R,0.057X0.069*%
%ADD90R,0.071X0.063*%
%ADD91R,0.065X0.059*%
%ADD92R,0.083X0.083*%
%ADD93R,0.024X0.061*%
%ADD94R,0.168X0.098*%
%ADD95R,0.057X0.063*%
%ADD96R,0.048X0.054*%
%ADD97R,0.058X0.024*%
%ADD98R,0.024X0.058*%
G04:AMPARAMS|DCode=99|XSize=68mil|YSize=39mil|CornerRadius=12mil|HoleSize=0mil|Usage=FLASHONLY|Rotation=0.000|XOffset=0mil|YOffset=0mil|HoleType=Round|Shape=RoundedRectangle|*
%AMROUNDEDRECTD99*
21,1,0.068,0.016,0,0,0.0*
21,1,0.044,0.039,0,0,0.0*
1,1,0.024,0.022,-0.008*
1,1,0.024,-0.022,-0.008*
1,1,0.024,-0.022,0.008*
1,1,0.024,0.022,0.008*
%
%ADD99ROUNDEDRECTD99*%
%ADD100R,0.055X0.065*%
D65*
X11875Y12677D02*
D03*
X11964D02*
D03*
X12111D02*
D03*
X12023D02*
D03*
X11953Y12513D02*
D03*
X11864D02*
D03*
D74*
X12591Y12281D02*
D03*
X12651D02*
D03*
D78*
X13011Y13996D02*
D03*
Y13937D02*
D03*
X13067Y14287D02*
D03*
X13067Y14347D02*
D03*
D81*
X12323Y13646D02*
D03*
Y13449D02*
D03*
X13721Y13871D02*
D03*
X13821D02*
D03*
X13921D02*
D03*
Y13771D02*
D03*
X13821D02*
D03*
X13721D02*
D03*
X13501Y12451D02*
D03*
X13601D02*
D03*
X13701D02*
D03*
Y12351D02*
D03*
X13601D02*
D03*
X13501D02*
D03*
D82*
X11948Y13839D02*
D03*
X12028D02*
D03*
X13535Y12689D02*
D03*
X13614D02*
D03*
X13799D02*
D03*
X13878D02*
D03*
D83*
X11929Y12943D02*
D03*
X12048D02*
D03*
D84*
X12685Y13465D02*
D03*
D85*
Y13395D02*
D03*
Y13325D02*
D03*
Y13255D02*
D03*
Y13185D02*
D03*
Y13115D02*
D03*
Y13045D02*
D03*
Y12975D02*
D03*
X13181Y13465D02*
D03*
Y13395D02*
D03*
Y13325D02*
D03*
Y13255D02*
D03*
Y13185D02*
D03*
Y13115D02*
D03*
Y13045D02*
D03*
Y12975D02*
D03*
D86*
X13964Y12942D02*
D03*
Y13042D02*
D03*
Y13142D02*
D03*
Y13242D02*
D03*
Y13342D02*
D03*
Y13442D02*
D03*
Y13542D02*
D03*
Y13642D02*
D03*
X13464Y12942D02*
D03*
Y13042D02*
D03*
Y13142D02*
D03*
Y13242D02*
D03*
Y13342D02*
D03*
Y13442D02*
D03*
Y13542D02*
D03*
X12981Y12201D02*
D03*
X12781D02*
D03*
X12881D02*
D03*
X12381D02*
D03*
X12481D02*
D03*
X12681D02*
D03*
X12581D02*
D03*
D87*
X13464Y13642D02*
D03*
X12281Y12201D02*
D03*
D88*
X12008Y12047D02*
D03*
X13858D02*
D03*
Y14488D02*
D03*
X12008D02*
D03*
D89*
X12961Y13651D02*
D03*
X13041D02*
D03*
X12107Y12598D02*
D03*
X12027D02*
D03*
X11951D02*
D03*
X11870D02*
D03*
D90*
X12897Y14275D02*
D03*
X12645D02*
D03*
D91*
X12906Y14371D02*
D03*
X12636D02*
D03*
D92*
X12818D02*
D03*
X12724D02*
D03*
D93*
X12822Y14266D02*
D03*
X12797D02*
D03*
X12771D02*
D03*
X12745D02*
D03*
X12720D02*
D03*
D94*
X11988Y13359D02*
D03*
Y13649D02*
D03*
D95*
X12670Y13529D02*
D03*
X12735D02*
D03*
D96*
X11890Y13054D02*
D03*
X11988D02*
D03*
X12087D02*
D03*
X11890Y12831D02*
D03*
X11988D02*
D03*
X12087D02*
D03*
D97*
X12442Y12600D02*
D03*
X12442Y12568D02*
D03*
Y12631D02*
D03*
Y12537D02*
D03*
Y12505D02*
D03*
Y12473D02*
D03*
Y12442D02*
D03*
X12442Y12410D02*
D03*
X12780D02*
D03*
Y12442D02*
D03*
X12780Y12473D02*
D03*
X12780Y12505D02*
D03*
Y12537D02*
D03*
Y12568D02*
D03*
Y12600D02*
D03*
Y12631D02*
D03*
D98*
X12500Y12352D02*
D03*
X12532Y12352D02*
D03*
X12563D02*
D03*
X12595Y12352D02*
D03*
X12627D02*
D03*
X12658D02*
D03*
X12690D02*
D03*
X12721Y12352D02*
D03*
X12721Y12690D02*
D03*
X12690D02*
D03*
X12658D02*
D03*
X12627D02*
D03*
X12595D02*
D03*
X12563Y12690D02*
D03*
X12532Y12690D02*
D03*
X12500D02*
D03*
D99*
X11871Y13980D02*
D03*
Y14030D02*
D03*
Y14080D02*
D03*
Y14130D02*
D03*
Y14180D02*
D03*
Y14230D02*
D03*
Y14280D02*
D03*
Y14330D02*
D03*
X14001Y14332D02*
D03*
Y14282D02*
D03*
Y14232D02*
D03*
Y14182D02*
D03*
Y14132D02*
D03*
Y14082D02*
D03*
Y14032D02*
D03*
Y13982D02*
D03*
D100*
X12036Y12512D02*
D03*
X12103D02*
D03*
M02*
