G04 Layer_Color=16770453*
%FSLAX23Y23*%
%MOIN*%
G70*
G01*
G75*
%ADD12R,0.045X0.051*%
%ADD21R,0.039X0.051*%
%ADD25R,0.051X0.039*%
%ADD43R,0.049X0.061*%
%ADD44R,0.063X0.055*%
%ADD45R,0.057X0.051*%
%ADD46R,0.075X0.075*%
%ADD47R,0.016X0.053*%
%ADD48R,0.160X0.090*%
%ADD49R,0.049X0.055*%
%ADD50R,0.040X0.046*%
%ADD51R,0.050X0.016*%
%ADD52R,0.016X0.050*%
G04:AMPARAMS|DCode=53|XSize=60mil|YSize=31mil|CornerRadius=8mil|HoleSize=0mil|Usage=FLASHONLY|Rotation=0.000|XOffset=0mil|YOffset=0mil|HoleType=Round|Shape=RoundedRectangle|*
%AMROUNDEDRECTD53*
21,1,0.060,0.016,0,0,0.0*
21,1,0.044,0.031,0,0,0.0*
1,1,0.016,0.022,-0.008*
1,1,0.016,-0.022,-0.008*
1,1,0.016,-0.022,0.008*
1,1,0.016,0.022,0.008*
%
%ADD53ROUNDEDRECTD53*%
%ADD54R,0.047X0.057*%
D12*
X11875Y12677D02*
D03*
X11964D02*
D03*
X12111D02*
D03*
X12023D02*
D03*
X11953Y12513D02*
D03*
X11864D02*
D03*
D21*
X12591Y12281D02*
D03*
X12651D02*
D03*
D25*
X13011Y13996D02*
D03*
Y13937D02*
D03*
X13067Y14287D02*
D03*
X13067Y14347D02*
D03*
D43*
X12961Y13651D02*
D03*
X13041D02*
D03*
X12107Y12598D02*
D03*
X12027D02*
D03*
X11951D02*
D03*
X11870D02*
D03*
D44*
X12897Y14275D02*
D03*
X12645D02*
D03*
D45*
X12906Y14371D02*
D03*
X12636D02*
D03*
D46*
X12818D02*
D03*
X12724D02*
D03*
D47*
X12822Y14266D02*
D03*
X12797D02*
D03*
X12771D02*
D03*
X12745D02*
D03*
X12720D02*
D03*
D48*
X11988Y13359D02*
D03*
Y13649D02*
D03*
D49*
X12670Y13529D02*
D03*
X12735D02*
D03*
D50*
X11890Y13054D02*
D03*
X11988D02*
D03*
X12087D02*
D03*
X11890Y12831D02*
D03*
X11988D02*
D03*
X12087D02*
D03*
D51*
X12442Y12600D02*
D03*
X12442Y12568D02*
D03*
Y12631D02*
D03*
Y12537D02*
D03*
Y12505D02*
D03*
Y12473D02*
D03*
Y12442D02*
D03*
X12442Y12410D02*
D03*
X12780D02*
D03*
Y12442D02*
D03*
X12780Y12473D02*
D03*
X12780Y12505D02*
D03*
Y12537D02*
D03*
Y12568D02*
D03*
Y12600D02*
D03*
Y12631D02*
D03*
D52*
X12500Y12352D02*
D03*
X12532Y12352D02*
D03*
X12563D02*
D03*
X12595Y12352D02*
D03*
X12627D02*
D03*
X12658D02*
D03*
X12690D02*
D03*
X12721Y12352D02*
D03*
X12721Y12690D02*
D03*
X12690D02*
D03*
X12658D02*
D03*
X12627D02*
D03*
X12595D02*
D03*
X12563Y12690D02*
D03*
X12532Y12690D02*
D03*
X12500D02*
D03*
D53*
X11871Y13980D02*
D03*
Y14030D02*
D03*
Y14080D02*
D03*
Y14130D02*
D03*
Y14180D02*
D03*
Y14230D02*
D03*
Y14280D02*
D03*
Y14330D02*
D03*
X14001Y14332D02*
D03*
Y14282D02*
D03*
Y14232D02*
D03*
Y14182D02*
D03*
Y14132D02*
D03*
Y14082D02*
D03*
Y14032D02*
D03*
Y13982D02*
D03*
D54*
X12036Y12512D02*
D03*
X12103D02*
D03*
M02*
