G04 Layer_Color=11619584*
%FSLAX23Y23*%
%MOIN*%
G70*
G01*
G75*
G36*
X12861Y12568D02*
X12859D01*
Y12576D01*
X12845D01*
Y12578D01*
X12861D01*
Y12568D01*
D02*
G37*
G36*
X12855Y12566D02*
X12856Y12566D01*
X12856Y12566D01*
X12856Y12566D01*
X12857Y12566D01*
X12857Y12565D01*
X12857Y12565D01*
X12858Y12565D01*
X12858Y12565D01*
X12858Y12565D01*
X12858Y12565D01*
X12858Y12565D01*
X12858Y12565D01*
X12858Y12565D01*
X12858D01*
X12859Y12565D01*
X12859Y12565D01*
X12860Y12564D01*
X12860Y12564D01*
X12860Y12564D01*
X12860Y12563D01*
X12860Y12563D01*
X12860Y12563D01*
X12861Y12563D01*
Y12563D01*
X12861Y12563D01*
X12861Y12562D01*
X12861Y12561D01*
X12861Y12561D01*
X12861Y12560D01*
X12861Y12560D01*
X12861Y12560D01*
Y12560D01*
X12861Y12560D01*
Y12560D01*
Y12559D01*
Y12559D01*
X12861Y12559D01*
X12861Y12558D01*
X12861Y12558D01*
X12861Y12558D01*
X12861Y12557D01*
X12861Y12557D01*
X12861Y12557D01*
X12861Y12557D01*
X12861Y12556D01*
X12861Y12556D01*
X12861Y12556D01*
X12860Y12556D01*
X12860Y12556D01*
X12860Y12556D01*
Y12556D01*
X12860Y12555D01*
X12860Y12555D01*
X12859Y12555D01*
X12859Y12554D01*
X12859Y12554D01*
X12858Y12554D01*
X12858Y12554D01*
X12858Y12554D01*
X12858Y12554D01*
X12858D01*
X12858Y12554D01*
X12858Y12554D01*
X12857Y12553D01*
X12856Y12553D01*
X12856Y12553D01*
X12855Y12553D01*
X12855Y12553D01*
X12855D01*
X12855Y12553D01*
X12845D01*
Y12555D01*
X12855D01*
X12855Y12555D01*
X12856Y12555D01*
X12856Y12556D01*
X12857Y12556D01*
X12857Y12556D01*
X12857Y12556D01*
X12857Y12556D01*
X12858Y12556D01*
X12858Y12556D01*
X12858Y12556D01*
X12858Y12556D01*
X12858Y12556D01*
X12858Y12556D01*
X12858Y12556D01*
X12858Y12556D01*
X12859Y12557D01*
X12859Y12557D01*
X12859Y12557D01*
X12859Y12558D01*
X12859Y12558D01*
X12859Y12559D01*
X12859Y12559D01*
Y12559D01*
X12859Y12559D01*
Y12560D01*
Y12560D01*
Y12560D01*
X12859Y12560D01*
X12859Y12561D01*
X12859Y12561D01*
X12859Y12561D01*
X12859Y12562D01*
X12859Y12562D01*
X12859Y12562D01*
X12859Y12562D01*
X12859Y12562D01*
X12858Y12563D01*
X12858Y12563D01*
X12858Y12563D01*
X12858Y12563D01*
X12858Y12563D01*
X12857Y12563D01*
X12857Y12563D01*
X12857Y12563D01*
X12857Y12563D01*
X12856Y12563D01*
X12856Y12564D01*
X12855Y12564D01*
X12855Y12564D01*
X12855D01*
X12855Y12564D01*
X12845D01*
Y12566D01*
X12855D01*
X12855Y12566D01*
D02*
G37*
G36*
X12861Y12538D02*
X12859D01*
Y12548D01*
X12854D01*
Y12539D01*
X12852D01*
Y12548D01*
X12847D01*
Y12538D01*
X12845D01*
Y12550D01*
X12861D01*
Y12538D01*
D02*
G37*
G36*
Y12592D02*
X12856Y12591D01*
Y12584D01*
X12861Y12582D01*
Y12580D01*
X12845Y12586D01*
Y12589D01*
X12861Y12595D01*
Y12592D01*
D02*
G37*
G36*
X12854Y12611D02*
X12852D01*
X12848Y12621D01*
X12850D01*
X12853Y12613D01*
X12857Y12621D01*
X12859D01*
X12854Y12611D01*
D02*
G37*
G36*
X12861Y12603D02*
Y12601D01*
X12845Y12595D01*
Y12597D01*
X12857Y12601D01*
X12857Y12601D01*
X12858Y12602D01*
X12858Y12602D01*
X12858Y12602D01*
X12859Y12602D01*
X12859Y12602D01*
X12859Y12602D01*
X12859Y12602D01*
X12859Y12602D01*
X12859D01*
X12858Y12602D01*
X12858Y12602D01*
X12858Y12603D01*
X12857Y12603D01*
X12857Y12603D01*
X12857Y12603D01*
X12857Y12603D01*
X12857Y12603D01*
X12857Y12603D01*
X12857D01*
X12845Y12607D01*
Y12609D01*
X12861Y12603D01*
D02*
G37*
G36*
X13922Y12785D02*
X13915D01*
X13902Y12821D01*
Y12821D01*
X13902Y12821D01*
X13902Y12822D01*
X13902Y12822D01*
X13902Y12822D01*
X13902Y12823D01*
X13901Y12824D01*
X13901Y12825D01*
X13900Y12826D01*
X13900Y12829D01*
Y12829D01*
X13900Y12829D01*
X13899Y12829D01*
X13899Y12829D01*
X13899Y12828D01*
X13899Y12827D01*
X13898Y12825D01*
X13898Y12824D01*
X13898Y12823D01*
X13897Y12821D01*
X13883Y12785D01*
X13877D01*
X13896Y12835D01*
X13903D01*
X13922Y12785D01*
D02*
G37*
G36*
X13593D02*
X13586D01*
X13566Y12835D01*
X13573D01*
X13579Y12820D01*
X13600D01*
X13605Y12835D01*
X13612D01*
X13593Y12785D01*
D02*
G37*
G36*
X13472D02*
X13436D01*
Y12791D01*
X13465D01*
Y12806D01*
X13438D01*
Y12812D01*
X13465D01*
Y12829D01*
X13435D01*
Y12835D01*
X13472D01*
Y12785D01*
D02*
G37*
G36*
X13857D02*
X13850D01*
X13830Y12835D01*
X13837D01*
X13843Y12820D01*
X13864D01*
X13869Y12835D01*
X13876D01*
X13857Y12785D01*
D02*
G37*
G36*
X13959Y12821D02*
X13933Y12810D01*
X13959Y12800D01*
Y12793D01*
X13926Y12807D01*
Y12813D01*
X13959Y12827D01*
Y12821D01*
D02*
G37*
G36*
X13504Y12835D02*
X13504D01*
X13505Y12835D01*
X13506Y12835D01*
X13506Y12835D01*
X13508Y12835D01*
X13510Y12835D01*
X13512Y12834D01*
X13514Y12833D01*
X13514D01*
X13514Y12833D01*
X13514Y12833D01*
X13514Y12833D01*
X13515Y12832D01*
X13516Y12831D01*
X13517Y12830D01*
X13518Y12829D01*
X13519Y12828D01*
X13520Y12826D01*
Y12826D01*
X13520Y12826D01*
X13520Y12826D01*
X13520Y12825D01*
X13521Y12825D01*
X13521Y12824D01*
X13521Y12824D01*
X13521Y12823D01*
X13521Y12822D01*
X13521Y12821D01*
X13522Y12820D01*
X13522Y12819D01*
X13522Y12818D01*
X13522Y12817D01*
X13522Y12815D01*
Y12814D01*
Y12785D01*
X13515D01*
Y12814D01*
Y12814D01*
Y12814D01*
Y12814D01*
Y12815D01*
X13515Y12815D01*
Y12816D01*
X13515Y12817D01*
X13515Y12819D01*
X13515Y12820D01*
X13515Y12822D01*
X13514Y12823D01*
X13514Y12823D01*
X13514Y12823D01*
X13514Y12824D01*
X13514Y12824D01*
X13513Y12825D01*
X13513Y12826D01*
X13512Y12827D01*
X13511Y12827D01*
X13510Y12828D01*
X13510Y12828D01*
X13510Y12828D01*
X13509Y12828D01*
X13508Y12829D01*
X13507Y12829D01*
X13506Y12829D01*
X13504Y12830D01*
X13503Y12830D01*
X13502D01*
X13502Y12830D01*
X13501D01*
X13501Y12829D01*
X13499Y12829D01*
X13497Y12829D01*
X13496Y12828D01*
X13494Y12827D01*
X13493Y12827D01*
X13493Y12826D01*
X13493Y12826D01*
X13492Y12826D01*
X13492Y12826D01*
X13492Y12826D01*
X13492Y12825D01*
X13492Y12825D01*
X13491Y12824D01*
X13491Y12824D01*
X13491Y12823D01*
X13491Y12822D01*
X13490Y12821D01*
X13490Y12820D01*
X13490Y12818D01*
X13490Y12817D01*
X13490Y12815D01*
Y12814D01*
Y12785D01*
X13483D01*
Y12814D01*
Y12814D01*
Y12814D01*
Y12814D01*
Y12815D01*
X13483Y12816D01*
Y12816D01*
X13483Y12817D01*
X13483Y12818D01*
X13483Y12820D01*
X13484Y12822D01*
X13484Y12824D01*
X13484Y12825D01*
X13485Y12826D01*
Y12826D01*
X13485Y12826D01*
X13485Y12826D01*
X13485Y12826D01*
X13485Y12827D01*
X13486Y12828D01*
X13487Y12829D01*
X13488Y12831D01*
X13489Y12832D01*
X13491Y12833D01*
X13491D01*
X13491Y12833D01*
X13491Y12833D01*
X13492Y12833D01*
X13492Y12833D01*
X13493Y12834D01*
X13493Y12834D01*
X13494Y12834D01*
X13495Y12834D01*
X13496Y12835D01*
X13496Y12835D01*
X13498Y12835D01*
X13499Y12835D01*
X13500Y12835D01*
X13502Y12836D01*
X13503D01*
X13504Y12835D01*
D02*
G37*
G36*
X13695Y12821D02*
X13669Y12810D01*
X13695Y12800D01*
Y12793D01*
X13662Y12807D01*
Y12813D01*
X13695Y12827D01*
Y12821D01*
D02*
G37*
G36*
X13658Y12785D02*
X13651D01*
X13638Y12821D01*
Y12821D01*
X13638Y12821D01*
X13638Y12822D01*
X13638Y12822D01*
X13638Y12822D01*
X13638Y12823D01*
X13637Y12824D01*
X13637Y12825D01*
X13636Y12826D01*
X13636Y12829D01*
Y12829D01*
X13636Y12829D01*
X13635Y12829D01*
X13635Y12829D01*
X13635Y12828D01*
X13635Y12827D01*
X13634Y12825D01*
X13634Y12824D01*
X13634Y12823D01*
X13633Y12821D01*
X13619Y12785D01*
X13613D01*
X13632Y12835D01*
X13639D01*
X13658Y12785D01*
D02*
G37*
G36*
X13561D02*
X13554D01*
Y12829D01*
X13530D01*
Y12835D01*
X13561D01*
Y12785D01*
D02*
G37*
G36*
X11974Y13935D02*
X11967D01*
Y13978D01*
X11943D01*
Y13984D01*
X11974D01*
Y13935D01*
D02*
G37*
G36*
X11917Y13985D02*
X11917D01*
X11918Y13985D01*
X11919Y13985D01*
X11920Y13985D01*
X11921Y13985D01*
X11923Y13984D01*
X11925Y13984D01*
X11927Y13983D01*
X11927D01*
X11927Y13983D01*
X11927Y13982D01*
X11928Y13982D01*
X11928Y13982D01*
X11929Y13981D01*
X11930Y13980D01*
X11931Y13979D01*
X11932Y13977D01*
X11933Y13976D01*
Y13976D01*
X11933Y13976D01*
X11933Y13975D01*
X11934Y13975D01*
X11934Y13975D01*
X11934Y13974D01*
X11934Y13973D01*
X11934Y13972D01*
X11934Y13972D01*
X11935Y13971D01*
X11935Y13970D01*
X11935Y13969D01*
X11935Y13967D01*
X11935Y13966D01*
X11935Y13965D01*
Y13963D01*
Y13935D01*
X11929D01*
Y13963D01*
Y13963D01*
Y13964D01*
Y13964D01*
Y13964D01*
X11928Y13965D01*
Y13966D01*
X11928Y13967D01*
X11928Y13968D01*
X11928Y13970D01*
X11928Y13972D01*
X11928Y13972D01*
X11927Y13973D01*
X11927Y13973D01*
X11927Y13973D01*
X11927Y13974D01*
X11926Y13975D01*
X11926Y13975D01*
X11925Y13976D01*
X11924Y13977D01*
X11923Y13978D01*
X11923Y13978D01*
X11923Y13978D01*
X11922Y13978D01*
X11921Y13978D01*
X11920Y13979D01*
X11919Y13979D01*
X11918Y13979D01*
X11916Y13979D01*
X11915D01*
X11915Y13979D01*
X11914D01*
X11914Y13979D01*
X11912Y13979D01*
X11910Y13978D01*
X11909Y13978D01*
X11907Y13977D01*
X11906Y13977D01*
X11906Y13976D01*
X11906Y13976D01*
X11906Y13976D01*
X11906Y13976D01*
X11905Y13975D01*
X11905Y13975D01*
X11905Y13974D01*
X11904Y13974D01*
X11904Y13973D01*
X11904Y13972D01*
X11904Y13971D01*
X11903Y13970D01*
X11903Y13969D01*
X11903Y13968D01*
X11903Y13967D01*
X11903Y13965D01*
Y13963D01*
Y13935D01*
X11896D01*
Y13963D01*
Y13963D01*
Y13964D01*
Y13964D01*
Y13965D01*
X11896Y13965D01*
Y13966D01*
X11896Y13967D01*
X11896Y13968D01*
X11897Y13970D01*
X11897Y13972D01*
X11897Y13973D01*
X11898Y13974D01*
X11898Y13975D01*
Y13975D01*
X11898Y13976D01*
X11898Y13976D01*
X11898Y13976D01*
X11899Y13977D01*
X11899Y13978D01*
X11900Y13979D01*
X11901Y13980D01*
X11902Y13981D01*
X11904Y13982D01*
X11904D01*
X11904Y13983D01*
X11904Y13983D01*
X11905Y13983D01*
X11905Y13983D01*
X11906Y13983D01*
X11906Y13983D01*
X11907Y13984D01*
X11908Y13984D01*
X11909Y13984D01*
X11910Y13984D01*
X11911Y13985D01*
X11912Y13985D01*
X11913Y13985D01*
X11916Y13985D01*
X11916D01*
X11917Y13985D01*
D02*
G37*
G36*
X11885Y13935D02*
X11849D01*
Y13941D01*
X11878D01*
Y13956D01*
X11851D01*
Y13962D01*
X11878D01*
Y13978D01*
X11848D01*
Y13984D01*
X11885D01*
Y13935D01*
D02*
G37*
G36*
X12071D02*
X12064D01*
X12051Y13971D01*
Y13971D01*
X12051Y13971D01*
X12051Y13971D01*
X12051Y13971D01*
X12051Y13972D01*
X12051Y13972D01*
X12050Y13973D01*
X12050Y13975D01*
X12050Y13976D01*
X12049Y13979D01*
Y13979D01*
X12049Y13979D01*
X12049Y13978D01*
X12049Y13978D01*
X12048Y13977D01*
X12048Y13976D01*
X12048Y13975D01*
X12047Y13974D01*
X12047Y13972D01*
X12046Y13971D01*
X12033Y13935D01*
X12026D01*
X12045Y13984D01*
X12052D01*
X12071Y13935D01*
D02*
G37*
G36*
X12007D02*
X11999D01*
X11979Y13984D01*
X11987D01*
X11992Y13969D01*
X12013D01*
X12018Y13984D01*
X12025D01*
X12007Y13935D01*
D02*
G37*
G36*
X12108Y13971D02*
X12082Y13960D01*
X12108Y13949D01*
Y13943D01*
X12076Y13957D01*
Y13963D01*
X12108Y13977D01*
Y13971D01*
D02*
G37*
G36*
X13736Y12785D02*
X13700D01*
Y12791D01*
X13729D01*
Y12806D01*
X13702D01*
Y12812D01*
X13729D01*
Y12829D01*
X13699D01*
Y12835D01*
X13736D01*
Y12785D01*
D02*
G37*
G36*
X12071Y12898D02*
X12072Y12898D01*
X12072Y12898D01*
X12073Y12898D01*
X12073Y12898D01*
X12073Y12898D01*
X12073Y12898D01*
X12073Y12897D01*
X12074Y12897D01*
X12074Y12897D01*
X12074Y12897D01*
X12074Y12897D01*
X12074D01*
X12074Y12897D01*
X12075Y12896D01*
X12075Y12896D01*
X12075Y12895D01*
X12075Y12895D01*
X12075Y12895D01*
X12075Y12895D01*
X12076Y12895D01*
X12076Y12895D01*
X12076Y12894D01*
Y12894D01*
X12074Y12894D01*
X12073Y12895D01*
X12073Y12895D01*
X12073Y12895D01*
X12073Y12896D01*
X12073Y12896D01*
X12072Y12896D01*
X12072Y12896D01*
X12072Y12896D01*
X12072Y12896D01*
X12072Y12896D01*
X12071Y12896D01*
X12071Y12896D01*
X12071Y12897D01*
X12071Y12897D01*
X12071D01*
X12070Y12897D01*
X12070Y12897D01*
X12070Y12896D01*
X12069Y12896D01*
X12069Y12896D01*
X12068Y12896D01*
X12068Y12896D01*
X12068Y12896D01*
X12068Y12896D01*
X12068D01*
X12068Y12895D01*
X12068Y12895D01*
X12067Y12894D01*
X12067Y12894D01*
X12067Y12893D01*
X12067Y12893D01*
X12067Y12893D01*
Y12893D01*
X12067Y12893D01*
Y12893D01*
Y12893D01*
X12076D01*
X12076Y12892D01*
Y12892D01*
Y12892D01*
Y12892D01*
X12076Y12892D01*
X12076Y12891D01*
X12075Y12891D01*
X12075Y12890D01*
X12075Y12890D01*
X12075Y12890D01*
X12075Y12889D01*
X12075Y12889D01*
X12075Y12889D01*
X12075Y12888D01*
X12075Y12888D01*
X12074Y12888D01*
X12074Y12888D01*
X12074Y12888D01*
X12074Y12888D01*
X12074Y12888D01*
X12074Y12887D01*
X12074Y12887D01*
X12073Y12887D01*
X12073Y12887D01*
X12073Y12887D01*
X12072Y12887D01*
X12072Y12886D01*
X12072Y12886D01*
X12071Y12886D01*
X12071Y12886D01*
X12071Y12886D01*
X12071Y12886D01*
X12071Y12886D01*
X12070D01*
X12070Y12886D01*
X12070Y12886D01*
X12069Y12886D01*
X12069Y12886D01*
X12068Y12887D01*
X12068Y12887D01*
X12068Y12887D01*
X12068Y12887D01*
X12067Y12887D01*
X12067Y12887D01*
X12067Y12887D01*
X12067Y12888D01*
X12067Y12888D01*
X12067Y12888D01*
X12067Y12888D01*
X12067Y12888D01*
X12066Y12888D01*
X12066Y12888D01*
X12066Y12889D01*
X12066Y12889D01*
X12066Y12890D01*
X12065Y12890D01*
X12065Y12891D01*
X12065Y12891D01*
X12065Y12891D01*
X12065Y12892D01*
X12065Y12892D01*
X12065Y12892D01*
Y12892D01*
Y12892D01*
Y12892D01*
X12065Y12893D01*
X12065Y12893D01*
X12065Y12894D01*
X12065Y12894D01*
X12065Y12895D01*
X12065Y12895D01*
X12066Y12895D01*
X12066Y12896D01*
X12066Y12896D01*
X12066Y12896D01*
X12066Y12896D01*
X12066Y12896D01*
X12066Y12896D01*
X12066Y12897D01*
X12066Y12897D01*
X12066Y12897D01*
X12067Y12897D01*
X12067Y12897D01*
X12067Y12897D01*
X12068Y12898D01*
X12068Y12898D01*
X12068Y12898D01*
X12069Y12898D01*
X12069Y12898D01*
X12070Y12898D01*
X12070Y12898D01*
X12070Y12898D01*
X12070Y12898D01*
X12071D01*
X12071Y12898D01*
D02*
G37*
G36*
X12019Y12891D02*
Y12889D01*
X12008Y12885D01*
Y12887D01*
X12016Y12890D01*
X12008Y12894D01*
Y12895D01*
X12019Y12891D01*
D02*
G37*
G36*
X12058Y12898D02*
X12058Y12898D01*
X12058Y12898D01*
X12059Y12898D01*
X12059Y12898D01*
X12059Y12898D01*
X12060Y12897D01*
X12060Y12897D01*
X12060Y12897D01*
X12060Y12897D01*
X12061Y12897D01*
X12061Y12897D01*
X12061Y12896D01*
X12061Y12896D01*
X12061Y12896D01*
X12061Y12896D01*
Y12898D01*
X12063D01*
Y12886D01*
X12061D01*
Y12893D01*
X12061Y12893D01*
X12061Y12894D01*
X12061Y12894D01*
X12061Y12894D01*
X12060Y12895D01*
X12060Y12895D01*
X12060Y12895D01*
X12060Y12895D01*
X12060Y12895D01*
X12060Y12895D01*
X12060Y12896D01*
X12060Y12896D01*
X12060Y12896D01*
X12059Y12896D01*
X12059Y12896D01*
X12059Y12896D01*
X12059Y12896D01*
X12059Y12896D01*
X12058Y12896D01*
X12058Y12896D01*
X12058Y12896D01*
X12058Y12896D01*
X12058D01*
X12057Y12896D01*
X12057Y12896D01*
X12057Y12896D01*
X12057Y12896D01*
X12056Y12896D01*
X12056Y12896D01*
X12056Y12896D01*
X12056Y12896D01*
X12056Y12896D01*
X12056Y12896D01*
X12056Y12895D01*
X12056Y12895D01*
X12055Y12895D01*
X12055Y12895D01*
X12055Y12895D01*
Y12895D01*
X12055Y12895D01*
X12055Y12894D01*
X12055Y12894D01*
Y12894D01*
X12055Y12893D01*
Y12893D01*
Y12893D01*
Y12893D01*
Y12893D01*
Y12893D01*
Y12886D01*
X12053D01*
Y12894D01*
Y12894D01*
X12053Y12894D01*
X12053Y12895D01*
X12053Y12895D01*
Y12895D01*
X12053Y12895D01*
X12053Y12895D01*
Y12895D01*
X12054Y12896D01*
X12054Y12896D01*
X12054Y12896D01*
X12054Y12896D01*
X12054Y12897D01*
X12054Y12897D01*
X12054Y12897D01*
X12054Y12897D01*
X12054Y12897D01*
X12054Y12897D01*
X12055Y12897D01*
X12055Y12898D01*
X12055Y12898D01*
X12055Y12898D01*
X12055Y12898D01*
X12055Y12898D01*
X12056Y12898D01*
X12056Y12898D01*
X12056Y12898D01*
X12057Y12898D01*
X12057Y12898D01*
X12057Y12898D01*
X12057D01*
X12058Y12898D01*
D02*
G37*
G36*
X12034Y12882D02*
X12032D01*
X12028Y12894D01*
X12028Y12894D01*
X12028Y12895D01*
X12028Y12895D01*
X12027Y12895D01*
X12027Y12896D01*
X12027Y12896D01*
X12027Y12896D01*
X12027Y12896D01*
X12027Y12896D01*
Y12896D01*
X12027Y12895D01*
X12027Y12895D01*
X12027Y12894D01*
X12027Y12894D01*
X12026Y12894D01*
X12026Y12894D01*
X12026Y12894D01*
X12026Y12894D01*
X12026Y12894D01*
Y12894D01*
X12022Y12882D01*
X12020D01*
X12026Y12898D01*
X12028D01*
X12034Y12882D01*
D02*
G37*
G36*
X12050D02*
X12048D01*
Y12898D01*
X12050D01*
Y12882D01*
D02*
G37*
G36*
X13768Y12835D02*
X13768D01*
X13769Y12835D01*
X13770Y12835D01*
X13770Y12835D01*
X13772Y12835D01*
X13774Y12835D01*
X13776Y12834D01*
X13778Y12833D01*
X13778D01*
X13778Y12833D01*
X13778Y12833D01*
X13778Y12833D01*
X13779Y12832D01*
X13780Y12831D01*
X13781Y12830D01*
X13782Y12829D01*
X13783Y12828D01*
X13784Y12826D01*
Y12826D01*
X13784Y12826D01*
X13784Y12826D01*
X13784Y12825D01*
X13785Y12825D01*
X13785Y12824D01*
X13785Y12824D01*
X13785Y12823D01*
X13785Y12822D01*
X13785Y12821D01*
X13786Y12820D01*
X13786Y12819D01*
X13786Y12818D01*
X13786Y12817D01*
X13786Y12815D01*
Y12814D01*
Y12785D01*
X13779D01*
Y12814D01*
Y12814D01*
Y12814D01*
Y12814D01*
Y12815D01*
X13779Y12815D01*
Y12816D01*
X13779Y12817D01*
X13779Y12819D01*
X13779Y12820D01*
X13779Y12822D01*
X13778Y12823D01*
X13778Y12823D01*
X13778Y12823D01*
X13778Y12824D01*
X13778Y12824D01*
X13777Y12825D01*
X13777Y12826D01*
X13776Y12827D01*
X13775Y12827D01*
X13774Y12828D01*
X13774Y12828D01*
X13774Y12828D01*
X13773Y12828D01*
X13772Y12829D01*
X13771Y12829D01*
X13770Y12829D01*
X13768Y12830D01*
X13767Y12830D01*
X13766D01*
X13766Y12830D01*
X13765D01*
X13765Y12829D01*
X13763Y12829D01*
X13761Y12829D01*
X13760Y12828D01*
X13758Y12827D01*
X13757Y12827D01*
X13757Y12826D01*
X13757Y12826D01*
X13756Y12826D01*
X13756Y12826D01*
X13756Y12826D01*
X13756Y12825D01*
X13756Y12825D01*
X13755Y12824D01*
X13755Y12824D01*
X13755Y12823D01*
X13755Y12822D01*
X13754Y12821D01*
X13754Y12820D01*
X13754Y12818D01*
X13754Y12817D01*
X13754Y12815D01*
Y12814D01*
Y12785D01*
X13747D01*
Y12814D01*
Y12814D01*
Y12814D01*
Y12814D01*
Y12815D01*
X13747Y12816D01*
Y12816D01*
X13747Y12817D01*
X13747Y12818D01*
X13747Y12820D01*
X13748Y12822D01*
X13748Y12824D01*
X13748Y12825D01*
X13749Y12826D01*
Y12826D01*
X13749Y12826D01*
X13749Y12826D01*
X13749Y12826D01*
X13749Y12827D01*
X13750Y12828D01*
X13751Y12829D01*
X13752Y12831D01*
X13753Y12832D01*
X13755Y12833D01*
X13755D01*
X13755Y12833D01*
X13755Y12833D01*
X13756Y12833D01*
X13756Y12833D01*
X13757Y12834D01*
X13757Y12834D01*
X13758Y12834D01*
X13759Y12834D01*
X13760Y12835D01*
X13760Y12835D01*
X13762Y12835D01*
X13763Y12835D01*
X13764Y12835D01*
X13766Y12836D01*
X13767D01*
X13768Y12835D01*
D02*
G37*
G36*
X13825Y12785D02*
X13818D01*
Y12829D01*
X13794D01*
Y12835D01*
X13825D01*
Y12785D01*
D02*
G37*
G36*
X12040Y12898D02*
X12040Y12898D01*
X12041Y12898D01*
X12041Y12898D01*
X12041Y12898D01*
X12041Y12898D01*
X12041Y12898D01*
X12042Y12898D01*
X12042Y12898D01*
X12042Y12897D01*
X12043Y12897D01*
X12043Y12897D01*
X12043Y12897D01*
X12043Y12897D01*
X12044Y12897D01*
X12044Y12896D01*
X12044D01*
X12044Y12897D01*
X12044Y12897D01*
X12044Y12897D01*
X12044Y12898D01*
X12044Y12898D01*
X12044Y12898D01*
X12044Y12898D01*
X12044Y12898D01*
X12046D01*
X12046Y12898D01*
X12046Y12897D01*
X12046Y12897D01*
X12046Y12897D01*
X12046Y12897D01*
X12046Y12897D01*
X12046Y12897D01*
Y12897D01*
X12046Y12896D01*
X12046Y12896D01*
Y12896D01*
X12045Y12896D01*
X12045Y12895D01*
Y12895D01*
X12045Y12894D01*
Y12894D01*
Y12894D01*
Y12893D01*
Y12893D01*
Y12893D01*
Y12893D01*
Y12890D01*
Y12890D01*
X12045Y12890D01*
X12045Y12889D01*
Y12889D01*
X12045Y12889D01*
X12045Y12889D01*
X12045Y12889D01*
Y12889D01*
X12045Y12888D01*
X12045Y12888D01*
X12045Y12888D01*
X12045Y12888D01*
X12045Y12888D01*
X12045Y12887D01*
X12045Y12887D01*
X12045Y12887D01*
X12045Y12887D01*
X12044Y12887D01*
X12044Y12887D01*
X12044Y12887D01*
X12044Y12887D01*
X12044Y12887D01*
X12043Y12887D01*
X12043Y12887D01*
X12043Y12886D01*
X12043Y12886D01*
X12042Y12886D01*
X12042Y12886D01*
X12041Y12886D01*
X12041Y12886D01*
X12041D01*
X12040Y12886D01*
X12040Y12886D01*
X12039Y12886D01*
X12039Y12886D01*
X12039Y12886D01*
X12039Y12887D01*
X12038Y12887D01*
X12038Y12887D01*
X12038Y12887D01*
X12038D01*
X12038Y12887D01*
X12038Y12887D01*
X12037Y12887D01*
X12037Y12887D01*
X12037Y12887D01*
X12037Y12888D01*
X12037Y12888D01*
X12037Y12888D01*
X12036Y12888D01*
X12036Y12888D01*
X12036Y12889D01*
X12036Y12889D01*
X12036Y12889D01*
X12036Y12889D01*
X12036Y12890D01*
Y12890D01*
X12036Y12890D01*
Y12890D01*
X12038Y12890D01*
X12038Y12890D01*
X12038Y12889D01*
X12038Y12889D01*
X12038Y12889D01*
X12038Y12888D01*
X12039Y12888D01*
X12039Y12888D01*
X12039Y12888D01*
X12039Y12888D01*
X12039Y12888D01*
X12040Y12888D01*
X12040Y12888D01*
X12040Y12888D01*
X12040Y12888D01*
X12041D01*
X12041Y12888D01*
X12042Y12888D01*
X12042Y12888D01*
X12042Y12888D01*
X12043Y12888D01*
X12043Y12888D01*
X12043Y12888D01*
X12043Y12888D01*
X12043Y12889D01*
X12043Y12889D01*
X12043Y12889D01*
X12043Y12889D01*
X12043Y12890D01*
X12043Y12890D01*
Y12890D01*
Y12890D01*
Y12890D01*
Y12890D01*
Y12890D01*
Y12890D01*
X12043Y12891D01*
Y12891D01*
Y12891D01*
X12043Y12891D01*
X12043Y12891D01*
X12042Y12891D01*
X12042Y12891D01*
X12041Y12891D01*
X12041Y12891D01*
X12041Y12891D01*
X12041Y12891D01*
X12040Y12891D01*
X12040Y12891D01*
X12040D01*
X12040Y12891D01*
X12040D01*
X12040Y12891D01*
X12039Y12891D01*
X12039Y12891D01*
X12039Y12892D01*
X12039Y12892D01*
X12038Y12892D01*
X12038Y12892D01*
X12038D01*
X12038Y12892D01*
X12038Y12892D01*
X12037Y12892D01*
X12037Y12892D01*
X12037Y12892D01*
X12037Y12892D01*
X12037Y12892D01*
X12037Y12892D01*
X12037Y12892D01*
X12036Y12893D01*
X12036Y12893D01*
X12036Y12893D01*
X12036Y12893D01*
X12036Y12893D01*
X12036Y12893D01*
X12036Y12893D01*
X12036Y12894D01*
X12036Y12894D01*
X12036Y12894D01*
X12036Y12894D01*
X12035Y12895D01*
X12035Y12895D01*
Y12895D01*
Y12895D01*
X12035Y12895D01*
X12036Y12895D01*
X12036Y12896D01*
X12036Y12896D01*
X12036Y12897D01*
X12036Y12897D01*
X12036Y12897D01*
X12036Y12897D01*
X12036Y12897D01*
X12037Y12898D01*
X12037Y12898D01*
X12038Y12898D01*
X12038Y12898D01*
X12039Y12898D01*
X12039Y12898D01*
X12039D01*
X12039Y12898D01*
X12039D01*
X12040Y12898D01*
D02*
G37*
%LPC*%
G36*
X13862Y12814D02*
X13845D01*
X13850Y12801D01*
Y12801D01*
X13850Y12800D01*
X13851Y12800D01*
X13851Y12800D01*
X13851Y12799D01*
X13851Y12798D01*
X13851Y12798D01*
X13852Y12797D01*
X13852Y12795D01*
X13853Y12794D01*
X13853Y12792D01*
X13854Y12790D01*
Y12790D01*
X13854Y12790D01*
Y12791D01*
X13854Y12791D01*
X13854Y12792D01*
X13854Y12792D01*
X13855Y12793D01*
X13855Y12795D01*
X13855Y12796D01*
X13856Y12798D01*
X13857Y12800D01*
X13862Y12814D01*
D02*
G37*
G36*
X12040Y12897D02*
X12040D01*
X12039Y12897D01*
X12039Y12897D01*
X12039Y12896D01*
X12039Y12896D01*
X12038Y12896D01*
X12038Y12896D01*
X12038Y12896D01*
X12038Y12896D01*
X12038Y12896D01*
X12038Y12896D01*
X12038Y12895D01*
X12038Y12895D01*
X12038Y12895D01*
X12038Y12895D01*
Y12895D01*
Y12895D01*
X12038Y12895D01*
X12038Y12894D01*
X12038Y12894D01*
X12038Y12894D01*
X12038Y12894D01*
X12038Y12894D01*
X12038Y12894D01*
Y12894D01*
X12038Y12894D01*
X12038Y12893D01*
X12038Y12893D01*
X12038Y12893D01*
X12039Y12893D01*
X12039D01*
X12039Y12893D01*
X12039Y12893D01*
X12039Y12893D01*
X12040Y12893D01*
X12040Y12893D01*
X12040Y12893D01*
X12040Y12893D01*
X12040D01*
X12041Y12893D01*
X12041Y12893D01*
X12041Y12893D01*
X12042Y12893D01*
X12042Y12893D01*
X12042Y12893D01*
X12042Y12892D01*
X12043Y12892D01*
X12043Y12892D01*
X12043Y12892D01*
X12043Y12892D01*
X12043Y12892D01*
X12043Y12892D01*
X12043Y12892D01*
X12043Y12892D01*
X12043D01*
X12043Y12893D01*
X12043Y12893D01*
X12043Y12894D01*
X12043Y12894D01*
X12043Y12894D01*
X12043Y12895D01*
X12043Y12895D01*
X12043Y12895D01*
X12043Y12895D01*
X12043Y12895D01*
X12043Y12895D01*
X12043Y12896D01*
X12042Y12896D01*
X12042Y12896D01*
X12042Y12896D01*
X12042Y12896D01*
X12042Y12896D01*
X12042Y12896D01*
X12041Y12896D01*
X12041Y12897D01*
X12041Y12897D01*
X12040Y12897D01*
X12040Y12897D01*
D02*
G37*
G36*
X12011Y13964D02*
X11994D01*
X12000Y13950D01*
Y13950D01*
X12000Y13950D01*
X12000Y13950D01*
X12000Y13949D01*
X12000Y13949D01*
X12000Y13948D01*
X12001Y13947D01*
X12001Y13947D01*
X12001Y13945D01*
X12002Y13943D01*
X12003Y13941D01*
X12003Y13940D01*
Y13940D01*
X12003Y13940D01*
Y13940D01*
X12003Y13941D01*
X12003Y13941D01*
X12004Y13942D01*
X12004Y13943D01*
X12004Y13944D01*
X12005Y13946D01*
X12005Y13948D01*
X12006Y13949D01*
X12011Y13964D01*
D02*
G37*
G36*
X12074Y12891D02*
X12067D01*
X12067Y12891D01*
X12067Y12890D01*
X12068Y12890D01*
X12068Y12889D01*
X12068Y12889D01*
X12068Y12889D01*
X12068Y12889D01*
X12068Y12889D01*
X12069Y12888D01*
X12069Y12888D01*
X12069Y12888D01*
X12070Y12888D01*
X12070Y12888D01*
X12070Y12888D01*
X12070Y12888D01*
X12070D01*
X12071Y12888D01*
X12071Y12888D01*
X12071Y12888D01*
X12072Y12888D01*
X12072Y12888D01*
X12072Y12889D01*
X12073Y12889D01*
X12073Y12889D01*
X12073Y12889D01*
Y12889D01*
X12073Y12889D01*
X12073Y12890D01*
X12073Y12890D01*
X12073Y12890D01*
X12073Y12891D01*
X12074Y12891D01*
Y12891D01*
X12074Y12891D01*
Y12891D01*
Y12891D01*
D02*
G37*
G36*
X13598Y12814D02*
X13581D01*
X13586Y12801D01*
Y12801D01*
X13586Y12800D01*
X13587Y12800D01*
X13587Y12800D01*
X13587Y12799D01*
X13587Y12798D01*
X13587Y12798D01*
X13588Y12797D01*
X13588Y12795D01*
X13589Y12794D01*
X13589Y12792D01*
X13590Y12790D01*
Y12790D01*
X13590Y12790D01*
Y12791D01*
X13590Y12791D01*
X13590Y12792D01*
X13590Y12792D01*
X13591Y12793D01*
X13591Y12795D01*
X13591Y12796D01*
X13592Y12798D01*
X13593Y12800D01*
X13598Y12814D01*
D02*
G37*
G36*
X12854Y12590D02*
X12850Y12588D01*
X12849Y12588D01*
X12849Y12588D01*
X12848Y12588D01*
X12848Y12588D01*
X12847Y12588D01*
X12847Y12588D01*
X12847Y12587D01*
X12847Y12587D01*
X12847D01*
X12847Y12587D01*
X12847D01*
X12847Y12587D01*
X12848Y12587D01*
X12848Y12587D01*
X12849Y12587D01*
X12849Y12587D01*
X12849Y12587D01*
X12850Y12586D01*
X12850Y12586D01*
X12850Y12586D01*
X12850Y12586D01*
X12850Y12586D01*
X12850D01*
X12854Y12585D01*
Y12590D01*
D02*
G37*
%LPD*%
M02*
